<svg width="20" height="20" viewBox="0 0 20 20" fill="none" xmlns="http://www.w3.org/2000/svg">
<path d="M11.6814 0.679971C11.465 0.51764 11.1754 0.491528 10.9334 0.612523C10.6914 0.733517 10.5386 0.980847 10.5386 1.2514C10.5386 3.60121 9.97305 6.67613 7.10129 7.9035C6.713 7.33998 6.34214 6.38614 6.34214 5.0014C6.34214 4.75384 6.21396 4.52394 6.00337 4.3938C5.79279 4.26364 5.52983 4.25181 5.30842 4.36253C3.81452 5.10948 1.78857 7.233 1.78857 11.2514C1.78857 13.9452 2.80586 16.0181 4.37206 17.4103C5.92512 18.7908 7.97566 19.4657 10.0029 19.4657C12.03 19.4657 14.0806 18.7908 15.6336 17.4103C17.1998 16.0181 18.2171 13.9452 18.2171 11.2514C18.2171 5.86547 14.1727 2.54844 11.6814 0.679971Z" fill="#FF7C88"/>
<path d="M11.022 7.58491C10.8903 7.48843 10.714 7.47291 10.5667 7.54482C10.4194 7.61673 10.3264 7.76373 10.3264 7.92453C10.3264 9.32112 9.98212 11.1487 8.23408 11.8781C7.99774 11.5432 7.772 10.9763 7.772 10.1533C7.772 10.0062 7.69397 9.86953 7.56579 9.79218C7.4376 9.71482 7.27754 9.70779 7.14277 9.7736C6.23343 10.2175 5.00024 11.4796 5.00024 13.8679C5.00024 15.469 5.61946 16.701 6.57281 17.5284C7.51815 18.3489 8.76631 18.75 10.0003 18.75C11.2342 18.75 12.4824 18.3489 13.4277 17.5284C14.381 16.701 15.0002 15.469 15.0002 13.8679C15.0002 10.6669 12.5385 8.69541 11.022 7.58491Z" fill="#FFBEC4"/>
</svg>
