<svg width="20" height="20" viewBox="0 0 20 20" fill="none" xmlns="http://www.w3.org/2000/svg">
<g clip-path="url(#clip0_1054_24380)">
<path d="M19.5976 6.8396C19.1585 6.38043 18.4826 6.26293 17.9135 6.5471L16.1118 7.44377C15.8026 7.59793 15.6768 7.97293 15.831 8.28127C15.9518 8.52627 16.2135 8.6496 16.4701 8.61627L16.8251 11.3388L16.4151 12.0763C16.2468 12.3779 16.356 12.7579 16.6576 12.9263C16.7535 12.9796 16.8576 13.0054 16.961 13.0054C17.1801 13.0054 17.3935 12.8896 17.5076 12.6838L19.8143 8.53543C20.1276 7.97127 20.0435 7.30543 19.5976 6.8396Z" fill="#CBFFF5"/>
<path d="M3.8884 7.44302L2.0884 6.54719C1.51757 6.26219 0.841735 6.37969 0.402569 6.83969C-0.0432646 7.30636 -0.128265 7.97136 0.185902 8.53469L2.49257 12.6839C2.60674 12.8897 2.82007 13.0055 3.03924 13.0055C3.14257 13.0055 3.24674 12.9805 3.34257 12.9264C3.64424 12.7589 3.7534 12.378 3.58507 12.0764L3.17507 11.338L3.53007 8.61552C3.78757 8.64969 4.04757 8.52636 4.16924 8.28052C4.32257 7.97219 4.19757 7.59719 3.8884 7.44302Z" fill="#CBFFF5"/>
<path d="M17.0773 5.91044C16.6116 2.5421 13.5689 0.00146484 10.0009 0.00146484C6.43297 0.00146484 3.39023 2.5421 2.92454 5.91044L1.26399 17.9159C1.18871 18.4536 1.43206 18.9787 1.8995 19.2888C2.36781 19.5989 2.97181 19.633 3.47339 19.378L5.24861 18.4786C5.54886 18.3269 5.91126 18.3219 6.21588 18.4669L8.94087 19.7647C9.27263 19.9223 9.63678 20.0015 10.0001 20.0015C10.3633 20.0015 10.7283 19.9223 11.0592 19.7647L13.7842 18.4669C14.0906 18.3219 14.453 18.3269 14.7524 18.4786L16.5276 19.378C17.0327 19.633 17.6349 19.5989 18.1015 19.2888C18.5689 18.9787 18.8123 18.4536 18.737 17.9168L17.0773 5.91044Z" fill="#CBFFF5"/>
<path fill-rule="evenodd" clip-rule="evenodd" d="M7.00928 3.75146C6.30909 3.75146 5.74146 4.30612 5.74146 4.99031C5.74146 5.6745 6.30907 6.22916 7.00926 6.22916L7.01227 6.22915C7.71107 6.22757 8.27707 5.67352 8.27707 4.99031C8.27707 4.30612 7.70945 3.75146 7.00928 3.75146ZM11.72 4.99031C11.72 4.30612 12.2877 3.75146 12.9878 3.75146C13.688 3.75146 14.2556 4.30612 14.2556 4.99031C14.2556 5.67352 13.6897 6.22756 12.9908 6.22915L12.9878 6.22916C12.2877 6.22916 11.72 5.6745 11.72 4.99031Z" fill="#216E74"/>
<path d="M11.4583 12.0833C10.31 12.0833 9.375 11.1483 9.375 10V9.375C9.375 9.03 9.655 8.75 10 8.75H12.9167C13.2617 8.75 13.5417 9.03 13.5417 9.375V10C13.5417 11.1483 12.6067 12.0833 11.4583 12.0833Z" fill="#FF7C88"/>
<path d="M13.5421 10H6.45874C6.11374 10 5.83374 9.72 5.83374 9.375C5.83374 9.03 6.11374 8.75 6.45874 8.75H13.5421C13.8871 8.75 14.1671 9.03 14.1671 9.375C14.1671 9.72 13.8871 10 13.5421 10Z" fill="#216E74"/>
</g>
<defs>
<clipPath id="clip0_1054_24380">
<rect width="20" height="20" fill="white"/>
</clipPath>
</defs>
</svg>
