<svg width="20" height="20" viewBox="0 0 20 20" fill="none" xmlns="http://www.w3.org/2000/svg">
<g clip-path="url(#clip0_1054_24339)">
<path fill-rule="evenodd" clip-rule="evenodd" d="M10 0C15.5229 0 20 4.47716 20 10C20 15.5229 15.5229 20 10 20C4.47716 20 0 15.5229 0 10C0 4.47716 4.47716 0 10 0Z" fill="#CBFFF5"/>
<path fill-rule="evenodd" clip-rule="evenodd" d="M5 4.93423C5.01349 3.998 6.03909 3.12951 7.01046 4.35181C7.98182 3.12951 9.00743 3.998 9.02093 4.93423C9.02093 6.328 7.39483 7.47199 7.01046 7.47199C6.62608 7.47199 5 6.328 5 4.93423ZM12.9895 4.35181C13.9609 3.12951 14.9865 3.998 15 4.93423C15 6.328 13.3739 7.47199 12.9895 7.47199C12.6052 7.47199 10.9791 6.328 10.9791 4.93423C10.9926 3.998 12.0182 3.12951 12.9895 4.35181ZM13.2063 8.8737C12.8799 8.78365 12.5442 8.98194 12.4564 9.31661C12.1648 10.4278 11.1748 11.2449 10.0003 11.2449C8.82573 11.2449 7.83572 10.4278 7.54414 9.31661C7.45632 8.98194 7.12058 8.78365 6.79425 8.8737C6.46791 8.96377 6.27455 9.30809 6.36237 9.64276C6.79412 11.2881 8.25841 12.5 10.0003 12.5C11.7421 12.5 13.2064 11.2881 13.6381 9.64276C13.726 9.30809 13.5326 8.96377 13.2063 8.8737Z" fill="#216E74"/>
</g>
<defs>
<clipPath id="clip0_1054_24339">
<rect width="20" height="20" fill="white"/>
</clipPath>
</defs>
</svg>
