<svg width="20" height="20" viewBox="0 0 20 20" fill="none" xmlns="http://www.w3.org/2000/svg">
<g clip-path="url(#clip0_1054_24388)">
<path fill-rule="evenodd" clip-rule="evenodd" d="M10 0C4.47716 0 0 4.47716 0 10C0 15.5229 4.47716 20 10 20C15.5229 20 20 15.5229 20 10C20 4.47716 15.5229 0 10 0Z" fill="#CBFFF5"/>
<path fill-rule="evenodd" clip-rule="evenodd" d="M12.669 4.28572C12.669 4.28572 12.68 4.28549 12.6993 4.28666C12.7208 4.28796 12.7492 4.29066 12.7844 4.29553C12.8553 4.30535 12.943 4.32252 13.0407 4.34833C13.24 4.40105 13.4468 4.48072 13.6157 4.57822C13.7845 4.6757 13.957 4.81496 14.1023 4.96126C14.1735 5.03292 14.2322 5.10026 14.2761 5.15678C14.2979 5.18482 14.3145 5.20813 14.3264 5.22602C14.3378 5.24338 14.3424 5.25199 14.3424 5.25199C14.5678 5.69061 15.1059 5.86338 15.5445 5.63803C15.9832 5.4127 16.1561 4.87446 15.9307 4.43585C15.8034 4.18796 15.5915 3.92653 15.3691 3.70276C15.1375 3.46955 14.8419 3.22423 14.5085 3.03175C14.1751 2.83925 13.8149 2.70598 13.4971 2.62195C13.1922 2.54132 12.8598 2.48849 12.5815 2.50215C12.0889 2.52631 11.7093 2.94516 11.7334 3.43768C11.7576 3.93021 12.1764 4.30989 12.669 4.28572ZM5.65697 5.25186C5.65697 5.25186 5.66228 5.24218 5.67296 5.22602C5.68479 5.20813 5.70137 5.18482 5.72318 5.15678C5.76715 5.10026 5.82585 5.03292 5.89704 4.96126C6.04237 4.81496 6.21477 4.6757 6.38362 4.57822C6.55249 4.48072 6.75929 4.40105 6.95865 4.34833C7.05629 4.32252 7.14397 4.30536 7.21489 4.29553C7.25009 4.29066 7.27856 4.28796 7.29998 4.28666C7.31932 4.28549 7.33035 4.28573 7.33035 4.28573C7.82288 4.30989 8.24174 3.93021 8.26589 3.43768C8.29005 2.94516 7.91036 2.52631 7.41785 2.50215C7.13951 2.48851 6.80714 2.54132 6.50219 2.62195C6.18439 2.70598 5.82418 2.83925 5.49077 3.03175C5.15737 3.22423 4.86184 3.46955 4.63017 3.70276C4.40787 3.92653 4.19594 4.18796 4.06859 4.43585C3.84325 4.87446 4.01615 5.4127 4.45477 5.63803C4.89338 5.86338 5.43162 5.69048 5.65697 5.25186ZM13.9714 11.379V13.9084C13.9714 14.8799 13.1839 15.6673 12.2125 15.6673C11.2411 15.6673 10.4536 14.8799 10.4536 13.9084V13.048C10.2988 13.0593 10.1398 13.0651 9.97664 13.0651C8.14077 13.0651 6.83474 12.3267 5.99166 11.3899C5.16049 10.4664 4.77548 9.34528 4.77548 8.55599C4.77548 8.35875 4.93538 8.19885 5.13262 8.19885H14.8207C15.0179 8.19885 15.1778 8.35875 15.1778 8.55599C15.1778 9.34218 14.7958 10.4576 13.9714 11.379Z" fill="#216E74"/>
</g>
<defs>
<clipPath id="clip0_1054_24388">
<rect width="20" height="20" fill="white"/>
</clipPath>
</defs>
</svg>
