<svg width="20" height="20" viewBox="0 0 20 20" fill="none" xmlns="http://www.w3.org/2000/svg">
<g clip-path="url(#clip0_1054_24355)">
<path fill-rule="evenodd" clip-rule="evenodd" d="M10 0C15.5229 0 20 4.47716 20 10C20 15.5229 15.5229 20 10 20C4.47716 20 0 15.5229 0 10C0 4.47716 4.47716 0 10 0Z" fill="#CBFFF5"/>
<path fill-rule="evenodd" clip-rule="evenodd" d="M7.00857 3.75C6.30838 3.75 5.74075 4.30465 5.74075 4.98884C5.74075 5.67304 6.30837 6.22769 7.00856 6.22769L7.01157 6.22768C7.71037 6.22611 8.27637 5.67206 8.27637 4.98884C8.27637 4.30465 7.70875 3.75 7.00857 3.75ZM11.7193 4.98884C11.7193 4.30465 12.2869 3.75 12.9871 3.75C13.6873 3.75 14.2549 4.30465 14.2549 4.98884C14.2549 5.67206 13.6889 6.2261 12.9901 6.22768L12.9871 6.22769C12.287 6.22769 11.7193 5.67304 11.7193 4.98884ZM6.52047 8.38548C6.40947 7.98242 5.98512 7.74361 5.57264 7.85207C5.16016 7.96054 4.91576 8.37521 5.02676 8.77827C5.61699 10.9215 7.61887 12.5 10 12.5C12.3811 12.5 14.383 10.9215 14.9732 8.77827C15.0842 8.37521 14.8398 7.96054 14.4274 7.85207C14.0149 7.74361 13.5905 7.98242 13.4795 8.38548C13.0664 9.8854 11.6641 10.9884 10 10.9884C8.33594 10.9884 6.93354 9.8854 6.52047 8.38548Z" fill="#216E74"/>
</g>
<defs>
<clipPath id="clip0_1054_24355">
<rect width="20" height="20" fill="white"/>
</clipPath>
</defs>
</svg>
