<svg width="20" height="20" viewBox="0 0 20 20" fill="none" xmlns="http://www.w3.org/2000/svg">
<g clip-path="url(#clip0_1054_24343)">
<path fill-rule="evenodd" clip-rule="evenodd" d="M10 0C4.47716 0 0 4.47716 0 10C0 15.5229 4.47716 20 10 20C15.5229 20 20 15.5229 20 10C20 4.47716 15.5229 0 10 0Z" fill="#CBFFF5"/>
<path fill-rule="evenodd" clip-rule="evenodd" d="M13.4185 11.4591C13.6756 11.1598 13.6414 10.7089 13.3422 10.4518C13.0429 10.1947 12.592 10.2289 12.3349 10.5281C12.2375 10.6415 12.1277 10.7468 12.0074 10.842C11.8097 10.9985 11.5862 11.1255 11.3481 11.2153C11.2262 11.2473 11.1023 11.2674 10.9779 11.2761C10.5843 11.3035 10.2876 11.6448 10.315 12.0382C10.3424 12.4318 10.6837 12.7287 11.0772 12.7012C11.3041 12.6854 11.5318 12.6471 11.757 12.5845C11.7749 12.5797 11.7925 12.5739 11.8099 12.5677C12.2033 12.4245 12.5703 12.2184 12.894 11.9622C13.0842 11.8117 13.2603 11.6431 13.4185 11.4591Z" fill="#216E74"/>
<path d="M9.9997 2.5H1.19971C0.464297 2.5 -0.13176 3.10081 0.0253142 3.81926C0.437024 5.70239 1.74383 8.24546 4.93421 8.24546C8.94667 8.24546 9.9798 4.223 10 2.54983C10.0202 4.223 11.0533 8.24546 15.0657 8.24546C18.2561 8.24546 19.563 5.70239 19.9747 3.81926C20.1317 3.10081 19.5357 2.5 18.8003 2.5H9.9997Z" fill="#216E74"/>
<path d="M7.42432 2.5L7.08447 3.62109C7.0651 3.68525 7.11315 3.74995 7.18018 3.75H8.5835C8.65874 3.75 8.70729 3.82996 8.67236 3.89648L6.49072 8.01074C6.02976 8.15921 5.51329 8.24512 4.93408 8.24512C4.66529 8.24511 4.41012 8.2256 4.16748 8.19141L5.82861 5.14746C5.86453 5.08093 5.81642 5.00006 5.74072 5H4.34424C4.27587 4.99997 4.22775 4.93289 4.24951 4.86816L5.05713 2.5H7.42432Z" fill="#5CA7AD"/>
<path d="M17.4246 2.5L17.0847 3.62109C17.0653 3.6853 17.1133 3.75 17.1804 3.75H18.5837C18.6589 3.75 18.7074 3.82998 18.6726 3.89648L16.4636 8.05957C16.0437 8.17796 15.5795 8.24508 15.0662 8.24512C14.7523 8.24512 14.4568 8.21804 14.1785 8.17188L15.8289 5.14746C15.8646 5.08102 15.8165 5.00023 15.741 5H14.3445C14.2761 5 14.2279 4.93293 14.2498 4.86816L15.0574 2.5H17.4246Z" fill="#5CA7AD"/>
</g>
<defs>
<clipPath id="clip0_1054_24343">
<rect width="20" height="20" fill="white"/>
</clipPath>
</defs>
</svg>
