<svg width="20" height="20" viewBox="0 0 20 20" fill="none" xmlns="http://www.w3.org/2000/svg">
<g clip-path="url(#clip0_1054_24392)">
<path d="M7.22168 5.00098C7.28844 5.00192 7.35509 5.01011 7.41992 5.02734C7.50132 5.04901 7.57999 5.0834 7.65234 5.13086C7.69695 5.16011 7.7392 5.19432 7.77832 5.2334C8.06448 5.52266 8.34082 5.82199 8.6123 6.125C9.107 6.67716 9.76854 7.45382 10.4316 8.34863C11.093 9.24096 11.7679 10.2665 12.2803 11.3164C12.7873 12.3553 13.167 13.4823 13.167 14.5596C13.167 14.5742 13.1669 14.5889 13.166 14.6035C13.0823 16.1126 12.404 17.5272 11.2803 18.5381C10.1247 19.5776 8.37231 20 7.20801 20C6.04373 19.9999 4.29216 19.5775 3.13672 18.5381C2.01296 17.5272 1.3347 16.1126 1.25098 14.6035C1.25018 14.5889 1.25001 14.5742 1.25 14.5596C1.25 13.4823 1.6297 12.3553 2.13672 11.3164C2.6491 10.2665 3.32406 9.24097 3.98535 8.34863C4.64848 7.45382 5.30999 6.67716 5.80469 6.125C6.07492 5.82338 6.34942 5.52481 6.63477 5.2373C6.79203 5.08011 7.00016 5.00051 7.20801 5C7.21249 4.99999 7.2172 5.00091 7.22168 5.00098Z" fill="#5DD0BB"/>
<path d="M15.625 0C15.7062 -0.000151784 15.7873 0.0225229 15.8574 0.0683594C15.8809 0.0837075 15.9032 0.101539 15.9238 0.12207C16.0739 0.273759 16.219 0.430948 16.3613 0.589844C16.6207 0.879388 16.9677 1.28665 17.3154 1.75586C17.6623 2.22383 18.0164 2.76189 18.2852 3.3125C18.5511 3.85737 18.75 4.44868 18.75 5.01367C18.75 5.02138 18.7495 5.02942 18.749 5.03711C18.705 5.82841 18.35 6.57047 17.7607 7.10059C17.1547 7.64575 16.2356 7.86719 15.625 7.86719L15.3828 7.85645C14.7896 7.8066 14.0196 7.57761 13.4893 7.10059C12.9 6.57047 12.545 5.82841 12.501 5.03711C12.5006 5.02942 12.5 5.02138 12.5 5.01367C12.5 4.44868 12.6989 3.85737 12.9648 3.3125C13.2336 2.76189 13.5878 2.22383 13.9346 1.75586C14.2823 1.28665 14.6293 0.879386 14.8887 0.589844C15.0304 0.431625 15.1745 0.274832 15.3242 0.124023C15.4067 0.0416108 15.516 0.000204632 15.625 0Z" fill="#CBFFF5"/>
</g>
<defs>
<clipPath id="clip0_1054_24392">
<rect width="20" height="20" fill="white"/>
</clipPath>
</defs>
</svg>
