<svg width="160" height="200" viewBox="0 0 160 200" fill="none" xmlns="http://www.w3.org/2000/svg">
<g clip-path="url(#clip0_1946_7500)">
<rect width="160" height="200" fill="#2A2F39"/>
<g opacity="0.15">
<g filter="url(#filter0_f_1946_7500)">
<ellipse cx="65.5102" cy="51.4793" rx="65.5102" ry="51.4793" transform="matrix(-0.79723 0.603676 -0.765335 -0.643632 247.251 108.267)" fill="#FDFF97"/>
</g>
<g filter="url(#filter1_f_1946_7500)">
<ellipse cx="48.0326" cy="37.745" rx="48.0326" ry="37.745" transform="matrix(-0.79723 0.603676 -0.765335 -0.643632 130.985 125.264)" fill="#2EEAE1"/>
</g>
<g filter="url(#filter2_f_1946_7500)">
<ellipse cx="42.7542" cy="34.6069" rx="42.7542" ry="34.6069" transform="matrix(-0.79723 0.603676 -0.765335 -0.643632 238.837 132.107)" fill="#D591FD"/>
</g>
<g filter="url(#filter3_f_1946_7500)">
<ellipse cx="38.1616" cy="42.6026" rx="38.1616" ry="42.6026" transform="matrix(-0.700032 0.714111 -0.886065 -0.463561 161.43 164.495)" fill="#FFD7F6"/>
</g>
</g>
<g filter="url(#filter4_ii_1946_7500)">
<path d="M91.642 57.7172L92.5869 59.9661C93.3784 61.8497 93.3071 63.7792 92.3766 65.2783C91.8085 66.2407 90.911 66.957 89.8538 67.4012C89.2003 67.6758 88.5064 67.8542 87.7368 67.9062L75.9503 68.8106L83.8083 87.5125C85.9242 92.5484 83.5503 98.3627 78.5144 100.479C73.4785 102.594 67.6643 100.221 65.5484 95.1847C63.4325 90.1488 65.8064 84.3346 70.8422 82.2187C73.2641 81.2011 75.8591 81.2415 78.1389 82.0927L69.6187 61.8146C68.8354 59.9502 68.9258 58.0126 69.8483 56.4943C70.7788 54.9953 72.4583 54.0408 74.4689 53.8745L84.1598 53.1496C87.1372 52.9162 90.4872 54.9686 91.642 57.7172Z" fill="url(#paint0_linear_1946_7500)"/>
<path d="M91.642 57.7172L92.5869 59.9661C93.3784 61.8497 93.3071 63.7792 92.3766 65.2783C91.8085 66.2407 90.911 66.957 89.8538 67.4012C89.2003 67.6758 88.5064 67.8542 87.7368 67.9062L75.9503 68.8106L83.8083 87.5125C85.9242 92.5484 83.5503 98.3627 78.5144 100.479C73.4785 102.594 67.6643 100.221 65.5484 95.1847C63.4325 90.1488 65.8064 84.3346 70.8422 82.2187C73.2641 81.2011 75.8591 81.2415 78.1389 82.0927L69.6187 61.8146C68.8354 59.9502 68.9258 58.0126 69.8483 56.4943C70.7788 54.9953 72.4583 54.0408 74.4689 53.8745L84.1598 53.1496C87.1372 52.9162 90.4872 54.9686 91.642 57.7172Z" fill="url(#paint1_radial_1946_7500)"/>
<g filter="url(#filter5_f_1946_7500)">
<ellipse cx="74.8308" cy="84.9179" rx="2.0112" ry="1.28376" transform="rotate(-177.36 74.8308 84.9179)" fill="white" fill-opacity="0.7"/>
</g>
<g filter="url(#filter6_f_1946_7500)">
<ellipse cx="85.9044" cy="56.3507" rx="1.62789" ry="0.857236" transform="rotate(-161.255 85.9044 56.3507)" fill="white" fill-opacity="0.7"/>
</g>
<g filter="url(#filter7_f_1946_7500)">
<path d="M79.0013 55.7068C78.9936 55.4238 80.0308 55.166 81.318 55.1311C82.6051 55.0962 83.6548 55.2973 83.6624 55.5803C83.6701 55.8634 82.6329 56.1211 81.3458 56.156C80.0587 56.191 79.009 55.9898 79.0013 55.7068Z" fill="white" fill-opacity="0.6"/>
</g>
</g>
<g filter="url(#filter8_ii_1946_7500)">
<path d="M45.0064 110.039C45.3934 110.395 45.5414 110.931 45.3928 111.436C45.2437 111.942 44.8293 112.311 44.3101 112.402L39.6936 113.204C39.4969 113.238 39.3298 113.366 39.2466 113.548L37.2909 117.805C37.0713 118.284 36.6072 118.59 36.0808 118.604C35.5549 118.619 35.0745 118.339 34.8287 117.874L32.6395 113.731C32.5464 113.554 32.372 113.435 32.1738 113.412L27.5198 112.867C26.9968 112.806 26.5621 112.46 26.3853 111.963C26.2089 111.467 26.3269 110.924 26.6936 110.546L29.9566 107.184C30.0957 107.041 30.1557 106.838 30.1165 106.643L29.1972 102.049C29.1158 101.644 29.2114 101.246 29.4657 100.927C29.8608 100.43 30.5701 100.262 31.1488 100.546L35.3546 102.611C35.5304 102.697 35.7485 102.69 35.9189 102.595L40.0041 100.301C40.2028 100.189 40.4164 100.129 40.6383 100.123C41.0435 100.112 41.4326 100.281 41.7054 100.588C41.9774 100.892 42.0946 101.285 42.0357 101.692L41.3722 106.33C41.3439 106.528 41.4151 106.727 41.5619 106.862L45.0064 110.039Z" fill="url(#paint2_linear_1946_7500)"/>
<path d="M45.0064 110.039C45.3934 110.395 45.5414 110.931 45.3928 111.436C45.2437 111.942 44.8293 112.311 44.3101 112.402L39.6936 113.204C39.4969 113.238 39.3298 113.366 39.2466 113.548L37.2909 117.805C37.0713 118.284 36.6072 118.59 36.0808 118.604C35.5549 118.619 35.0745 118.339 34.8287 117.874L32.6395 113.731C32.5464 113.554 32.372 113.435 32.1738 113.412L27.5198 112.867C26.9968 112.806 26.5621 112.46 26.3853 111.963C26.2089 111.467 26.3269 110.924 26.6936 110.546L29.9566 107.184C30.0957 107.041 30.1557 106.838 30.1165 106.643L29.1972 102.049C29.1158 101.644 29.2114 101.246 29.4657 100.927C29.8608 100.43 30.5701 100.262 31.1488 100.546L35.3546 102.611C35.5304 102.697 35.7485 102.69 35.9189 102.595L40.0041 100.301C40.2028 100.189 40.4164 100.129 40.6383 100.123C41.0435 100.112 41.4326 100.281 41.7054 100.588C41.9774 100.892 42.0946 101.285 42.0357 101.692L41.3722 106.33C41.3439 106.528 41.4151 106.727 41.5619 106.862L45.0064 110.039Z" fill="url(#paint3_radial_1946_7500)"/>
</g>
<g filter="url(#filter9_f_1946_7500)">
<ellipse cx="0.827974" cy="2.83058" rx="0.827974" ry="2.83058" transform="matrix(-0.506129 -0.862458 -0.862458 0.506129 38.3013 105.186)" fill="white"/>
</g>
<g filter="url(#filter10_d_1946_7500)">
<g filter="url(#filter11_ii_1946_7500)">
<path d="M165.585 117.562L138.312 171.058C133.533 180.432 122.025 184.168 112.651 179.389C103.325 174.634 99.5417 163.102 104.321 153.729C109.075 144.402 120.631 140.69 129.957 145.445C133.934 147.472 136.784 150.656 138.514 154.4L152.874 126.232L102.949 116.406L83.4716 154.611C78.6927 163.985 67.1375 167.697 57.8112 162.942C48.4376 158.163 44.7015 146.655 49.4804 137.281C54.2352 127.955 65.743 124.219 75.1166 128.998C79.046 131.001 81.8967 134.184 83.6501 137.882L104.986 96.0317C108.534 89.0725 115.499 85.8237 123.091 87.4279L154.268 93.8984C160.58 95.2074 165.001 98.1176 167.011 102.364C169.094 106.586 168.578 111.692 165.585 117.562Z" fill="url(#paint4_linear_1946_7500)"/>
<path d="M165.585 117.562L138.312 171.058C133.533 180.432 122.025 184.168 112.651 179.389C103.325 174.634 99.5417 163.102 104.321 153.729C109.075 144.402 120.631 140.69 129.957 145.445C133.934 147.472 136.784 150.656 138.514 154.4L152.874 126.232L102.949 116.406L83.4716 154.611C78.6927 163.985 67.1375 167.697 57.8112 162.942C48.4376 158.163 44.7015 146.655 49.4804 137.281C54.2352 127.955 65.743 124.219 75.1166 128.998C79.046 131.001 81.8967 134.184 83.6501 137.882L104.986 96.0317C108.534 89.0725 115.499 85.8237 123.091 87.4279L154.268 93.8984C160.58 95.2074 165.001 98.1176 167.011 102.364C169.094 106.586 168.578 111.692 165.585 117.562Z" fill="url(#paint5_radial_1946_7500)"/>
</g>
<g filter="url(#filter12_f_1946_7500)">
<ellipse cx="116.664" cy="95.7904" rx="3.32519" ry="7.04093" transform="rotate(-125.422 116.664 95.7904)" fill="white" fill-opacity="0.88"/>
</g>
<g filter="url(#filter13_f_1946_7500)">
<ellipse cx="125.559" cy="149.558" rx="1.82666" ry="1.84224" transform="rotate(-125.422 125.559 149.558)" fill="white" fill-opacity="0.25"/>
</g>
<g filter="url(#filter14_f_1946_7500)">
<ellipse cx="70.6883" cy="133.829" rx="1.07277" ry="3.66747" transform="rotate(-58.5728 70.6883 133.829)" fill="white" fill-opacity="0.68"/>
</g>
<g filter="url(#filter15_f_1946_7500)">
<path d="M61.9473 136.361C59.8015 137.053 57.6049 136.197 57.0411 134.45C56.4774 132.702 57.7598 130.724 59.9057 130.032C62.0515 129.339 64.2481 130.195 64.8119 131.943C65.3756 133.691 64.0932 135.669 61.9473 136.361Z" fill="white" fill-opacity="0.6"/>
</g>
<g filter="url(#filter16_f_1946_7500)">
<path d="M114.15 147.597C115.89 146.164 118.248 146.151 119.415 147.568C120.583 148.985 120.119 151.297 118.379 152.73C116.639 154.164 114.281 154.177 113.114 152.76C111.946 151.342 112.41 149.031 114.15 147.597Z" fill="white" fill-opacity="0.8"/>
</g>
</g>
</g>
<defs>
<filter id="filter0_f_1946_7500" x="18.0412" y="-9.07356" width="275.169" height="247.507" filterUnits="userSpaceOnUse" color-interpolation-filters="sRGB">
<feFlood flood-opacity="0" result="BackgroundImageFix"/>
<feBlend mode="normal" in="SourceGraphic" in2="BackgroundImageFix" result="shape"/>
<feGaussianBlur stdDeviation="36.0798" result="effect1_foregroundBlur_1946_7500"/>
</filter>
<filter id="filter1_f_1946_7500" x="-56.3245" y="19.9772" width="240.258" height="219.977" filterUnits="userSpaceOnUse" color-interpolation-filters="sRGB">
<feFlood flood-opacity="0" result="BackgroundImageFix"/>
<feBlend mode="normal" in="SourceGraphic" in2="BackgroundImageFix" result="shape"/>
<feGaussianBlur stdDeviation="36.0798" result="effect1_foregroundBlur_1946_7500"/>
</filter>
<filter id="filter2_f_1946_7500" x="62.9386" y="29.3903" width="230.655" height="212.505" filterUnits="userSpaceOnUse" color-interpolation-filters="sRGB">
<feFlood flood-opacity="0" result="BackgroundImageFix"/>
<feBlend mode="normal" in="SourceGraphic" in2="BackgroundImageFix" result="shape"/>
<feGaussianBlur stdDeviation="36.0798" result="effect1_foregroundBlur_1946_7500"/>
</filter>
<filter id="filter3_f_1946_7500" x="-13.1822" y="74.4398" width="220.298" height="195.115" filterUnits="userSpaceOnUse" color-interpolation-filters="sRGB">
<feFlood flood-opacity="0" result="BackgroundImageFix"/>
<feBlend mode="normal" in="SourceGraphic" in2="BackgroundImageFix" result="shape"/>
<feGaussianBlur stdDeviation="31.95" result="effect1_foregroundBlur_1946_7500"/>
</filter>
<filter id="filter4_ii_1946_7500" x="64.2165" y="53.1318" width="28.9153" height="49.3311" filterUnits="userSpaceOnUse" color-interpolation-filters="sRGB">
<feFlood flood-opacity="0" result="BackgroundImageFix"/>
<feBlend mode="normal" in="SourceGraphic" in2="BackgroundImageFix" result="shape"/>
<feColorMatrix in="SourceAlpha" type="matrix" values="0 0 0 0 0 0 0 0 0 0 0 0 0 0 0 0 0 0 127 0" result="hardAlpha"/>
<feOffset dx="-0.558387"/>
<feGaussianBlur stdDeviation="2.14048"/>
<feComposite in2="hardAlpha" operator="arithmetic" k2="-1" k3="1"/>
<feColorMatrix type="matrix" values="0 0 0 0 1 0 0 0 0 1 0 0 0 0 1 0 0 0 1 0"/>
<feBlend mode="normal" in2="shape" result="effect1_innerShadow_1946_7500"/>
<feColorMatrix in="SourceAlpha" type="matrix" values="0 0 0 0 0 0 0 0 0 0 0 0 0 0 0 0 0 0 127 0" result="hardAlpha"/>
<feOffset dy="1.21094"/>
<feGaussianBlur stdDeviation="2.05859"/>
<feComposite in2="hardAlpha" operator="arithmetic" k2="-1" k3="1"/>
<feColorMatrix type="matrix" values="0 0 0 0 1 0 0 0 0 1 0 0 0 0 1 0 0 0 0.65 0"/>
<feBlend mode="normal" in2="effect1_innerShadow_1946_7500" result="effect2_innerShadow_1946_7500"/>
</filter>
<filter id="filter5_f_1946_7500" x="71.94" y="82.751" width="5.7817" height="4.33395" filterUnits="userSpaceOnUse" color-interpolation-filters="sRGB">
<feFlood flood-opacity="0" result="BackgroundImageFix"/>
<feBlend mode="normal" in="SourceGraphic" in2="BackgroundImageFix" result="shape"/>
<feGaussianBlur stdDeviation="0.440421" result="effect1_foregroundBlur_1946_7500"/>
</filter>
<filter id="filter6_f_1946_7500" x="83.457" y="54.5039" width="4.8945" height="3.69333" filterUnits="userSpaceOnUse" color-interpolation-filters="sRGB">
<feFlood flood-opacity="0" result="BackgroundImageFix"/>
<feBlend mode="normal" in="SourceGraphic" in2="BackgroundImageFix" result="shape"/>
<feGaussianBlur stdDeviation="0.440421" result="effect1_foregroundBlur_1946_7500"/>
</filter>
<filter id="filter7_f_1946_7500" x="78.561" y="54.6865" width="5.54198" height="1.91405" filterUnits="userSpaceOnUse" color-interpolation-filters="sRGB">
<feFlood flood-opacity="0" result="BackgroundImageFix"/>
<feBlend mode="normal" in="SourceGraphic" in2="BackgroundImageFix" result="shape"/>
<feGaussianBlur stdDeviation="0.220211" result="effect1_foregroundBlur_1946_7500"/>
</filter>
<filter id="filter8_ii_1946_7500" x="25.5748" y="99.6355" width="19.8749" height="18.97" filterUnits="userSpaceOnUse" color-interpolation-filters="sRGB">
<feFlood flood-opacity="0" result="BackgroundImageFix"/>
<feBlend mode="normal" in="SourceGraphic" in2="BackgroundImageFix" result="shape"/>
<feColorMatrix in="SourceAlpha" type="matrix" values="0 0 0 0 0 0 0 0 0 0 0 0 0 0 0 0 0 0 127 0" result="hardAlpha"/>
<feOffset dy="-0.4866"/>
<feGaussianBlur stdDeviation="3.1629"/>
<feComposite in2="hardAlpha" operator="arithmetic" k2="-1" k3="1"/>
<feColorMatrix type="matrix" values="0 0 0 0 1 0 0 0 0 1 0 0 0 0 1 0 0 0 0.7 0"/>
<feBlend mode="normal" in2="shape" result="effect1_innerShadow_1946_7500"/>
<feColorMatrix in="SourceAlpha" type="matrix" values="0 0 0 0 0 0 0 0 0 0 0 0 0 0 0 0 0 0 127 0" result="hardAlpha"/>
<feOffset dx="-0.7299"/>
<feGaussianBlur stdDeviation="2.79795"/>
<feComposite in2="hardAlpha" operator="arithmetic" k2="-1" k3="1"/>
<feColorMatrix type="matrix" values="0 0 0 0 1 0 0 0 0 1 0 0 0 0 1 0 0 0 1 0"/>
<feBlend mode="normal" in2="effect1_innerShadow_1946_7500" result="effect2_innerShadow_1946_7500"/>
</filter>
<filter id="filter9_f_1946_7500" x="30.5304" y="101.87" width="9.82108" height="8.06815" filterUnits="userSpaceOnUse" color-interpolation-filters="sRGB">
<feFlood flood-opacity="0" result="BackgroundImageFix"/>
<feBlend mode="normal" in="SourceGraphic" in2="BackgroundImageFix" result="shape"/>
<feGaussianBlur stdDeviation="1.2165" result="effect1_foregroundBlur_1946_7500"/>
</filter>
<filter id="filter10_d_1946_7500" x="32.829" y="84.1527" width="150.013" height="123.587" filterUnits="userSpaceOnUse" color-interpolation-filters="sRGB">
<feFlood flood-opacity="0" result="BackgroundImageFix"/>
<feColorMatrix in="SourceAlpha" type="matrix" values="0 0 0 0 0 0 0 0 0 0 0 0 0 0 0 0 0 0 127 0" result="hardAlpha"/>
<feOffset dy="11.6997"/>
<feGaussianBlur stdDeviation="7.28572"/>
<feComposite in2="hardAlpha" operator="out"/>
<feColorMatrix type="matrix" values="0 0 0 0 0.247507 0 0 0 0 0.000606306 0 0 0 0 0.780292 0 0 0 0.09 0"/>
<feBlend mode="multiply" in2="BackgroundImageFix" result="effect1_dropShadow_1946_7500"/>
<feBlend mode="normal" in="SourceGraphic" in2="effect1_dropShadow_1946_7500" result="shape"/>
</filter>
<filter id="filter11_ii_1946_7500" x="47.4004" y="85.6155" width="120.871" height="97.9667" filterUnits="userSpaceOnUse" color-interpolation-filters="sRGB">
<feFlood flood-opacity="0" result="BackgroundImageFix"/>
<feBlend mode="normal" in="SourceGraphic" in2="BackgroundImageFix" result="shape"/>
<feColorMatrix in="SourceAlpha" type="matrix" values="0 0 0 0 0 0 0 0 0 0 0 0 0 0 0 0 0 0 127 0" result="hardAlpha"/>
<feOffset dy="2.1134"/>
<feGaussianBlur stdDeviation="1.40894"/>
<feComposite in2="hardAlpha" operator="arithmetic" k2="-1" k3="1"/>
<feColorMatrix type="matrix" values="0 0 0 0 1 0 0 0 0 1 0 0 0 0 1 0 0 0 0.69 0"/>
<feBlend mode="normal" in2="shape" result="effect1_innerShadow_1946_7500"/>
<feColorMatrix in="SourceAlpha" type="matrix" values="0 0 0 0 0 0 0 0 0 0 0 0 0 0 0 0 0 0 127 0" result="hardAlpha"/>
<feOffset dy="-1.40894"/>
<feGaussianBlur stdDeviation="5.21306"/>
<feComposite in2="hardAlpha" operator="arithmetic" k2="-1" k3="1"/>
<feColorMatrix type="matrix" values="0 0 0 0 1 0 0 0 0 1 0 0 0 0 1 0 0 0 1 0"/>
<feBlend mode="normal" in2="effect1_innerShadow_1946_7500" result="effect2_innerShadow_1946_7500"/>
</filter>
<filter id="filter12_f_1946_7500" x="104.11" y="84.3916" width="25.1089" height="22.7979" filterUnits="userSpaceOnUse" color-interpolation-filters="sRGB">
<feFlood flood-opacity="0" result="BackgroundImageFix"/>
<feBlend mode="normal" in="SourceGraphic" in2="BackgroundImageFix" result="shape"/>
<feGaussianBlur stdDeviation="3.25" result="effect1_foregroundBlur_1946_7500"/>
</filter>
<filter id="filter13_f_1946_7500" x="122.122" y="146.126" width="6.87432" height="6.86406" filterUnits="userSpaceOnUse" color-interpolation-filters="sRGB">
<feFlood flood-opacity="0" result="BackgroundImageFix"/>
<feBlend mode="normal" in="SourceGraphic" in2="BackgroundImageFix" result="shape"/>
<feGaussianBlur stdDeviation="0.8" result="effect1_foregroundBlur_1946_7500"/>
</filter>
<filter id="filter14_f_1946_7500" x="63.7088" y="127.908" width="13.9594" height="11.8412" filterUnits="userSpaceOnUse" color-interpolation-filters="sRGB">
<feFlood flood-opacity="0" result="BackgroundImageFix"/>
<feBlend mode="normal" in="SourceGraphic" in2="BackgroundImageFix" result="shape"/>
<feGaussianBlur stdDeviation="1.9" result="effect1_foregroundBlur_1946_7500"/>
</filter>
<filter id="filter15_f_1946_7500" x="51.0693" y="123.953" width="19.7145" height="18.4865" filterUnits="userSpaceOnUse" color-interpolation-filters="sRGB">
<feFlood flood-opacity="0" result="BackgroundImageFix"/>
<feBlend mode="normal" in="SourceGraphic" in2="BackgroundImageFix" result="shape"/>
<feGaussianBlur stdDeviation="2.91947" result="effect1_foregroundBlur_1946_7500"/>
</filter>
<filter id="filter16_f_1946_7500" x="106.631" y="140.675" width="19.2677" height="18.9786" filterUnits="userSpaceOnUse" color-interpolation-filters="sRGB">
<feFlood flood-opacity="0" result="BackgroundImageFix"/>
<feBlend mode="normal" in="SourceGraphic" in2="BackgroundImageFix" result="shape"/>
<feGaussianBlur stdDeviation="2.91947" result="effect1_foregroundBlur_1946_7500"/>
</filter>
<linearGradient id="paint0_linear_1946_7500" x1="72.9031" y1="103.072" x2="95.3716" y2="61.1836" gradientUnits="userSpaceOnUse">
<stop stop-color="#3E64E5"/>
<stop offset="0.403846" stop-color="#7CF1DC"/>
</linearGradient>
<radialGradient id="paint1_radial_1946_7500" cx="0" cy="0" r="1" gradientUnits="userSpaceOnUse" gradientTransform="translate(77.2211 67.8166) rotate(68.9271) scale(17.1535 23.7526)">
<stop stop-color="white"/>
<stop offset="0.480908" stop-color="white" stop-opacity="0"/>
</radialGradient>
<linearGradient id="paint2_linear_1946_7500" x1="35.499" y1="99.999" x2="39.999" y2="114.999" gradientUnits="userSpaceOnUse">
<stop offset="0.358668" stop-color="#FFFD9F"/>
<stop offset="1" stop-color="#0FF7FF"/>
</linearGradient>
<radialGradient id="paint3_radial_1946_7500" cx="0" cy="0" r="1" gradientTransform="matrix(10.2055 -10.9903 -11.4464 -9.75206 31.6902 113.813)" gradientUnits="userSpaceOnUse">
<stop stop-color="white"/>
<stop offset="0.464944" stop-color="white" stop-opacity="0"/>
</radialGradient>
<linearGradient id="paint4_linear_1946_7500" x1="126.736" y1="119.759" x2="125.61" y2="191.844" gradientUnits="userSpaceOnUse">
<stop stop-color="#EE8998"/>
<stop offset="0.894231" stop-color="#6B3FFF"/>
<stop offset="1" stop-color="#BEA0FF"/>
</linearGradient>
<radialGradient id="paint5_radial_1946_7500" cx="0" cy="0" r="1" gradientTransform="matrix(16.9025 83.177 -79.4404 26.0525 100.664 92.4582)" gradientUnits="userSpaceOnUse">
<stop stop-color="white"/>
<stop offset="0.464944" stop-color="white" stop-opacity="0"/>
</radialGradient>
<clipPath id="clip0_1946_7500">
<rect width="160" height="200" fill="white"/>
</clipPath>
</defs>
</svg>
