<svg width="162" height="80" viewBox="0 0 162 80" fill="none" xmlns="http://www.w3.org/2000/svg">
<g clip-path="url(#clip0_1946_7328)">
<rect width="161.5" height="80" fill="#1F2027"/>
<g filter="url(#filter0_d_1946_7328)">
<g filter="url(#filter1_ii_1946_7328)">
<path d="M148.509 48.3667L132.763 79.2522C130.004 84.664 123.344 86.8128 117.912 84.0437C112.508 81.2885 110.308 74.6223 113.067 69.2106C115.812 63.8261 122.499 61.6913 127.903 64.4464C130.208 65.6212 131.861 67.4628 132.866 69.6278L141.157 53.3651L112.241 47.6455L100.996 69.7026C98.2365 75.1144 91.549 77.2492 86.1448 74.4941C80.7133 71.7249 78.5402 65.0728 81.2992 59.661C84.0444 54.2765 90.7044 52.1277 96.136 54.8968C98.4129 56.0576 100.066 57.8992 101.085 60.0369L113.403 35.8752C115.451 31.8573 119.481 29.9862 123.879 30.9195L141.936 34.6847C145.592 35.4464 148.154 37.1316 149.322 39.5865C150.531 42.0281 150.237 44.9775 148.509 48.3667Z" fill="url(#paint0_linear_1946_7328)"/>
<path d="M148.509 48.3667L132.763 79.2522C130.004 84.664 123.344 86.8128 117.912 84.0437C112.508 81.2885 110.308 74.6223 113.067 69.2106C115.812 63.8261 122.499 61.6913 127.903 64.4464C130.208 65.6212 131.861 67.4628 132.866 69.6278L141.157 53.3651L112.241 47.6455L100.996 69.7026C98.2365 75.1144 91.549 77.2492 86.1448 74.4941C80.7133 71.7249 78.5402 65.0728 81.2992 59.661C84.0444 54.2765 90.7044 52.1277 96.136 54.8968C98.4129 56.0576 100.066 57.8992 101.085 60.0369L113.403 35.8752C115.451 31.8573 119.481 29.9862 123.879 30.9195L141.936 34.6847C145.592 35.4464 148.154 37.1316 149.322 39.5865C150.531 42.0281 150.237 44.9775 148.509 48.3667Z" fill="url(#paint1_radial_1946_7328)"/>
</g>
<g filter="url(#filter2_f_1946_7328)">
<ellipse cx="1.92529" cy="4.06822" rx="1.92529" ry="4.06822" transform="matrix(-0.580816 -0.814035 0.81577 -0.578376 117.962 39.6631)" fill="white" fill-opacity="0.88"/>
</g>
<g filter="url(#filter3_f_1946_7328)">
<ellipse cx="1.05764" cy="1.06444" rx="1.05764" ry="1.06444" transform="matrix(-0.580816 -0.814035 0.81577 -0.578376 125.106 68.2979)" fill="white" fill-opacity="0.25"/>
</g>
<g filter="url(#filter4_f_1946_7328)">
<ellipse cx="0.619369" cy="2.12508" rx="0.619369" ry="2.12508" transform="matrix(0.521653 -0.853158 0.85345 0.521176 91.4375 57.1064)" fill="white" fill-opacity="0.68"/>
</g>
<g filter="url(#filter5_f_1946_7328)">
<path d="M88.5141 59.1392C87.2723 59.5373 85.9997 59.041 85.6717 58.0307C85.3438 57.0204 86.0847 55.8787 87.3266 55.4806C88.5685 55.0825 89.841 55.5788 90.169 56.5891C90.4969 57.5994 89.756 58.7411 88.5141 59.1392Z" fill="white" fill-opacity="0.6"/>
</g>
<g filter="url(#filter6_f_1946_7328)">
<path d="M118.751 65.6772C119.758 64.8503 121.122 64.8447 121.8 65.6646C122.477 66.4846 122.21 67.8196 121.204 68.6464C120.198 69.4733 118.833 69.4789 118.155 68.6589C117.478 67.839 117.745 66.504 118.751 65.6772Z" fill="white" fill-opacity="0.8"/>
</g>
</g>
<g filter="url(#filter7_ii_1946_7328)">
<path d="M70.882 39.1194L71.3797 40.3039C71.7966 41.2961 71.7591 42.3125 71.269 43.1021C70.9697 43.609 70.4969 43.9863 69.9401 44.2203C69.5959 44.3649 69.2304 44.4589 68.825 44.4863L62.6166 44.9627L66.7557 54.8137C67.8702 57.4663 66.6198 60.5289 63.9672 61.6435C61.3146 62.758 58.252 61.5076 57.1375 58.855C56.0229 56.2024 57.2733 53.1398 59.9259 52.0253C61.2016 51.4893 62.5685 51.5105 63.7694 51.9589L59.2815 41.2776C58.8688 40.2956 58.9165 39.275 59.4024 38.4752C59.8925 37.6856 60.7772 37.1829 61.8362 37.0952L66.9408 36.7134C68.5092 36.5905 70.2737 37.6716 70.882 39.1194Z" fill="url(#paint2_linear_1946_7328)"/>
<path d="M70.882 39.1194L71.3797 40.3039C71.7966 41.2961 71.7591 42.3125 71.269 43.1021C70.9697 43.609 70.4969 43.9863 69.9401 44.2203C69.5959 44.3649 69.2304 44.4589 68.825 44.4863L62.6166 44.9627L66.7557 54.8137C67.8702 57.4663 66.6198 60.5289 63.9672 61.6435C61.3146 62.758 58.252 61.5076 57.1375 58.855C56.0229 56.2024 57.2733 53.1398 59.9259 52.0253C61.2016 51.4893 62.5685 51.5105 63.7694 51.9589L59.2815 41.2776C58.8688 40.2956 58.9165 39.275 59.4024 38.4752C59.8925 37.6856 60.7772 37.1829 61.8362 37.0952L66.9408 36.7134C68.5092 36.5905 70.2737 37.6716 70.882 39.1194Z" fill="url(#paint3_radial_1946_7328)"/>
<g filter="url(#filter8_f_1946_7328)">
<ellipse cx="62.0256" cy="53.4476" rx="1.05938" ry="0.676209" transform="rotate(-177.36 62.0256 53.4476)" fill="white" fill-opacity="0.7"/>
</g>
<g filter="url(#filter9_f_1946_7328)">
<ellipse cx="67.8585" cy="38.3974" rx="0.857472" ry="0.45154" transform="rotate(-161.255 67.8585 38.3974)" fill="white" fill-opacity="0.7"/>
</g>
<g filter="url(#filter10_f_1946_7328)">
<path d="M64.2211 38.0584C64.2171 37.9093 64.7634 37.7736 65.4414 37.7552C66.1194 37.7368 66.6723 37.8427 66.6763 37.9918C66.6804 38.1409 66.134 38.2766 65.456 38.295C64.7781 38.3134 64.2252 38.2075 64.2211 38.0584Z" fill="white" fill-opacity="0.6"/>
</g>
</g>
<g filter="url(#filter11_ii_1946_7328)">
<path d="M95.5957 41.5959C95.8114 41.7948 95.8939 42.0933 95.8111 42.3751C95.728 42.6569 95.497 42.8629 95.2075 42.9133L92.6338 43.3605C92.5241 43.3795 92.431 43.4512 92.3846 43.5524L91.2943 45.9258C91.1718 46.1925 90.9131 46.3633 90.6197 46.3714C90.3265 46.3796 90.0586 46.2234 89.9216 45.9639L88.7011 43.6544C88.6492 43.5559 88.552 43.4896 88.4414 43.4766L85.8469 43.1728C85.5553 43.1388 85.3129 42.9458 85.2144 42.669C85.116 42.3922 85.1818 42.0896 85.3862 41.8791L87.2054 40.0047C87.2829 39.9247 87.3164 39.8117 87.2945 39.7028L86.782 37.1415C86.7366 36.9161 86.7899 36.6941 86.9317 36.5163C87.152 36.2392 87.5474 36.1457 87.87 36.304L90.2148 37.455C90.3128 37.503 90.4344 37.4992 90.5294 37.4463L92.8069 36.167C92.9177 36.1047 93.0367 36.0714 93.1605 36.068C93.3864 36.0617 93.6033 36.1562 93.7554 36.3269C93.907 36.4966 93.9723 36.7157 93.9395 36.9429L93.5696 39.5286C93.5539 39.6388 93.5935 39.7495 93.6754 39.8251L95.5957 41.5959Z" fill="url(#paint4_linear_1946_7328)"/>
<path d="M95.5957 41.5959C95.8114 41.7948 95.8939 42.0933 95.8111 42.3751C95.728 42.6569 95.497 42.8629 95.2075 42.9133L92.6338 43.3605C92.5241 43.3795 92.431 43.4512 92.3846 43.5524L91.2943 45.9258C91.1718 46.1925 90.9131 46.3633 90.6197 46.3714C90.3265 46.3796 90.0586 46.2234 89.9216 45.9639L88.7011 43.6544C88.6492 43.5559 88.552 43.4896 88.4414 43.4766L85.8469 43.1728C85.5553 43.1388 85.3129 42.9458 85.2144 42.669C85.116 42.3922 85.1818 42.0896 85.3862 41.8791L87.2054 40.0047C87.2829 39.9247 87.3164 39.8117 87.2945 39.7028L86.782 37.1415C86.7366 36.9161 86.7899 36.6941 86.9317 36.5163C87.152 36.2392 87.5474 36.1457 87.87 36.304L90.2148 37.455C90.3128 37.503 90.4344 37.4992 90.5294 37.4463L92.8069 36.167C92.9177 36.1047 93.0367 36.0714 93.1605 36.068C93.3864 36.0617 93.6033 36.1562 93.7554 36.3269C93.907 36.4966 93.9723 36.7157 93.9395 36.9429L93.5696 39.5286C93.5539 39.6388 93.5935 39.7495 93.6754 39.8251L95.5957 41.5959Z" fill="url(#paint5_radial_1946_7328)"/>
</g>
<g filter="url(#filter12_f_1946_7328)">
<ellipse cx="0.461599" cy="1.57806" rx="0.461599" ry="1.57806" transform="matrix(-0.506129 -0.862458 -0.862458 0.506129 91.8564 38.8906)" fill="white"/>
</g>
</g>
<defs>
<filter id="filter0_d_1946_7328" x="73.4537" y="29.3732" width="83.2508" height="67.8671" filterUnits="userSpaceOnUse" color-interpolation-filters="sRGB">
<feFlood flood-opacity="0" result="BackgroundImageFix"/>
<feColorMatrix in="SourceAlpha" type="matrix" values="0 0 0 0 0 0 0 0 0 0 0 0 0 0 0 0 0 0 127 0" result="hardAlpha"/>
<feOffset dy="5.3385"/>
<feGaussianBlur stdDeviation="3.32443"/>
<feComposite in2="hardAlpha" operator="out"/>
<feColorMatrix type="matrix" values="0 0 0 0 0.247507 0 0 0 0 0.000606306 0 0 0 0 0.780292 0 0 0 0.09 0"/>
<feBlend mode="multiply" in2="BackgroundImageFix" result="effect1_dropShadow_1946_7328"/>
<feBlend mode="normal" in="SourceGraphic" in2="effect1_dropShadow_1946_7328" result="shape"/>
</filter>
<filter id="filter1_ii_1946_7328" x="80.1025" y="30.0407" width="69.9531" height="56.1766" filterUnits="userSpaceOnUse" color-interpolation-filters="sRGB">
<feFlood flood-opacity="0" result="BackgroundImageFix"/>
<feBlend mode="normal" in="SourceGraphic" in2="BackgroundImageFix" result="shape"/>
<feColorMatrix in="SourceAlpha" type="matrix" values="0 0 0 0 0 0 0 0 0 0 0 0 0 0 0 0 0 0 127 0" result="hardAlpha"/>
<feOffset dy="0.964334"/>
<feGaussianBlur stdDeviation="0.642889"/>
<feComposite in2="hardAlpha" operator="arithmetic" k2="-1" k3="1"/>
<feColorMatrix type="matrix" values="0 0 0 0 1 0 0 0 0 1 0 0 0 0 1 0 0 0 0.69 0"/>
<feBlend mode="normal" in2="shape" result="effect1_innerShadow_1946_7328"/>
<feColorMatrix in="SourceAlpha" type="matrix" values="0 0 0 0 0 0 0 0 0 0 0 0 0 0 0 0 0 0 127 0" result="hardAlpha"/>
<feOffset dy="-0.642889"/>
<feGaussianBlur stdDeviation="2.37869"/>
<feComposite in2="hardAlpha" operator="arithmetic" k2="-1" k3="1"/>
<feColorMatrix type="matrix" values="0 0 0 0 1 0 0 0 0 1 0 0 0 0 1 0 0 0 1 0"/>
<feBlend mode="normal" in2="effect1_innerShadow_1946_7328" result="effect2_innerShadow_1946_7328"/>
</filter>
<filter id="filter2_f_1946_7328" x="113.693" y="29.9491" width="12.9377" height="11.5871" filterUnits="userSpaceOnUse" color-interpolation-filters="sRGB">
<feFlood flood-opacity="0" result="BackgroundImageFix"/>
<feBlend mode="normal" in="SourceGraphic" in2="BackgroundImageFix" result="shape"/>
<feGaussianBlur stdDeviation="1.48296" result="effect1_foregroundBlur_1946_7328"/>
</filter>
<filter id="filter3_f_1946_7328" x="123.567" y="65.0326" width="3.58709" height="3.57733" filterUnits="userSpaceOnUse" color-interpolation-filters="sRGB">
<feFlood flood-opacity="0" result="BackgroundImageFix"/>
<feBlend mode="normal" in="SourceGraphic" in2="BackgroundImageFix" result="shape"/>
<feGaussianBlur stdDeviation="0.365035" result="effect1_foregroundBlur_1946_7328"/>
</filter>
<filter id="filter4_f_1946_7328" x="89.9975" y="54.7241" width="7.15338" height="5.92291" filterUnits="userSpaceOnUse" color-interpolation-filters="sRGB">
<feFlood flood-opacity="0" result="BackgroundImageFix"/>
<feBlend mode="normal" in="SourceGraphic" in2="BackgroundImageFix" result="shape"/>
<feGaussianBlur stdDeviation="0.866959" result="effect1_foregroundBlur_1946_7328"/>
</filter>
<filter id="filter5_f_1946_7328" x="82.9295" y="52.6785" width="9.98186" height="9.26213" filterUnits="userSpaceOnUse" color-interpolation-filters="sRGB">
<feFlood flood-opacity="0" result="BackgroundImageFix"/>
<feBlend mode="normal" in="SourceGraphic" in2="BackgroundImageFix" result="shape"/>
<feGaussianBlur stdDeviation="1.33213" result="effect1_foregroundBlur_1946_7328"/>
</filter>
<filter id="filter6_f_1946_7328" x="115.117" y="62.3894" width="9.72209" height="9.54533" filterUnits="userSpaceOnUse" color-interpolation-filters="sRGB">
<feFlood flood-opacity="0" result="BackgroundImageFix"/>
<feBlend mode="normal" in="SourceGraphic" in2="BackgroundImageFix" result="shape"/>
<feGaussianBlur stdDeviation="1.33213" result="effect1_foregroundBlur_1946_7328"/>
</filter>
<filter id="filter7_ii_1946_7328" x="56.4354" y="36.7041" width="15.2316" height="25.9845" filterUnits="userSpaceOnUse" color-interpolation-filters="sRGB">
<feFlood flood-opacity="0" result="BackgroundImageFix"/>
<feBlend mode="normal" in="SourceGraphic" in2="BackgroundImageFix" result="shape"/>
<feColorMatrix in="SourceAlpha" type="matrix" values="0 0 0 0 0 0 0 0 0 0 0 0 0 0 0 0 0 0 127 0" result="hardAlpha"/>
<feOffset dx="-0.294125"/>
<feGaussianBlur stdDeviation="1.12748"/>
<feComposite in2="hardAlpha" operator="arithmetic" k2="-1" k3="1"/>
<feColorMatrix type="matrix" values="0 0 0 0 1 0 0 0 0 1 0 0 0 0 1 0 0 0 1 0"/>
<feBlend mode="normal" in2="shape" result="effect1_innerShadow_1946_7328"/>
<feColorMatrix in="SourceAlpha" type="matrix" values="0 0 0 0 0 0 0 0 0 0 0 0 0 0 0 0 0 0 127 0" result="hardAlpha"/>
<feOffset dy="0.637848"/>
<feGaussianBlur stdDeviation="1.08434"/>
<feComposite in2="hardAlpha" operator="arithmetic" k2="-1" k3="1"/>
<feColorMatrix type="matrix" values="0 0 0 0 1 0 0 0 0 1 0 0 0 0 1 0 0 0 0.65 0"/>
<feBlend mode="normal" in2="effect1_innerShadow_1946_7328" result="effect2_innerShadow_1946_7328"/>
</filter>
<filter id="filter8_f_1946_7328" x="60.5028" y="52.3065" width="3.04514" height="2.28244" filterUnits="userSpaceOnUse" color-interpolation-filters="sRGB">
<feFlood flood-opacity="0" result="BackgroundImageFix"/>
<feBlend mode="normal" in="SourceGraphic" in2="BackgroundImageFix" result="shape"/>
<feGaussianBlur stdDeviation="0.231987" result="effect1_foregroundBlur_1946_7328"/>
</filter>
<filter id="filter9_f_1946_7328" x="66.5692" y="37.4247" width="2.57834" height="1.94553" filterUnits="userSpaceOnUse" color-interpolation-filters="sRGB">
<feFlood flood-opacity="0" result="BackgroundImageFix"/>
<feBlend mode="normal" in="SourceGraphic" in2="BackgroundImageFix" result="shape"/>
<feGaussianBlur stdDeviation="0.231987" result="effect1_foregroundBlur_1946_7328"/>
</filter>
<filter id="filter10_f_1946_7328" x="63.9887" y="37.5209" width="2.92003" height="1.00792" filterUnits="userSpaceOnUse" color-interpolation-filters="sRGB">
<feFlood flood-opacity="0" result="BackgroundImageFix"/>
<feBlend mode="normal" in="SourceGraphic" in2="BackgroundImageFix" result="shape"/>
<feGaussianBlur stdDeviation="0.115994" result="effect1_foregroundBlur_1946_7328"/>
</filter>
<filter id="filter11_ii_1946_7328" x="84.763" y="35.7961" width="11.0798" height="10.576" filterUnits="userSpaceOnUse" color-interpolation-filters="sRGB">
<feFlood flood-opacity="0" result="BackgroundImageFix"/>
<feBlend mode="normal" in="SourceGraphic" in2="BackgroundImageFix" result="shape"/>
<feColorMatrix in="SourceAlpha" type="matrix" values="0 0 0 0 0 0 0 0 0 0 0 0 0 0 0 0 0 0 127 0" result="hardAlpha"/>
<feOffset dy="-0.271281"/>
<feGaussianBlur stdDeviation="1.76333"/>
<feComposite in2="hardAlpha" operator="arithmetic" k2="-1" k3="1"/>
<feColorMatrix type="matrix" values="0 0 0 0 1 0 0 0 0 1 0 0 0 0 1 0 0 0 0.7 0"/>
<feBlend mode="normal" in2="shape" result="effect1_innerShadow_1946_7328"/>
<feColorMatrix in="SourceAlpha" type="matrix" values="0 0 0 0 0 0 0 0 0 0 0 0 0 0 0 0 0 0 127 0" result="hardAlpha"/>
<feOffset dx="-0.406922"/>
<feGaussianBlur stdDeviation="1.55987"/>
<feComposite in2="hardAlpha" operator="arithmetic" k2="-1" k3="1"/>
<feColorMatrix type="matrix" values="0 0 0 0 1 0 0 0 0 1 0 0 0 0 1 0 0 0 1 0"/>
<feBlend mode="normal" in2="effect1_innerShadow_1946_7328" result="effect2_innerShadow_1946_7328"/>
</filter>
<filter id="filter12_f_1946_7328" x="87.5245" y="37.042" width="5.47453" height="4.49797" filterUnits="userSpaceOnUse" color-interpolation-filters="sRGB">
<feFlood flood-opacity="0" result="BackgroundImageFix"/>
<feBlend mode="normal" in="SourceGraphic" in2="BackgroundImageFix" result="shape"/>
<feGaussianBlur stdDeviation="0.678203" result="effect1_foregroundBlur_1946_7328"/>
</filter>
<linearGradient id="paint0_linear_1946_7328" x1="126.017" y1="49.6029" x2="125.306" y2="91.2492" gradientUnits="userSpaceOnUse">
<stop stop-color="#EE8998"/>
<stop offset="0.894231" stop-color="#6B3FFF"/>
<stop offset="1" stop-color="#BEA0FF"/>
</linearGradient>
<radialGradient id="paint1_radial_1946_7328" cx="0" cy="0" r="1" gradientUnits="userSpaceOnUse" gradientTransform="translate(110.897 33.8068) rotate(78.4114) scale(49.0726 48.0481)">
<stop stop-color="white"/>
<stop offset="0.464944" stop-color="white" stop-opacity="0"/>
</radialGradient>
<linearGradient id="paint2_linear_1946_7328" x1="61.0115" y1="63.0095" x2="72.8465" y2="40.9452" gradientUnits="userSpaceOnUse">
<stop stop-color="#3E64E5"/>
<stop offset="0.403846" stop-color="#7CF1DC"/>
</linearGradient>
<radialGradient id="paint3_radial_1946_7328" cx="0" cy="0" r="1" gradientUnits="userSpaceOnUse" gradientTransform="translate(63.2859 44.4391) rotate(68.9271) scale(9.03546 12.5114)">
<stop stop-color="white"/>
<stop offset="0.480908" stop-color="white" stop-opacity="0"/>
</radialGradient>
<linearGradient id="paint4_linear_1946_7328" x1="90.2953" y1="35.9988" x2="92.8041" y2="44.3614" gradientUnits="userSpaceOnUse">
<stop offset="0.358668" stop-color="#FFFD9F"/>
<stop offset="1" stop-color="#0FF7FF"/>
</linearGradient>
<radialGradient id="paint5_radial_1946_7328" cx="0" cy="0" r="1" gradientUnits="userSpaceOnUse" gradientTransform="translate(88.1719 43.7002) rotate(-47.1203) scale(8.36143 8.37574)">
<stop stop-color="white"/>
<stop offset="0.464944" stop-color="white" stop-opacity="0"/>
</radialGradient>
<clipPath id="clip0_1946_7328">
<rect width="161.5" height="80" fill="white"/>
</clipPath>
</defs>
</svg>
