<svg width="162" height="80" viewBox="0 0 162 80" fill="none" xmlns="http://www.w3.org/2000/svg">
<g clip-path="url(#clip0_1975_39509)">
<rect width="161.5" height="80" transform="translate(0.5)" fill="#1F2027"/>
<g filter="url(#filter0_d_1975_39509)">
<g filter="url(#filter1_ii_1975_39509)">
<path d="M148.007 48.3648L132.261 79.2503C129.502 84.662 122.841 86.8109 117.41 84.0417C112.006 81.2866 109.805 74.6204 112.564 69.2086C115.309 63.8241 121.997 61.6893 127.401 64.4445C129.705 65.6193 131.359 67.4608 132.363 69.6259L140.654 53.3632L111.738 47.6435L100.493 69.7007C97.734 75.1125 91.0465 77.2473 85.6424 74.4921C80.2108 71.723 78.0377 65.0708 80.7968 59.659C83.5419 54.2745 90.202 52.1257 95.6335 54.8949C97.9104 56.0557 99.5637 57.8972 100.582 60.035L112.9 35.8732C114.949 31.8554 118.979 29.9842 123.376 30.9176L141.434 34.6827C145.089 35.4444 147.652 37.1296 148.819 39.5846C150.029 42.0262 149.735 44.9756 148.007 48.3648Z" fill="url(#paint0_linear_1975_39509)"/>
<path d="M148.007 48.3648L132.261 79.2503C129.502 84.662 122.841 86.8109 117.41 84.0417C112.006 81.2866 109.805 74.6204 112.564 69.2086C115.309 63.8241 121.997 61.6893 127.401 64.4445C129.705 65.6193 131.359 67.4608 132.363 69.6259L140.654 53.3632L111.738 47.6435L100.493 69.7007C97.734 75.1125 91.0465 77.2473 85.6424 74.4921C80.2108 71.723 78.0377 65.0708 80.7968 59.659C83.5419 54.2745 90.202 52.1257 95.6335 54.8949C97.9104 56.0557 99.5637 57.8972 100.582 60.035L112.9 35.8732C114.949 31.8554 118.979 29.9842 123.376 30.9176L141.434 34.6827C145.089 35.4444 147.652 37.1296 148.819 39.5846C150.029 42.0262 149.735 44.9756 148.007 48.3648Z" fill="url(#paint1_radial_1975_39509)"/>
</g>
<g filter="url(#filter2_f_1975_39509)">
<ellipse cx="1.92529" cy="4.06822" rx="1.92529" ry="4.06822" transform="matrix(-0.580816 -0.814035 0.81577 -0.578376 117.459 39.6621)" fill="white" fill-opacity="0.88"/>
</g>
<g filter="url(#filter3_f_1975_39509)">
<ellipse cx="1.05764" cy="1.06444" rx="1.05764" ry="1.06444" transform="matrix(-0.580816 -0.814035 0.81577 -0.578376 124.604 68.2969)" fill="white" fill-opacity="0.25"/>
</g>
<g filter="url(#filter4_f_1975_39509)">
<ellipse cx="0.619369" cy="2.12508" rx="0.619369" ry="2.12508" transform="matrix(0.521653 -0.853158 0.85345 0.521176 90.9355 57.1055)" fill="white" fill-opacity="0.68"/>
</g>
<g filter="url(#filter5_f_1975_39509)">
<path d="M88.0122 59.1383C86.7703 59.5364 85.4977 59.0401 85.1698 58.0298C84.8419 57.0195 85.5828 55.8777 86.8246 55.4796C88.0665 55.0815 89.3391 55.5778 89.667 56.5881C89.995 57.5984 89.2541 58.7402 88.0122 59.1383Z" fill="white" fill-opacity="0.6"/>
</g>
<g filter="url(#filter6_f_1975_39509)">
<path d="M118.249 65.6762C119.256 64.8493 120.621 64.8437 121.298 65.6637C121.975 66.4836 121.708 67.8186 120.702 68.6454C119.696 69.4723 118.331 69.4779 117.653 68.658C116.976 67.838 117.243 66.503 118.249 65.6762Z" fill="white" fill-opacity="0.8"/>
</g>
</g>
<g filter="url(#filter7_ii_1975_39509)">
<path d="M68.382 39.1194L68.8797 40.3039C69.2966 41.2961 69.2591 42.3125 68.769 43.1021C68.4697 43.609 67.9969 43.9863 67.4401 44.2203C67.0959 44.3649 66.7304 44.4589 66.325 44.4863L60.1166 44.9627L64.2557 54.8137C65.3702 57.4663 64.1198 60.5289 61.4672 61.6435C58.8146 62.758 55.752 61.5076 54.6375 58.855C53.5229 56.2024 54.7733 53.1398 57.4259 52.0253C58.7016 51.4893 60.0685 51.5105 61.2694 51.9589L56.7815 41.2776C56.3688 40.2956 56.4165 39.275 56.9024 38.4752C57.3925 37.6856 58.2772 37.1829 59.3362 37.0952L64.4408 36.7134C66.0092 36.5905 67.7737 37.6716 68.382 39.1194Z" fill="url(#paint2_linear_1975_39509)"/>
<path d="M68.382 39.1194L68.8797 40.3039C69.2966 41.2961 69.2591 42.3125 68.769 43.1021C68.4697 43.609 67.9969 43.9863 67.4401 44.2203C67.0959 44.3649 66.7304 44.4589 66.325 44.4863L60.1166 44.9627L64.2557 54.8137C65.3702 57.4663 64.1198 60.5289 61.4672 61.6435C58.8146 62.758 55.752 61.5076 54.6375 58.855C53.5229 56.2024 54.7733 53.1398 57.4259 52.0253C58.7016 51.4893 60.0685 51.5105 61.2694 51.9589L56.7815 41.2776C56.3688 40.2956 56.4165 39.275 56.9024 38.4752C57.3925 37.6856 58.2772 37.1829 59.3362 37.0952L64.4408 36.7134C66.0092 36.5905 67.7737 37.6716 68.382 39.1194Z" fill="url(#paint3_radial_1975_39509)"/>
<g filter="url(#filter8_f_1975_39509)">
<ellipse cx="59.5256" cy="53.4476" rx="1.05938" ry="0.676209" transform="rotate(-177.36 59.5256 53.4476)" fill="white" fill-opacity="0.7"/>
</g>
<g filter="url(#filter9_f_1975_39509)">
<ellipse cx="65.3585" cy="38.3974" rx="0.857472" ry="0.45154" transform="rotate(-161.255 65.3585 38.3974)" fill="white" fill-opacity="0.7"/>
</g>
<g filter="url(#filter10_f_1975_39509)">
<path d="M61.7221 38.0594C61.718 37.9103 62.2644 37.7745 62.9424 37.7561C63.6203 37.7377 64.1732 37.8437 64.1773 37.9928C64.1813 38.1419 63.635 38.2776 62.957 38.296C62.279 38.3144 61.7261 38.2085 61.7221 38.0594Z" fill="white" fill-opacity="0.6"/>
</g>
</g>
<g filter="url(#filter11_ii_1975_39509)">
<path d="M96.0957 41.5959C96.3114 41.7948 96.3939 42.0933 96.3111 42.3751C96.228 42.6569 95.997 42.8629 95.7075 42.9133L93.1338 43.3605C93.0241 43.3795 92.931 43.4512 92.8846 43.5524L91.7943 45.9258C91.6718 46.1925 91.4131 46.3633 91.1197 46.3714C90.8265 46.3796 90.5586 46.2234 90.4216 45.9639L89.2011 43.6544C89.1492 43.5559 89.052 43.4896 88.9414 43.4766L86.3469 43.1728C86.0553 43.1388 85.8129 42.9458 85.7144 42.669C85.616 42.3922 85.6818 42.0896 85.8862 41.8791L87.7054 40.0047C87.7829 39.9247 87.8164 39.8117 87.7945 39.7028L87.282 37.1415C87.2366 36.9161 87.2899 36.6941 87.4317 36.5163C87.652 36.2392 88.0474 36.1457 88.37 36.304L90.7148 37.455C90.8128 37.503 90.9344 37.4992 91.0294 37.4463L93.3069 36.167C93.4177 36.1047 93.5367 36.0714 93.6605 36.068C93.8864 36.0617 94.1033 36.1562 94.2554 36.3269C94.407 36.4966 94.4723 36.7157 94.4395 36.9429L94.0696 39.5286C94.0539 39.6388 94.0935 39.7495 94.1754 39.8251L96.0957 41.5959Z" fill="url(#paint4_linear_1975_39509)"/>
<path d="M96.0957 41.5959C96.3114 41.7948 96.3939 42.0933 96.3111 42.3751C96.228 42.6569 95.997 42.8629 95.7075 42.9133L93.1338 43.3605C93.0241 43.3795 92.931 43.4512 92.8846 43.5524L91.7943 45.9258C91.6718 46.1925 91.4131 46.3633 91.1197 46.3714C90.8265 46.3796 90.5586 46.2234 90.4216 45.9639L89.2011 43.6544C89.1492 43.5559 89.052 43.4896 88.9414 43.4766L86.3469 43.1728C86.0553 43.1388 85.8129 42.9458 85.7144 42.669C85.616 42.3922 85.6818 42.0896 85.8862 41.8791L87.7054 40.0047C87.7829 39.9247 87.8164 39.8117 87.7945 39.7028L87.282 37.1415C87.2366 36.9161 87.2899 36.6941 87.4317 36.5163C87.652 36.2392 88.0474 36.1457 88.37 36.304L90.7148 37.455C90.8128 37.503 90.9344 37.4992 91.0294 37.4463L93.3069 36.167C93.4177 36.1047 93.5367 36.0714 93.6605 36.068C93.8864 36.0617 94.1033 36.1562 94.2554 36.3269C94.407 36.4966 94.4723 36.7157 94.4395 36.9429L94.0696 39.5286C94.0539 39.6388 94.0935 39.7495 94.1754 39.8251L96.0957 41.5959Z" fill="url(#paint5_radial_1975_39509)"/>
</g>
<g filter="url(#filter12_f_1975_39509)">
<ellipse cx="0.461599" cy="1.57806" rx="0.461599" ry="1.57806" transform="matrix(-0.506129 -0.862458 -0.862458 0.506129 92.3564 38.8906)" fill="white"/>
</g>
</g>
<defs>
<filter id="filter0_d_1975_39509" x="72.9507" y="29.3713" width="83.2518" height="67.8671" filterUnits="userSpaceOnUse" color-interpolation-filters="sRGB">
<feFlood flood-opacity="0" result="BackgroundImageFix"/>
<feColorMatrix in="SourceAlpha" type="matrix" values="0 0 0 0 0 0 0 0 0 0 0 0 0 0 0 0 0 0 127 0" result="hardAlpha"/>
<feOffset dy="5.3385"/>
<feGaussianBlur stdDeviation="3.32443"/>
<feComposite in2="hardAlpha" operator="out"/>
<feColorMatrix type="matrix" values="0 0 0 0 0.247507 0 0 0 0 0.000606306 0 0 0 0 0.780292 0 0 0 0.09 0"/>
<feBlend mode="multiply" in2="BackgroundImageFix" result="effect1_dropShadow_1975_39509"/>
<feBlend mode="normal" in="SourceGraphic" in2="effect1_dropShadow_1975_39509" result="shape"/>
</filter>
<filter id="filter1_ii_1975_39509" x="79.5996" y="30.0388" width="69.9541" height="56.1766" filterUnits="userSpaceOnUse" color-interpolation-filters="sRGB">
<feFlood flood-opacity="0" result="BackgroundImageFix"/>
<feBlend mode="normal" in="SourceGraphic" in2="BackgroundImageFix" result="shape"/>
<feColorMatrix in="SourceAlpha" type="matrix" values="0 0 0 0 0 0 0 0 0 0 0 0 0 0 0 0 0 0 127 0" result="hardAlpha"/>
<feOffset dy="0.964334"/>
<feGaussianBlur stdDeviation="0.642889"/>
<feComposite in2="hardAlpha" operator="arithmetic" k2="-1" k3="1"/>
<feColorMatrix type="matrix" values="0 0 0 0 1 0 0 0 0 1 0 0 0 0 1 0 0 0 0.69 0"/>
<feBlend mode="normal" in2="shape" result="effect1_innerShadow_1975_39509"/>
<feColorMatrix in="SourceAlpha" type="matrix" values="0 0 0 0 0 0 0 0 0 0 0 0 0 0 0 0 0 0 127 0" result="hardAlpha"/>
<feOffset dy="-0.642889"/>
<feGaussianBlur stdDeviation="2.37869"/>
<feComposite in2="hardAlpha" operator="arithmetic" k2="-1" k3="1"/>
<feColorMatrix type="matrix" values="0 0 0 0 1 0 0 0 0 1 0 0 0 0 1 0 0 0 1 0"/>
<feBlend mode="normal" in2="effect1_innerShadow_1975_39509" result="effect2_innerShadow_1975_39509"/>
</filter>
<filter id="filter2_f_1975_39509" x="113.191" y="29.9482" width="12.9382" height="11.5871" filterUnits="userSpaceOnUse" color-interpolation-filters="sRGB">
<feFlood flood-opacity="0" result="BackgroundImageFix"/>
<feBlend mode="normal" in="SourceGraphic" in2="BackgroundImageFix" result="shape"/>
<feGaussianBlur stdDeviation="1.48296" result="effect1_foregroundBlur_1975_39509"/>
</filter>
<filter id="filter3_f_1975_39509" x="123.065" y="65.0316" width="3.58758" height="3.57733" filterUnits="userSpaceOnUse" color-interpolation-filters="sRGB">
<feFlood flood-opacity="0" result="BackgroundImageFix"/>
<feBlend mode="normal" in="SourceGraphic" in2="BackgroundImageFix" result="shape"/>
<feGaussianBlur stdDeviation="0.365035" result="effect1_foregroundBlur_1975_39509"/>
</filter>
<filter id="filter4_f_1975_39509" x="89.4956" y="54.7231" width="7.15338" height="5.92291" filterUnits="userSpaceOnUse" color-interpolation-filters="sRGB">
<feFlood flood-opacity="0" result="BackgroundImageFix"/>
<feBlend mode="normal" in="SourceGraphic" in2="BackgroundImageFix" result="shape"/>
<feGaussianBlur stdDeviation="0.866959" result="effect1_foregroundBlur_1975_39509"/>
</filter>
<filter id="filter5_f_1975_39509" x="82.4275" y="52.6775" width="9.98186" height="9.26213" filterUnits="userSpaceOnUse" color-interpolation-filters="sRGB">
<feFlood flood-opacity="0" result="BackgroundImageFix"/>
<feBlend mode="normal" in="SourceGraphic" in2="BackgroundImageFix" result="shape"/>
<feGaussianBlur stdDeviation="1.33213" result="effect1_foregroundBlur_1975_39509"/>
</filter>
<filter id="filter6_f_1975_39509" x="114.615" y="62.3885" width="9.72209" height="9.54533" filterUnits="userSpaceOnUse" color-interpolation-filters="sRGB">
<feFlood flood-opacity="0" result="BackgroundImageFix"/>
<feBlend mode="normal" in="SourceGraphic" in2="BackgroundImageFix" result="shape"/>
<feGaussianBlur stdDeviation="1.33213" result="effect1_foregroundBlur_1975_39509"/>
</filter>
<filter id="filter7_ii_1975_39509" x="53.9354" y="36.7041" width="15.2316" height="25.9845" filterUnits="userSpaceOnUse" color-interpolation-filters="sRGB">
<feFlood flood-opacity="0" result="BackgroundImageFix"/>
<feBlend mode="normal" in="SourceGraphic" in2="BackgroundImageFix" result="shape"/>
<feColorMatrix in="SourceAlpha" type="matrix" values="0 0 0 0 0 0 0 0 0 0 0 0 0 0 0 0 0 0 127 0" result="hardAlpha"/>
<feOffset dx="-0.294125"/>
<feGaussianBlur stdDeviation="1.12748"/>
<feComposite in2="hardAlpha" operator="arithmetic" k2="-1" k3="1"/>
<feColorMatrix type="matrix" values="0 0 0 0 1 0 0 0 0 1 0 0 0 0 1 0 0 0 1 0"/>
<feBlend mode="normal" in2="shape" result="effect1_innerShadow_1975_39509"/>
<feColorMatrix in="SourceAlpha" type="matrix" values="0 0 0 0 0 0 0 0 0 0 0 0 0 0 0 0 0 0 127 0" result="hardAlpha"/>
<feOffset dy="0.637848"/>
<feGaussianBlur stdDeviation="1.08434"/>
<feComposite in2="hardAlpha" operator="arithmetic" k2="-1" k3="1"/>
<feColorMatrix type="matrix" values="0 0 0 0 1 0 0 0 0 1 0 0 0 0 1 0 0 0 0.65 0"/>
<feBlend mode="normal" in2="effect1_innerShadow_1975_39509" result="effect2_innerShadow_1975_39509"/>
</filter>
<filter id="filter8_f_1975_39509" x="58.0028" y="52.3065" width="3.04514" height="2.28244" filterUnits="userSpaceOnUse" color-interpolation-filters="sRGB">
<feFlood flood-opacity="0" result="BackgroundImageFix"/>
<feBlend mode="normal" in="SourceGraphic" in2="BackgroundImageFix" result="shape"/>
<feGaussianBlur stdDeviation="0.231987" result="effect1_foregroundBlur_1975_39509"/>
</filter>
<filter id="filter9_f_1975_39509" x="64.0692" y="37.4247" width="2.57834" height="1.94553" filterUnits="userSpaceOnUse" color-interpolation-filters="sRGB">
<feFlood flood-opacity="0" result="BackgroundImageFix"/>
<feBlend mode="normal" in="SourceGraphic" in2="BackgroundImageFix" result="shape"/>
<feGaussianBlur stdDeviation="0.231987" result="effect1_foregroundBlur_1975_39509"/>
</filter>
<filter id="filter10_f_1975_39509" x="61.4897" y="37.5219" width="2.92003" height="1.00792" filterUnits="userSpaceOnUse" color-interpolation-filters="sRGB">
<feFlood flood-opacity="0" result="BackgroundImageFix"/>
<feBlend mode="normal" in="SourceGraphic" in2="BackgroundImageFix" result="shape"/>
<feGaussianBlur stdDeviation="0.115994" result="effect1_foregroundBlur_1975_39509"/>
</filter>
<filter id="filter11_ii_1975_39509" x="85.263" y="35.7961" width="11.0798" height="10.576" filterUnits="userSpaceOnUse" color-interpolation-filters="sRGB">
<feFlood flood-opacity="0" result="BackgroundImageFix"/>
<feBlend mode="normal" in="SourceGraphic" in2="BackgroundImageFix" result="shape"/>
<feColorMatrix in="SourceAlpha" type="matrix" values="0 0 0 0 0 0 0 0 0 0 0 0 0 0 0 0 0 0 127 0" result="hardAlpha"/>
<feOffset dy="-0.271281"/>
<feGaussianBlur stdDeviation="1.76333"/>
<feComposite in2="hardAlpha" operator="arithmetic" k2="-1" k3="1"/>
<feColorMatrix type="matrix" values="0 0 0 0 1 0 0 0 0 1 0 0 0 0 1 0 0 0 0.7 0"/>
<feBlend mode="normal" in2="shape" result="effect1_innerShadow_1975_39509"/>
<feColorMatrix in="SourceAlpha" type="matrix" values="0 0 0 0 0 0 0 0 0 0 0 0 0 0 0 0 0 0 127 0" result="hardAlpha"/>
<feOffset dx="-0.406922"/>
<feGaussianBlur stdDeviation="1.55987"/>
<feComposite in2="hardAlpha" operator="arithmetic" k2="-1" k3="1"/>
<feColorMatrix type="matrix" values="0 0 0 0 1 0 0 0 0 1 0 0 0 0 1 0 0 0 1 0"/>
<feBlend mode="normal" in2="effect1_innerShadow_1975_39509" result="effect2_innerShadow_1975_39509"/>
</filter>
<filter id="filter12_f_1975_39509" x="88.0245" y="37.042" width="5.47453" height="4.49797" filterUnits="userSpaceOnUse" color-interpolation-filters="sRGB">
<feFlood flood-opacity="0" result="BackgroundImageFix"/>
<feBlend mode="normal" in="SourceGraphic" in2="BackgroundImageFix" result="shape"/>
<feGaussianBlur stdDeviation="0.678203" result="effect1_foregroundBlur_1975_39509"/>
</filter>
<linearGradient id="paint0_linear_1975_39509" x1="125.514" y1="49.6009" x2="124.804" y2="91.2473" gradientUnits="userSpaceOnUse">
<stop stop-color="#EE8998"/>
<stop offset="0.894231" stop-color="#6B3FFF"/>
<stop offset="1" stop-color="#BEA0FF"/>
</linearGradient>
<radialGradient id="paint1_radial_1975_39509" cx="0" cy="0" r="1" gradientTransform="matrix(9.85784 48.0723 -45.9751 14.9847 110.395 33.8048)" gradientUnits="userSpaceOnUse">
<stop stop-color="white"/>
<stop offset="0.464944" stop-color="white" stop-opacity="0"/>
</radialGradient>
<linearGradient id="paint2_linear_1975_39509" x1="58.5115" y1="63.0095" x2="70.3465" y2="40.9452" gradientUnits="userSpaceOnUse">
<stop stop-color="#3E64E5"/>
<stop offset="0.403846" stop-color="#7CF1DC"/>
</linearGradient>
<radialGradient id="paint3_radial_1975_39509" cx="0" cy="0" r="1" gradientUnits="userSpaceOnUse" gradientTransform="translate(60.7859 44.4391) rotate(68.9271) scale(9.03546 12.5114)">
<stop stop-color="white"/>
<stop offset="0.480908" stop-color="white" stop-opacity="0"/>
</radialGradient>
<linearGradient id="paint4_linear_1975_39509" x1="90.7953" y1="35.9988" x2="93.3041" y2="44.3614" gradientUnits="userSpaceOnUse">
<stop offset="0.358668" stop-color="#FFFD9F"/>
<stop offset="1" stop-color="#0FF7FF"/>
</linearGradient>
<radialGradient id="paint5_radial_1975_39509" cx="0" cy="0" r="1" gradientTransform="matrix(5.68963 -6.12712 -6.38142 -5.43681 88.6719 43.7002)" gradientUnits="userSpaceOnUse">
<stop stop-color="white"/>
<stop offset="0.464944" stop-color="white" stop-opacity="0"/>
</radialGradient>
<clipPath id="clip0_1975_39509">
<rect width="161.5" height="80" fill="white" transform="translate(0.5)"/>
</clipPath>
</defs>
</svg>
