<svg width="162" height="80" viewBox="0 0 162 80" fill="none" xmlns="http://www.w3.org/2000/svg">
<g clip-path="url(#clip0_1975_39542)">
<rect width="161.5" height="80" fill="#1F2027"/>
<g filter="url(#filter0_d_1975_39542)">
<g filter="url(#filter1_dii_1975_39542)">
<g clip-path="url(#clip1_1975_39542)">
<rect width="56.4521" height="56.4521" rx="28.226" transform="matrix(-0.869922 -0.49319 -0.49319 0.869922 148.586 43.832)" fill="white"/>
<g filter="url(#filter2_f_1975_39542)">
<circle cx="31.5734" cy="31.5734" r="31.5734" transform="matrix(0.633239 0.773956 0.773956 -0.633239 55.9014 74.2715)" fill="#FDFF8F"/>
</g>
<g filter="url(#filter3_f_1975_39542)">
<circle cx="23.1498" cy="23.1498" r="23.1498" transform="matrix(0.633239 0.773956 0.773956 -0.633239 91.3125 53.3779)" fill="#00FFF2"/>
</g>
<g filter="url(#filter4_f_1975_39542)">
<circle cx="16.9328" cy="16.9328" r="16.9328" transform="matrix(0.633239 0.773956 0.773956 -0.633239 91.7354 71.96)" fill="#004D7D"/>
</g>
<g filter="url(#filter5_f_1975_39542)">
<ellipse cx="20.6058" cy="21.2252" rx="20.6058" ry="21.2252" transform="matrix(0.633239 0.773956 0.773956 -0.633239 39.873 60.5791)" fill="#9EF7E7"/>
</g>
<g filter="url(#filter6_f_1975_39542)">
<ellipse cx="20.6058" cy="21.2252" rx="20.6058" ry="21.2252" transform="matrix(0.633239 0.773956 0.773956 -0.633239 39.873 60.5791)" fill="#9EF7E7"/>
</g>
<g filter="url(#filter7_f_1975_39542)">
<ellipse cx="13.9414" cy="21.2252" rx="13.9414" ry="21.2252" transform="matrix(0.479973 0.877283 0.877283 -0.479973 67.291 25.125)" fill="#FFD7F6"/>
</g>
<g filter="url(#filter8_f_1975_39542)">
<ellipse cx="2.34202" cy="5.78697" rx="2.34202" ry="5.78697" transform="matrix(0.193354 -0.981129 -0.981129 -0.193354 105.529 31.1582)" fill="white"/>
</g>
<g filter="url(#filter9_f_1975_39542)">
<ellipse cx="1.21515" cy="2.16204" rx="1.21515" ry="2.16204" transform="matrix(0.54342 -0.839461 -0.839461 -0.54342 112.741 34.3867)" fill="white"/>
</g>
</g>
</g>
<g filter="url(#filter10_di_1975_39542)">
<path d="M88.8405 35.9893C87.6973 37.2815 86.6689 38.686 85.7698 40.2007C81.8073 40.2704 79.2351 41.0754 78.7212 42.6729C78.2354 44.1833 79.6579 46.1841 82.4878 48.3977C87.4911 52.3049 96.9317 56.8644 108.178 60.4822C119.425 64.1 129.747 65.8977 136.096 65.6424C139.686 65.4939 142.008 64.6976 142.494 63.1872C143.008 61.5897 141.388 59.436 138.209 57.0692C138.362 55.3143 138.345 53.5737 138.169 51.8573C146.075 57.048 150.444 62.4796 149.132 66.5572C147.821 70.6347 141.403 72.4045 132.288 72.1267C124.865 71.8995 115.671 70.2451 106.029 67.1435C96.3869 64.042 87.9585 60.0275 81.7893 55.8825C74.2131 50.7978 70.0691 45.5209 71.3508 41.5366C72.6324 37.5522 79.3786 35.5932 88.8343 35.9873L88.8405 35.9893Z" fill="url(#paint0_radial_1975_39542)"/>
<path d="M88.8405 35.9893C87.6973 37.2815 86.6689 38.686 85.7698 40.2007C81.8073 40.2704 79.2351 41.0754 78.7212 42.6729C78.2354 44.1833 79.6579 46.1841 82.4878 48.3977C87.4911 52.3049 96.9317 56.8644 108.178 60.4822C119.425 64.1 129.747 65.8977 136.096 65.6424C139.686 65.4939 142.008 64.6976 142.494 63.1872C143.008 61.5897 141.388 59.436 138.209 57.0692C138.362 55.3143 138.345 53.5737 138.169 51.8573C146.075 57.048 150.444 62.4796 149.132 66.5572C147.821 70.6347 141.403 72.4045 132.288 72.1267C124.865 71.8995 115.671 70.2451 106.029 67.1435C96.3869 64.042 87.9585 60.0275 81.7893 55.8825C74.2131 50.7978 70.0691 45.5209 71.3508 41.5366C72.6324 37.5522 79.3786 35.5932 88.8343 35.9873L88.8405 35.9893Z" fill="url(#paint1_radial_1975_39542)" fill-opacity="0.5"/>
</g>
<mask id="mask0_1975_39542" style="mask-type:alpha" maskUnits="userSpaceOnUse" x="71" y="35" width="79" height="38">
<path d="M88.8405 35.9893C87.6973 37.2815 86.6689 38.686 85.7698 40.2007C81.8073 40.2704 79.2351 41.0754 78.7212 42.6729C78.2354 44.1833 79.6579 46.1841 82.4878 48.3977C87.4911 52.3049 96.9317 56.8644 108.178 60.4822C119.425 64.1 129.747 65.8977 136.096 65.6424C139.686 65.4939 142.008 64.6976 142.494 63.1872C143.008 61.5897 141.388 59.436 138.209 57.0692C138.362 55.3143 138.345 53.5737 138.169 51.8573C146.075 57.048 150.444 62.4796 149.132 66.5572C147.821 70.6347 141.403 72.4045 132.288 72.1267C124.865 71.8995 115.671 70.2451 106.029 67.1435C96.3869 64.042 87.9585 60.0275 81.7893 55.8825C74.2131 50.7978 70.0691 45.5209 71.3508 41.5366C72.6324 37.5522 79.3786 35.5932 88.8343 35.9873L88.8405 35.9893Z" fill="url(#paint2_radial_1975_39542)"/>
<path d="M88.8405 35.9893C87.6973 37.2815 86.6689 38.686 85.7698 40.2007C81.8073 40.2704 79.2351 41.0754 78.7212 42.6729C78.2354 44.1833 79.6579 46.1841 82.4878 48.3977C87.4911 52.3049 96.9317 56.8644 108.178 60.4822C119.425 64.1 129.747 65.8977 136.096 65.6424C139.686 65.4939 142.008 64.6976 142.494 63.1872C143.008 61.5897 141.388 59.436 138.209 57.0692C138.362 55.3143 138.345 53.5737 138.169 51.8573C146.075 57.048 150.444 62.4796 149.132 66.5572C147.821 70.6347 141.403 72.4045 132.288 72.1267C124.865 71.8995 115.671 70.2451 106.029 67.1435C96.3869 64.042 87.9585 60.0275 81.7893 55.8825C74.2131 50.7978 70.0691 45.5209 71.3508 41.5366C72.6324 37.5522 79.3786 35.5932 88.8343 35.9873L88.8405 35.9893Z" fill="url(#paint3_radial_1975_39542)" fill-opacity="0.5"/>
</mask>
<g mask="url(#mask0_1975_39542)">
<g filter="url(#filter11_f_1975_39542)">
<ellipse cx="138.087" cy="58.8287" rx="8.41975" ry="5.69527" transform="rotate(41.1439 138.087 58.8287)" fill="#FFA136" fill-opacity="0.72" style="mix-blend-mode:multiply"/>
</g>
<g filter="url(#filter12_f_1975_39542)">
<ellipse cx="86.9245" cy="43.628" rx="8.41975" ry="5.3111" transform="rotate(19.8224 86.9245 43.628)" fill="#FFA136" fill-opacity="0.72" style="mix-blend-mode:multiply"/>
</g>
</g>
</g>
<g filter="url(#filter13_ii_1975_39542)">
<path d="M89.2961 19.6399C89.306 19.8654 89.1891 20.0729 88.9911 20.1818C88.7929 20.2905 88.5552 20.2775 88.37 20.148L86.7233 18.9962C86.6532 18.9472 86.5635 18.9358 86.4833 18.9658L84.6013 19.6694C84.3899 19.7484 84.1561 19.7013 83.9916 19.5466C83.8273 19.392 83.7659 19.1616 83.8318 18.9457L84.4184 17.0239C84.4435 16.942 84.4265 16.8531 84.3732 16.7861L83.1225 15.2133C82.9818 15.0366 82.9543 14.7998 83.0507 14.5954C83.1471 14.391 83.3471 14.2617 83.5728 14.2576L85.5817 14.2216C85.6674 14.22 85.7469 14.1765 85.7941 14.1052L86.9035 12.43C87.001 12.2824 87.1504 12.1902 87.3242 12.1701C87.5946 12.1384 87.8611 12.3018 87.9513 12.5631L88.6062 14.4627C88.6337 14.542 88.7021 14.6058 88.7826 14.6285L90.7189 15.1657C90.8131 15.1918 90.8961 15.2382 90.9655 15.3034C91.0921 15.4225 91.1592 15.5917 91.1496 15.7673C91.1403 15.9421 91.0571 16.0971 90.916 16.2032L89.3119 17.4133C89.2436 17.4648 89.2052 17.5468 89.2088 17.6324L89.2961 19.6399Z" fill="url(#paint4_linear_1975_39542)"/>
<path d="M89.2961 19.6399C89.306 19.8654 89.1891 20.0729 88.9911 20.1818C88.7929 20.2905 88.5552 20.2775 88.37 20.148L86.7233 18.9962C86.6532 18.9472 86.5635 18.9358 86.4833 18.9658L84.6013 19.6694C84.3899 19.7484 84.1561 19.7013 83.9916 19.5466C83.8273 19.392 83.7659 19.1616 83.8318 18.9457L84.4184 17.0239C84.4435 16.942 84.4265 16.8531 84.3732 16.7861L83.1225 15.2133C82.9818 15.0366 82.9543 14.7998 83.0507 14.5954C83.1471 14.391 83.3471 14.2617 83.5728 14.2576L85.5817 14.2216C85.6674 14.22 85.7469 14.1765 85.7941 14.1052L86.9035 12.43C87.001 12.2824 87.1504 12.1902 87.3242 12.1701C87.5946 12.1384 87.8611 12.3018 87.9513 12.5631L88.6062 14.4627C88.6337 14.542 88.7021 14.6058 88.7826 14.6285L90.7189 15.1657C90.8131 15.1918 90.8961 15.2382 90.9655 15.3034C91.0921 15.4225 91.1592 15.5917 91.1496 15.7673C91.1403 15.9421 91.0571 16.0971 90.916 16.2032L89.3119 17.4133C89.2436 17.4648 89.2052 17.5468 89.2088 17.6324L89.2961 19.6399Z" fill="url(#paint5_radial_1975_39542)"/>
</g>
<g filter="url(#filter14_f_1975_39542)">
<path d="M89.8108 15.1712C89.1615 15.0042 88.5956 15.0228 88.5467 15.2127C88.4979 15.4026 88.9847 15.692 89.6339 15.859C90.2832 16.0259 90.8492 16.0074 90.898 15.8174C90.9469 15.6275 90.4601 15.3382 89.8108 15.1712Z" fill="white"/>
</g>
<g filter="url(#filter15_ii_1975_39542)">
<path d="M69.4324 53.6911C69.5999 53.4419 69.6112 53.1254 69.4618 52.8645C69.3122 52.6038 69.0333 52.4536 68.7333 52.4722L66.0656 52.6382C65.952 52.6452 65.8422 52.596 65.7721 52.5063L64.1234 50.403C63.9383 50.1667 63.6402 50.0581 63.3462 50.1197C63.0525 50.1812 62.823 50.4002 62.7483 50.691L62.0819 53.2793C62.0536 53.3896 61.9726 53.4788 61.8657 53.5179L59.3555 54.4362C59.0734 54.5393 58.8781 54.789 58.8457 55.0879C58.8135 55.3867 58.9508 55.6722 59.2042 55.8332L61.4597 57.2668C61.5559 57.328 61.616 57.4325 61.6201 57.5461L61.7181 60.2168C61.7265 60.452 61.8322 60.6603 62.0155 60.8036C62.3006 61.027 62.7163 61.0262 62.9998 60.7921L65.0602 59.0899C65.1463 59.0189 65.2683 58.9938 65.3754 59.0239L67.9458 59.7564C68.0708 59.7921 68.1972 59.7969 68.3212 59.771C68.5475 59.7236 68.7409 59.578 68.8518 59.372C68.9624 59.1671 68.9754 58.9335 68.8888 58.7152L67.9068 56.2296C67.8649 56.1237 67.8781 56.0041 67.9416 55.9094L69.4324 53.6911Z" fill="url(#paint6_linear_1975_39542)"/>
<path d="M69.4324 53.6911C69.5999 53.4419 69.6112 53.1254 69.4618 52.8645C69.3122 52.6038 69.0333 52.4536 68.7333 52.4722L66.0656 52.6382C65.952 52.6452 65.8422 52.596 65.7721 52.5063L64.1234 50.403C63.9383 50.1667 63.6402 50.0581 63.3462 50.1197C63.0525 50.1812 62.823 50.4002 62.7483 50.691L62.0819 53.2793C62.0536 53.3896 61.9726 53.4788 61.8657 53.5179L59.3555 54.4362C59.0734 54.5393 58.8781 54.789 58.8457 55.0879C58.8135 55.3867 58.9508 55.6722 59.2042 55.8332L61.4597 57.2668C61.5559 57.328 61.616 57.4325 61.6201 57.5461L61.7181 60.2168C61.7265 60.452 61.8322 60.6603 62.0155 60.8036C62.3006 61.027 62.7163 61.0262 62.9998 60.7921L65.0602 59.0899C65.1463 59.0189 65.2683 58.9938 65.3754 59.0239L67.9458 59.7564C68.0708 59.7921 68.1972 59.7969 68.3212 59.771C68.5475 59.7236 68.7409 59.578 68.8518 59.372C68.9624 59.1671 68.9754 58.9335 68.8888 58.7152L67.9068 56.2296C67.8649 56.1237 67.8781 56.0041 67.9416 55.9094L69.4324 53.6911Z" fill="url(#paint7_radial_1975_39542)"/>
</g>
<g filter="url(#filter16_ii_1975_39542)">
<path d="M149.998 32.6925C150.13 32.4964 150.139 32.2472 150.021 32.0419C149.904 31.8367 149.684 31.7185 149.448 31.7332L147.348 31.8638C147.259 31.8693 147.173 31.8306 147.117 31.76L145.82 30.1045C145.674 29.9185 145.439 29.8331 145.208 29.8815C144.977 29.9299 144.796 30.1023 144.737 30.3312L144.213 32.3684C144.191 32.4552 144.127 32.5254 144.043 32.5562L142.067 33.279C141.845 33.3602 141.691 33.5567 141.666 33.7919C141.64 34.0271 141.748 34.2518 141.948 34.3786L143.723 35.5069C143.799 35.5551 143.846 35.6374 143.849 35.7268L143.927 37.8289C143.933 38.014 144.016 38.1779 144.161 38.2907C144.385 38.4666 144.712 38.466 144.935 38.2817L146.557 36.9419C146.625 36.886 146.721 36.8662 146.805 36.8899L148.828 37.4665C148.927 37.4946 149.026 37.4984 149.124 37.4779C149.302 37.4406 149.454 37.3261 149.541 37.1639C149.628 37.0027 149.639 36.8188 149.57 36.647L148.798 34.6906C148.765 34.6072 148.775 34.5131 148.825 34.4386L149.998 32.6925Z" fill="url(#paint8_linear_1975_39542)"/>
<path d="M149.998 32.6925C150.13 32.4964 150.139 32.2472 150.021 32.0419C149.904 31.8367 149.684 31.7185 149.448 31.7332L147.348 31.8638C147.259 31.8693 147.173 31.8306 147.117 31.76L145.82 30.1045C145.674 29.9185 145.439 29.8331 145.208 29.8815C144.977 29.9299 144.796 30.1023 144.737 30.3312L144.213 32.3684C144.191 32.4552 144.127 32.5254 144.043 32.5562L142.067 33.279C141.845 33.3602 141.691 33.5567 141.666 33.7919C141.64 34.0271 141.748 34.2518 141.948 34.3786L143.723 35.5069C143.799 35.5551 143.846 35.6374 143.849 35.7268L143.927 37.8289C143.933 38.014 144.016 38.1779 144.161 38.2907C144.385 38.4666 144.712 38.466 144.935 38.2817L146.557 36.9419C146.625 36.886 146.721 36.8662 146.805 36.8899L148.828 37.4665C148.927 37.4946 149.026 37.4984 149.124 37.4779C149.302 37.4406 149.454 37.3261 149.541 37.1639C149.628 37.0027 149.639 36.8188 149.57 36.647L148.798 34.6906C148.765 34.6072 148.775 34.5131 148.825 34.4386L149.998 32.6925Z" fill="url(#paint9_radial_1975_39542)"/>
</g>
</g>
<defs>
<filter id="filter0_d_1975_39542" x="57.9401" y="9.68885" width="100.752" height="92.4501" filterUnits="userSpaceOnUse" color-interpolation-filters="sRGB">
<feFlood flood-opacity="0" result="BackgroundImageFix"/>
<feColorMatrix in="SourceAlpha" type="matrix" values="0 0 0 0 0 0 0 0 0 0 0 0 0 0 0 0 0 0 127 0" result="hardAlpha"/>
<feOffset dx="-1.44859" dy="1.44859"/>
<feGaussianBlur stdDeviation="3.87499"/>
<feComposite in2="hardAlpha" operator="out"/>
<feColorMatrix type="matrix" values="0 0 0 0 0 0 0 0 0 0 0 0 0 0 0 0 0 0 0.25 0"/>
<feBlend mode="normal" in2="BackgroundImageFix" result="effect1_dropShadow_1975_39542"/>
<feBlend mode="normal" in="SourceGraphic" in2="effect1_dropShadow_1975_39542" result="shape"/>
</filter>
<filter id="filter1_dii_1975_39542" x="69.9649" y="13.7805" width="83.3289" height="80.6085" filterUnits="userSpaceOnUse" color-interpolation-filters="sRGB">
<feFlood flood-opacity="0" result="BackgroundImageFix"/>
<feColorMatrix in="SourceAlpha" type="matrix" values="0 0 0 0 0 0 0 0 0 0 0 0 0 0 0 0 0 0 127 0" result="hardAlpha"/>
<feOffset dy="-0.538965"/>
<feGaussianBlur stdDeviation="0.835396"/>
<feComposite in2="hardAlpha" operator="out"/>
<feColorMatrix type="matrix" values="0 0 0 0 1 0 0 0 0 1 0 0 0 0 1 0 0 0 0.59 0"/>
<feBlend mode="normal" in2="BackgroundImageFix" result="effect1_dropShadow_1975_39542"/>
<feBlend mode="normal" in="SourceGraphic" in2="effect1_dropShadow_1975_39542" result="shape"/>
<feColorMatrix in="SourceAlpha" type="matrix" values="0 0 0 0 0 0 0 0 0 0 0 0 0 0 0 0 0 0 127 0" result="hardAlpha"/>
<feOffset dx="4.70793" dy="1.44859"/>
<feGaussianBlur stdDeviation="3.62148"/>
<feComposite in2="hardAlpha" operator="arithmetic" k2="-1" k3="1"/>
<feColorMatrix type="matrix" values="0 0 0 0 1 0 0 0 0 1 0 0 0 0 1 0 0 0 0.6 0"/>
<feBlend mode="normal" in2="shape" result="effect2_innerShadow_1975_39542"/>
<feColorMatrix in="SourceAlpha" type="matrix" values="0 0 0 0 0 0 0 0 0 0 0 0 0 0 0 0 0 0 127 0" result="hardAlpha"/>
<feOffset dx="-1.08644" dy="-1.44859"/>
<feGaussianBlur stdDeviation="3.25933"/>
<feComposite in2="hardAlpha" operator="arithmetic" k2="-1" k3="1"/>
<feColorMatrix type="matrix" values="0 0 0 0 1 0 0 0 0 1 0 0 0 0 1 0 0 0 0.78 0"/>
<feBlend mode="normal" in2="effect2_innerShadow_1975_39542" result="effect3_innerShadow_1975_39542"/>
</filter>
<filter id="filter2_f_1975_39542" x="28.1361" y="6.51889" width="144.39" height="144.391" filterUnits="userSpaceOnUse" color-interpolation-filters="sRGB">
<feFlood flood-opacity="0" result="BackgroundImageFix"/>
<feBlend mode="normal" in="SourceGraphic" in2="BackgroundImageFix" result="shape"/>
<feGaussianBlur stdDeviation="20.3104" result="effect1_foregroundBlur_1975_39542"/>
</filter>
<filter id="filter3_f_1975_39542" x="68.1811" y="0.928204" width="111.415" height="111.415" filterUnits="userSpaceOnUse" color-interpolation-filters="sRGB">
<feFlood flood-opacity="0" result="BackgroundImageFix"/>
<feBlend mode="normal" in="SourceGraphic" in2="BackgroundImageFix" result="shape"/>
<feGaussianBlur stdDeviation="16.2786" result="effect1_foregroundBlur_1975_39542"/>
</filter>
<filter id="filter4_f_1975_39542" x="63.5411" y="22.3204" width="104.044" height="104.045" filterUnits="userSpaceOnUse" color-interpolation-filters="sRGB">
<feFlood flood-opacity="0" result="BackgroundImageFix"/>
<feBlend mode="normal" in="SourceGraphic" in2="BackgroundImageFix" result="shape"/>
<feGaussianBlur stdDeviation="17.5444" result="effect1_foregroundBlur_1975_39542"/>
</filter>
<filter id="filter5_f_1975_39542" x="4.91133" y="-1.22832" width="128.876" height="128.629" filterUnits="userSpaceOnUse" color-interpolation-filters="sRGB">
<feFlood flood-opacity="0" result="BackgroundImageFix"/>
<feBlend mode="normal" in="SourceGraphic" in2="BackgroundImageFix" result="shape"/>
<feGaussianBlur stdDeviation="21.7289" result="effect1_foregroundBlur_1975_39542"/>
</filter>
<filter id="filter6_f_1975_39542" x="4.91133" y="-1.22832" width="128.876" height="128.629" filterUnits="userSpaceOnUse" color-interpolation-filters="sRGB">
<feFlood flood-opacity="0" result="BackgroundImageFix"/>
<feBlend mode="normal" in="SourceGraphic" in2="BackgroundImageFix" result="shape"/>
<feGaussianBlur stdDeviation="21.7289" result="effect1_foregroundBlur_1975_39542"/>
</filter>
<filter id="filter7_f_1975_39542" x="29.3537" y="-32.2078" width="126.499" height="118.752" filterUnits="userSpaceOnUse" color-interpolation-filters="sRGB">
<feFlood flood-opacity="0" result="BackgroundImageFix"/>
<feBlend mode="normal" in="SourceGraphic" in2="BackgroundImageFix" result="shape"/>
<feGaussianBlur stdDeviation="21.7289" result="effect1_foregroundBlur_1975_39542"/>
</filter>
<filter id="filter8_f_1975_39542" x="92.4154" y="22.9925" width="15.7776" height="9.49832" filterUnits="userSpaceOnUse" color-interpolation-filters="sRGB">
<feFlood flood-opacity="0" result="BackgroundImageFix"/>
<feBlend mode="normal" in="SourceGraphic" in2="BackgroundImageFix" result="shape"/>
<feGaussianBlur stdDeviation="1.0965" result="effect1_foregroundBlur_1975_39542"/>
</filter>
<filter id="filter9_f_1975_39542" x="107.461" y="28.4427" width="8.25028" height="7.49832" filterUnits="userSpaceOnUse" color-interpolation-filters="sRGB">
<feFlood flood-opacity="0" result="BackgroundImageFix"/>
<feBlend mode="normal" in="SourceGraphic" in2="BackgroundImageFix" result="shape"/>
<feGaussianBlur stdDeviation="1.0965" result="effect1_foregroundBlur_1975_39542"/>
</filter>
<filter id="filter10_di_1975_39542" x="66.9916" y="33.2576" width="86.5001" height="44.4748" filterUnits="userSpaceOnUse" color-interpolation-filters="sRGB">
<feFlood flood-opacity="0" result="BackgroundImageFix"/>
<feColorMatrix in="SourceAlpha" type="matrix" values="0 0 0 0 0 0 0 0 0 0 0 0 0 0 0 0 0 0 127 0" result="hardAlpha"/>
<feOffset dy="1.44859"/>
<feGaussianBlur stdDeviation="2.06425"/>
<feComposite in2="hardAlpha" operator="out"/>
<feColorMatrix type="matrix" values="0 0 0 0 0 0 0 0 0 0 0 0 0 0 0 0 0 0 0.1 0"/>
<feBlend mode="normal" in2="BackgroundImageFix" result="effect1_dropShadow_1975_39542"/>
<feBlend mode="normal" in="SourceGraphic" in2="effect1_dropShadow_1975_39542" result="shape"/>
<feColorMatrix in="SourceAlpha" type="matrix" values="0 0 0 0 0 0 0 0 0 0 0 0 0 0 0 0 0 0 127 0" result="hardAlpha"/>
<feOffset dx="1.58057"/>
<feGaussianBlur stdDeviation="1.77815"/>
<feComposite in2="hardAlpha" operator="arithmetic" k2="-1" k3="1"/>
<feColorMatrix type="matrix" values="0 0 0 0 1 0 0 0 0 1 0 0 0 0 1 0 0 0 0.35 0"/>
<feBlend mode="normal" in2="shape" result="effect2_innerShadow_1975_39542"/>
</filter>
<filter id="filter11_f_1975_39542" x="127.421" y="48.5223" width="21.3324" height="20.6127" filterUnits="userSpaceOnUse" color-interpolation-filters="sRGB">
<feFlood flood-opacity="0" result="BackgroundImageFix"/>
<feBlend mode="normal" in="SourceGraphic" in2="BackgroundImageFix" result="shape"/>
<feGaussianBlur stdDeviation="1.65" result="effect1_foregroundBlur_1975_39542"/>
</filter>
<filter id="filter12_f_1975_39542" x="75.4998" y="34.5721" width="22.85" height="18.1117" filterUnits="userSpaceOnUse" color-interpolation-filters="sRGB">
<feFlood flood-opacity="0" result="BackgroundImageFix"/>
<feBlend mode="normal" in="SourceGraphic" in2="BackgroundImageFix" result="shape"/>
<feGaussianBlur stdDeviation="1.65" result="effect1_foregroundBlur_1975_39542"/>
</filter>
<filter id="filter13_ii_1975_39542" x="82.8712" y="12.0841" width="8.27917" height="8.17081" filterUnits="userSpaceOnUse" color-interpolation-filters="sRGB">
<feFlood flood-opacity="0" result="BackgroundImageFix"/>
<feBlend mode="normal" in="SourceGraphic" in2="BackgroundImageFix" result="shape"/>
<feColorMatrix in="SourceAlpha" type="matrix" values="0 0 0 0 0 0 0 0 0 0 0 0 0 0 0 0 0 0 127 0" result="hardAlpha"/>
<feOffset dy="-0.081944"/>
<feGaussianBlur stdDeviation="0.532636"/>
<feComposite in2="hardAlpha" operator="arithmetic" k2="-1" k3="1"/>
<feColorMatrix type="matrix" values="0 0 0 0 1 0 0 0 0 1 0 0 0 0 1 0 0 0 0.7 0"/>
<feBlend mode="normal" in2="shape" result="effect1_innerShadow_1975_39542"/>
<feColorMatrix in="SourceAlpha" type="matrix" values="0 0 0 0 0 0 0 0 0 0 0 0 0 0 0 0 0 0 127 0" result="hardAlpha"/>
<feOffset dx="-0.122916"/>
<feGaussianBlur stdDeviation="0.471178"/>
<feComposite in2="hardAlpha" operator="arithmetic" k2="-1" k3="1"/>
<feColorMatrix type="matrix" values="0 0 0 0 1 0 0 0 0 1 0 0 0 0 1 0 0 0 1 0"/>
<feBlend mode="normal" in2="effect1_innerShadow_1975_39542" result="effect2_innerShadow_1975_39542"/>
</filter>
<filter id="filter14_f_1975_39542" x="88.1332" y="14.6479" width="3.17784" height="1.73448" filterUnits="userSpaceOnUse" color-interpolation-filters="sRGB">
<feFlood flood-opacity="0" result="BackgroundImageFix"/>
<feBlend mode="normal" in="SourceGraphic" in2="BackgroundImageFix" result="shape"/>
<feGaussianBlur stdDeviation="0.20486" result="effect1_foregroundBlur_1975_39542"/>
</filter>
<filter id="filter15_ii_1975_39542" x="58.5389" y="49.9013" width="11.0275" height="11.0685" filterUnits="userSpaceOnUse" color-interpolation-filters="sRGB">
<feFlood flood-opacity="0" result="BackgroundImageFix"/>
<feBlend mode="normal" in="SourceGraphic" in2="BackgroundImageFix" result="shape"/>
<feColorMatrix in="SourceAlpha" type="matrix" values="0 0 0 0 0 0 0 0 0 0 0 0 0 0 0 0 0 0 127 0" result="hardAlpha"/>
<feOffset dy="-0.20127"/>
<feGaussianBlur stdDeviation="1.30825"/>
<feComposite in2="hardAlpha" operator="arithmetic" k2="-1" k3="1"/>
<feColorMatrix type="matrix" values="0 0 0 0 1 0 0 0 0 1 0 0 0 0 1 0 0 0 0.7 0"/>
<feBlend mode="normal" in2="shape" result="effect1_innerShadow_1975_39542"/>
<feColorMatrix in="SourceAlpha" type="matrix" values="0 0 0 0 0 0 0 0 0 0 0 0 0 0 0 0 0 0 127 0" result="hardAlpha"/>
<feOffset dx="-0.301905"/>
<feGaussianBlur stdDeviation="1.1573"/>
<feComposite in2="hardAlpha" operator="arithmetic" k2="-1" k3="1"/>
<feColorMatrix type="matrix" values="0 0 0 0 1 0 0 0 0 1 0 0 0 0 1 0 0 0 1 0"/>
<feBlend mode="normal" in2="effect1_innerShadow_1975_39542" result="effect2_innerShadow_1975_39542"/>
</filter>
<filter id="filter16_ii_1975_39542" x="141.424" y="29.7097" width="8.67903" height="8.71115" filterUnits="userSpaceOnUse" color-interpolation-filters="sRGB">
<feFlood flood-opacity="0" result="BackgroundImageFix"/>
<feBlend mode="normal" in="SourceGraphic" in2="BackgroundImageFix" result="shape"/>
<feColorMatrix in="SourceAlpha" type="matrix" values="0 0 0 0 0 0 0 0 0 0 0 0 0 0 0 0 0 0 127 0" result="hardAlpha"/>
<feOffset dy="-0.158418"/>
<feGaussianBlur stdDeviation="1.02972"/>
<feComposite in2="hardAlpha" operator="arithmetic" k2="-1" k3="1"/>
<feColorMatrix type="matrix" values="0 0 0 0 1 0 0 0 0 1 0 0 0 0 1 0 0 0 0.7 0"/>
<feBlend mode="normal" in2="shape" result="effect1_innerShadow_1975_39542"/>
<feColorMatrix in="SourceAlpha" type="matrix" values="0 0 0 0 0 0 0 0 0 0 0 0 0 0 0 0 0 0 127 0" result="hardAlpha"/>
<feOffset dx="-0.237627"/>
<feGaussianBlur stdDeviation="0.910903"/>
<feComposite in2="hardAlpha" operator="arithmetic" k2="-1" k3="1"/>
<feColorMatrix type="matrix" values="0 0 0 0 1 0 0 0 0 1 0 0 0 0 1 0 0 0 1 0"/>
<feBlend mode="normal" in2="effect1_innerShadow_1975_39542" result="effect2_innerShadow_1975_39542"/>
</filter>
<radialGradient id="paint0_radial_1975_39542" cx="0" cy="0" r="1" gradientTransform="matrix(-38.2687 -10.3274 -3.0789 11.4269 109.876 54.2007)" gradientUnits="userSpaceOnUse">
<stop offset="0.735577" stop-color="white"/>
<stop offset="0.860577" stop-color="#FFFFC0"/>
<stop offset="0.947115" stop-color="#FFFFC0"/>
</radialGradient>
<radialGradient id="paint1_radial_1975_39542" cx="0" cy="0" r="1" gradientUnits="userSpaceOnUse" gradientTransform="translate(139.65 59.5689) rotate(168.268) scale(34.5772 53.8673)">
<stop offset="0.139423" stop-color="#E38740"/>
<stop offset="0.668269" stop-color="#FF8989" stop-opacity="0"/>
</radialGradient>
<radialGradient id="paint2_radial_1975_39542" cx="0" cy="0" r="1" gradientTransform="matrix(-38.2687 -10.3274 -3.0789 11.4269 109.876 54.2007)" gradientUnits="userSpaceOnUse">
<stop offset="0.735577" stop-color="white"/>
<stop offset="0.860577" stop-color="#FFFFC0"/>
<stop offset="0.947115" stop-color="#FFFFC0"/>
</radialGradient>
<radialGradient id="paint3_radial_1975_39542" cx="0" cy="0" r="1" gradientUnits="userSpaceOnUse" gradientTransform="translate(139.65 59.5689) rotate(168.268) scale(34.5772 53.8673)">
<stop offset="0.139423" stop-color="#E38740"/>
<stop offset="0.668269" stop-color="#FF8989" stop-opacity="0"/>
</radialGradient>
<linearGradient id="paint4_linear_1975_39542" x1="87.0359" y1="19.8129" x2="87.9336" y2="12.4524" gradientUnits="userSpaceOnUse">
<stop stop-color="#2EEAE1"/>
<stop offset="1" stop-color="#A2A8FF"/>
</linearGradient>
<radialGradient id="paint5_radial_1975_39542" cx="0" cy="0" r="1" gradientTransform="matrix(6.4268 -0.257129 -0.532972 -6.42678 84.1049 16.7618)" gradientUnits="userSpaceOnUse">
<stop stop-color="white"/>
<stop offset="0.464944" stop-color="white" stop-opacity="0"/>
</radialGradient>
<linearGradient id="paint6_linear_1975_39542" x1="66.9865" y1="51.9278" x2="62.9031" y2="60.9056" gradientUnits="userSpaceOnUse">
<stop stop-color="#FF6866"/>
<stop offset="1" stop-color="#A2A8FF"/>
</linearGradient>
<radialGradient id="paint7_radial_1975_39542" cx="0" cy="0" r="1" gradientTransform="matrix(7.32037 5.1508 -5.47331 7.11218 61.3412 52.9558)" gradientUnits="userSpaceOnUse">
<stop stop-color="white"/>
<stop offset="0.464944" stop-color="white" stop-opacity="0"/>
</radialGradient>
<linearGradient id="paint8_linear_1975_39542" x1="148.073" y1="31.3047" x2="144.859" y2="38.371" gradientUnits="userSpaceOnUse">
<stop stop-color="#FF6866"/>
<stop offset="1" stop-color="#A2A8FF"/>
</linearGradient>
<radialGradient id="paint9_radial_1975_39542" cx="0" cy="0" r="1" gradientTransform="matrix(5.76181 4.05416 -4.308 5.59794 143.63 32.1138)" gradientUnits="userSpaceOnUse">
<stop stop-color="white"/>
<stop offset="0.464944" stop-color="white" stop-opacity="0"/>
</radialGradient>
<clipPath id="clip0_1975_39542">
<rect width="161.5" height="80" fill="white"/>
</clipPath>
<clipPath id="clip1_1975_39542">
<rect width="56.4521" height="56.4521" rx="28.226" transform="matrix(-0.869922 -0.49319 -0.49319 0.869922 148.586 43.832)" fill="white"/>
</clipPath>
</defs>
</svg>
