<svg width="160" height="200" viewBox="0 0 160 200" fill="none" xmlns="http://www.w3.org/2000/svg">
<g clip-path="url(#clip0_1946_7571)">
<rect width="160" height="200" fill="#2A2F39"/>
<g opacity="0.83" clip-path="url(#clip1_1946_7571)">
<g opacity="0.78">
<mask id="mask0_1946_7571" style="mask-type:luminance" maskUnits="userSpaceOnUse" x="-38" y="14" width="226" height="233">
<path d="M164.414 246.724L-37.999 224.89L-15.2501 14.0001L187.163 35.8347L164.414 246.724Z" fill="white"/>
</mask>
<g mask="url(#mask0_1946_7571)">
<path d="M116.026 25.9034C92.3999 23.3549 86.0267 82.4367 62.4008 79.8881C35.208 76.9548 -14.4706 64.9438 -17.5266 93.2737C-20.1817 117.888 36.5184 124.004 33.8633 148.618C30.8084 176.938 18.8323 228.763 46.0251 231.696C69.6509 234.244 76.0242 175.162 99.6499 177.711C126.843 180.644 176.521 192.656 179.576 164.336C182.231 139.722 125.521 133.605 128.177 108.991C131.232 80.661 143.219 28.8368 116.026 25.9034Z" fill="url(#paint0_linear_1946_7571)"/>
</g>
</g>
<g filter="url(#filter0_ii_1946_7571)">
<path d="M130.708 37.3174C131.041 36.8224 131.063 36.1936 130.766 35.6756C130.469 35.1576 129.915 34.8594 129.319 34.8963L124.021 35.226C123.795 35.2399 123.577 35.1422 123.438 34.9641L120.163 30.7863C119.795 30.3169 119.203 30.1012 118.619 30.2235C118.036 30.3457 117.58 30.7807 117.431 31.3583L116.108 36.4994C116.052 36.7185 115.891 36.8956 115.678 36.9734L110.692 38.7974C110.132 39.0022 109.744 39.4981 109.68 40.0917C109.616 40.6853 109.889 41.2523 110.392 41.5722L114.872 44.4197C115.063 44.5413 115.182 44.7489 115.191 44.9745L115.385 50.2793C115.402 50.7464 115.612 51.1601 115.976 51.4447C116.542 51.8886 117.368 51.8871 117.931 51.422L122.024 48.0409C122.195 47.8999 122.437 47.85 122.65 47.9098L127.755 49.3647C128.004 49.4357 128.255 49.4453 128.501 49.3937C128.95 49.2996 129.335 49.0105 129.555 48.6012C129.775 48.1943 129.8 47.7304 129.628 47.2967L127.678 42.3596C127.595 42.1493 127.621 41.9116 127.747 41.7236L130.708 37.3174Z" fill="url(#paint1_linear_1946_7571)"/>
<path d="M130.708 37.3174C131.041 36.8224 131.063 36.1936 130.766 35.6756C130.469 35.1576 129.915 34.8594 129.319 34.8963L124.021 35.226C123.795 35.2399 123.577 35.1422 123.438 34.9641L120.163 30.7863C119.795 30.3169 119.203 30.1012 118.619 30.2235C118.036 30.3457 117.58 30.7807 117.431 31.3583L116.108 36.4994C116.052 36.7185 115.891 36.8956 115.678 36.9734L110.692 38.7974C110.132 39.0022 109.744 39.4981 109.68 40.0917C109.616 40.6853 109.889 41.2523 110.392 41.5722L114.872 44.4197C115.063 44.5413 115.182 44.7489 115.191 44.9745L115.385 50.2793C115.402 50.7464 115.612 51.1601 115.976 51.4447C116.542 51.8886 117.368 51.8871 117.931 51.422L122.024 48.0409C122.195 47.8999 122.437 47.85 122.65 47.9098L127.755 49.3647C128.004 49.4357 128.255 49.4453 128.501 49.3937C128.95 49.2996 129.335 49.0105 129.555 48.6012C129.775 48.1943 129.8 47.7304 129.628 47.2967L127.678 42.3596C127.595 42.1493 127.621 41.9116 127.747 41.7236L130.708 37.3174Z" fill="url(#paint2_radial_1946_7571)"/>
</g>
<g filter="url(#filter1_f_1946_7571)">
<ellipse cx="125.999" cy="47.2919" rx="0.943512" ry="3.22557" transform="rotate(106.989 125.999 47.2919)" fill="white"/>
</g>
</g>
<g filter="url(#filter2_d_1946_7571)">
<g filter="url(#filter3_dii_1946_7571)">
<g clip-path="url(#clip2_1946_7571)">
<rect x="48.9438" y="142.654" width="104.742" height="104.742" rx="52.3708" transform="rotate(-64.4302 48.9438 142.654)" fill="white"/>
<g filter="url(#filter4_f_1946_7571)">
<circle cx="159.411" cy="144.562" r="58.5814" transform="rotate(94.4098 159.411 144.562)" fill="#FDFF8F"/>
</g>
<g filter="url(#filter5_f_1946_7571)">
<circle cx="100.128" cy="135.941" r="42.9523" transform="rotate(94.4098 100.128 135.941)" fill="#00FFF2"/>
</g>
<g filter="url(#filter6_f_1946_7571)">
<circle cx="131.595" cy="154.062" r="31.4172" transform="rotate(94.4098 131.595 154.062)" fill="#004D7D"/>
</g>
<g filter="url(#filter7_f_1946_7571)">
<ellipse cx="189.986" cy="87.8947" rx="38.2322" ry="39.3813" transform="rotate(94.4098 189.986 87.8947)" fill="#9EF7E7"/>
</g>
<g filter="url(#filter8_f_1946_7571)">
<ellipse cx="189.986" cy="87.8947" rx="38.2322" ry="39.3813" transform="rotate(94.4098 189.986 87.8947)" fill="#9EF7E7"/>
</g>
<g filter="url(#filter9_f_1946_7571)">
<ellipse cx="116.487" cy="57.899" rx="25.867" ry="39.3813" transform="rotate(83.8039 116.487 57.899)" fill="#FFD7F6"/>
</g>
<g filter="url(#filter10_f_1946_7571)">
<ellipse cx="105.37" cy="66.9363" rx="4.34541" ry="10.7372" transform="rotate(-136.028 105.37 66.9363)" fill="white"/>
</g>
<g filter="url(#filter11_f_1946_7571)">
<ellipse cx="92.9124" cy="85.682" rx="2.2546" ry="4.01147" transform="rotate(-157.796 92.9124 85.682)" fill="white"/>
</g>
</g>
</g>
<g filter="url(#filter12_di_1946_7571)">
<path d="M131.557 67.3279C134.668 68.0816 137.724 69.1283 140.7 70.4798C146.805 66.3816 151.574 64.8778 154.051 66.764C156.393 68.5475 156.351 73.1023 154.392 79.4741C150.922 90.7298 141.391 107.686 128.111 125.126C114.831 142.566 101.027 156.254 91.0921 162.602C85.4707 166.185 81.0911 167.437 78.749 165.653C76.2719 163.767 76.4532 158.77 78.7802 151.794C76.6859 149.285 74.8644 146.618 73.3105 143.82C66.7845 160.109 65.8978 173.011 72.2206 177.826C78.5435 182.641 90.1895 178.525 103.769 168.431C114.826 160.209 127.066 147.936 138.451 132.985C149.836 118.033 158.405 102.98 163.397 90.1255C169.534 74.3477 170.242 61.9188 164.064 57.2142C157.886 52.5096 145.539 56.6857 131.565 67.3183L131.557 67.3279Z" fill="url(#paint3_radial_1946_7571)"/>
<path d="M131.557 67.3279C134.668 68.0816 137.724 69.1283 140.7 70.4798C146.805 66.3816 151.574 64.8778 154.051 66.764C156.393 68.5475 156.351 73.1023 154.392 79.4741C150.922 90.7298 141.391 107.686 128.111 125.126C114.831 142.566 101.027 156.254 91.0921 162.602C85.4707 166.185 81.0911 167.437 78.749 165.653C76.2719 163.767 76.4532 158.77 78.7802 151.794C76.6859 149.285 74.8644 146.618 73.3105 143.82C66.7845 160.109 65.8978 173.011 72.2206 177.826C78.5435 182.641 90.1895 178.525 103.769 168.431C114.826 160.209 127.066 147.936 138.451 132.985C149.836 118.033 158.405 102.98 163.397 90.1255C169.534 74.3477 170.242 61.9188 164.064 57.2142C157.886 52.5096 145.539 56.6857 131.565 67.3183L131.557 67.3279Z" fill="url(#paint4_radial_1946_7571)" fill-opacity="0.5"/>
</g>
</g>
<g filter="url(#filter13_ii_1946_7571)">
<path d="M56.4639 148.929C56.4834 149.377 56.2514 149.79 55.858 150.006C55.4644 150.222 54.9922 150.196 54.6242 149.939L51.3535 147.651C51.2142 147.554 51.036 147.531 50.8768 147.59L47.1386 148.988C46.7187 149.145 46.2544 149.051 45.9276 148.744C45.6011 148.437 45.4791 147.979 45.6102 147.551L46.7754 143.733C46.8252 143.571 46.7913 143.394 46.6855 143.261L44.2012 140.137C43.9219 139.786 43.8672 139.316 44.0585 138.91C44.2501 138.504 44.6473 138.247 45.0956 138.239L49.086 138.167C49.2562 138.164 49.4141 138.078 49.5078 137.936L51.7113 134.608C51.905 134.315 52.2019 134.132 52.547 134.092C53.0842 134.029 53.6135 134.354 53.7926 134.873L55.0936 138.646C55.1481 138.803 55.2839 138.93 55.4439 138.975L59.2899 140.042C59.477 140.094 59.6419 140.186 59.7797 140.316C60.0312 140.552 60.1645 140.889 60.1454 141.237C60.1269 141.585 59.9617 141.892 59.6814 142.103L56.4953 144.507C56.3595 144.609 56.2832 144.772 56.2905 144.942L56.4639 148.929Z" fill="url(#paint5_linear_1946_7571)"/>
<path d="M56.4639 148.929C56.4834 149.377 56.2514 149.79 55.858 150.006C55.4644 150.222 54.9922 150.196 54.6242 149.939L51.3535 147.651C51.2142 147.554 51.036 147.531 50.8768 147.59L47.1386 148.988C46.7187 149.145 46.2544 149.051 45.9276 148.744C45.6011 148.437 45.4791 147.979 45.6102 147.551L46.7754 143.733C46.8252 143.571 46.7913 143.394 46.6855 143.261L44.2012 140.137C43.9219 139.786 43.8672 139.316 44.0585 138.91C44.2501 138.504 44.6473 138.247 45.0956 138.239L49.086 138.167C49.2562 138.164 49.4141 138.078 49.5078 137.936L51.7113 134.608C51.905 134.315 52.2019 134.132 52.547 134.092C53.0842 134.029 53.6135 134.354 53.7926 134.873L55.0936 138.646C55.1481 138.803 55.2839 138.93 55.4439 138.975L59.2899 140.042C59.477 140.094 59.6419 140.186 59.7797 140.316C60.0312 140.552 60.1645 140.889 60.1454 141.237C60.1269 141.585 59.9617 141.892 59.6814 142.103L56.4953 144.507C56.3595 144.609 56.2832 144.772 56.2905 144.942L56.4639 148.929Z" fill="url(#paint6_radial_1946_7571)"/>
</g>
<g filter="url(#filter14_f_1946_7571)">
<path d="M57.4864 140.052C56.1967 139.721 55.0726 139.757 54.9756 140.135C54.8786 140.512 55.8454 141.087 57.1351 141.418C58.4248 141.75 59.5489 141.713 59.6459 141.336C59.743 140.959 58.7761 140.384 57.4864 140.052Z" fill="white"/>
</g>
</g>
<defs>
<filter id="filter0_ii_1946_7571" x="109.071" y="29.7897" width="21.9034" height="21.9847" filterUnits="userSpaceOnUse" color-interpolation-filters="sRGB">
<feFlood flood-opacity="0" result="BackgroundImageFix"/>
<feBlend mode="normal" in="SourceGraphic" in2="BackgroundImageFix" result="shape"/>
<feColorMatrix in="SourceAlpha" type="matrix" values="0 0 0 0 0 0 0 0 0 0 0 0 0 0 0 0 0 0 127 0" result="hardAlpha"/>
<feOffset dy="-0.39978"/>
<feGaussianBlur stdDeviation="2.59857"/>
<feComposite in2="hardAlpha" operator="arithmetic" k2="-1" k3="1"/>
<feColorMatrix type="matrix" values="0 0 0 0 1 0 0 0 0 1 0 0 0 0 1 0 0 0 0.7 0"/>
<feBlend mode="normal" in2="shape" result="effect1_innerShadow_1946_7571"/>
<feColorMatrix in="SourceAlpha" type="matrix" values="0 0 0 0 0 0 0 0 0 0 0 0 0 0 0 0 0 0 127 0" result="hardAlpha"/>
<feOffset dx="-0.599671"/>
<feGaussianBlur stdDeviation="2.29874"/>
<feComposite in2="hardAlpha" operator="arithmetic" k2="-1" k3="1"/>
<feColorMatrix type="matrix" values="0 0 0 0 1 0 0 0 0 1 0 0 0 0 1 0 0 0 1 0"/>
<feBlend mode="normal" in2="effect1_innerShadow_1946_7571" result="effect2_innerShadow_1946_7571"/>
</filter>
<filter id="filter1_f_1946_7571" x="120.902" y="43.9884" width="10.1926" height="6.60718" filterUnits="userSpaceOnUse" color-interpolation-filters="sRGB">
<feFlood flood-opacity="0" result="BackgroundImageFix"/>
<feBlend mode="normal" in="SourceGraphic" in2="BackgroundImageFix" result="shape"/>
<feGaussianBlur stdDeviation="0.999451" result="effect1_foregroundBlur_1946_7571"/>
</filter>
<filter id="filter2_d_1946_7571" x="31.8768" y="33.5652" width="168.45" height="176.791" filterUnits="userSpaceOnUse" color-interpolation-filters="sRGB">
<feFlood flood-opacity="0" result="BackgroundImageFix"/>
<feColorMatrix in="SourceAlpha" type="matrix" values="0 0 0 0 0 0 0 0 0 0 0 0 0 0 0 0 0 0 127 0" result="hardAlpha"/>
<feOffset dx="-2.68773" dy="2.68773"/>
<feGaussianBlur stdDeviation="7.18968"/>
<feComposite in2="hardAlpha" operator="out"/>
<feColorMatrix type="matrix" values="0 0 0 0 0 0 0 0 0 0 0 0 0 0 0 0 0 0 0.25 0"/>
<feBlend mode="normal" in2="BackgroundImageFix" result="effect1_dropShadow_1946_7571"/>
<feBlend mode="normal" in="SourceGraphic" in2="effect1_dropShadow_1946_7571" result="shape"/>
</filter>
<filter id="filter3_dii_1946_7571" x="45.8438" y="44.0709" width="151.526" height="146.479" filterUnits="userSpaceOnUse" color-interpolation-filters="sRGB">
<feFlood flood-opacity="0" result="BackgroundImageFix"/>
<feColorMatrix in="SourceAlpha" type="matrix" values="0 0 0 0 0 0 0 0 0 0 0 0 0 0 0 0 0 0 127 0" result="hardAlpha"/>
<feOffset dy="-1"/>
<feGaussianBlur stdDeviation="1.55"/>
<feComposite in2="hardAlpha" operator="out"/>
<feColorMatrix type="matrix" values="0 0 0 0 1 0 0 0 0 1 0 0 0 0 1 0 0 0 0.59 0"/>
<feBlend mode="normal" in2="BackgroundImageFix" result="effect1_dropShadow_1946_7571"/>
<feBlend mode="normal" in="SourceGraphic" in2="effect1_dropShadow_1946_7571" result="shape"/>
<feColorMatrix in="SourceAlpha" type="matrix" values="0 0 0 0 0 0 0 0 0 0 0 0 0 0 0 0 0 0 127 0" result="hardAlpha"/>
<feOffset dx="8.73512" dy="2.68773"/>
<feGaussianBlur stdDeviation="6.71932"/>
<feComposite in2="hardAlpha" operator="arithmetic" k2="-1" k3="1"/>
<feColorMatrix type="matrix" values="0 0 0 0 1 0 0 0 0 1 0 0 0 0 1 0 0 0 0.6 0"/>
<feBlend mode="normal" in2="shape" result="effect2_innerShadow_1946_7571"/>
<feColorMatrix in="SourceAlpha" type="matrix" values="0 0 0 0 0 0 0 0 0 0 0 0 0 0 0 0 0 0 127 0" result="hardAlpha"/>
<feOffset dx="-2.0158" dy="-2.68773"/>
<feGaussianBlur stdDeviation="6.04739"/>
<feComposite in2="hardAlpha" operator="arithmetic" k2="-1" k3="1"/>
<feColorMatrix type="matrix" values="0 0 0 0 1 0 0 0 0 1 0 0 0 0 1 0 0 0 0.78 0"/>
<feBlend mode="normal" in2="effect2_innerShadow_1946_7571" result="effect3_innerShadow_1946_7571"/>
</filter>
<filter id="filter4_f_1946_7571" x="25.4587" y="10.6095" width="267.904" height="267.905" filterUnits="userSpaceOnUse" color-interpolation-filters="sRGB">
<feFlood flood-opacity="0" result="BackgroundImageFix"/>
<feBlend mode="normal" in="SourceGraphic" in2="BackgroundImageFix" result="shape"/>
<feGaussianBlur stdDeviation="37.684" result="effect1_foregroundBlur_1946_7571"/>
</filter>
<filter id="filter5_f_1946_7571" x="-3.23291" y="32.5796" width="206.722" height="206.722" filterUnits="userSpaceOnUse" color-interpolation-filters="sRGB">
<feFlood flood-opacity="0" result="BackgroundImageFix"/>
<feBlend mode="normal" in="SourceGraphic" in2="BackgroundImageFix" result="shape"/>
<feGaussianBlur stdDeviation="30.2034" result="effect1_foregroundBlur_1946_7571"/>
</filter>
<filter id="filter6_f_1946_7571" x="35.0719" y="57.5397" width="193.045" height="193.045" filterUnits="userSpaceOnUse" color-interpolation-filters="sRGB">
<feFlood flood-opacity="0" result="BackgroundImageFix"/>
<feBlend mode="normal" in="SourceGraphic" in2="BackgroundImageFix" result="shape"/>
<feGaussianBlur stdDeviation="32.5519" result="effect1_foregroundBlur_1946_7571"/>
</filter>
<filter id="filter7_f_1946_7571" x="69.978" y="-30.9786" width="240.016" height="237.746" filterUnits="userSpaceOnUse" color-interpolation-filters="sRGB">
<feFlood flood-opacity="0" result="BackgroundImageFix"/>
<feBlend mode="normal" in="SourceGraphic" in2="BackgroundImageFix" result="shape"/>
<feGaussianBlur stdDeviation="40.3159" result="effect1_foregroundBlur_1946_7571"/>
</filter>
<filter id="filter8_f_1946_7571" x="69.978" y="-30.9786" width="240.016" height="237.746" filterUnits="userSpaceOnUse" color-interpolation-filters="sRGB">
<feFlood flood-opacity="0" result="BackgroundImageFix"/>
<feBlend mode="normal" in="SourceGraphic" in2="BackgroundImageFix" result="shape"/>
<feGaussianBlur stdDeviation="40.3159" result="effect1_foregroundBlur_1946_7571"/>
</filter>
<filter id="filter9_f_1946_7571" x="-3.39704" y="-48.8018" width="239.769" height="213.402" filterUnits="userSpaceOnUse" color-interpolation-filters="sRGB">
<feFlood flood-opacity="0" result="BackgroundImageFix"/>
<feBlend mode="normal" in="SourceGraphic" in2="BackgroundImageFix" result="shape"/>
<feGaussianBlur stdDeviation="40.316" result="effect1_foregroundBlur_1946_7571"/>
</filter>
<filter id="filter10_f_1946_7571" x="93.2148" y="54.5697" width="24.3107" height="24.7336" filterUnits="userSpaceOnUse" color-interpolation-filters="sRGB">
<feFlood flood-opacity="0" result="BackgroundImageFix"/>
<feBlend mode="normal" in="SourceGraphic" in2="BackgroundImageFix" result="shape"/>
<feGaussianBlur stdDeviation="2.03446" result="effect1_foregroundBlur_1946_7571"/>
</filter>
<filter id="filter11_f_1946_7571" x="86.2636" y="77.8022" width="13.2975" height="15.7599" filterUnits="userSpaceOnUse" color-interpolation-filters="sRGB">
<feFlood flood-opacity="0" result="BackgroundImageFix"/>
<feBlend mode="normal" in="SourceGraphic" in2="BackgroundImageFix" result="shape"/>
<feGaussianBlur stdDeviation="2.03446" result="effect1_foregroundBlur_1946_7571"/>
</filter>
<filter id="filter12_di_1946_7571" x="60.2589" y="50.3246" width="115.764" height="139.858" filterUnits="userSpaceOnUse" color-interpolation-filters="sRGB">
<feFlood flood-opacity="0" result="BackgroundImageFix"/>
<feColorMatrix in="SourceAlpha" type="matrix" values="0 0 0 0 0 0 0 0 0 0 0 0 0 0 0 0 0 0 127 0" result="hardAlpha"/>
<feOffset dy="2.68773"/>
<feGaussianBlur stdDeviation="3.83001"/>
<feComposite in2="hardAlpha" operator="out"/>
<feColorMatrix type="matrix" values="0 0 0 0 0 0 0 0 0 0 0 0 0 0 0 0 0 0 0.1 0"/>
<feBlend mode="normal" in2="BackgroundImageFix" result="effect1_dropShadow_1946_7571"/>
<feBlend mode="normal" in="SourceGraphic" in2="effect1_dropShadow_1946_7571" result="shape"/>
<feColorMatrix in="SourceAlpha" type="matrix" values="0 0 0 0 0 0 0 0 0 0 0 0 0 0 0 0 0 0 127 0" result="hardAlpha"/>
<feOffset dx="2.93261"/>
<feGaussianBlur stdDeviation="3.29918"/>
<feComposite in2="hardAlpha" operator="arithmetic" k2="-1" k3="1"/>
<feColorMatrix type="matrix" values="0 0 0 0 1 0 0 0 0 1 0 0 0 0 1 0 0 0 0.35 0"/>
<feBlend mode="normal" in2="shape" result="effect2_innerShadow_1946_7571"/>
</filter>
<filter id="filter13_ii_1946_7571" x="43.7017" y="133.921" width="16.4453" height="16.2301" filterUnits="userSpaceOnUse" color-interpolation-filters="sRGB">
<feFlood flood-opacity="0" result="BackgroundImageFix"/>
<feBlend mode="normal" in="SourceGraphic" in2="BackgroundImageFix" result="shape"/>
<feColorMatrix in="SourceAlpha" type="matrix" values="0 0 0 0 0 0 0 0 0 0 0 0 0 0 0 0 0 0 127 0" result="hardAlpha"/>
<feOffset dy="-0.162765"/>
<feGaussianBlur stdDeviation="1.05797"/>
<feComposite in2="hardAlpha" operator="arithmetic" k2="-1" k3="1"/>
<feColorMatrix type="matrix" values="0 0 0 0 1 0 0 0 0 1 0 0 0 0 1 0 0 0 0.7 0"/>
<feBlend mode="normal" in2="shape" result="effect1_innerShadow_1946_7571"/>
<feColorMatrix in="SourceAlpha" type="matrix" values="0 0 0 0 0 0 0 0 0 0 0 0 0 0 0 0 0 0 127 0" result="hardAlpha"/>
<feOffset dx="-0.244147"/>
<feGaussianBlur stdDeviation="0.935896"/>
<feComposite in2="hardAlpha" operator="arithmetic" k2="-1" k3="1"/>
<feColorMatrix type="matrix" values="0 0 0 0 1 0 0 0 0 1 0 0 0 0 1 0 0 0 1 0"/>
<feBlend mode="normal" in2="effect1_innerShadow_1946_7571" result="effect2_innerShadow_1946_7571"/>
</filter>
<filter id="filter14_f_1946_7571" x="54.1549" y="139.012" width="6.31173" height="3.44601" filterUnits="userSpaceOnUse" color-interpolation-filters="sRGB">
<feFlood flood-opacity="0" result="BackgroundImageFix"/>
<feBlend mode="normal" in="SourceGraphic" in2="BackgroundImageFix" result="shape"/>
<feGaussianBlur stdDeviation="0.406912" result="effect1_foregroundBlur_1946_7571"/>
</filter>
<linearGradient id="paint0_linear_1946_7571" x1="73.3476" y1="199.975" x2="92.3999" y2="23.3549" gradientUnits="userSpaceOnUse">
<stop offset="0.0528846" stop-color="#1E1F28"/>
<stop offset="1" stop-color="#232730" stop-opacity="0"/>
</linearGradient>
<linearGradient id="paint1_linear_1946_7571" x1="125.85" y1="33.815" x2="117.739" y2="51.6473" gradientUnits="userSpaceOnUse">
<stop stop-color="#FF6866"/>
<stop offset="1" stop-color="#A2A8FF"/>
</linearGradient>
<radialGradient id="paint2_radial_1946_7571" cx="0" cy="0" r="1" gradientTransform="matrix(14.5404 10.231 -10.8716 14.1269 114.637 35.8568)" gradientUnits="userSpaceOnUse">
<stop stop-color="white"/>
<stop offset="0.464944" stop-color="white" stop-opacity="0"/>
</radialGradient>
<radialGradient id="paint3_radial_1946_7571" cx="0" cy="0" r="1" gradientTransform="matrix(47.2908 -56.3232 16.8106 14.126 118.862 117.366)" gradientUnits="userSpaceOnUse">
<stop offset="0.735577" stop-color="white"/>
<stop offset="0.860577" stop-color="#FFFFC0"/>
<stop offset="0.947115" stop-color="#FFFFC0"/>
</radialGradient>
<radialGradient id="paint4_radial_1946_7571" cx="0" cy="0" r="1" gradientUnits="userSpaceOnUse" gradientTransform="translate(79.2396 157.128) rotate(-23.1474) scale(64.1547 99.9457)">
<stop offset="0.139423" stop-color="#E38740"/>
<stop offset="0.668269" stop-color="#FF8989" stop-opacity="0"/>
</radialGradient>
<linearGradient id="paint5_linear_1946_7571" x1="51.9743" y1="149.273" x2="53.7576" y2="134.653" gradientUnits="userSpaceOnUse">
<stop stop-color="#2EEAE1"/>
<stop offset="1" stop-color="#A2A8FF"/>
</linearGradient>
<radialGradient id="paint6_radial_1946_7571" cx="0" cy="0" r="1" gradientTransform="matrix(12.7655 -0.510732 -1.05864 -12.7655 46.1526 143.213)" gradientUnits="userSpaceOnUse">
<stop stop-color="white"/>
<stop offset="0.464944" stop-color="white" stop-opacity="0"/>
</radialGradient>
<clipPath id="clip0_1946_7571">
<rect width="160" height="200" fill="white"/>
</clipPath>
<clipPath id="clip1_1946_7571">
<rect width="203.587" height="212.113" fill="white" transform="matrix(0.973126 0.230271 0.230271 -0.973126 -48.5869 200.16)"/>
</clipPath>
<clipPath id="clip2_1946_7571">
<rect x="48.9438" y="142.654" width="104.742" height="104.742" rx="52.3708" transform="rotate(-64.4302 48.9438 142.654)" fill="white"/>
</clipPath>
</defs>
</svg>
