<svg width="162" height="80" viewBox="0 0 162 80" fill="none" xmlns="http://www.w3.org/2000/svg">
<g clip-path="url(#clip0_1946_7408)">
<rect width="161.5" height="80" fill="#1F2027"/>
<g filter="url(#filter0_d_1946_7408)">
<g filter="url(#filter1_dii_1946_7408)">
<g clip-path="url(#clip1_1946_7408)">
<rect width="58.3973" height="58.3973" rx="29.1987" transform="matrix(-0.869922 -0.49319 -0.49319 0.869922 150.604 42.8037)" fill="white"/>
<g filter="url(#filter2_f_1946_7408)">
<circle cx="32.6613" cy="32.6613" r="32.6613" transform="matrix(0.633239 0.773956 0.773956 -0.633239 54.7256 74.292)" fill="#FDFF8F"/>
</g>
<g filter="url(#filter3_f_1946_7408)">
<circle cx="23.9475" cy="23.9475" r="23.9475" transform="matrix(0.633239 0.773956 0.773956 -0.633239 91.3555 52.6777)" fill="#00FFF2"/>
</g>
<g filter="url(#filter4_f_1946_7408)">
<circle cx="17.5163" cy="17.5163" r="17.5163" transform="matrix(0.633239 0.773956 0.773956 -0.633239 91.793 71.9023)" fill="#004D7D"/>
</g>
<g filter="url(#filter5_f_1946_7408)">
<ellipse cx="21.3159" cy="21.9565" rx="21.3159" ry="21.9565" transform="matrix(0.633239 0.773956 0.773956 -0.633239 38.1445 60.1279)" fill="#9EF7E7"/>
</g>
<g filter="url(#filter6_f_1946_7408)">
<ellipse cx="21.3159" cy="21.9565" rx="21.3159" ry="21.9565" transform="matrix(0.633239 0.773956 0.773956 -0.633239 38.1445 60.1279)" fill="#9EF7E7"/>
</g>
<g filter="url(#filter7_f_1946_7408)">
<ellipse cx="14.4218" cy="21.9565" rx="14.4218" ry="21.9565" transform="matrix(0.479973 0.877283 0.877283 -0.479973 66.5068 23.4512)" fill="#FFD7F6"/>
</g>
<g filter="url(#filter8_f_1946_7408)">
<ellipse cx="2.42273" cy="5.98638" rx="2.42273" ry="5.98638" transform="matrix(0.193354 -0.981129 -0.981129 -0.193354 106.063 29.6934)" fill="white"/>
</g>
<g filter="url(#filter9_f_1946_7408)">
<ellipse cx="1.25702" cy="2.23654" rx="1.25702" ry="2.23654" transform="matrix(0.54342 -0.839461 -0.839461 -0.54342 113.524 33.0332)" fill="white"/>
</g>
</g>
</g>
<g filter="url(#filter10_di_1946_7408)">
<path d="M88.8011 34.6912C87.6185 36.0278 86.5546 37.4807 85.6246 39.0476C81.5255 39.1197 78.8647 39.9525 78.3331 41.605C77.8305 43.1675 79.302 45.2373 82.2294 47.5271C87.4052 51.5689 97.171 56.2855 108.805 60.028C120.44 63.7705 131.117 65.6302 137.685 65.366C141.399 65.2124 143.801 64.3887 144.304 62.8262C144.835 61.1737 143.159 58.9458 139.871 56.4974C140.029 54.6821 140.011 52.8814 139.83 51.106C148.008 56.4755 152.528 62.0943 151.171 66.3123C149.814 70.5304 143.175 72.3612 133.745 72.0737C126.067 71.8388 116.556 70.1273 106.582 66.9189C96.6075 63.7105 87.8887 59.5577 81.5069 55.2698C73.6696 50.0099 69.3828 44.5512 70.7087 40.4295C72.0345 36.3079 79.0132 34.2814 88.7947 34.6891L88.8011 34.6912Z" fill="url(#paint0_radial_1946_7408)"/>
<path d="M88.8011 34.6912C87.6185 36.0278 86.5546 37.4807 85.6246 39.0476C81.5255 39.1197 78.8647 39.9525 78.3331 41.605C77.8305 43.1675 79.302 45.2373 82.2294 47.5271C87.4052 51.5689 97.171 56.2855 108.805 60.028C120.44 63.7705 131.117 65.6302 137.685 65.366C141.399 65.2124 143.801 64.3887 144.304 62.8262C144.835 61.1737 143.159 58.9458 139.871 56.4974C140.029 54.6821 140.011 52.8814 139.83 51.106C148.008 56.4755 152.528 62.0943 151.171 66.3123C149.814 70.5304 143.175 72.3612 133.745 72.0737C126.067 71.8388 116.556 70.1273 106.582 66.9189C96.6075 63.7105 87.8887 59.5577 81.5069 55.2698C73.6696 50.0099 69.3828 44.5512 70.7087 40.4295C72.0345 36.3079 79.0132 34.2814 88.7947 34.6891L88.8011 34.6912Z" fill="url(#paint1_radial_1946_7408)" fill-opacity="0.5"/>
</g>
</g>
<g filter="url(#filter11_ii_1946_7408)">
<path d="M89.2961 19.6389C89.306 19.8644 89.1891 20.072 88.9911 20.1808C88.7929 20.2895 88.5552 20.2765 88.37 20.1471L86.7233 18.9953C86.6532 18.9462 86.5635 18.9348 86.4833 18.9648L84.6013 19.6684C84.3899 19.7475 84.1561 19.7003 83.9916 19.5456C83.8273 19.3911 83.7659 19.1606 83.8318 18.9448L84.4184 17.0229C84.4435 16.941 84.4265 16.8521 84.3732 16.7851L83.1225 15.2123C82.9818 15.0356 82.9543 14.7989 83.0507 14.5944C83.1471 14.39 83.3471 14.2607 83.5728 14.2567L85.5817 14.2206C85.6674 14.219 85.7469 14.1755 85.7941 14.1043L86.9035 12.429C87.0009 12.2814 87.1504 12.1892 87.3242 12.1691C87.5946 12.1374 87.8611 12.3008 87.9513 12.5622L88.6062 14.4617C88.6337 14.541 88.7021 14.6049 88.7826 14.6275L90.7189 15.1647C90.8131 15.1908 90.8961 15.2372 90.9655 15.3025C91.0921 15.4215 91.1592 15.5907 91.1496 15.7664C91.1403 15.9412 91.0571 16.0961 90.916 16.2023L89.3119 17.4123C89.2436 17.4639 89.2052 17.5458 89.2088 17.6314L89.2961 19.6389Z" fill="url(#paint2_linear_1946_7408)"/>
<path d="M89.2961 19.6389C89.306 19.8644 89.1891 20.072 88.9911 20.1808C88.7929 20.2895 88.5552 20.2765 88.37 20.1471L86.7233 18.9953C86.6532 18.9462 86.5635 18.9348 86.4833 18.9648L84.6013 19.6684C84.3899 19.7475 84.1561 19.7003 83.9916 19.5456C83.8273 19.3911 83.7659 19.1606 83.8318 18.9448L84.4184 17.0229C84.4435 16.941 84.4265 16.8521 84.3732 16.7851L83.1225 15.2123C82.9818 15.0356 82.9543 14.7989 83.0507 14.5944C83.1471 14.39 83.3471 14.2607 83.5728 14.2567L85.5817 14.2206C85.6674 14.219 85.7469 14.1755 85.7941 14.1043L86.9035 12.429C87.0009 12.2814 87.1504 12.1892 87.3242 12.1691C87.5946 12.1374 87.8611 12.3008 87.9513 12.5622L88.6062 14.4617C88.6337 14.541 88.7021 14.6049 88.7826 14.6275L90.7189 15.1647C90.8131 15.1908 90.8961 15.2372 90.9655 15.3025C91.0921 15.4215 91.1592 15.5907 91.1496 15.7664C91.1403 15.9412 91.0571 16.0961 90.916 16.2023L89.3119 17.4123C89.2436 17.4639 89.2052 17.5458 89.2088 17.6314L89.2961 19.6389Z" fill="url(#paint3_radial_1946_7408)"/>
</g>
<g filter="url(#filter12_f_1946_7408)">
<path d="M89.8108 15.1702C89.1615 15.0032 88.5956 15.0218 88.5467 15.2117C88.4979 15.4017 88.9847 15.691 89.6339 15.858C90.2832 16.025 90.8492 16.0064 90.898 15.8164C90.9469 15.6265 90.4601 15.3372 89.8108 15.1702Z" fill="white"/>
</g>
<g filter="url(#filter13_ii_1946_7408)">
<path d="M69.4324 53.6911C69.5999 53.4419 69.6112 53.1254 69.4618 52.8645C69.3122 52.6038 69.0333 52.4536 68.7333 52.4722L66.0656 52.6382C65.952 52.6452 65.8422 52.596 65.7721 52.5063L64.1234 50.403C63.9383 50.1667 63.6402 50.0581 63.3462 50.1197C63.0525 50.1812 62.823 50.4002 62.7483 50.691L62.0819 53.2793C62.0536 53.3896 61.9726 53.4788 61.8657 53.5179L59.3555 54.4362C59.0734 54.5393 58.8781 54.789 58.8457 55.0879C58.8135 55.3867 58.9508 55.6722 59.2042 55.8332L61.4597 57.2668C61.5559 57.328 61.616 57.4325 61.6201 57.5461L61.7181 60.2168C61.7265 60.452 61.8322 60.6603 62.0155 60.8036C62.3006 61.027 62.7163 61.0262 62.9998 60.7921L65.0602 59.0899C65.1463 59.0189 65.2683 58.9938 65.3753 59.0239L67.9458 59.7564C68.0708 59.7921 68.1972 59.7969 68.3212 59.771C68.5475 59.7236 68.7409 59.578 68.8518 59.372C68.9624 59.1671 68.9754 58.9335 68.8888 58.7152L67.9068 56.2296C67.8649 56.1237 67.8781 56.0041 67.9416 55.9094L69.4324 53.6911Z" fill="url(#paint4_linear_1946_7408)"/>
<path d="M69.4324 53.6911C69.5999 53.4419 69.6112 53.1254 69.4618 52.8645C69.3122 52.6038 69.0333 52.4536 68.7333 52.4722L66.0656 52.6382C65.952 52.6452 65.8422 52.596 65.7721 52.5063L64.1234 50.403C63.9383 50.1667 63.6402 50.0581 63.3462 50.1197C63.0525 50.1812 62.823 50.4002 62.7483 50.691L62.0819 53.2793C62.0536 53.3896 61.9726 53.4788 61.8657 53.5179L59.3555 54.4362C59.0734 54.5393 58.8781 54.789 58.8457 55.0879C58.8135 55.3867 58.9508 55.6722 59.2042 55.8332L61.4597 57.2668C61.5559 57.328 61.616 57.4325 61.6201 57.5461L61.7181 60.2168C61.7265 60.452 61.8322 60.6603 62.0155 60.8036C62.3006 61.027 62.7163 61.0262 62.9998 60.7921L65.0602 59.0899C65.1463 59.0189 65.2683 58.9938 65.3753 59.0239L67.9458 59.7564C68.0708 59.7921 68.1972 59.7969 68.3212 59.771C68.5475 59.7236 68.7409 59.578 68.8518 59.372C68.9624 59.1671 68.9754 58.9335 68.8888 58.7152L67.9068 56.2296C67.8649 56.1237 67.8781 56.0041 67.9416 55.9094L69.4324 53.6911Z" fill="url(#paint5_radial_1946_7408)"/>
</g>
<g filter="url(#filter14_ii_1946_7408)">
<path d="M149.998 32.6925C150.13 32.4964 150.139 32.2472 150.021 32.0419C149.904 31.8367 149.684 31.7185 149.448 31.7332L147.348 31.8638C147.259 31.8693 147.173 31.8306 147.117 31.76L145.82 30.1045C145.674 29.9185 145.439 29.8331 145.208 29.8815C144.977 29.9299 144.796 30.1023 144.737 30.3312L144.213 32.3684C144.191 32.4552 144.127 32.5254 144.043 32.5562L142.067 33.279C141.845 33.3602 141.691 33.5567 141.666 33.7919C141.64 34.0271 141.748 34.2518 141.948 34.3786L143.723 35.5069C143.799 35.5551 143.846 35.6374 143.849 35.7268L143.927 37.8289C143.933 38.014 144.016 38.1779 144.161 38.2907C144.385 38.4666 144.712 38.466 144.935 38.2817L146.557 36.9419C146.625 36.886 146.721 36.8662 146.805 36.8899L148.828 37.4665C148.927 37.4946 149.026 37.4984 149.124 37.4779C149.302 37.4406 149.454 37.3261 149.541 37.1639C149.628 37.0027 149.639 36.8188 149.57 36.647L148.798 34.6906C148.765 34.6072 148.775 34.5131 148.825 34.4386L149.998 32.6925Z" fill="url(#paint6_linear_1946_7408)"/>
<path d="M149.998 32.6925C150.13 32.4964 150.139 32.2472 150.021 32.0419C149.904 31.8367 149.684 31.7185 149.448 31.7332L147.348 31.8638C147.259 31.8693 147.173 31.8306 147.117 31.76L145.82 30.1045C145.674 29.9185 145.439 29.8331 145.208 29.8815C144.977 29.9299 144.796 30.1023 144.737 30.3312L144.213 32.3684C144.191 32.4552 144.127 32.5254 144.043 32.5562L142.067 33.279C141.845 33.3602 141.691 33.5567 141.666 33.7919C141.64 34.0271 141.748 34.2518 141.948 34.3786L143.723 35.5069C143.799 35.5551 143.846 35.6374 143.849 35.7268L143.927 37.8289C143.933 38.014 144.016 38.1779 144.161 38.2907C144.385 38.4666 144.712 38.466 144.935 38.2817L146.557 36.9419C146.625 36.886 146.721 36.8662 146.805 36.8899L148.828 37.4665C148.927 37.4946 149.026 37.4984 149.124 37.4779C149.302 37.4406 149.454 37.3261 149.541 37.1639C149.628 37.0027 149.639 36.8188 149.57 36.647L148.798 34.6906C148.765 34.6072 148.775 34.5131 148.825 34.4386L149.998 32.6925Z" fill="url(#paint7_radial_1946_7408)"/>
</g>
</g>
<defs>
<filter id="filter0_d_1946_7408" x="56.836" y="7.48441" width="104.224" height="95.6356" filterUnits="userSpaceOnUse" color-interpolation-filters="sRGB">
<feFlood flood-opacity="0" result="BackgroundImageFix"/>
<feColorMatrix in="SourceAlpha" type="matrix" values="0 0 0 0 0 0 0 0 0 0 0 0 0 0 0 0 0 0 127 0" result="hardAlpha"/>
<feOffset dx="-1.49851" dy="1.49851"/>
<feGaussianBlur stdDeviation="4.00851"/>
<feComposite in2="hardAlpha" operator="out"/>
<feColorMatrix type="matrix" values="0 0 0 0 0 0 0 0 0 0 0 0 0 0 0 0 0 0 0.25 0"/>
<feBlend mode="normal" in2="BackgroundImageFix" result="effect1_dropShadow_1946_7408"/>
<feBlend mode="normal" in="SourceGraphic" in2="effect1_dropShadow_1946_7408" result="shape"/>
</filter>
<filter id="filter1_dii_1946_7408" x="69.2736" y="11.717" width="86.2011" height="83.386" filterUnits="userSpaceOnUse" color-interpolation-filters="sRGB">
<feFlood flood-opacity="0" result="BackgroundImageFix"/>
<feColorMatrix in="SourceAlpha" type="matrix" values="0 0 0 0 0 0 0 0 0 0 0 0 0 0 0 0 0 0 127 0" result="hardAlpha"/>
<feOffset dy="-0.557537"/>
<feGaussianBlur stdDeviation="0.864183"/>
<feComposite in2="hardAlpha" operator="out"/>
<feColorMatrix type="matrix" values="0 0 0 0 1 0 0 0 0 1 0 0 0 0 1 0 0 0 0.59 0"/>
<feBlend mode="normal" in2="BackgroundImageFix" result="effect1_dropShadow_1946_7408"/>
<feBlend mode="normal" in="SourceGraphic" in2="effect1_dropShadow_1946_7408" result="shape"/>
<feColorMatrix in="SourceAlpha" type="matrix" values="0 0 0 0 0 0 0 0 0 0 0 0 0 0 0 0 0 0 127 0" result="hardAlpha"/>
<feOffset dx="4.87016" dy="1.49851"/>
<feGaussianBlur stdDeviation="3.74628"/>
<feComposite in2="hardAlpha" operator="arithmetic" k2="-1" k3="1"/>
<feColorMatrix type="matrix" values="0 0 0 0 1 0 0 0 0 1 0 0 0 0 1 0 0 0 0.6 0"/>
<feBlend mode="normal" in2="shape" result="effect2_innerShadow_1946_7408"/>
<feColorMatrix in="SourceAlpha" type="matrix" values="0 0 0 0 0 0 0 0 0 0 0 0 0 0 0 0 0 0 127 0" result="hardAlpha"/>
<feOffset dx="-1.12388" dy="-1.49851"/>
<feGaussianBlur stdDeviation="3.37165"/>
<feComposite in2="hardAlpha" operator="arithmetic" k2="-1" k3="1"/>
<feColorMatrix type="matrix" values="0 0 0 0 1 0 0 0 0 1 0 0 0 0 1 0 0 0 0.78 0"/>
<feBlend mode="normal" in2="effect2_innerShadow_1946_7408" result="effect3_innerShadow_1946_7408"/>
</filter>
<filter id="filter2_f_1946_7408" x="26.0039" y="4.20509" width="149.365" height="149.366" filterUnits="userSpaceOnUse" color-interpolation-filters="sRGB">
<feFlood flood-opacity="0" result="BackgroundImageFix"/>
<feBlend mode="normal" in="SourceGraphic" in2="BackgroundImageFix" result="shape"/>
<feGaussianBlur stdDeviation="21.0102" result="effect1_foregroundBlur_1946_7408"/>
</filter>
<filter id="filter3_f_1946_7408" x="67.4274" y="-1.57941" width="115.255" height="115.255" filterUnits="userSpaceOnUse" color-interpolation-filters="sRGB">
<feFlood flood-opacity="0" result="BackgroundImageFix"/>
<feBlend mode="normal" in="SourceGraphic" in2="BackgroundImageFix" result="shape"/>
<feGaussianBlur stdDeviation="16.8395" result="effect1_foregroundBlur_1946_7408"/>
</filter>
<filter id="filter4_f_1946_7408" x="62.6269" y="20.5527" width="107.63" height="107.629" filterUnits="userSpaceOnUse" color-interpolation-filters="sRGB">
<feFlood flood-opacity="0" result="BackgroundImageFix"/>
<feBlend mode="normal" in="SourceGraphic" in2="BackgroundImageFix" result="shape"/>
<feGaussianBlur stdDeviation="18.1489" result="effect1_foregroundBlur_1946_7408"/>
</filter>
<filter id="filter5_f_1946_7408" x="1.97829" y="-3.80882" width="133.316" height="133.061" filterUnits="userSpaceOnUse" color-interpolation-filters="sRGB">
<feFlood flood-opacity="0" result="BackgroundImageFix"/>
<feBlend mode="normal" in="SourceGraphic" in2="BackgroundImageFix" result="shape"/>
<feGaussianBlur stdDeviation="22.4777" result="effect1_foregroundBlur_1946_7408"/>
</filter>
<filter id="filter6_f_1946_7408" x="1.97829" y="-3.80882" width="133.316" height="133.061" filterUnits="userSpaceOnUse" color-interpolation-filters="sRGB">
<feFlood flood-opacity="0" result="BackgroundImageFix"/>
<feBlend mode="normal" in="SourceGraphic" in2="BackgroundImageFix" result="shape"/>
<feGaussianBlur stdDeviation="22.4777" result="effect1_foregroundBlur_1946_7408"/>
</filter>
<filter id="filter7_f_1946_7408" x="27.2625" y="-35.8577" width="130.858" height="122.844" filterUnits="userSpaceOnUse" color-interpolation-filters="sRGB">
<feFlood flood-opacity="0" result="BackgroundImageFix"/>
<feBlend mode="normal" in="SourceGraphic" in2="BackgroundImageFix" result="shape"/>
<feGaussianBlur stdDeviation="22.4777" result="effect1_foregroundBlur_1946_7408"/>
</filter>
<filter id="filter8_f_1946_7408" x="92.498" y="21.2461" width="16.3213" height="9.82622" filterUnits="userSpaceOnUse" color-interpolation-filters="sRGB">
<feFlood flood-opacity="0" result="BackgroundImageFix"/>
<feBlend mode="normal" in="SourceGraphic" in2="BackgroundImageFix" result="shape"/>
<feGaussianBlur stdDeviation="1.13429" result="effect1_foregroundBlur_1946_7408"/>
</filter>
<filter id="filter9_f_1946_7408" x="108.063" y="26.8847" width="8.53325" height="7.75591" filterUnits="userSpaceOnUse" color-interpolation-filters="sRGB">
<feFlood flood-opacity="0" result="BackgroundImageFix"/>
<feBlend mode="normal" in="SourceGraphic" in2="BackgroundImageFix" result="shape"/>
<feGaussianBlur stdDeviation="1.13429" result="effect1_foregroundBlur_1946_7408"/>
</filter>
<filter id="filter10_di_1946_7408" x="66.1999" y="31.8655" width="89.48" height="46.0064" filterUnits="userSpaceOnUse" color-interpolation-filters="sRGB">
<feFlood flood-opacity="0" result="BackgroundImageFix"/>
<feColorMatrix in="SourceAlpha" type="matrix" values="0 0 0 0 0 0 0 0 0 0 0 0 0 0 0 0 0 0 127 0" result="hardAlpha"/>
<feOffset dy="1.49851"/>
<feGaussianBlur stdDeviation="2.13538"/>
<feComposite in2="hardAlpha" operator="out"/>
<feColorMatrix type="matrix" values="0 0 0 0 0 0 0 0 0 0 0 0 0 0 0 0 0 0 0.1 0"/>
<feBlend mode="normal" in2="BackgroundImageFix" result="effect1_dropShadow_1946_7408"/>
<feBlend mode="normal" in="SourceGraphic" in2="effect1_dropShadow_1946_7408" result="shape"/>
<feColorMatrix in="SourceAlpha" type="matrix" values="0 0 0 0 0 0 0 0 0 0 0 0 0 0 0 0 0 0 127 0" result="hardAlpha"/>
<feOffset dx="1.63504"/>
<feGaussianBlur stdDeviation="1.83942"/>
<feComposite in2="hardAlpha" operator="arithmetic" k2="-1" k3="1"/>
<feColorMatrix type="matrix" values="0 0 0 0 1 0 0 0 0 1 0 0 0 0 1 0 0 0 0.35 0"/>
<feBlend mode="normal" in2="shape" result="effect2_innerShadow_1946_7408"/>
</filter>
<filter id="filter11_ii_1946_7408" x="82.8712" y="12.0831" width="8.27917" height="8.17081" filterUnits="userSpaceOnUse" color-interpolation-filters="sRGB">
<feFlood flood-opacity="0" result="BackgroundImageFix"/>
<feBlend mode="normal" in="SourceGraphic" in2="BackgroundImageFix" result="shape"/>
<feColorMatrix in="SourceAlpha" type="matrix" values="0 0 0 0 0 0 0 0 0 0 0 0 0 0 0 0 0 0 127 0" result="hardAlpha"/>
<feOffset dy="-0.081944"/>
<feGaussianBlur stdDeviation="0.532636"/>
<feComposite in2="hardAlpha" operator="arithmetic" k2="-1" k3="1"/>
<feColorMatrix type="matrix" values="0 0 0 0 1 0 0 0 0 1 0 0 0 0 1 0 0 0 0.7 0"/>
<feBlend mode="normal" in2="shape" result="effect1_innerShadow_1946_7408"/>
<feColorMatrix in="SourceAlpha" type="matrix" values="0 0 0 0 0 0 0 0 0 0 0 0 0 0 0 0 0 0 127 0" result="hardAlpha"/>
<feOffset dx="-0.122916"/>
<feGaussianBlur stdDeviation="0.471178"/>
<feComposite in2="hardAlpha" operator="arithmetic" k2="-1" k3="1"/>
<feColorMatrix type="matrix" values="0 0 0 0 1 0 0 0 0 1 0 0 0 0 1 0 0 0 1 0"/>
<feBlend mode="normal" in2="effect1_innerShadow_1946_7408" result="effect2_innerShadow_1946_7408"/>
</filter>
<filter id="filter12_f_1946_7408" x="88.1332" y="14.6469" width="3.17784" height="1.73448" filterUnits="userSpaceOnUse" color-interpolation-filters="sRGB">
<feFlood flood-opacity="0" result="BackgroundImageFix"/>
<feBlend mode="normal" in="SourceGraphic" in2="BackgroundImageFix" result="shape"/>
<feGaussianBlur stdDeviation="0.20486" result="effect1_foregroundBlur_1946_7408"/>
</filter>
<filter id="filter13_ii_1946_7408" x="58.5389" y="49.9013" width="11.0275" height="11.0685" filterUnits="userSpaceOnUse" color-interpolation-filters="sRGB">
<feFlood flood-opacity="0" result="BackgroundImageFix"/>
<feBlend mode="normal" in="SourceGraphic" in2="BackgroundImageFix" result="shape"/>
<feColorMatrix in="SourceAlpha" type="matrix" values="0 0 0 0 0 0 0 0 0 0 0 0 0 0 0 0 0 0 127 0" result="hardAlpha"/>
<feOffset dy="-0.20127"/>
<feGaussianBlur stdDeviation="1.30825"/>
<feComposite in2="hardAlpha" operator="arithmetic" k2="-1" k3="1"/>
<feColorMatrix type="matrix" values="0 0 0 0 1 0 0 0 0 1 0 0 0 0 1 0 0 0 0.7 0"/>
<feBlend mode="normal" in2="shape" result="effect1_innerShadow_1946_7408"/>
<feColorMatrix in="SourceAlpha" type="matrix" values="0 0 0 0 0 0 0 0 0 0 0 0 0 0 0 0 0 0 127 0" result="hardAlpha"/>
<feOffset dx="-0.301905"/>
<feGaussianBlur stdDeviation="1.1573"/>
<feComposite in2="hardAlpha" operator="arithmetic" k2="-1" k3="1"/>
<feColorMatrix type="matrix" values="0 0 0 0 1 0 0 0 0 1 0 0 0 0 1 0 0 0 1 0"/>
<feBlend mode="normal" in2="effect1_innerShadow_1946_7408" result="effect2_innerShadow_1946_7408"/>
</filter>
<filter id="filter14_ii_1946_7408" x="141.424" y="29.7097" width="8.67903" height="8.71115" filterUnits="userSpaceOnUse" color-interpolation-filters="sRGB">
<feFlood flood-opacity="0" result="BackgroundImageFix"/>
<feBlend mode="normal" in="SourceGraphic" in2="BackgroundImageFix" result="shape"/>
<feColorMatrix in="SourceAlpha" type="matrix" values="0 0 0 0 0 0 0 0 0 0 0 0 0 0 0 0 0 0 127 0" result="hardAlpha"/>
<feOffset dy="-0.158418"/>
<feGaussianBlur stdDeviation="1.02972"/>
<feComposite in2="hardAlpha" operator="arithmetic" k2="-1" k3="1"/>
<feColorMatrix type="matrix" values="0 0 0 0 1 0 0 0 0 1 0 0 0 0 1 0 0 0 0.7 0"/>
<feBlend mode="normal" in2="shape" result="effect1_innerShadow_1946_7408"/>
<feColorMatrix in="SourceAlpha" type="matrix" values="0 0 0 0 0 0 0 0 0 0 0 0 0 0 0 0 0 0 127 0" result="hardAlpha"/>
<feOffset dx="-0.237627"/>
<feGaussianBlur stdDeviation="0.910903"/>
<feComposite in2="hardAlpha" operator="arithmetic" k2="-1" k3="1"/>
<feColorMatrix type="matrix" values="0 0 0 0 1 0 0 0 0 1 0 0 0 0 1 0 0 0 1 0"/>
<feBlend mode="normal" in2="effect1_innerShadow_1946_7408" result="effect2_innerShadow_1946_7408"/>
</filter>
<radialGradient id="paint0_radial_1946_7408" cx="0" cy="0" r="1" gradientUnits="userSpaceOnUse" gradientTransform="translate(110.561 53.53) rotate(-164.898) scale(41.0036 12.2422)">
<stop offset="0.735577" stop-color="white"/>
<stop offset="0.860577" stop-color="#FFFFC0"/>
<stop offset="0.947115" stop-color="#FFFFC0"/>
</radialGradient>
<radialGradient id="paint1_radial_1946_7408" cx="0" cy="0" r="1" gradientUnits="userSpaceOnUse" gradientTransform="translate(141.361 59.0832) rotate(168.268) scale(35.7687 55.7235)">
<stop offset="0.139423" stop-color="#E38740"/>
<stop offset="0.668269" stop-color="#FF8989" stop-opacity="0"/>
</radialGradient>
<linearGradient id="paint2_linear_1946_7408" x1="87.0359" y1="19.8119" x2="87.9336" y2="12.4515" gradientUnits="userSpaceOnUse">
<stop stop-color="#2EEAE1"/>
<stop offset="1" stop-color="#A2A8FF"/>
</linearGradient>
<radialGradient id="paint3_radial_1946_7408" cx="0" cy="0" r="1" gradientUnits="userSpaceOnUse" gradientTransform="translate(84.1049 16.7609) rotate(-2.29111) scale(6.43194 6.44295)">
<stop stop-color="white"/>
<stop offset="0.464944" stop-color="white" stop-opacity="0"/>
</radialGradient>
<linearGradient id="paint4_linear_1946_7408" x1="66.9865" y1="51.9278" x2="62.9031" y2="60.9056" gradientUnits="userSpaceOnUse">
<stop stop-color="#FF6866"/>
<stop offset="1" stop-color="#A2A8FF"/>
</linearGradient>
<radialGradient id="paint5_radial_1946_7408" cx="0" cy="0" r="1" gradientUnits="userSpaceOnUse" gradientTransform="translate(61.3412 52.9558) rotate(35.1312) scale(8.9509 8.96622)">
<stop stop-color="white"/>
<stop offset="0.464944" stop-color="white" stop-opacity="0"/>
</radialGradient>
<linearGradient id="paint6_linear_1946_7408" x1="148.073" y1="31.3047" x2="144.859" y2="38.371" gradientUnits="userSpaceOnUse">
<stop stop-color="#FF6866"/>
<stop offset="1" stop-color="#A2A8FF"/>
</linearGradient>
<radialGradient id="paint7_radial_1946_7408" cx="0" cy="0" r="1" gradientUnits="userSpaceOnUse" gradientTransform="translate(143.63 32.1138) rotate(35.1312) scale(7.04518 7.05724)">
<stop stop-color="white"/>
<stop offset="0.464944" stop-color="white" stop-opacity="0"/>
</radialGradient>
<clipPath id="clip0_1946_7408">
<rect width="161.5" height="80" fill="white"/>
</clipPath>
<clipPath id="clip1_1946_7408">
<rect width="58.3973" height="58.3973" rx="29.1987" transform="matrix(-0.869922 -0.49319 -0.49319 0.869922 150.604 42.8037)" fill="white"/>
</clipPath>
</defs>
</svg>
