<svg width="162" height="80" viewBox="0 0 162 80" fill="none" xmlns="http://www.w3.org/2000/svg">
<g clip-path="url(#clip0_1975_39609)">
<rect width="161.5" height="80" fill="#1F2027"/>
<path d="M71.6516 46.4824C71.8591 47.7102 72.1357 48.9252 72.4801 50.1218C71.7033 49.1486 70.8722 48.2201 69.9908 47.3406C68.3637 45.4016 66.1489 43.9451 63.5825 43.1274C57.1462 41.0769 50.5121 43.7951 48.7943 49.1868C48.1697 51.1471 48.265 53.2905 49.0521 55.3143C47.2397 56.5097 45.9217 58.2031 45.2971 60.1632C44.453 62.8124 44.9031 65.6856 46.564 68.2548C48.1833 70.7588 50.7724 72.6788 53.8545 73.6607C56.421 74.4785 59.0701 74.5717 61.5191 73.9311C62.7468 73.7238 63.9617 73.4472 65.1581 73.1028C64.185 73.8794 63.2566 74.7105 62.3773 75.5919C60.4381 77.2189 58.9817 79.4337 58.164 82.0003C57.182 85.0823 57.2502 88.3047 58.3561 91.0744C59.4905 93.9145 61.574 95.9446 64.2237 96.7885C66.1836 97.413 68.3265 97.318 70.3508 96.5307C71.5461 98.3431 73.2395 99.6612 75.1998 100.286C80.5916 102.004 86.6465 98.1647 88.6972 91.7284C89.5149 89.162 89.6082 86.5129 88.9677 84.064C88.7603 82.8362 88.4836 81.6211 88.1392 80.4246C88.916 81.3977 89.7471 82.3263 90.6285 83.2057C92.2556 85.1448 94.4704 86.6012 97.0368 87.4189C103.473 89.4694 110.107 86.7513 111.825 81.3592C112.45 79.399 112.354 77.2555 111.567 75.2317C113.379 74.0363 114.697 72.3429 115.322 70.3828C116.166 67.7335 115.716 64.8601 114.055 62.2913C112.436 59.7872 109.847 57.8678 106.765 56.8853C104.198 56.0675 101.549 55.9743 99.1001 56.6148C97.8725 56.8223 96.6576 57.099 95.4612 57.4436C96.4343 56.6669 97.3628 55.8358 98.2421 54.9544C100.181 53.3274 101.638 51.1126 102.455 48.5461C103.437 45.464 103.369 42.2416 102.263 39.472C102.124 39.1226 101.97 38.7858 101.802 38.4616C100.608 36.1502 98.7194 34.498 96.3958 33.7577C94.4358 33.1333 92.2923 33.2286 90.2685 34.0156C89.0732 32.2032 87.3797 30.885 85.4195 30.2606C80.0277 28.5427 73.9728 32.3817 71.9221 38.8179C71.1045 41.3845 71.0112 44.0335 71.6516 46.4824Z" fill="url(#paint0_linear_1975_39609)"/>
<path d="M132.682 47.8721C131.995 47.3518 131.28 46.8705 130.54 46.4307C131.392 46.5532 132.251 46.6274 133.112 46.653C134.851 46.8594 136.657 46.5442 138.338 45.7406C142.553 43.7253 144.608 39.2133 142.918 35.6828C142.304 34.3992 141.24 33.3643 139.885 32.7173C140.232 31.2566 140.093 29.779 139.479 28.4955C138.649 26.7608 137.061 25.5262 135.006 25.0183C133.004 24.5236 130.789 24.7825 128.771 25.7476C127.09 26.5512 125.711 27.759 124.78 29.2417C124.26 29.9277 123.778 30.6425 123.339 31.3828C123.461 30.5305 123.535 29.672 123.56 28.8114C123.767 27.073 123.451 25.2672 122.647 23.5866C121.681 21.5685 120.12 19.9771 118.25 19.1053C116.332 18.2115 114.32 18.1754 112.585 19.0052C111.302 19.6189 110.267 20.6818 109.62 22.0373C108.159 21.6903 106.681 21.8282 105.397 22.442C101.866 24.1302 100.634 28.9326 102.65 33.1471C103.455 34.8276 104.663 36.2066 106.146 37.1372C106.833 37.6576 107.548 38.1389 108.288 38.5786C107.436 38.4562 106.577 38.382 105.716 38.3564C103.977 38.15 102.171 38.4651 100.49 39.2688C96.2751 41.2841 94.2202 45.7961 95.9099 49.3267C96.524 50.6103 97.5879 51.6452 98.9436 52.2921C98.5968 53.7529 98.7351 55.2305 99.3492 56.514C100.179 58.2488 101.768 59.4836 103.822 59.9911C105.825 60.4859 108.039 60.2269 110.058 59.2619C111.739 58.4583 113.118 57.2505 114.048 55.7678C114.569 55.0818 115.05 54.3669 115.489 53.6266C115.367 54.4789 115.293 55.3374 115.268 56.1981C115.061 57.9364 115.377 59.7422 116.181 61.4228C117.147 63.4409 118.708 65.0323 120.578 65.9041C120.814 66.0141 121.051 66.111 121.289 66.195C122.986 66.7939 124.721 66.7318 126.243 66.0043C127.526 65.3905 128.561 64.3273 129.208 62.9721C130.67 63.3191 132.148 63.1812 133.431 62.5674C136.962 60.8791 138.194 56.0768 136.178 51.8623C135.373 50.1817 134.165 48.8028 132.682 47.8721Z" fill="url(#paint1_linear_1975_39609)"/>
<g filter="url(#filter0_diii_1975_39609)">
<path d="M135.446 48.9886C134.616 48.3594 133.752 47.7775 132.856 47.2458C133.887 47.3938 134.925 47.4834 135.966 47.5143C138.068 47.7637 140.252 47.3823 142.284 46.4103C147.38 43.9727 149.865 38.5163 147.823 34.2472C147.081 32.6951 145.795 31.4438 144.156 30.6616C144.575 28.8951 144.408 27.1083 143.666 25.5564C142.663 23.4587 140.743 21.966 138.259 21.3521C135.838 20.7541 133.161 21.0675 130.72 22.2348C128.688 23.2067 127.021 24.6675 125.896 26.4606C125.266 27.2902 124.685 28.1547 124.153 29.0499C124.301 28.0193 124.391 26.9811 124.421 25.9404C124.671 23.8382 124.29 21.6545 123.317 19.6224C122.15 17.1821 120.263 15.2579 118.002 14.2039C115.684 13.1233 113.252 13.08 111.154 14.0837C109.602 14.8258 108.351 16.1113 107.569 17.7506C105.802 17.3311 104.016 17.4981 102.463 18.2405C98.1944 20.2825 96.7044 26.0899 99.1419 31.1861C100.114 33.2181 101.575 34.8856 103.368 36.0107C104.197 36.6399 105.062 37.2218 105.957 37.7535C104.926 37.6055 103.888 37.5159 102.847 37.485C100.745 37.2356 98.5616 37.617 96.5295 38.589C91.4335 41.0266 88.9486 46.483 90.9909 50.7522C91.7332 52.3043 93.0193 53.5556 94.6581 54.3378C94.2386 56.1043 94.4057 57.8911 95.1479 59.443C96.1513 61.5407 98.0713 63.0337 100.555 63.6473C102.976 64.2453 105.653 63.9318 108.094 62.7646C110.126 61.7927 111.793 60.332 112.918 58.5389C113.547 57.7092 114.129 56.8447 114.661 55.9494C114.513 56.9801 114.423 58.0182 114.392 59.059C114.143 61.1611 114.524 63.3448 115.496 65.3769C116.663 67.8172 118.551 69.7414 120.811 70.7954C121.096 70.9284 121.383 71.0456 121.671 71.1471C123.723 71.8711 125.82 71.7958 127.659 70.9158C129.211 70.1734 130.463 68.8876 131.245 67.2487C133.011 67.6682 134.798 67.5013 136.35 66.7588C140.619 64.7168 142.109 58.9094 139.672 53.8132C138.7 51.7811 137.239 50.1137 135.446 48.9886Z" fill="url(#paint2_linear_1975_39609)"/>
<path d="M135.446 48.9886C134.616 48.3594 133.752 47.7775 132.856 47.2458C133.887 47.3938 134.925 47.4834 135.966 47.5143C138.068 47.7637 140.252 47.3823 142.284 46.4103C147.38 43.9727 149.865 38.5163 147.823 34.2472C147.081 32.6951 145.795 31.4438 144.156 30.6616C144.575 28.8951 144.408 27.1083 143.666 25.5564C142.663 23.4587 140.743 21.966 138.259 21.3521C135.838 20.7541 133.161 21.0675 130.72 22.2348C128.688 23.2067 127.021 24.6675 125.896 26.4606C125.266 27.2902 124.685 28.1547 124.153 29.0499C124.301 28.0193 124.391 26.9811 124.421 25.9404C124.671 23.8382 124.29 21.6545 123.317 19.6224C122.15 17.1821 120.263 15.2579 118.002 14.2039C115.684 13.1233 113.252 13.08 111.154 14.0837C109.602 14.8258 108.351 16.1113 107.569 17.7506C105.802 17.3311 104.016 17.4981 102.463 18.2405C98.1944 20.2825 96.7044 26.0899 99.1419 31.1861C100.114 33.2181 101.575 34.8856 103.368 36.0107C104.197 36.6399 105.062 37.2218 105.957 37.7535C104.926 37.6055 103.888 37.5159 102.847 37.485C100.745 37.2356 98.5616 37.617 96.5295 38.589C91.4335 41.0266 88.9486 46.483 90.9909 50.7522C91.7332 52.3043 93.0193 53.5556 94.6581 54.3378C94.2386 56.1043 94.4057 57.8911 95.1479 59.443C96.1513 61.5407 98.0713 63.0337 100.555 63.6473C102.976 64.2453 105.653 63.9318 108.094 62.7646C110.126 61.7927 111.793 60.332 112.918 58.5389C113.547 57.7092 114.129 56.8447 114.661 55.9494C114.513 56.9801 114.423 58.0182 114.392 59.059C114.143 61.1611 114.524 63.3448 115.496 65.3769C116.663 67.8172 118.551 69.7414 120.811 70.7954C121.096 70.9284 121.383 71.0456 121.671 71.1471C123.723 71.8711 125.82 71.7958 127.659 70.9158C129.211 70.1734 130.463 68.8876 131.245 67.2487C133.011 67.6682 134.798 67.5013 136.35 66.7588C140.619 64.7168 142.109 58.9094 139.672 53.8132C138.7 51.7811 137.239 50.1137 135.446 48.9886Z" fill="url(#paint3_radial_1975_39609)"/>
</g>
<g filter="url(#filter1_f_1975_39609)">
<ellipse cx="133.438" cy="43.3432" rx="2.38379" ry="8.14945" transform="rotate(87.8285 133.438 43.3432)" fill="white"/>
</g>
<g filter="url(#filter2_f_1975_39609)">
<ellipse cx="107.119" cy="57.4587" rx="2.38379" ry="8.14945" transform="rotate(53.2307 107.119 57.4587)" fill="white"/>
</g>
<g filter="url(#filter3_f_1975_39609)">
<ellipse cx="121.481" cy="22.2517" rx="2.25259" ry="6.89729" transform="rotate(159.954 121.481 22.2517)" fill="white"/>
</g>
</g>
<defs>
<filter id="filter0_diii_1975_39609" x="88.3831" y="10.0481" width="62.0482" height="72.4767" filterUnits="userSpaceOnUse" color-interpolation-filters="sRGB">
<feFlood flood-opacity="0" result="BackgroundImageFix"/>
<feColorMatrix in="SourceAlpha" type="matrix" values="0 0 0 0 0 0 0 0 0 0 0 0 0 0 0 0 0 0 127 0" result="hardAlpha"/>
<feOffset/>
<feGaussianBlur stdDeviation="0.946626"/>
<feComposite in2="hardAlpha" operator="out"/>
<feColorMatrix type="matrix" values="0 0 0 0 0.298712 0 0 0 0 0.585837 0 0 0 0 0.572092 0 0 0 1 0"/>
<feBlend mode="normal" in2="BackgroundImageFix" result="effect1_dropShadow_1975_39609"/>
<feBlend mode="normal" in="SourceGraphic" in2="effect1_dropShadow_1975_39609" result="shape"/>
<feColorMatrix in="SourceAlpha" type="matrix" values="0 0 0 0 0 0 0 0 0 0 0 0 0 0 0 0 0 0 127 0" result="hardAlpha"/>
<feOffset dx="0.473313" dy="-3.31319"/>
<feGaussianBlur stdDeviation="4.73313"/>
<feComposite in2="hardAlpha" operator="arithmetic" k2="-1" k3="1"/>
<feColorMatrix type="matrix" values="0 0 0 0 1 0 0 0 0 1 0 0 0 0 1 0 0 0 1 0"/>
<feBlend mode="normal" in2="shape" result="effect2_innerShadow_1975_39609"/>
<feColorMatrix in="SourceAlpha" type="matrix" values="0 0 0 0 0 0 0 0 0 0 0 0 0 0 0 0 0 0 127 0" result="hardAlpha"/>
<feOffset dx="0.473313" dy="10.8862"/>
<feGaussianBlur stdDeviation="8.51963"/>
<feComposite in2="hardAlpha" operator="arithmetic" k2="-1" k3="1"/>
<feColorMatrix type="matrix" values="0 0 0 0 1 0 0 0 0 1 0 0 0 0 1 0 0 0 0.5 0"/>
<feBlend mode="normal" in2="effect2_innerShadow_1975_39609" result="effect3_innerShadow_1975_39609"/>
<feColorMatrix in="SourceAlpha" type="matrix" values="0 0 0 0 0 0 0 0 0 0 0 0 0 0 0 0 0 0 127 0" result="hardAlpha"/>
<feOffset/>
<feGaussianBlur stdDeviation="0.473313"/>
<feComposite in2="hardAlpha" operator="arithmetic" k2="-1" k3="1"/>
<feColorMatrix type="matrix" values="0 0 0 0 1 0 0 0 0 1 0 0 0 0 1 0 0 0 1 0"/>
<feBlend mode="normal" in2="effect3_innerShadow_1975_39609" result="effect4_innerShadow_1975_39609"/>
</filter>
<filter id="filter1_f_1975_39609" x="120.561" y="36.2083" width="25.7543" height="14.27" filterUnits="userSpaceOnUse" color-interpolation-filters="sRGB">
<feFlood flood-opacity="0" result="BackgroundImageFix"/>
<feBlend mode="normal" in="SourceGraphic" in2="BackgroundImageFix" result="shape"/>
<feGaussianBlur stdDeviation="2.36656" result="effect1_foregroundBlur_1975_39609"/>
</filter>
<filter id="filter2_f_1975_39609" x="95.7024" y="47.4856" width="22.8334" height="19.9457" filterUnits="userSpaceOnUse" color-interpolation-filters="sRGB">
<feFlood flood-opacity="0" result="BackgroundImageFix"/>
<feBlend mode="normal" in="SourceGraphic" in2="BackgroundImageFix" result="shape"/>
<feGaussianBlur stdDeviation="2.36656" result="effect1_foregroundBlur_1975_39609"/>
</filter>
<filter id="filter3_f_1975_39609" x="114.008" y="11.4256" width="14.9457" height="21.6518" filterUnits="userSpaceOnUse" color-interpolation-filters="sRGB">
<feFlood flood-opacity="0" result="BackgroundImageFix"/>
<feBlend mode="normal" in="SourceGraphic" in2="BackgroundImageFix" result="shape"/>
<feGaussianBlur stdDeviation="2.15" result="effect1_foregroundBlur_1975_39609"/>
</filter>
<linearGradient id="paint0_linear_1975_39609" x1="65.8982" y1="37.3846" x2="100.936" y2="100.929" gradientUnits="userSpaceOnUse">
<stop offset="0.255566" stop-color="#16171C"/>
<stop offset="1" stop-color="#16171C" stop-opacity="0"/>
</linearGradient>
<linearGradient id="paint1_linear_1975_39609" x1="126.641" y1="22.0263" x2="110.273" y2="52.1223" gradientUnits="userSpaceOnUse">
<stop stop-color="#F6F68F"/>
<stop offset="1" stop-color="#2EEAE1"/>
</linearGradient>
<linearGradient id="paint2_linear_1975_39609" x1="128.146" y1="17.7351" x2="108.35" y2="54.1289" gradientUnits="userSpaceOnUse">
<stop stop-color="#F6F68F"/>
<stop offset="1" stop-color="#2EEAE1"/>
</linearGradient>
<radialGradient id="paint3_radial_1975_39609" cx="0" cy="0" r="1" gradientTransform="matrix(22.4415 50.2275 -44.712 71.3731 105.085 17.0949)" gradientUnits="userSpaceOnUse">
<stop stop-color="white"/>
<stop offset="0.464944" stop-color="white" stop-opacity="0"/>
</radialGradient>
<clipPath id="clip0_1975_39609">
<rect width="161.5" height="80" fill="white"/>
</clipPath>
</defs>
</svg>
