<svg width="162" height="80" viewBox="0 0 162 80" fill="none" xmlns="http://www.w3.org/2000/svg">
<g clip-path="url(#clip0_1946_7383)">
<rect width="161.5" height="80" fill="#1F2027"/>
<path d="M71.6516 46.4824C71.8591 47.7102 72.1357 48.9252 72.4801 50.1218C71.7033 49.1486 70.8722 48.2201 69.9908 47.3406C68.3637 45.4016 66.1489 43.9451 63.5825 43.1274C57.1462 41.0769 50.5121 43.7951 48.7943 49.1868C48.1697 51.1471 48.265 53.2905 49.0521 55.3143C47.2397 56.5097 45.9217 58.2031 45.2971 60.1632C44.453 62.8124 44.9031 65.6856 46.564 68.2548C48.1833 70.7588 50.7724 72.6788 53.8545 73.6607C56.421 74.4785 59.0701 74.5717 61.5191 73.9311C62.7468 73.7238 63.9617 73.4472 65.1581 73.1028C64.185 73.8794 63.2566 74.7105 62.3773 75.5919C60.4381 77.2189 58.9817 79.4337 58.164 82.0003C57.182 85.0823 57.2502 88.3047 58.3561 91.0744C59.4905 93.9145 61.574 95.9446 64.2237 96.7885C66.1836 97.413 68.3265 97.318 70.3508 96.5307C71.5461 98.3431 73.2395 99.6612 75.1998 100.286C80.5916 102.004 86.6465 98.1647 88.6972 91.7284C89.5149 89.162 89.6082 86.5129 88.9677 84.064C88.7603 82.8362 88.4836 81.6211 88.1392 80.4246C88.916 81.3977 89.7471 82.3263 90.6285 83.2057C92.2556 85.1448 94.4704 86.6012 97.0368 87.4189C103.473 89.4694 110.107 86.7513 111.825 81.3592C112.45 79.399 112.354 77.2555 111.567 75.2317C113.379 74.0363 114.697 72.3429 115.322 70.3828C116.166 67.7335 115.716 64.8601 114.055 62.2913C112.436 59.7872 109.847 57.8678 106.765 56.8853C104.198 56.0675 101.549 55.9743 99.1001 56.6148C97.8725 56.8223 96.6576 57.099 95.4612 57.4436C96.4343 56.6669 97.3628 55.8358 98.2421 54.9544C100.181 53.3274 101.638 51.1126 102.455 48.5461C103.437 45.464 103.369 42.2416 102.263 39.472C102.124 39.1226 101.97 38.7858 101.802 38.4616C100.608 36.1502 98.7194 34.498 96.3958 33.7577C94.4358 33.1333 92.2923 33.2286 90.2685 34.0156C89.0732 32.2032 87.3797 30.885 85.4195 30.2606C80.0277 28.5427 73.9728 32.3817 71.9221 38.8179C71.1045 41.3845 71.0112 44.0335 71.6516 46.4824Z" fill="url(#paint0_linear_1946_7383)"/>
<path d="M132.682 46.8721C131.995 46.3518 131.28 45.8705 130.54 45.4307C131.392 45.5532 132.251 45.6274 133.112 45.653C134.851 45.8594 136.657 45.5442 138.338 44.7406C142.553 42.7253 144.608 38.2133 142.918 34.6828C142.304 33.3992 141.24 32.3643 139.885 31.7173C140.232 30.2566 140.093 28.779 139.479 27.4955C138.649 25.7608 137.061 24.5262 135.006 24.0183C133.004 23.5236 130.789 23.7825 128.771 24.7476C127.09 25.5512 125.711 26.759 124.78 28.2417C124.26 28.9277 123.778 29.6425 123.339 30.3828C123.461 29.5305 123.535 28.672 123.56 27.8114C123.767 26.073 123.451 24.2672 122.647 22.5866C121.681 20.5685 120.12 18.9771 118.25 18.1053C116.332 17.2115 114.32 17.1754 112.585 18.0052C111.302 18.6189 110.267 19.6818 109.62 21.0373C108.159 20.6903 106.681 20.8282 105.397 21.442C101.866 23.1302 100.634 27.9326 102.65 32.1471C103.455 33.8276 104.663 35.2066 106.146 36.1372C106.833 36.6576 107.548 37.1389 108.288 37.5786C107.436 37.4562 106.577 37.382 105.716 37.3564C103.977 37.15 102.171 37.4651 100.49 38.2688C96.2751 40.2841 94.2202 44.7961 95.9099 48.3267C96.524 49.6103 97.5879 50.6452 98.9436 51.2921C98.5968 52.7529 98.7351 54.2305 99.3492 55.514C100.179 57.2488 101.768 58.4836 103.822 58.9911C105.825 59.4859 108.039 59.2269 110.058 58.2619C111.739 57.4583 113.118 56.2505 114.048 54.7678C114.569 54.0818 115.05 53.3669 115.489 52.6266C115.367 53.4789 115.293 54.3374 115.268 55.1981C115.061 56.9364 115.377 58.7422 116.181 60.4228C117.147 62.4409 118.708 64.0323 120.578 64.9041C120.814 65.0141 121.051 65.111 121.289 65.195C122.986 65.7939 124.721 65.7318 126.243 65.0043C127.526 64.3905 128.561 63.3273 129.208 61.9721C130.67 62.3191 132.148 62.1812 133.431 61.5674C136.962 59.8791 138.194 55.0768 136.178 50.8623C135.373 49.1817 134.165 47.8028 132.682 46.8721Z" fill="url(#paint1_linear_1946_7383)"/>
<g filter="url(#filter0_diii_1946_7383)">
<path d="M135.446 47.9895C134.616 47.3604 133.752 46.7785 132.856 46.2468C133.887 46.3947 134.925 46.4844 135.966 46.5153C138.068 46.7646 140.252 46.3833 142.284 45.4113C147.38 42.9736 149.865 37.5173 147.823 33.2482C147.081 31.696 145.795 30.4448 144.156 29.6626C144.575 27.8961 144.408 26.1093 143.666 24.5573C142.663 22.4597 140.743 20.967 138.259 20.3531C135.838 19.7551 133.161 20.0684 130.72 21.2358C128.688 22.2077 127.021 23.6684 125.896 25.4616C125.266 26.2912 124.685 27.1556 124.153 28.0509C124.301 27.0203 124.391 25.9821 124.421 24.9414C124.671 22.8392 124.29 20.6555 123.317 18.6234C122.15 16.183 120.263 14.2588 118.002 13.2049C115.684 12.1243 113.252 12.081 111.154 13.0846C109.602 13.8268 108.351 15.1123 107.569 16.7516C105.802 16.3321 104.016 16.499 102.463 17.2415C98.1944 19.2835 96.7044 25.0909 99.1419 30.187C100.114 32.2191 101.575 33.8865 103.368 35.0117C104.197 35.6409 105.062 36.2227 105.957 36.7545C104.926 36.6065 103.888 36.5169 102.847 36.486C100.745 36.2366 98.5616 36.618 96.5295 37.59C91.4335 40.0276 88.9486 45.484 90.9909 49.7532C91.7332 51.3053 93.0193 52.5566 94.6581 53.3388C94.2386 55.1053 94.4057 56.8921 95.1479 58.444C96.1513 60.5417 98.0713 62.0347 100.555 62.6482C102.976 63.2463 105.653 62.9327 108.094 61.7656C110.126 60.7936 111.793 59.3329 112.918 57.5398C113.547 56.7102 114.129 55.8457 114.661 54.9504C114.513 55.981 114.423 57.0192 114.392 58.06C114.143 60.1621 114.524 62.3458 115.496 64.3779C116.663 66.8182 118.551 68.7424 120.811 69.7964C121.096 69.9293 121.383 70.0466 121.671 70.1481C123.723 70.8721 125.82 70.7968 127.659 69.9168C129.211 69.1744 130.463 67.8885 131.245 66.2497C133.011 66.6692 134.798 66.5023 136.35 65.7598C140.619 63.7178 142.109 57.9103 139.672 52.8142C138.7 50.7821 137.239 49.1147 135.446 47.9895Z" fill="url(#paint2_linear_1946_7383)"/>
<path d="M135.446 47.9895C134.616 47.3604 133.752 46.7785 132.856 46.2468C133.887 46.3947 134.925 46.4844 135.966 46.5153C138.068 46.7646 140.252 46.3833 142.284 45.4113C147.38 42.9736 149.865 37.5173 147.823 33.2482C147.081 31.696 145.795 30.4448 144.156 29.6626C144.575 27.8961 144.408 26.1093 143.666 24.5573C142.663 22.4597 140.743 20.967 138.259 20.3531C135.838 19.7551 133.161 20.0684 130.72 21.2358C128.688 22.2077 127.021 23.6684 125.896 25.4616C125.266 26.2912 124.685 27.1556 124.153 28.0509C124.301 27.0203 124.391 25.9821 124.421 24.9414C124.671 22.8392 124.29 20.6555 123.317 18.6234C122.15 16.183 120.263 14.2588 118.002 13.2049C115.684 12.1243 113.252 12.081 111.154 13.0846C109.602 13.8268 108.351 15.1123 107.569 16.7516C105.802 16.3321 104.016 16.499 102.463 17.2415C98.1944 19.2835 96.7044 25.0909 99.1419 30.187C100.114 32.2191 101.575 33.8865 103.368 35.0117C104.197 35.6409 105.062 36.2227 105.957 36.7545C104.926 36.6065 103.888 36.5169 102.847 36.486C100.745 36.2366 98.5616 36.618 96.5295 37.59C91.4335 40.0276 88.9486 45.484 90.9909 49.7532C91.7332 51.3053 93.0193 52.5566 94.6581 53.3388C94.2386 55.1053 94.4057 56.8921 95.1479 58.444C96.1513 60.5417 98.0713 62.0347 100.555 62.6482C102.976 63.2463 105.653 62.9327 108.094 61.7656C110.126 60.7936 111.793 59.3329 112.918 57.5398C113.547 56.7102 114.129 55.8457 114.661 54.9504C114.513 55.981 114.423 57.0192 114.392 58.06C114.143 60.1621 114.524 62.3458 115.496 64.3779C116.663 66.8182 118.551 68.7424 120.811 69.7964C121.096 69.9293 121.383 70.0466 121.671 70.1481C123.723 70.8721 125.82 70.7968 127.659 69.9168C129.211 69.1744 130.463 67.8885 131.245 66.2497C133.011 66.6692 134.798 66.5023 136.35 65.7598C140.619 63.7178 142.109 57.9103 139.672 52.8142C138.7 50.7821 137.239 49.1147 135.446 47.9895Z" fill="url(#paint3_radial_1946_7383)"/>
</g>
<g filter="url(#filter1_f_1946_7383)">
<ellipse cx="133.438" cy="42.3432" rx="2.38379" ry="8.14945" transform="rotate(87.8285 133.438 42.3432)" fill="white"/>
</g>
<g filter="url(#filter2_f_1946_7383)">
<ellipse cx="107.12" cy="56.4587" rx="2.38379" ry="8.14945" transform="rotate(53.2307 107.12 56.4587)" fill="white"/>
</g>
<g filter="url(#filter3_f_1946_7383)">
<ellipse cx="133.086" cy="33.4647" rx="4.31507" ry="14.7519" transform="rotate(159.954 133.086 33.4647)" fill="white"/>
</g>
</g>
<defs>
<filter id="filter0_diii_1946_7383" x="88.3831" y="9.04911" width="62.0482" height="72.4767" filterUnits="userSpaceOnUse" color-interpolation-filters="sRGB">
<feFlood flood-opacity="0" result="BackgroundImageFix"/>
<feColorMatrix in="SourceAlpha" type="matrix" values="0 0 0 0 0 0 0 0 0 0 0 0 0 0 0 0 0 0 127 0" result="hardAlpha"/>
<feOffset/>
<feGaussianBlur stdDeviation="0.946626"/>
<feComposite in2="hardAlpha" operator="out"/>
<feColorMatrix type="matrix" values="0 0 0 0 0.298712 0 0 0 0 0.585837 0 0 0 0 0.572092 0 0 0 1 0"/>
<feBlend mode="normal" in2="BackgroundImageFix" result="effect1_dropShadow_1946_7383"/>
<feBlend mode="normal" in="SourceGraphic" in2="effect1_dropShadow_1946_7383" result="shape"/>
<feColorMatrix in="SourceAlpha" type="matrix" values="0 0 0 0 0 0 0 0 0 0 0 0 0 0 0 0 0 0 127 0" result="hardAlpha"/>
<feOffset dx="0.473313" dy="-3.31319"/>
<feGaussianBlur stdDeviation="4.73313"/>
<feComposite in2="hardAlpha" operator="arithmetic" k2="-1" k3="1"/>
<feColorMatrix type="matrix" values="0 0 0 0 1 0 0 0 0 1 0 0 0 0 1 0 0 0 1 0"/>
<feBlend mode="normal" in2="shape" result="effect2_innerShadow_1946_7383"/>
<feColorMatrix in="SourceAlpha" type="matrix" values="0 0 0 0 0 0 0 0 0 0 0 0 0 0 0 0 0 0 127 0" result="hardAlpha"/>
<feOffset dx="0.473313" dy="10.8862"/>
<feGaussianBlur stdDeviation="8.51963"/>
<feComposite in2="hardAlpha" operator="arithmetic" k2="-1" k3="1"/>
<feColorMatrix type="matrix" values="0 0 0 0 1 0 0 0 0 1 0 0 0 0 1 0 0 0 0.5 0"/>
<feBlend mode="normal" in2="effect2_innerShadow_1946_7383" result="effect3_innerShadow_1946_7383"/>
<feColorMatrix in="SourceAlpha" type="matrix" values="0 0 0 0 0 0 0 0 0 0 0 0 0 0 0 0 0 0 127 0" result="hardAlpha"/>
<feOffset/>
<feGaussianBlur stdDeviation="0.473313"/>
<feComposite in2="hardAlpha" operator="arithmetic" k2="-1" k3="1"/>
<feColorMatrix type="matrix" values="0 0 0 0 1 0 0 0 0 1 0 0 0 0 1 0 0 0 1 0"/>
<feBlend mode="normal" in2="effect3_innerShadow_1946_7383" result="effect4_innerShadow_1946_7383"/>
</filter>
<filter id="filter1_f_1946_7383" x="120.561" y="35.2083" width="25.7543" height="14.27" filterUnits="userSpaceOnUse" color-interpolation-filters="sRGB">
<feFlood flood-opacity="0" result="BackgroundImageFix"/>
<feBlend mode="normal" in="SourceGraphic" in2="BackgroundImageFix" result="shape"/>
<feGaussianBlur stdDeviation="2.36656" result="effect1_foregroundBlur_1946_7383"/>
</filter>
<filter id="filter2_f_1946_7383" x="95.7034" y="46.4856" width="22.8334" height="19.9457" filterUnits="userSpaceOnUse" color-interpolation-filters="sRGB">
<feFlood flood-opacity="0" result="BackgroundImageFix"/>
<feBlend mode="normal" in="SourceGraphic" in2="BackgroundImageFix" result="shape"/>
<feGaussianBlur stdDeviation="2.36656" result="effect1_foregroundBlur_1946_7383"/>
</filter>
<filter id="filter3_f_1946_7383" x="117.118" y="10.0401" width="31.9355" height="46.8486" filterUnits="userSpaceOnUse" color-interpolation-filters="sRGB">
<feFlood flood-opacity="0" result="BackgroundImageFix"/>
<feBlend mode="normal" in="SourceGraphic" in2="BackgroundImageFix" result="shape"/>
<feGaussianBlur stdDeviation="4.74315" result="effect1_foregroundBlur_1946_7383"/>
</filter>
<linearGradient id="paint0_linear_1946_7383" x1="65.8982" y1="37.3846" x2="100.936" y2="100.929" gradientUnits="userSpaceOnUse">
<stop offset="0.255566" stop-color="#16171C"/>
<stop offset="1" stop-color="#16171C" stop-opacity="0"/>
</linearGradient>
<linearGradient id="paint1_linear_1946_7383" x1="126.641" y1="21.0263" x2="110.273" y2="51.1223" gradientUnits="userSpaceOnUse">
<stop stop-color="#F6F68F"/>
<stop offset="1" stop-color="#2EEAE1"/>
</linearGradient>
<linearGradient id="paint2_linear_1946_7383" x1="128.146" y1="16.7361" x2="108.35" y2="53.1299" gradientUnits="userSpaceOnUse">
<stop stop-color="#F6F68F"/>
<stop offset="1" stop-color="#2EEAE1"/>
</linearGradient>
<radialGradient id="paint3_radial_1946_7383" cx="0" cy="0" r="1" gradientUnits="userSpaceOnUse" gradientTransform="translate(105.085 16.0959) rotate(65.925) scale(55.013 69.938)">
<stop stop-color="white"/>
<stop offset="0.464944" stop-color="white" stop-opacity="0"/>
</radialGradient>
<clipPath id="clip0_1946_7383">
<rect width="161.5" height="80" fill="white"/>
</clipPath>
</defs>
</svg>
