<svg width="160" height="200" viewBox="0 0 160 200" fill="none" xmlns="http://www.w3.org/2000/svg">
<g clip-path="url(#clip0_1946_7544)">
<rect width="160" height="200" fill="#2A2F39"/>
<g opacity="0.8">
<path d="M24.4447 116.128C24.8605 118.589 25.4149 121.024 26.1053 123.422C24.5485 121.472 22.8827 119.611 21.1161 117.848C17.8551 113.962 13.4161 111.043 8.2723 109.404C-4.62755 105.294 -17.9238 110.742 -21.3668 121.548C-22.6186 125.477 -22.4274 129.773 -20.85 133.829C-24.4825 136.225 -27.1241 139.619 -28.3759 143.547C-30.0677 148.857 -29.1656 154.616 -25.8367 159.765C-22.5913 164.784 -17.4021 168.632 -11.2248 170.6C-6.08091 172.239 -0.771483 172.426 4.13684 171.142C6.59734 170.726 9.03238 170.172 11.4303 169.481C9.47999 171.038 7.61923 172.704 5.85693 174.47C1.97022 177.731 -0.948797 182.17 -2.58752 187.314C-4.55579 193.491 -4.41902 199.95 -2.20254 205.501C0.0709504 211.193 4.2469 215.262 9.55747 216.953C13.4855 218.205 17.7805 218.014 21.8377 216.437C24.2334 220.069 27.6273 222.711 31.5562 223.963C42.3626 227.405 54.4981 219.711 58.6082 206.812C60.2471 201.668 60.4339 196.358 59.1503 191.45C58.7345 188.989 58.1802 186.554 57.4898 184.156C59.0466 186.106 60.7123 187.967 62.479 189.73C65.74 193.616 70.179 196.535 75.3228 198.174C88.2226 202.284 101.519 196.836 104.961 186.029C106.213 182.1 106.022 177.804 104.445 173.748C108.077 171.352 110.719 167.958 111.971 164.03C113.662 158.72 112.761 152.961 109.431 147.813C106.186 142.794 100.997 138.947 94.8196 136.978C89.6756 135.339 84.3662 135.152 79.4581 136.436C76.9976 136.851 74.5626 137.406 72.1648 138.097C74.1151 136.54 75.976 134.874 77.7384 133.108C81.6248 129.847 84.5439 125.408 86.1826 120.264C88.1509 114.087 88.0141 107.628 85.7976 102.077C85.518 101.377 85.2102 100.702 84.8742 100.052C82.4803 95.4196 78.6949 92.1083 74.0381 90.6246C70.1096 89.3731 65.8136 89.564 61.7574 91.1415C59.3617 87.509 55.9677 84.867 52.0388 83.6155C41.2325 80.1725 29.097 87.8667 24.9869 100.766C23.3481 105.91 23.1612 111.22 24.4447 116.128Z" fill="url(#paint0_linear_1946_7544)"/>
</g>
<path d="M146.76 116.909C145.384 115.866 143.951 114.901 142.467 114.02C144.175 114.265 145.897 114.414 147.622 114.465C151.107 114.879 154.728 114.247 158.096 112.637C166.544 108.597 170.663 99.5544 167.277 92.4785C166.046 89.9058 163.914 87.8317 161.196 86.535C161.892 83.6073 161.614 80.6458 160.384 78.0734C158.72 74.5966 155.536 72.1222 151.419 71.1044C147.405 70.1128 142.966 70.6316 138.921 72.566C135.552 74.1765 132.788 76.5972 130.923 79.5691C129.88 80.9439 128.916 82.3765 128.035 83.8602C128.28 82.1521 128.428 80.4315 128.479 78.7065C128.892 75.2224 128.26 71.6031 126.648 68.2349C124.712 64.19 121.583 61.0005 117.835 59.2532C113.992 57.4619 109.959 57.3896 106.482 59.0527C103.909 60.2826 101.835 62.4129 100.538 65.1297C97.6097 64.4341 94.6476 64.7105 92.0745 65.9408C84.9974 69.3244 82.5283 78.9495 86.5702 87.3963C88.1819 90.7645 90.6039 93.5284 93.5767 95.3935C94.9523 96.4365 96.3857 97.401 97.8701 98.2825C96.1613 98.0371 94.44 97.8883 92.7144 97.8369C89.2294 97.4233 85.6092 98.055 82.2405 99.6656C73.7925 103.705 69.6739 112.748 73.0605 119.824C74.2914 122.397 76.4237 124.471 79.1408 125.768C78.4456 128.695 78.7229 131.657 79.9538 134.229C81.6176 137.706 84.8009 140.181 88.9186 141.198C92.9324 142.19 97.37 141.671 101.416 139.737C104.785 138.126 107.549 135.705 109.414 132.734C110.457 131.359 111.421 129.926 112.302 128.442C112.057 130.15 111.909 131.871 111.858 133.596C111.445 137.08 112.077 140.699 113.689 144.067C115.625 148.112 118.754 151.302 122.502 153.049C122.974 153.27 123.449 153.464 123.927 153.632C127.328 154.833 130.805 154.708 133.855 153.25C136.428 152.02 138.502 149.889 139.798 147.173C142.727 147.868 145.689 147.592 148.262 146.362C155.339 142.978 157.809 133.353 153.767 124.906C152.155 121.538 149.733 118.774 146.76 116.909Z" fill="url(#paint1_linear_1946_7544)"/>
<g filter="url(#filter0_diii_1946_7544)">
<path d="M152.302 119.148C150.639 117.886 148.906 116.72 147.112 115.655C149.178 115.951 151.259 116.131 153.345 116.193C157.558 116.693 161.934 115.928 166.007 113.98C176.221 109.094 181.201 98.1586 177.108 89.6024C175.62 86.4915 173.043 83.9837 169.758 82.416C170.599 78.8755 170.264 75.2944 168.777 72.1838C166.766 67.9797 162.918 64.9879 157.94 63.7576C153.087 62.559 147.721 63.187 142.831 65.5266C138.758 67.4747 135.416 70.4023 133.161 73.9962C131.9 75.6589 130.734 77.3915 129.668 79.1857C129.965 77.1201 130.144 75.0394 130.206 72.9535C130.706 68.7403 129.942 64.3636 127.993 60.2908C125.654 55.3998 121.871 51.5432 117.341 49.4308C112.695 47.2651 107.82 47.1782 103.615 49.1898C100.505 50.6774 97.9972 53.2538 96.4293 56.5392C92.8888 55.6985 89.3077 56.0331 86.1969 57.5211C77.6406 61.6137 74.6544 73.2532 79.5397 83.4671C81.4878 87.5398 84.4154 90.8818 88.0091 93.1369C89.672 94.3979 91.4048 95.5641 93.1992 96.6298C91.1334 96.3332 89.0525 96.1536 86.9664 96.0917C82.7533 95.5919 78.3766 96.3562 74.3039 98.3043C64.0902 103.19 59.1099 114.126 63.2032 122.682C64.691 125.793 67.2685 128.301 70.5531 129.869C69.7124 133.409 70.0472 136.99 71.5349 140.101C73.5459 144.305 77.394 147.297 82.3719 148.527C87.2242 149.726 92.5891 149.097 97.4811 146.758C101.554 144.81 104.896 141.882 107.151 138.289C108.412 136.626 109.578 134.893 110.643 133.099C110.346 135.164 110.167 137.245 110.105 139.331C109.605 143.544 110.369 147.921 112.318 151.994C114.657 156.885 118.44 160.741 122.97 162.854C123.542 163.12 124.116 163.355 124.693 163.558C128.805 165.01 133.008 164.859 136.696 163.095C139.806 161.607 142.314 159.03 143.882 155.745C147.422 156.586 151.003 156.251 154.114 154.763C162.67 150.671 165.657 139.031 160.771 128.817C158.823 124.744 155.896 121.403 152.302 119.148Z" fill="url(#paint2_linear_1946_7544)"/>
<path d="M152.302 119.148C150.639 117.886 148.906 116.72 147.112 115.655C149.178 115.951 151.259 116.131 153.345 116.193C157.558 116.693 161.934 115.928 166.007 113.98C176.221 109.094 181.201 98.1586 177.108 89.6024C175.62 86.4915 173.043 83.9837 169.758 82.416C170.599 78.8755 170.264 75.2944 168.777 72.1838C166.766 67.9797 162.918 64.9879 157.94 63.7576C153.087 62.559 147.721 63.187 142.831 65.5266C138.758 67.4747 135.416 70.4023 133.161 73.9962C131.9 75.6589 130.734 77.3915 129.668 79.1857C129.965 77.1201 130.144 75.0394 130.206 72.9535C130.706 68.7403 129.942 64.3636 127.993 60.2908C125.654 55.3998 121.871 51.5432 117.341 49.4308C112.695 47.2651 107.82 47.1782 103.615 49.1898C100.505 50.6774 97.9972 53.2538 96.4293 56.5392C92.8888 55.6985 89.3077 56.0331 86.1969 57.5211C77.6406 61.6137 74.6544 73.2532 79.5397 83.4671C81.4878 87.5398 84.4154 90.8818 88.0091 93.1369C89.672 94.3979 91.4048 95.5641 93.1992 96.6298C91.1334 96.3332 89.0525 96.1536 86.9664 96.0917C82.7533 95.5919 78.3766 96.3562 74.3039 98.3043C64.0902 103.19 59.1099 114.126 63.2032 122.682C64.691 125.793 67.2685 128.301 70.5531 129.869C69.7124 133.409 70.0472 136.99 71.5349 140.101C73.5459 144.305 77.394 147.297 82.3719 148.527C87.2242 149.726 92.5891 149.097 97.4811 146.758C101.554 144.81 104.896 141.882 107.151 138.289C108.412 136.626 109.578 134.893 110.643 133.099C110.346 135.164 110.167 137.245 110.105 139.331C109.605 143.544 110.369 147.921 112.318 151.994C114.657 156.885 118.44 160.741 122.97 162.854C123.542 163.12 124.116 163.355 124.693 163.558C128.805 165.01 133.008 164.859 136.696 163.095C139.806 161.607 142.314 159.03 143.882 155.745C147.422 156.586 151.003 156.251 154.114 154.763C162.67 150.671 165.657 139.031 160.771 128.817C158.823 124.744 155.896 121.403 152.302 119.148Z" fill="url(#paint3_radial_1946_7544)"/>
</g>
<g filter="url(#filter1_f_1946_7544)">
<ellipse cx="148.277" cy="107.836" rx="4.77769" ry="16.3334" transform="rotate(87.8285 148.277 107.836)" fill="white"/>
</g>
<g filter="url(#filter2_f_1946_7544)">
<ellipse cx="95.527" cy="136.128" rx="4.77769" ry="16.3334" transform="rotate(53.2307 95.527 136.128)" fill="white"/>
</g>
<g filter="url(#filter3_f_1946_7544)">
<ellipse cx="117.75" cy="64.4647" rx="4.31507" ry="14.7519" transform="rotate(159.954 117.75 64.4647)" fill="white"/>
</g>
</g>
<defs>
<filter id="filter0_diii_1946_7544" x="57.976" y="41.1008" width="124.359" height="145.261" filterUnits="userSpaceOnUse" color-interpolation-filters="sRGB">
<feFlood flood-opacity="0" result="BackgroundImageFix"/>
<feColorMatrix in="SourceAlpha" type="matrix" values="0 0 0 0 0 0 0 0 0 0 0 0 0 0 0 0 0 0 127 0" result="hardAlpha"/>
<feOffset/>
<feGaussianBlur stdDeviation="1.89726"/>
<feComposite in2="hardAlpha" operator="out"/>
<feColorMatrix type="matrix" values="0 0 0 0 0.298712 0 0 0 0 0.585837 0 0 0 0 0.572092 0 0 0 1 0"/>
<feBlend mode="normal" in2="BackgroundImageFix" result="effect1_dropShadow_1946_7544"/>
<feBlend mode="normal" in="SourceGraphic" in2="effect1_dropShadow_1946_7544" result="shape"/>
<feColorMatrix in="SourceAlpha" type="matrix" values="0 0 0 0 0 0 0 0 0 0 0 0 0 0 0 0 0 0 127 0" result="hardAlpha"/>
<feOffset dx="0.948631" dy="-6.64042"/>
<feGaussianBlur stdDeviation="9.48631"/>
<feComposite in2="hardAlpha" operator="arithmetic" k2="-1" k3="1"/>
<feColorMatrix type="matrix" values="0 0 0 0 1 0 0 0 0 1 0 0 0 0 1 0 0 0 1 0"/>
<feBlend mode="normal" in2="shape" result="effect2_innerShadow_1946_7544"/>
<feColorMatrix in="SourceAlpha" type="matrix" values="0 0 0 0 0 0 0 0 0 0 0 0 0 0 0 0 0 0 127 0" result="hardAlpha"/>
<feOffset dx="0.948631" dy="21.8185"/>
<feGaussianBlur stdDeviation="17.0754"/>
<feComposite in2="hardAlpha" operator="arithmetic" k2="-1" k3="1"/>
<feColorMatrix type="matrix" values="0 0 0 0 1 0 0 0 0 1 0 0 0 0 1 0 0 0 0.5 0"/>
<feBlend mode="normal" in2="effect2_innerShadow_1946_7544" result="effect3_innerShadow_1946_7544"/>
<feColorMatrix in="SourceAlpha" type="matrix" values="0 0 0 0 0 0 0 0 0 0 0 0 0 0 0 0 0 0 127 0" result="hardAlpha"/>
<feOffset/>
<feGaussianBlur stdDeviation="0.948631"/>
<feComposite in2="hardAlpha" operator="arithmetic" k2="-1" k3="1"/>
<feColorMatrix type="matrix" values="0 0 0 0 1 0 0 0 0 1 0 0 0 0 1 0 0 0 1 0"/>
<feBlend mode="normal" in2="effect3_innerShadow_1946_7544" result="effect4_innerShadow_1946_7544"/>
</filter>
<filter id="filter1_f_1946_7544" x="122.468" y="93.5342" width="51.6181" height="28.6025" filterUnits="userSpaceOnUse" color-interpolation-filters="sRGB">
<feFlood flood-opacity="0" result="BackgroundImageFix"/>
<feBlend mode="normal" in="SourceGraphic" in2="BackgroundImageFix" result="shape"/>
<feGaussianBlur stdDeviation="4.74315" result="effect1_foregroundBlur_1946_7544"/>
</filter>
<filter id="filter2_f_1946_7544" x="72.645" y="116.139" width="45.7641" height="39.9775" filterUnits="userSpaceOnUse" color-interpolation-filters="sRGB">
<feFlood flood-opacity="0" result="BackgroundImageFix"/>
<feBlend mode="normal" in="SourceGraphic" in2="BackgroundImageFix" result="shape"/>
<feGaussianBlur stdDeviation="4.74315" result="effect1_foregroundBlur_1946_7544"/>
</filter>
<filter id="filter3_f_1946_7544" x="101.782" y="41.0401" width="31.9345" height="46.8486" filterUnits="userSpaceOnUse" color-interpolation-filters="sRGB">
<feFlood flood-opacity="0" result="BackgroundImageFix"/>
<feBlend mode="normal" in="SourceGraphic" in2="BackgroundImageFix" result="shape"/>
<feGaussianBlur stdDeviation="4.74315" result="effect1_foregroundBlur_1946_7544"/>
</filter>
<linearGradient id="paint0_linear_1946_7544" x1="12.9135" y1="97.8936" x2="83.1382" y2="225.252" gradientUnits="userSpaceOnUse">
<stop offset="0.255566" stop-color="#22252E"/>
<stop offset="1" stop-color="#22252E" stop-opacity="0"/>
</linearGradient>
<linearGradient id="paint1_linear_1946_7544" x1="134.652" y1="65.1077" x2="101.847" y2="125.427" gradientUnits="userSpaceOnUse">
<stop stop-color="#F6F68F"/>
<stop offset="1" stop-color="#2EEAE1"/>
</linearGradient>
<linearGradient id="paint2_linear_1946_7544" x1="137.671" y1="56.5082" x2="97.9957" y2="129.45" gradientUnits="userSpaceOnUse">
<stop stop-color="#F6F68F"/>
<stop offset="1" stop-color="#2EEAE1"/>
</linearGradient>
<radialGradient id="paint3_radial_1946_7544" cx="0" cy="0" r="1" gradientTransform="matrix(44.9782 100.668 -89.6135 143.049 91.4509 55.2251)" gradientUnits="userSpaceOnUse">
<stop stop-color="white"/>
<stop offset="0.464944" stop-color="white" stop-opacity="0"/>
</radialGradient>
<clipPath id="clip0_1946_7544">
<rect width="160" height="200" fill="white"/>
</clipPath>
</defs>
</svg>
