<svg width="160" height="200" viewBox="0 0 160 200" fill="none" xmlns="http://www.w3.org/2000/svg">
<g clip-path="url(#clip0_1946_7524)">
<rect width="160" height="200" fill="#2A2F39"/>
<g clip-path="url(#clip1_1946_7524)">
<path d="M92.1431 85.0982L105.375 85.9766L112.375 75.7896C109.93 72.7377 106.324 70.7586 102.35 70.3871L89.0652 69.1406L82.5063 78.6888C82.5063 78.6888 85.685 84.7197 92.1431 85.0982Z" fill="#404752"/>
<path d="M97.2532 43.3785C93.6889 40.9307 88.8149 41.8299 86.3554 45.3853L79.2546 55.673C76.7986 59.2284 76.3157 63.7872 77.9728 67.7765L78.1117 68.1133L82.5063 78.6892L89.0651 69.141L99.275 54.2772C101.728 50.7079 100.821 45.8263 97.2497 43.375L97.2532 43.3785Z" fill="#5C6472"/>
<path d="M118.476 86.8485H118.486L118.469 86.8173L113.914 78.1371C113.473 77.3004 112.959 76.5157 112.379 75.79L105.379 85.977L96.6244 98.7194C94.1718 102.289 95.0785 107.17 98.6498 109.622C102.214 112.069 107.088 111.17 109.544 107.611L116.648 97.3272C118.774 94.2474 119.653 90.206 118.476 86.852V86.8485Z" fill="#5C6472"/>
</g>
<g clip-path="url(#clip2_1946_7524)">
<path d="M63.1956 163.611L65.4654 150.828L76.7997 146.568C79.1292 149.609 80.1657 153.502 79.5864 157.366L77.6545 170.285L67.0316 174.276C67.0316 174.276 62.04 169.838 63.1956 163.611Z" fill="#404752"/>
<path d="M104.086 168.554C105.578 172.517 103.579 176.938 99.6189 178.44L88.1652 182.772C84.2064 184.272 79.756 183.66 76.3496 181.147L76.0618 180.936L67.0317 174.275L77.6547 170.284L94.1917 164.072C98.163 162.58 102.594 164.588 104.088 168.558L104.086 168.554Z" fill="#5C6472"/>
<path d="M67.7107 138.172L67.7131 138.162L67.7388 138.186L74.9278 144.554C75.6203 145.17 76.2461 145.843 76.8003 146.565L65.466 150.825L51.2889 156.152C47.3176 157.644 42.8862 155.636 41.3923 151.665C39.9001 147.703 41.8995 143.282 45.8616 141.783L57.3129 137.447C60.7418 136.15 64.7929 136.264 67.7074 138.171L67.7107 138.172Z" fill="#5C6472"/>
</g>
<g clip-path="url(#clip3_1946_7524)">
<path d="M134.531 125.186L141.995 135.045L153.461 133.741C154.12 130.15 153.314 126.398 151.148 123.372L143.911 113.251L133.166 114.475C133.166 114.475 130.852 120.405 134.531 125.186Z" fill="#404752"/>
<path d="M167.095 103.251C166.644 99.2417 163.032 96.3588 159.02 96.8024L147.422 98.0972C143.413 98.5432 139.9 100.993 138.098 104.602L137.945 104.906L133.166 114.475L143.912 113.251L160.639 111.346C164.656 110.889 167.547 107.262 167.095 103.246L167.095 103.251Z" fill="#5C6472"/>
<path d="M149.384 144.807L149.39 144.814L149.402 144.783L152.745 136.262C153.065 135.439 153.305 134.596 153.463 133.744L141.997 135.048L127.656 136.68C123.639 137.137 120.748 140.764 121.2 144.78C121.65 148.789 125.263 151.672 129.275 151.224L140.873 149.933C144.345 149.546 147.734 147.691 149.381 144.809L149.384 144.807Z" fill="#5C6472"/>
</g>
<g filter="url(#filter0_di_1946_7524)">
<path d="M54.6593 72.8705L57.6145 64.3356C57.7703 63.8881 58.3906 63.8881 58.5465 64.3356L61.5016 72.8705L68.7142 76.2693C69.0909 76.4469 69.0974 76.9898 68.7207 77.1741L61.4984 80.7308L58.54 88.6767C58.3776 89.1078 57.7768 89.1078 57.6145 88.6767L54.6561 80.7308L46.3037 77.184C45.8945 77.0096 45.901 76.4239 46.3101 76.2594L54.6593 72.8705Z" fill="url(#paint0_linear_1946_7524)"/>
</g>
<g filter="url(#filter1_di_1946_7524)">
<path d="M90.6474 127.032L92.5747 121.228C92.6763 120.924 93.0808 120.924 93.1825 121.228L95.1098 127.032L99.8136 129.343C100.059 129.464 100.064 129.833 99.8178 129.958L95.1077 132.377L93.1783 137.78C93.0724 138.073 92.6805 138.073 92.5747 137.78L90.6453 132.377L85.198 129.965C84.9312 129.847 84.9354 129.448 85.2023 129.336L90.6474 127.032Z" fill="url(#paint1_linear_1946_7524)"/>
</g>
<g filter="url(#filter2_ii_1946_7524)">
<rect x="61" y="123.371" width="8" height="8" rx="2" transform="rotate(-33.1041 61 123.371)" fill="url(#paint2_linear_1946_7524)"/>
</g>
<g filter="url(#filter3_ii_1946_7524)">
<rect x="137.002" y="65" width="10.7053" height="10.7053" rx="2" transform="rotate(40.8503 137.002 65)" fill="url(#paint3_linear_1946_7524)"/>
</g>
<rect x="129.027" y="164" width="6.18167" height="6.18167" rx="3.09084" transform="rotate(19.144 129.027 164)" fill="#5C6472"/>
<rect x="117.328" y="63" width="7.09639" height="7.09639" rx="3.54819" transform="rotate(19.144 117.328 63)" fill="#5C6472"/>
</g>
<defs>
<filter id="filter0_di_1946_7524" x="44.4" y="62" width="26.2" height="28.6" filterUnits="userSpaceOnUse" color-interpolation-filters="sRGB">
<feFlood flood-opacity="0" result="BackgroundImageFix"/>
<feColorMatrix in="SourceAlpha" type="matrix" values="0 0 0 0 0 0 0 0 0 0 0 0 0 0 0 0 0 0 127 0" result="hardAlpha"/>
<feOffset/>
<feGaussianBlur stdDeviation="0.8"/>
<feComposite in2="hardAlpha" operator="out"/>
<feColorMatrix type="matrix" values="0 0 0 0 1 0 0 0 0 1 0 0 0 0 1 0 0 0 0.68 0"/>
<feBlend mode="normal" in2="BackgroundImageFix" result="effect1_dropShadow_1946_7524"/>
<feBlend mode="normal" in="SourceGraphic" in2="effect1_dropShadow_1946_7524" result="shape"/>
<feColorMatrix in="SourceAlpha" type="matrix" values="0 0 0 0 0 0 0 0 0 0 0 0 0 0 0 0 0 0 127 0" result="hardAlpha"/>
<feOffset dy="-2"/>
<feGaussianBlur stdDeviation="1.3"/>
<feComposite in2="hardAlpha" operator="arithmetic" k2="-1" k3="1"/>
<feColorMatrix type="matrix" values="0 0 0 0 1 0 0 0 0 1 0 0 0 0 1 0 0 0 1 0"/>
<feBlend mode="normal" in2="shape" result="effect2_innerShadow_1946_7524"/>
</filter>
<filter id="filter1_di_1946_7524" x="81" y="118" width="23" height="25" filterUnits="userSpaceOnUse" color-interpolation-filters="sRGB">
<feFlood flood-opacity="0" result="BackgroundImageFix"/>
<feColorMatrix in="SourceAlpha" type="matrix" values="0 0 0 0 0 0 0 0 0 0 0 0 0 0 0 0 0 0 127 0" result="hardAlpha"/>
<feOffset dy="1"/>
<feGaussianBlur stdDeviation="2"/>
<feComposite in2="hardAlpha" operator="out"/>
<feColorMatrix type="matrix" values="0 0 0 0 1 0 0 0 0 1 0 0 0 0 1 0 0 0 0.25 0"/>
<feBlend mode="normal" in2="BackgroundImageFix" result="effect1_dropShadow_1946_7524"/>
<feBlend mode="normal" in="SourceGraphic" in2="effect1_dropShadow_1946_7524" result="shape"/>
<feColorMatrix in="SourceAlpha" type="matrix" values="0 0 0 0 0 0 0 0 0 0 0 0 0 0 0 0 0 0 127 0" result="hardAlpha"/>
<feOffset dy="-2"/>
<feGaussianBlur stdDeviation="0.9"/>
<feComposite in2="hardAlpha" operator="arithmetic" k2="-1" k3="1"/>
<feColorMatrix type="matrix" values="0 0 0 0 1 0 0 0 0 1 0 0 0 0 1 0 0 0 0.88 0"/>
<feBlend mode="normal" in2="shape" result="effect2_innerShadow_1946_7524"/>
</filter>
<filter id="filter2_ii_1946_7524" x="61.7676" y="118.77" width="9.53564" height="11.5352" filterUnits="userSpaceOnUse" color-interpolation-filters="sRGB">
<feFlood flood-opacity="0" result="BackgroundImageFix"/>
<feBlend mode="normal" in="SourceGraphic" in2="BackgroundImageFix" result="shape"/>
<feColorMatrix in="SourceAlpha" type="matrix" values="0 0 0 0 0 0 0 0 0 0 0 0 0 0 0 0 0 0 127 0" result="hardAlpha"/>
<feOffset dy="1"/>
<feGaussianBlur stdDeviation="0.95"/>
<feComposite in2="hardAlpha" operator="arithmetic" k2="-1" k3="1"/>
<feColorMatrix type="matrix" values="0 0 0 0 1 0 0 0 0 1 0 0 0 0 1 0 0 0 0.83 0"/>
<feBlend mode="normal" in2="shape" result="effect1_innerShadow_1946_7524"/>
<feColorMatrix in="SourceAlpha" type="matrix" values="0 0 0 0 0 0 0 0 0 0 0 0 0 0 0 0 0 0 127 0" result="hardAlpha"/>
<feOffset dy="-1"/>
<feGaussianBlur stdDeviation="0.85"/>
<feComposite in2="hardAlpha" operator="arithmetic" k2="-1" k3="1"/>
<feColorMatrix type="matrix" values="0 0 0 0 0.352564 0 0 0 0 1 0 0 0 0 0.967628 0 0 0 0.31 0"/>
<feBlend mode="normal" in2="effect1_innerShadow_1946_7524" result="effect2_innerShadow_1946_7524"/>
</filter>
<filter id="filter3_ii_1946_7524" x="130.821" y="64.8213" width="13.458" height="15.458" filterUnits="userSpaceOnUse" color-interpolation-filters="sRGB">
<feFlood flood-opacity="0" result="BackgroundImageFix"/>
<feBlend mode="normal" in="SourceGraphic" in2="BackgroundImageFix" result="shape"/>
<feColorMatrix in="SourceAlpha" type="matrix" values="0 0 0 0 0 0 0 0 0 0 0 0 0 0 0 0 0 0 127 0" result="hardAlpha"/>
<feOffset dy="1"/>
<feGaussianBlur stdDeviation="0.95"/>
<feComposite in2="hardAlpha" operator="arithmetic" k2="-1" k3="1"/>
<feColorMatrix type="matrix" values="0 0 0 0 1 0 0 0 0 1 0 0 0 0 1 0 0 0 0.83 0"/>
<feBlend mode="normal" in2="shape" result="effect1_innerShadow_1946_7524"/>
<feColorMatrix in="SourceAlpha" type="matrix" values="0 0 0 0 0 0 0 0 0 0 0 0 0 0 0 0 0 0 127 0" result="hardAlpha"/>
<feOffset dy="-1"/>
<feGaussianBlur stdDeviation="0.85"/>
<feComposite in2="hardAlpha" operator="arithmetic" k2="-1" k3="1"/>
<feColorMatrix type="matrix" values="0 0 0 0 0.352564 0 0 0 0 1 0 0 0 0 0.967628 0 0 0 0.31 0"/>
<feBlend mode="normal" in2="effect1_innerShadow_1946_7524" result="effect2_innerShadow_1946_7524"/>
</filter>
<linearGradient id="paint0_linear_1946_7524" x1="54" y1="70" x2="61" y2="87" gradientUnits="userSpaceOnUse">
<stop stop-color="#F8FFCA"/>
<stop offset="1" stop-color="#47E8EB"/>
</linearGradient>
<linearGradient id="paint1_linear_1946_7524" x1="89.5" y1="122.5" x2="93.5" y2="138" gradientUnits="userSpaceOnUse">
<stop stop-color="#F8FFCA"/>
<stop offset="1" stop-color="#56EFE7"/>
</linearGradient>
<linearGradient id="paint2_linear_1946_7524" x1="65" y1="123.371" x2="65" y2="131.371" gradientUnits="userSpaceOnUse">
<stop stop-color="#FFE4F9"/>
<stop offset="1" stop-color="#FF49AA"/>
</linearGradient>
<linearGradient id="paint3_linear_1946_7524" x1="142.355" y1="65" x2="142.355" y2="75.7053" gradientUnits="userSpaceOnUse">
<stop stop-color="#FFE4F9"/>
<stop offset="1" stop-color="#FF49AA"/>
</linearGradient>
<clipPath id="clip0_1946_7524">
<rect width="160" height="200" fill="white"/>
</clipPath>
<clipPath id="clip1_1946_7524">
<rect width="42" height="69" fill="white" transform="translate(77 42)"/>
</clipPath>
<clipPath id="clip2_1946_7524">
<rect width="41.1174" height="67.6152" fill="white" transform="matrix(0.23973 -0.97084 -0.97084 -0.23973 100.644 188.128)"/>
</clipPath>
<clipPath id="clip3_1946_7524">
<rect width="39.163" height="64.4558" fill="white" transform="translate(155.693 88.1406) rotate(49.0641)"/>
</clipPath>
</defs>
</svg>
