<svg width="162" height="80" viewBox="0 0 162 80" fill="none" xmlns="http://www.w3.org/2000/svg">
<g clip-path="url(#clip0_1946_7308)">
<rect width="161.5" height="80" fill="#1F2027"/>
<g opacity="0.1" filter="url(#filter0_f_1946_7308)">
<ellipse cx="33.6529" cy="26.4452" rx="33.6529" ry="26.4452" transform="matrix(-0.963493 0.267732 -0.474589 -0.880208 144.304 55.4561)" fill="#FDFF97" fill-opacity="0.34"/>
</g>
<g filter="url(#filter1_dii_1946_7308)">
<mask id="mask0_1946_7308" style="mask-type:alpha" maskUnits="userSpaceOnUse" x="78" y="11" width="46" height="47">
<path d="M78.8556 42.3057C79.2666 41.7054 80.3692 40.8034 82.917 41.4445C84.3276 41.7978 85.7706 42.0136 87.2262 42.044C92.608 42.1817 97.636 40.0367 101.281 36.4459C104.504 33.2917 106.644 29.0385 106.989 24.3124C107.168 21.6705 106.835 19.0863 105.963 16.6047C105.109 14.1943 105.906 13.0152 106.447 12.5402C107.013 12.0437 108.307 11.3877 110.679 12.5755C119.827 17.2103 125.008 27.1133 123.625 37.2395C122.283 46.7632 115.048 54.4841 105.995 56.9574C103.826 57.553 101.562 57.8395 99.2526 57.7736C98.8825 57.7714 98.5125 57.7692 98.144 57.7439C90.4289 57.2126 83.4464 53.0529 79.3104 46.5048C77.914 44.2433 78.4215 42.9045 78.8556 42.3057Z" fill="#646D7F"/>
</mask>
<g mask="url(#mask0_1946_7308)">
<g filter="url(#filter2_f_1946_7308)">
<path d="M101.239 56.3136C115.91 48.9544 131.842 51.0411 124.517 36.4376C117.191 21.8341 99.3598 15.9614 84.689 23.3206C70.0181 30.6797 64.0634 48.484 71.3887 63.0875C78.7141 77.691 86.568 63.6728 101.239 56.3136Z" fill="#B6FFF5"/>
</g>
<g filter="url(#filter3_f_1946_7308)">
<circle cx="16.9883" cy="16.9883" r="16.9883" transform="matrix(0.448369 0.893848 0.893848 -0.448369 87.207 17.7666)" fill="#FFFFDD"/>
</g>
<g filter="url(#filter4_f_1946_7308)">
<path d="M132.824 70.7137C123.962 78.4884 105.081 71.4589 90.6528 55.0129C76.2242 38.5669 100.622 51.8852 109.484 44.1105C118.346 36.3358 108.315 10.4122 122.744 26.8582C137.173 43.3042 141.686 62.939 132.824 70.7137Z" fill="#FFF789"/>
</g>
</g>
</g>
<g filter="url(#filter5_f_1946_7308)">
<ellipse cx="111.51" cy="25.9578" rx="0.72684" ry="3.32033" transform="rotate(-168.379 111.51 25.9578)" fill="white"/>
</g>
<g filter="url(#filter6_f_1946_7308)">
<ellipse cx="99.8224" cy="41.4054" rx="1.04072" ry="1.9393" transform="rotate(-110.625 99.8224 41.4054)" fill="white"/>
</g>
<g filter="url(#filter7_f_1946_7308)">
<ellipse cx="111.517" cy="20.3505" rx="1.04072" ry="1.27262" transform="rotate(168.877 111.517 20.3505)" fill="white"/>
</g>
<g filter="url(#filter8_ii_1946_7308)">
<path d="M103.482 49.2566C104.346 49.2566 105.186 49.358 105.994 49.5422C107.299 45.5092 111.13 42.5863 115.652 42.5863C117.639 42.5863 119.49 43.1529 121.055 44.1249C122.728 40.8842 126.144 38.6592 130.087 38.6592C135.685 38.6592 140.224 43.1368 140.224 48.6601C140.224 48.9065 140.212 49.1484 140.193 49.3902C145.958 49.7219 150.526 54.4344 150.526 60.2018C150.526 65.9693 145.766 70.8753 139.834 71.0273V71.0342H103.48C97.3841 71.0342 92.4418 66.1581 92.4418 60.1443C92.4418 54.1304 97.3841 49.2543 103.48 49.2543L103.482 49.2566Z" fill="url(#paint0_linear_1946_7308)"/>
<path d="M103.482 49.2566C104.346 49.2566 105.186 49.358 105.994 49.5422C107.299 45.5092 111.13 42.5863 115.652 42.5863C117.639 42.5863 119.49 43.1529 121.055 44.1249C122.728 40.8842 126.144 38.6592 130.087 38.6592C135.685 38.6592 140.224 43.1368 140.224 48.6601C140.224 48.9065 140.212 49.1484 140.193 49.3902C145.958 49.7219 150.526 54.4344 150.526 60.2018C150.526 65.9693 145.766 70.8753 139.834 71.0273V71.0342H103.48C97.3841 71.0342 92.4418 66.1581 92.4418 60.1443C92.4418 54.1304 97.3841 49.2543 103.48 49.2543L103.482 49.2566Z" fill="url(#paint1_radial_1946_7308)"/>
</g>
</g>
<defs>
<filter id="filter0_f_1946_7308" x="30.1954" y="-18.1337" width="138.266" height="118.644" filterUnits="userSpaceOnUse" color-interpolation-filters="sRGB">
<feFlood flood-opacity="0" result="BackgroundImageFix"/>
<feBlend mode="normal" in="SourceGraphic" in2="BackgroundImageFix" result="shape"/>
<feGaussianBlur stdDeviation="17.1777" result="effect1_foregroundBlur_1946_7308"/>
</filter>
<filter id="filter1_dii_1946_7308" x="77.2062" y="10.716" width="47.9272" height="48.9716" filterUnits="userSpaceOnUse" color-interpolation-filters="sRGB">
<feFlood flood-opacity="0" result="BackgroundImageFix"/>
<feColorMatrix in="SourceAlpha" type="matrix" values="0 0 0 0 0 0 0 0 0 0 0 0 0 0 0 0 0 0 127 0" result="hardAlpha"/>
<feOffset/>
<feGaussianBlur stdDeviation="0.595129"/>
<feComposite in2="hardAlpha" operator="out"/>
<feColorMatrix type="matrix" values="0 0 0 0 1 0 0 0 0 1 0 0 0 0 1 0 0 0 0.75 0"/>
<feBlend mode="normal" in2="BackgroundImageFix" result="effect1_dropShadow_1946_7308"/>
<feBlend mode="normal" in="SourceGraphic" in2="effect1_dropShadow_1946_7308" result="shape"/>
<feColorMatrix in="SourceAlpha" type="matrix" values="0 0 0 0 0 0 0 0 0 0 0 0 0 0 0 0 0 0 127 0" result="hardAlpha"/>
<feOffset dx="1.28676" dy="1.0294"/>
<feGaussianBlur stdDeviation="1.72425"/>
<feComposite in2="hardAlpha" operator="arithmetic" k2="-1" k3="1"/>
<feColorMatrix type="matrix" values="0 0 0 0 1 0 0 0 0 1 0 0 0 0 1 0 0 0 0.93 0"/>
<feBlend mode="normal" in2="shape" result="effect2_innerShadow_1946_7308"/>
<feColorMatrix in="SourceAlpha" type="matrix" values="0 0 0 0 0 0 0 0 0 0 0 0 0 0 0 0 0 0 127 0" result="hardAlpha"/>
<feOffset dx="0.952207" dy="1.90441"/>
<feGaussianBlur stdDeviation="1.52353"/>
<feComposite in2="hardAlpha" operator="arithmetic" k2="-1" k3="1"/>
<feColorMatrix type="matrix" values="0 0 0 0 1 0 0 0 0 1 0 0 0 0 1 0 0 0 0.69 0"/>
<feBlend mode="normal" in2="effect2_innerShadow_1946_7308" result="effect3_innerShadow_1946_7308"/>
</filter>
<filter id="filter2_f_1946_7308" x="51.6745" y="3.56613" width="91.2633" height="82.4849" filterUnits="userSpaceOnUse" color-interpolation-filters="sRGB">
<feFlood flood-opacity="0" result="BackgroundImageFix"/>
<feBlend mode="normal" in="SourceGraphic" in2="BackgroundImageFix" result="shape"/>
<feGaussianBlur stdDeviation="8.29018" result="effect1_foregroundBlur_1946_7308"/>
</filter>
<filter id="filter3_f_1946_7308" x="76.4362" y="-8.23758" width="67.1451" height="67.1441" filterUnits="userSpaceOnUse" color-interpolation-filters="sRGB">
<feFlood flood-opacity="0" result="BackgroundImageFix"/>
<feBlend mode="normal" in="SourceGraphic" in2="BackgroundImageFix" result="shape"/>
<feGaussianBlur stdDeviation="8.29018" result="effect1_foregroundBlur_1946_7308"/>
</filter>
<filter id="filter4_f_1946_7308" x="67.7659" y="3.07445" width="88.0191" height="89.229" filterUnits="userSpaceOnUse" color-interpolation-filters="sRGB">
<feFlood flood-opacity="0" result="BackgroundImageFix"/>
<feBlend mode="normal" in="SourceGraphic" in2="BackgroundImageFix" result="shape"/>
<feGaussianBlur stdDeviation="9.21131" result="effect1_foregroundBlur_1946_7308"/>
</filter>
<filter id="filter5_f_1946_7308" x="108.474" y="20.6433" width="6.07074" height="10.6293" filterUnits="userSpaceOnUse" color-interpolation-filters="sRGB">
<feFlood flood-opacity="0" result="BackgroundImageFix"/>
<feBlend mode="normal" in="SourceGraphic" in2="BackgroundImageFix" result="shape"/>
<feGaussianBlur stdDeviation="1.0294" result="effect1_foregroundBlur_1946_7308"/>
</filter>
<filter id="filter6_f_1946_7308" x="95.4229" y="37.668" width="8.79966" height="7.47446" filterUnits="userSpaceOnUse" color-interpolation-filters="sRGB">
<feFlood flood-opacity="0" result="BackgroundImageFix"/>
<feBlend mode="normal" in="SourceGraphic" in2="BackgroundImageFix" result="shape"/>
<feGaussianBlur stdDeviation="1.27389" result="effect1_foregroundBlur_1946_7308"/>
</filter>
<filter id="filter7_f_1946_7308" x="108.511" y="17.1301" width="6.0133" height="6.44104" filterUnits="userSpaceOnUse" color-interpolation-filters="sRGB">
<feFlood flood-opacity="0" result="BackgroundImageFix"/>
<feBlend mode="normal" in="SourceGraphic" in2="BackgroundImageFix" result="shape"/>
<feGaussianBlur stdDeviation="0.977935" result="effect1_foregroundBlur_1946_7308"/>
</filter>
<filter id="filter8_ii_1946_7308" x="92.4414" y="38.6592" width="58.5611" height="34.2794" filterUnits="userSpaceOnUse" color-interpolation-filters="sRGB">
<feFlood flood-opacity="0" result="BackgroundImageFix"/>
<feBlend mode="normal" in="SourceGraphic" in2="BackgroundImageFix" result="shape"/>
<feColorMatrix in="SourceAlpha" type="matrix" values="0 0 0 0 0 0 0 0 0 0 0 0 0 0 0 0 0 0 127 0" result="hardAlpha"/>
<feOffset dx="0.476103" dy="1.90441"/>
<feGaussianBlur stdDeviation="2.57096"/>
<feComposite in2="hardAlpha" operator="arithmetic" k2="-1" k3="1"/>
<feColorMatrix type="matrix" values="0 0 0 0 1 0 0 0 0 1 0 0 0 0 1 0 0 0 1 0"/>
<feBlend mode="normal" in2="shape" result="effect1_innerShadow_1946_7308"/>
<feColorMatrix in="SourceAlpha" type="matrix" values="0 0 0 0 0 0 0 0 0 0 0 0 0 0 0 0 0 0 127 0" result="hardAlpha"/>
<feOffset dy="0.476103"/>
<feGaussianBlur stdDeviation="0.309467"/>
<feComposite in2="hardAlpha" operator="arithmetic" k2="-1" k3="1"/>
<feColorMatrix type="matrix" values="0 0 0 0 1 0 0 0 0 1 0 0 0 0 1 0 0 0 0.25 0"/>
<feBlend mode="normal" in2="effect1_innerShadow_1946_7308" result="effect2_innerShadow_1946_7308"/>
</filter>
<linearGradient id="paint0_linear_1946_7308" x1="90.7754" y1="28.0938" x2="132.434" y2="69.9909" gradientUnits="userSpaceOnUse">
<stop offset="0.199742" stop-color="#AAAFBA"/>
<stop offset="0.874576" stop-color="#3D4655"/>
<stop offset="1" stop-color="#3E424A"/>
</linearGradient>
<radialGradient id="paint1_radial_1946_7308" cx="0" cy="0" r="1" gradientUnits="userSpaceOnUse" gradientTransform="translate(108.867 52.8512) rotate(31.6447) scale(24.0479 43.1448)">
<stop stop-color="#2A2F39" stop-opacity="0"/>
<stop offset="1" stop-color="#2A2F39"/>
</radialGradient>
<clipPath id="clip0_1946_7308">
<rect width="161.5" height="80" fill="white"/>
</clipPath>
</defs>
</svg>
