<svg width="162" height="80" viewBox="0 0 162 80" fill="none" xmlns="http://www.w3.org/2000/svg">
<g clip-path="url(#clip0_1975_39598)">
<rect width="161.5" height="80" transform="translate(0.5)" fill="#1F2027"/>
<g filter="url(#filter0_d_1975_39598)">
<path d="M122.493 22.3945C118.946 22.3929 115.462 23.3306 112.395 25.1121C109.328 26.8936 106.787 29.4556 105.03 32.5377C103.274 35.6197 102.364 39.112 102.394 42.6596C102.424 46.2073 103.392 49.6838 105.2 52.736L102.504 60.1532C102.404 60.4292 102.372 60.7253 102.41 61.0166C102.448 61.3078 102.556 61.5855 102.724 61.8261C102.893 62.0668 103.117 62.2633 103.377 62.3991C103.637 62.5349 103.927 62.6059 104.22 62.6061C104.433 62.6055 104.645 62.5685 104.845 62.4964L112.26 59.7986C114.921 61.3755 117.91 62.3168 120.995 62.5493C124.079 62.7817 127.176 62.2989 130.043 61.1385C132.91 59.9782 135.471 58.1715 137.526 55.8593C139.581 53.547 141.075 50.7914 141.892 47.8072C142.708 44.8229 142.825 41.6904 142.233 38.6535C141.642 35.6167 140.357 32.7575 138.48 30.2984C136.603 27.8393 134.184 25.8468 131.411 24.4759C128.638 23.105 125.586 22.3927 122.493 22.3945Z" fill="url(#paint0_linear_1975_39598)"/>
</g>
<g filter="url(#filter1_ii_1975_39598)">
<path d="M122.492 16.9981C117.994 16.996 113.575 18.1849 109.685 20.4437C105.795 22.7026 102.573 25.9509 100.345 29.8588C98.1169 33.7666 96.9632 38.1945 97.0009 42.6926C97.0386 47.1908 98.2664 51.5987 100.56 55.4687L97.1412 64.8731C97.0138 65.2231 96.9727 65.5986 97.0212 65.9678C97.0698 66.3371 97.2066 66.6892 97.4201 66.9943C97.6336 67.2994 97.9175 67.5486 98.2478 67.7208C98.578 67.8929 98.9449 67.9829 99.3173 67.9832C99.5876 67.9825 99.8556 67.9355 100.11 67.8441L109.514 64.4235C112.89 66.4229 116.681 67.6165 120.592 67.9112C124.504 68.2058 128.431 67.5937 132.068 66.1225C135.705 64.6512 138.953 62.3605 141.559 59.4287C144.166 56.4969 146.061 53.0031 147.096 49.2193C148.131 45.4355 148.28 41.4637 147.529 37.6132C146.779 33.7628 145.149 30.1374 142.769 27.0195C140.388 23.9016 137.32 21.3752 133.803 19.637C130.286 17.8988 126.415 16.9957 122.492 16.9981Z" fill="url(#paint1_linear_1975_39598)"/>
<path d="M122.492 16.9981C117.994 16.996 113.575 18.1849 109.685 20.4437C105.795 22.7026 102.573 25.9509 100.345 29.8588C98.1169 33.7666 96.9632 38.1945 97.0009 42.6926C97.0386 47.1908 98.2664 51.5987 100.56 55.4687L97.1412 64.8731C97.0138 65.2231 96.9727 65.5986 97.0212 65.9678C97.0698 66.3371 97.2066 66.6892 97.4201 66.9943C97.6336 67.2994 97.9175 67.5486 98.2478 67.7208C98.578 67.8929 98.9449 67.9829 99.3173 67.9832C99.5876 67.9825 99.8556 67.9355 100.11 67.8441L109.514 64.4235C112.89 66.4229 116.681 67.6165 120.592 67.9112C124.504 68.2058 128.431 67.5937 132.068 66.1225C135.705 64.6512 138.953 62.3605 141.559 59.4287C144.166 56.4969 146.061 53.0031 147.096 49.2193C148.131 45.4355 148.28 41.4637 147.529 37.6132C146.779 33.7628 145.149 30.1374 142.769 27.0195C140.388 23.9016 137.32 21.3752 133.803 19.637C130.286 17.8988 126.415 16.9957 122.492 16.9981Z" fill="url(#paint2_radial_1975_39598)"/>
<path d="M122.492 16.9981C117.994 16.996 113.575 18.1849 109.685 20.4437C105.795 22.7026 102.573 25.9509 100.345 29.8588C98.1169 33.7666 96.9632 38.1945 97.0009 42.6926C97.0386 47.1908 98.2664 51.5987 100.56 55.4687L97.1412 64.8731C97.0138 65.2231 96.9727 65.5986 97.0212 65.9678C97.0698 66.3371 97.2066 66.6892 97.4201 66.9943C97.6336 67.2994 97.9175 67.5486 98.2478 67.7208C98.578 67.8929 98.9449 67.9829 99.3173 67.9832C99.5876 67.9825 99.8556 67.9355 100.11 67.8441L109.514 64.4235C112.89 66.4229 116.681 67.6165 120.592 67.9112C124.504 68.2058 128.431 67.5937 132.068 66.1225C135.705 64.6512 138.953 62.3605 141.559 59.4287C144.166 56.4969 146.061 53.0031 147.096 49.2193C148.131 45.4355 148.28 41.4637 147.529 37.6132C146.779 33.7628 145.149 30.1374 142.769 27.0195C140.388 23.9016 137.32 21.3752 133.803 19.637C130.286 17.8988 126.415 16.9957 122.492 16.9981Z" fill="url(#paint3_radial_1975_39598)"/>
</g>
<g filter="url(#filter2_f_1975_39598)">
<circle cx="7.22884" cy="7.22884" r="7.22884" transform="matrix(0.254713 -0.967017 0.999419 0.0340866 126.914 42.2607)" fill="#1AFFF4" fill-opacity="0.01"/>
</g>
<g filter="url(#filter3_d_1975_39598)">
<circle cx="113.673" cy="42.4998" r="2.45192" fill="white"/>
</g>
<g filter="url(#filter4_d_1975_39598)">
<circle cx="122.5" cy="42.4998" r="2.45192" fill="white"/>
</g>
<g filter="url(#filter5_d_1975_39598)">
<circle cx="131.327" cy="42.4998" r="2.45192" fill="white"/>
</g>
<g filter="url(#filter6_f_1975_39598)">
<ellipse cx="133.497" cy="58.4135" rx="1.84884" ry="7.14165" transform="rotate(48.6663 133.497 58.4135)" fill="white"/>
</g>
</g>
<defs>
<filter id="filter0_d_1975_39598" x="91.0652" y="22.3945" width="62.8672" height="65.761" filterUnits="userSpaceOnUse" color-interpolation-filters="sRGB">
<feFlood flood-opacity="0" result="BackgroundImageFix"/>
<feColorMatrix in="SourceAlpha" type="matrix" values="0 0 0 0 0 0 0 0 0 0 0 0 0 0 0 0 0 0 127 0" result="hardAlpha"/>
<feOffset dy="14.2212"/>
<feGaussianBlur stdDeviation="5.66394"/>
<feComposite in2="hardAlpha" operator="out"/>
<feColorMatrix type="matrix" values="0 0 0 0 0.144626 0 0 0 0 0.173251 0 0 0 0 0.389976 0 0 0 0.6 0"/>
<feBlend mode="normal" in2="BackgroundImageFix" result="effect1_dropShadow_1975_39598"/>
<feBlend mode="normal" in="SourceGraphic" in2="effect1_dropShadow_1975_39598" result="shape"/>
</filter>
<filter id="filter1_ii_1975_39598" x="97" y="15.0365" width="51" height="54.9084" filterUnits="userSpaceOnUse" color-interpolation-filters="sRGB">
<feFlood flood-opacity="0" result="BackgroundImageFix"/>
<feBlend mode="normal" in="SourceGraphic" in2="BackgroundImageFix" result="shape"/>
<feColorMatrix in="SourceAlpha" type="matrix" values="0 0 0 0 0 0 0 0 0 0 0 0 0 0 0 0 0 0 127 0" result="hardAlpha"/>
<feOffset dy="1.96154"/>
<feGaussianBlur stdDeviation="10.7885"/>
<feComposite in2="hardAlpha" operator="arithmetic" k2="-1" k3="1"/>
<feColorMatrix type="matrix" values="0 0 0 0 1 0 0 0 0 1 0 0 0 0 1 0 0 0 1 0"/>
<feBlend mode="normal" in2="shape" result="effect1_innerShadow_1975_39598"/>
<feColorMatrix in="SourceAlpha" type="matrix" values="0 0 0 0 0 0 0 0 0 0 0 0 0 0 0 0 0 0 127 0" result="hardAlpha"/>
<feOffset dy="-1.96154"/>
<feGaussianBlur stdDeviation="2.45192"/>
<feComposite in2="hardAlpha" operator="arithmetic" k2="-1" k3="1"/>
<feColorMatrix type="matrix" values="0 0 0 0 1 0 0 0 0 1 0 0 0 0 1 0 0 0 0.33 0"/>
<feBlend mode="normal" in2="effect1_innerShadow_1975_39598" result="effect2_innerShadow_1975_39598"/>
</filter>
<filter id="filter2_f_1975_39598" x="112.536" y="12.5349" width="46.8881" height="45.9633" filterUnits="userSpaceOnUse" color-interpolation-filters="sRGB">
<feFlood flood-opacity="0" result="BackgroundImageFix"/>
<feBlend mode="normal" in="SourceGraphic" in2="BackgroundImageFix" result="shape"/>
<feGaussianBlur stdDeviation="7.99327" result="effect1_foregroundBlur_1975_39598"/>
</filter>
<filter id="filter3_d_1975_39598" x="108.279" y="39.0671" width="10.7884" height="10.7889" filterUnits="userSpaceOnUse" color-interpolation-filters="sRGB">
<feFlood flood-opacity="0" result="BackgroundImageFix"/>
<feColorMatrix in="SourceAlpha" type="matrix" values="0 0 0 0 0 0 0 0 0 0 0 0 0 0 0 0 0 0 127 0" result="hardAlpha"/>
<feOffset dy="1.96154"/>
<feGaussianBlur stdDeviation="1.47115"/>
<feComposite in2="hardAlpha" operator="out"/>
<feColorMatrix type="matrix" values="0 0 0 0 0.2 0 0 0 0 0.290196 0 0 0 0 0.729412 0 0 0 0.44 0"/>
<feBlend mode="normal" in2="BackgroundImageFix" result="effect1_dropShadow_1975_39598"/>
<feBlend mode="normal" in="SourceGraphic" in2="effect1_dropShadow_1975_39598" result="shape"/>
</filter>
<filter id="filter4_d_1975_39598" x="117.106" y="39.0671" width="10.7884" height="10.7889" filterUnits="userSpaceOnUse" color-interpolation-filters="sRGB">
<feFlood flood-opacity="0" result="BackgroundImageFix"/>
<feColorMatrix in="SourceAlpha" type="matrix" values="0 0 0 0 0 0 0 0 0 0 0 0 0 0 0 0 0 0 127 0" result="hardAlpha"/>
<feOffset dy="1.96154"/>
<feGaussianBlur stdDeviation="1.47115"/>
<feComposite in2="hardAlpha" operator="out"/>
<feColorMatrix type="matrix" values="0 0 0 0 0.2 0 0 0 0 0.290196 0 0 0 0 0.729412 0 0 0 0.44 0"/>
<feBlend mode="normal" in2="BackgroundImageFix" result="effect1_dropShadow_1975_39598"/>
<feBlend mode="normal" in="SourceGraphic" in2="effect1_dropShadow_1975_39598" result="shape"/>
</filter>
<filter id="filter5_d_1975_39598" x="125.933" y="39.0671" width="10.7884" height="10.7889" filterUnits="userSpaceOnUse" color-interpolation-filters="sRGB">
<feFlood flood-opacity="0" result="BackgroundImageFix"/>
<feColorMatrix in="SourceAlpha" type="matrix" values="0 0 0 0 0 0 0 0 0 0 0 0 0 0 0 0 0 0 127 0" result="hardAlpha"/>
<feOffset dy="1.96154"/>
<feGaussianBlur stdDeviation="1.47115"/>
<feComposite in2="hardAlpha" operator="out"/>
<feColorMatrix type="matrix" values="0 0 0 0 0.2 0 0 0 0 0.290196 0 0 0 0 0.729412 0 0 0 0.44 0"/>
<feBlend mode="normal" in2="BackgroundImageFix" result="effect1_dropShadow_1975_39598"/>
<feBlend mode="normal" in="SourceGraphic" in2="effect1_dropShadow_1975_39598" result="shape"/>
</filter>
<filter id="filter6_f_1975_39598" x="122.111" y="47.6105" width="22.7712" height="21.6052" filterUnits="userSpaceOnUse" color-interpolation-filters="sRGB">
<feFlood flood-opacity="0" result="BackgroundImageFix"/>
<feBlend mode="normal" in="SourceGraphic" in2="BackgroundImageFix" result="shape"/>
<feGaussianBlur stdDeviation="2.94231" result="effect1_foregroundBlur_1975_39598"/>
</filter>
<linearGradient id="paint0_linear_1975_39598" x1="122.499" y1="22.3945" x2="122.499" y2="62.6061" gradientUnits="userSpaceOnUse">
<stop stop-color="#41D8F1"/>
<stop offset="1" stop-color="#4965ED"/>
</linearGradient>
<linearGradient id="paint1_linear_1975_39598" x1="122.5" y1="16.998" x2="122.5" y2="67.9832" gradientUnits="userSpaceOnUse">
<stop stop-color="#41D8F1"/>
<stop offset="1" stop-color="#4965ED"/>
</linearGradient>
<radialGradient id="paint2_radial_1975_39598" cx="0" cy="0" r="1" gradientTransform="matrix(98.0769 7.84615 -7.87483 98.0764 85.9663 67.998)" gradientUnits="userSpaceOnUse">
<stop stop-color="white"/>
<stop offset="0.464944" stop-color="white" stop-opacity="0"/>
</radialGradient>
<radialGradient id="paint3_radial_1975_39598" cx="0" cy="0" r="1" gradientTransform="matrix(46.0962 41.9279 -41.942 46.0848 105.337 26.0702)" gradientUnits="userSpaceOnUse">
<stop stop-color="white"/>
<stop offset="0.464944" stop-color="white" stop-opacity="0"/>
</radialGradient>
<clipPath id="clip0_1975_39598">
<rect width="161.5" height="80" fill="white" transform="translate(0.5)"/>
</clipPath>
</defs>
</svg>
