<svg width="162" height="80" viewBox="0 0 162 80" fill="none" xmlns="http://www.w3.org/2000/svg">
<g clip-path="url(#clip0_1946_7431)">
<rect width="161.5" height="80" transform="translate(0.5)" fill="#1F2027"/>
<g filter="url(#filter0_d_1946_7431)">
<path d="M122.492 20.3945C118.946 20.3929 115.462 21.3306 112.395 23.1121C109.327 24.8936 106.786 27.4556 105.03 30.5377C103.273 33.6197 102.364 37.112 102.393 40.6596C102.423 44.2073 103.391 47.6838 105.199 50.736L102.504 58.1532C102.403 58.4292 102.371 58.7253 102.409 59.0166C102.448 59.3078 102.555 59.5855 102.724 59.8261C102.892 60.0668 103.116 60.2633 103.376 60.3991C103.637 60.5349 103.926 60.6059 104.22 60.6061C104.433 60.6055 104.644 60.5685 104.845 60.4964L112.26 57.7986C114.921 59.3755 117.91 60.3168 120.994 60.5493C124.079 60.7817 127.175 60.2989 130.042 59.1385C132.91 57.9782 135.471 56.1715 137.526 53.8593C139.581 51.547 141.075 48.7914 141.891 45.8072C142.708 42.8229 142.825 39.6904 142.233 36.6535C141.641 33.6167 140.357 30.7575 138.479 28.2984C136.602 25.8393 134.183 23.8468 131.41 22.4759C128.637 21.105 125.585 20.3927 122.492 20.3945Z" fill="url(#paint0_linear_1946_7431)"/>
</g>
<g filter="url(#filter1_ii_1946_7431)">
<path d="M122.492 14.9981C117.994 14.996 113.575 16.1849 109.685 18.4437C105.795 20.7026 102.573 23.9509 100.345 27.8588C98.1169 31.7666 96.9632 36.1945 97.0009 40.6926C97.0386 45.1908 98.2664 49.5987 100.56 53.4687L97.1412 62.8731C97.0138 63.2231 96.9727 63.5986 97.0212 63.9678C97.0698 64.3371 97.2066 64.6892 97.4201 64.9943C97.6336 65.2994 97.9175 65.5486 98.2478 65.7208C98.578 65.8929 98.9449 65.9829 99.3173 65.9832C99.5876 65.9825 99.8556 65.9355 100.11 65.8441L109.514 62.4235C112.89 64.4229 116.681 65.6165 120.592 65.9112C124.504 66.2058 128.431 65.5937 132.068 64.1225C135.705 62.6512 138.953 60.3605 141.559 57.4287C144.166 54.4969 146.061 51.0031 147.096 47.2193C148.131 43.4355 148.28 39.4637 147.529 35.6132C146.779 31.7628 145.149 28.1374 142.769 25.0195C140.388 21.9016 137.32 19.3752 133.803 17.637C130.286 15.8988 126.415 14.9957 122.492 14.9981Z" fill="url(#paint1_linear_1946_7431)"/>
<path d="M122.492 14.9981C117.994 14.996 113.575 16.1849 109.685 18.4437C105.795 20.7026 102.573 23.9509 100.345 27.8588C98.1169 31.7666 96.9632 36.1945 97.0009 40.6926C97.0386 45.1908 98.2664 49.5987 100.56 53.4687L97.1412 62.8731C97.0138 63.2231 96.9727 63.5986 97.0212 63.9678C97.0698 64.3371 97.2066 64.6892 97.4201 64.9943C97.6336 65.2994 97.9175 65.5486 98.2478 65.7208C98.578 65.8929 98.9449 65.9829 99.3173 65.9832C99.5876 65.9825 99.8556 65.9355 100.11 65.8441L109.514 62.4235C112.89 64.4229 116.681 65.6165 120.592 65.9112C124.504 66.2058 128.431 65.5937 132.068 64.1225C135.705 62.6512 138.953 60.3605 141.559 57.4287C144.166 54.4969 146.061 51.0031 147.096 47.2193C148.131 43.4355 148.28 39.4637 147.529 35.6132C146.779 31.7628 145.149 28.1374 142.769 25.0195C140.388 21.9016 137.32 19.3752 133.803 17.637C130.286 15.8988 126.415 14.9957 122.492 14.9981Z" fill="url(#paint2_radial_1946_7431)"/>
<path d="M122.492 14.9981C117.994 14.996 113.575 16.1849 109.685 18.4437C105.795 20.7026 102.573 23.9509 100.345 27.8588C98.1169 31.7666 96.9632 36.1945 97.0009 40.6926C97.0386 45.1908 98.2664 49.5987 100.56 53.4687L97.1412 62.8731C97.0138 63.2231 96.9727 63.5986 97.0212 63.9678C97.0698 64.3371 97.2066 64.6892 97.4201 64.9943C97.6336 65.2994 97.9175 65.5486 98.2478 65.7208C98.578 65.8929 98.9449 65.9829 99.3173 65.9832C99.5876 65.9825 99.8556 65.9355 100.11 65.8441L109.514 62.4235C112.89 64.4229 116.681 65.6165 120.592 65.9112C124.504 66.2058 128.431 65.5937 132.068 64.1225C135.705 62.6512 138.953 60.3605 141.559 57.4287C144.166 54.4969 146.061 51.0031 147.096 47.2193C148.131 43.4355 148.28 39.4637 147.529 35.6132C146.779 31.7628 145.149 28.1374 142.769 25.0195C140.388 21.9016 137.32 19.3752 133.803 17.637C130.286 15.8988 126.415 14.9957 122.492 14.9981Z" fill="url(#paint3_radial_1946_7431)"/>
</g>
<g filter="url(#filter2_f_1946_7431)">
<circle cx="7.22884" cy="7.22884" r="7.22884" transform="matrix(0.254713 -0.967017 0.999419 0.0340866 126.914 40.2607)" fill="#1AFFF4" fill-opacity="0.01"/>
</g>
<g filter="url(#filter3_d_1946_7431)">
<circle cx="113.674" cy="40.4998" r="2.45192" fill="white"/>
</g>
<g filter="url(#filter4_d_1946_7431)">
<circle cx="122.5" cy="40.4998" r="2.45192" fill="white"/>
</g>
<g filter="url(#filter5_d_1946_7431)">
<circle cx="131.327" cy="40.4998" r="2.45192" fill="white"/>
</g>
<g filter="url(#filter6_f_1946_7431)">
<ellipse cx="133.497" cy="56.4135" rx="1.84884" ry="7.14165" transform="rotate(48.6663 133.497 56.4135)" fill="white"/>
</g>
</g>
<defs>
<filter id="filter0_d_1946_7431" x="91.0647" y="20.3945" width="62.8677" height="65.761" filterUnits="userSpaceOnUse" color-interpolation-filters="sRGB">
<feFlood flood-opacity="0" result="BackgroundImageFix"/>
<feColorMatrix in="SourceAlpha" type="matrix" values="0 0 0 0 0 0 0 0 0 0 0 0 0 0 0 0 0 0 127 0" result="hardAlpha"/>
<feOffset dy="14.2212"/>
<feGaussianBlur stdDeviation="5.66394"/>
<feComposite in2="hardAlpha" operator="out"/>
<feColorMatrix type="matrix" values="0 0 0 0 0.144626 0 0 0 0 0.173251 0 0 0 0 0.389976 0 0 0 0.6 0"/>
<feBlend mode="normal" in2="BackgroundImageFix" result="effect1_dropShadow_1946_7431"/>
<feBlend mode="normal" in="SourceGraphic" in2="effect1_dropShadow_1946_7431" result="shape"/>
</filter>
<filter id="filter1_ii_1946_7431" x="97" y="13.0365" width="51" height="54.9084" filterUnits="userSpaceOnUse" color-interpolation-filters="sRGB">
<feFlood flood-opacity="0" result="BackgroundImageFix"/>
<feBlend mode="normal" in="SourceGraphic" in2="BackgroundImageFix" result="shape"/>
<feColorMatrix in="SourceAlpha" type="matrix" values="0 0 0 0 0 0 0 0 0 0 0 0 0 0 0 0 0 0 127 0" result="hardAlpha"/>
<feOffset dy="1.96154"/>
<feGaussianBlur stdDeviation="10.7885"/>
<feComposite in2="hardAlpha" operator="arithmetic" k2="-1" k3="1"/>
<feColorMatrix type="matrix" values="0 0 0 0 1 0 0 0 0 1 0 0 0 0 1 0 0 0 1 0"/>
<feBlend mode="normal" in2="shape" result="effect1_innerShadow_1946_7431"/>
<feColorMatrix in="SourceAlpha" type="matrix" values="0 0 0 0 0 0 0 0 0 0 0 0 0 0 0 0 0 0 127 0" result="hardAlpha"/>
<feOffset dy="-1.96154"/>
<feGaussianBlur stdDeviation="2.45192"/>
<feComposite in2="hardAlpha" operator="arithmetic" k2="-1" k3="1"/>
<feColorMatrix type="matrix" values="0 0 0 0 1 0 0 0 0 1 0 0 0 0 1 0 0 0 0.33 0"/>
<feBlend mode="normal" in2="effect1_innerShadow_1946_7431" result="effect2_innerShadow_1946_7431"/>
</filter>
<filter id="filter2_f_1946_7431" x="112.536" y="10.5349" width="46.8881" height="45.9633" filterUnits="userSpaceOnUse" color-interpolation-filters="sRGB">
<feFlood flood-opacity="0" result="BackgroundImageFix"/>
<feBlend mode="normal" in="SourceGraphic" in2="BackgroundImageFix" result="shape"/>
<feGaussianBlur stdDeviation="7.99327" result="effect1_foregroundBlur_1946_7431"/>
</filter>
<filter id="filter3_d_1946_7431" x="108.279" y="37.0671" width="10.7889" height="10.7889" filterUnits="userSpaceOnUse" color-interpolation-filters="sRGB">
<feFlood flood-opacity="0" result="BackgroundImageFix"/>
<feColorMatrix in="SourceAlpha" type="matrix" values="0 0 0 0 0 0 0 0 0 0 0 0 0 0 0 0 0 0 127 0" result="hardAlpha"/>
<feOffset dy="1.96154"/>
<feGaussianBlur stdDeviation="1.47115"/>
<feComposite in2="hardAlpha" operator="out"/>
<feColorMatrix type="matrix" values="0 0 0 0 0.2 0 0 0 0 0.290196 0 0 0 0 0.729412 0 0 0 0.44 0"/>
<feBlend mode="normal" in2="BackgroundImageFix" result="effect1_dropShadow_1946_7431"/>
<feBlend mode="normal" in="SourceGraphic" in2="effect1_dropShadow_1946_7431" result="shape"/>
</filter>
<filter id="filter4_d_1946_7431" x="117.106" y="37.0671" width="10.7889" height="10.7889" filterUnits="userSpaceOnUse" color-interpolation-filters="sRGB">
<feFlood flood-opacity="0" result="BackgroundImageFix"/>
<feColorMatrix in="SourceAlpha" type="matrix" values="0 0 0 0 0 0 0 0 0 0 0 0 0 0 0 0 0 0 127 0" result="hardAlpha"/>
<feOffset dy="1.96154"/>
<feGaussianBlur stdDeviation="1.47115"/>
<feComposite in2="hardAlpha" operator="out"/>
<feColorMatrix type="matrix" values="0 0 0 0 0.2 0 0 0 0 0.290196 0 0 0 0 0.729412 0 0 0 0.44 0"/>
<feBlend mode="normal" in2="BackgroundImageFix" result="effect1_dropShadow_1946_7431"/>
<feBlend mode="normal" in="SourceGraphic" in2="effect1_dropShadow_1946_7431" result="shape"/>
</filter>
<filter id="filter5_d_1946_7431" x="125.933" y="37.0671" width="10.7889" height="10.7889" filterUnits="userSpaceOnUse" color-interpolation-filters="sRGB">
<feFlood flood-opacity="0" result="BackgroundImageFix"/>
<feColorMatrix in="SourceAlpha" type="matrix" values="0 0 0 0 0 0 0 0 0 0 0 0 0 0 0 0 0 0 127 0" result="hardAlpha"/>
<feOffset dy="1.96154"/>
<feGaussianBlur stdDeviation="1.47115"/>
<feComposite in2="hardAlpha" operator="out"/>
<feColorMatrix type="matrix" values="0 0 0 0 0.2 0 0 0 0 0.290196 0 0 0 0 0.729412 0 0 0 0.44 0"/>
<feBlend mode="normal" in2="BackgroundImageFix" result="effect1_dropShadow_1946_7431"/>
<feBlend mode="normal" in="SourceGraphic" in2="effect1_dropShadow_1946_7431" result="shape"/>
</filter>
<filter id="filter6_f_1946_7431" x="122.111" y="45.6105" width="22.7712" height="21.6052" filterUnits="userSpaceOnUse" color-interpolation-filters="sRGB">
<feFlood flood-opacity="0" result="BackgroundImageFix"/>
<feBlend mode="normal" in="SourceGraphic" in2="BackgroundImageFix" result="shape"/>
<feGaussianBlur stdDeviation="2.94231" result="effect1_foregroundBlur_1946_7431"/>
</filter>
<linearGradient id="paint0_linear_1946_7431" x1="122.498" y1="20.3945" x2="122.498" y2="60.6061" gradientUnits="userSpaceOnUse">
<stop stop-color="#41D8F1"/>
<stop offset="1" stop-color="#4965ED"/>
</linearGradient>
<linearGradient id="paint1_linear_1946_7431" x1="122.5" y1="14.998" x2="122.5" y2="65.9832" gradientUnits="userSpaceOnUse">
<stop stop-color="#41D8F1"/>
<stop offset="1" stop-color="#4965ED"/>
</linearGradient>
<radialGradient id="paint2_radial_1946_7431" cx="0" cy="0" r="1" gradientUnits="userSpaceOnUse" gradientTransform="translate(85.9663 65.998) rotate(4.57392) scale(98.3903 98.392)">
<stop stop-color="white"/>
<stop offset="0.464944" stop-color="white" stop-opacity="0"/>
</radialGradient>
<radialGradient id="paint3_radial_1946_7431" cx="0" cy="0" r="1" gradientUnits="userSpaceOnUse" gradientTransform="translate(105.337 24.0702) rotate(42.2889) scale(62.3121 62.3133)">
<stop stop-color="white"/>
<stop offset="0.464944" stop-color="white" stop-opacity="0"/>
</radialGradient>
<clipPath id="clip0_1946_7431">
<rect width="161.5" height="80" fill="white" transform="translate(0.5)"/>
</clipPath>
</defs>
</svg>
