<svg width="160" height="200" viewBox="0 0 160 200" fill="none" xmlns="http://www.w3.org/2000/svg">
<g clip-path="url(#clip0_1946_7601)">
<rect width="160" height="200" fill="#2A2F39"/>
<g style="mix-blend-mode:luminosity" opacity="0.09">
<g filter="url(#filter0_d_1946_7601)">
<path d="M86.4795 123.298C74.4484 123.292 62.6303 126.473 52.2262 132.516C41.822 138.56 33.2027 147.25 27.2439 157.705C21.2851 168.16 18.1994 180.006 18.3002 192.04C18.4011 204.074 21.685 215.867 27.8181 226.221L18.6755 251.381C18.3349 252.317 18.2248 253.322 18.3547 254.31C18.4845 255.298 18.8505 256.24 19.4215 257.056C19.9926 257.872 20.7519 258.539 21.6352 259C22.5185 259.46 23.4997 259.701 24.4958 259.702C25.2185 259.7 25.9355 259.574 26.6156 259.33L51.7686 250.178C60.7958 255.527 70.9353 258.721 81.398 259.509C91.8606 260.297 102.364 258.66 112.09 254.724C121.817 250.788 130.504 244.659 137.475 236.815C144.447 228.972 149.514 219.625 152.284 209.501C155.053 199.378 155.45 188.752 153.442 178.451C151.435 168.15 147.078 158.451 140.71 150.109C134.342 141.767 126.136 135.008 116.73 130.358C107.324 125.708 96.9717 123.292 86.4795 123.298Z" fill="url(#paint0_linear_1946_7601)"/>
</g>
<g filter="url(#filter1_ii_1946_7601)">
<path d="M86.4742 111C71.2153 110.993 56.2266 115.026 43.0311 122.688C29.8356 130.351 18.9036 141.37 11.3462 154.626C3.78874 167.881 -0.124879 182.902 0.00303806 198.16C0.130955 213.418 4.29585 228.371 12.0745 241.498L0.479 273.4C0.0469455 274.587 -0.0926453 275.861 0.0720513 277.113C0.236748 278.366 0.700881 279.56 1.42514 280.595C2.1494 281.63 3.11244 282.476 4.23272 283.059C5.35299 283.643 6.59749 283.949 7.8608 283.95C8.77738 283.947 9.68677 283.788 10.5494 283.478L42.4507 271.875C53.8998 278.657 66.7597 282.706 80.0294 283.705C93.2991 284.705 106.62 282.628 118.956 277.638C131.292 272.647 142.31 264.877 151.152 254.932C159.994 244.986 166.421 233.135 169.933 220.3C173.446 207.464 173.949 193.991 171.403 180.93C168.856 167.869 163.33 155.571 155.254 144.994C147.178 134.418 136.77 125.848 124.841 119.952C112.911 114.056 99.7815 110.992 86.4742 111Z" fill="url(#paint1_linear_1946_7601)"/>
<path d="M86.4742 111C71.2153 110.993 56.2266 115.026 43.0311 122.688C29.8356 130.351 18.9036 141.37 11.3462 154.626C3.78874 167.881 -0.124879 182.902 0.00303806 198.16C0.130955 213.418 4.29585 228.371 12.0745 241.498L0.479 273.4C0.0469455 274.587 -0.0926453 275.861 0.0720513 277.113C0.236748 278.366 0.700881 279.56 1.42514 280.595C2.1494 281.63 3.11244 282.476 4.23272 283.059C5.35299 283.643 6.59749 283.949 7.8608 283.95C8.77738 283.947 9.68677 283.788 10.5494 283.478L42.4507 271.875C53.8998 278.657 66.7597 282.706 80.0294 283.705C93.2991 284.705 106.62 282.628 118.956 277.638C131.292 272.647 142.31 264.877 151.152 254.932C159.994 244.986 166.421 233.135 169.933 220.3C173.446 207.464 173.949 193.991 171.403 180.93C168.856 167.869 163.33 155.571 155.254 144.994C147.178 134.418 136.77 125.848 124.841 119.952C112.911 114.056 99.7815 110.992 86.4742 111Z" fill="url(#paint2_radial_1946_7601)"/>
<path d="M86.4742 111C71.2153 110.993 56.2266 115.026 43.0311 122.688C29.8356 130.351 18.9036 141.37 11.3462 154.626C3.78874 167.881 -0.124879 182.902 0.00303806 198.16C0.130955 213.418 4.29585 228.371 12.0745 241.498L0.479 273.4C0.0469455 274.587 -0.0926453 275.861 0.0720513 277.113C0.236748 278.366 0.700881 279.56 1.42514 280.595C2.1494 281.63 3.11244 282.476 4.23272 283.059C5.35299 283.643 6.59749 283.949 7.8608 283.95C8.77738 283.947 9.68677 283.788 10.5494 283.478L42.4507 271.875C53.8998 278.657 66.7597 282.706 80.0294 283.705C93.2991 284.705 106.62 282.628 118.956 277.638C131.292 272.647 142.31 264.877 151.152 254.932C159.994 244.986 166.421 233.135 169.933 220.3C173.446 207.464 173.949 193.991 171.403 180.93C168.856 167.869 163.33 155.571 155.254 144.994C147.178 134.418 136.77 125.848 124.841 119.952C112.911 114.056 99.7815 110.992 86.4742 111Z" fill="url(#paint3_radial_1946_7601)"/>
</g>
<g filter="url(#filter2_d_1946_7601)">
<circle cx="56.5575" cy="197.501" r="8.31731" fill="white"/>
</g>
<g filter="url(#filter3_d_1946_7601)">
<circle cx="86.5009" cy="197.501" r="8.31731" fill="white"/>
</g>
<g filter="url(#filter4_d_1946_7601)">
<circle cx="116.442" cy="197.501" r="8.31731" fill="white"/>
</g>
</g>
<g filter="url(#filter5_d_1946_7601)">
<path d="M120.988 69C113.755 68.9968 106.651 70.9088 100.396 74.5417C94.1417 78.1747 88.9601 83.3991 85.378 89.684C81.7958 95.969 79.9408 103.091 80.0014 110.325C80.0621 117.559 82.0362 124.649 85.7232 130.873L80.227 145.998C80.0223 146.561 79.9561 147.165 80.0342 147.759C80.1122 148.353 80.3322 148.919 80.6755 149.41C81.0188 149.9 81.4753 150.301 82.0063 150.578C82.5373 150.855 83.1271 151 83.7259 151C84.1604 150.999 84.5914 150.923 85.0003 150.776L100.121 145.275C105.548 148.491 111.643 150.41 117.933 150.884C124.223 151.358 130.537 150.374 136.384 148.007C142.231 145.641 147.453 141.957 151.644 137.242C155.835 132.527 158.882 126.907 160.546 120.822C162.211 114.736 162.45 108.348 161.243 102.156C160.036 95.9629 157.417 90.1322 153.589 85.1177C149.761 80.1031 144.828 76.0399 139.173 73.2443C133.519 70.4487 127.295 68.9963 120.988 69Z" fill="url(#paint4_linear_1946_7601)"/>
</g>
<g filter="url(#filter6_ii_1946_7601)">
<path d="M120.985 58C111.812 57.9959 102.801 60.4202 94.8684 65.0265C86.9358 69.6328 80.364 76.2569 75.8208 84.2258C71.2776 92.1946 68.9249 101.224 69.0018 110.397C69.0787 119.569 71.5825 128.558 76.2586 136.45L69.288 155.628C69.0282 156.341 68.9443 157.107 69.0433 157.86C69.1423 158.613 69.4213 159.331 69.8567 159.953C70.2921 160.575 70.8711 161.084 71.5445 161.435C72.218 161.786 72.9661 161.969 73.7256 161.97C74.2766 161.968 74.8233 161.872 75.3418 161.686L94.5195 154.711C101.402 158.788 109.133 161.222 117.11 161.823C125.087 162.424 133.096 161.176 140.511 158.175C147.927 155.175 154.551 150.504 159.866 144.525C165.181 138.547 169.045 131.422 171.156 123.706C173.268 115.99 173.57 107.891 172.04 100.039C170.509 92.1869 167.187 84.7941 162.332 78.436C157.477 72.0779 151.22 66.926 144.049 63.3814C136.877 59.8369 128.984 57.9953 120.985 58Z" fill="url(#paint5_linear_1946_7601)"/>
<path d="M120.985 58C111.812 57.9959 102.801 60.4202 94.8684 65.0265C86.9358 69.6328 80.364 76.2569 75.8208 84.2258C71.2776 92.1946 68.9249 101.224 69.0018 110.397C69.0787 119.569 71.5825 128.558 76.2586 136.45L69.288 155.628C69.0282 156.341 68.9443 157.107 69.0433 157.86C69.1423 158.613 69.4213 159.331 69.8567 159.953C70.2921 160.575 70.8711 161.084 71.5445 161.435C72.218 161.786 72.9661 161.969 73.7256 161.97C74.2766 161.968 74.8233 161.872 75.3418 161.686L94.5195 154.711C101.402 158.788 109.133 161.222 117.11 161.823C125.087 162.424 133.096 161.176 140.511 158.175C147.927 155.175 154.551 150.504 159.866 144.525C165.181 138.547 169.045 131.422 171.156 123.706C173.268 115.99 173.57 107.891 172.04 100.039C170.509 92.1869 167.187 84.7941 162.332 78.436C157.477 72.0779 151.22 66.926 144.049 63.3814C136.877 59.8369 128.984 57.9953 120.985 58Z" fill="url(#paint6_radial_1946_7601)"/>
<path d="M120.985 58C111.812 57.9959 102.801 60.4202 94.8684 65.0265C86.9358 69.6328 80.364 76.2569 75.8208 84.2258C71.2776 92.1946 68.9249 101.224 69.0018 110.397C69.0787 119.569 71.5825 128.558 76.2586 136.45L69.288 155.628C69.0282 156.341 68.9443 157.107 69.0433 157.86C69.1423 158.613 69.4213 159.331 69.8567 159.953C70.2921 160.575 70.8711 161.084 71.5445 161.435C72.218 161.786 72.9661 161.969 73.7256 161.97C74.2766 161.968 74.8233 161.872 75.3418 161.686L94.5195 154.711C101.402 158.788 109.133 161.222 117.11 161.823C125.087 162.424 133.096 161.176 140.511 158.175C147.927 155.175 154.551 150.504 159.866 144.525C165.181 138.547 169.045 131.422 171.156 123.706C173.268 115.99 173.57 107.891 172.04 100.039C170.509 92.1869 167.187 84.7941 162.332 78.436C157.477 72.0779 151.22 66.926 144.049 63.3814C136.877 59.8369 128.984 57.9953 120.985 58Z" fill="url(#paint7_radial_1946_7601)"/>
</g>
<g filter="url(#filter7_f_1946_7601)">
<circle cx="14.7412" cy="14.7412" r="14.7412" transform="matrix(0.254713 -0.967017 0.999419 0.0340866 130 109.51)" fill="#1AFFF4" fill-opacity="0.01"/>
</g>
<g filter="url(#filter8_d_1946_7601)">
<circle cx="103" cy="110" r="5" fill="white"/>
</g>
<g filter="url(#filter9_d_1946_7601)">
<circle cx="121" cy="110" r="5" fill="white"/>
</g>
<g filter="url(#filter10_d_1946_7601)">
<circle cx="139" cy="110" r="5" fill="white"/>
</g>
<g filter="url(#filter11_f_1946_7601)">
<ellipse cx="143.425" cy="142.449" rx="3.77019" ry="14.5634" transform="rotate(48.6663 143.425 142.449)" fill="white"/>
</g>
</g>
<defs>
<filter id="filter0_d_1946_7601" x="-4.80215" y="123.298" width="182.604" height="188.504" filterUnits="userSpaceOnUse" color-interpolation-filters="sRGB">
<feFlood flood-opacity="0" result="BackgroundImageFix"/>
<feColorMatrix in="SourceAlpha" type="matrix" values="0 0 0 0 0 0 0 0 0 0 0 0 0 0 0 0 0 0 127 0" result="hardAlpha"/>
<feOffset dy="29"/>
<feGaussianBlur stdDeviation="11.55"/>
<feComposite in2="hardAlpha" operator="out"/>
<feColorMatrix type="matrix" values="0 0 0 0 0.144626 0 0 0 0 0.173251 0 0 0 0 0.389976 0 0 0 0.23 0"/>
<feBlend mode="normal" in2="BackgroundImageFix" result="effect1_dropShadow_1946_7601"/>
<feBlend mode="normal" in="SourceGraphic" in2="effect1_dropShadow_1946_7601" result="shape"/>
</filter>
<filter id="filter1_ii_1946_7601" x="0" y="107" width="173" height="180.949" filterUnits="userSpaceOnUse" color-interpolation-filters="sRGB">
<feFlood flood-opacity="0" result="BackgroundImageFix"/>
<feBlend mode="normal" in="SourceGraphic" in2="BackgroundImageFix" result="shape"/>
<feColorMatrix in="SourceAlpha" type="matrix" values="0 0 0 0 0 0 0 0 0 0 0 0 0 0 0 0 0 0 127 0" result="hardAlpha"/>
<feOffset dy="4"/>
<feGaussianBlur stdDeviation="22"/>
<feComposite in2="hardAlpha" operator="arithmetic" k2="-1" k3="1"/>
<feColorMatrix type="matrix" values="0 0 0 0 1 0 0 0 0 1 0 0 0 0 1 0 0 0 1 0"/>
<feBlend mode="normal" in2="shape" result="effect1_innerShadow_1946_7601"/>
<feColorMatrix in="SourceAlpha" type="matrix" values="0 0 0 0 0 0 0 0 0 0 0 0 0 0 0 0 0 0 127 0" result="hardAlpha"/>
<feOffset dy="-4"/>
<feGaussianBlur stdDeviation="5"/>
<feComposite in2="hardAlpha" operator="arithmetic" k2="-1" k3="1"/>
<feColorMatrix type="matrix" values="0 0 0 0 1 0 0 0 0 1 0 0 0 0 1 0 0 0 0.33 0"/>
<feBlend mode="normal" in2="effect1_innerShadow_1946_7601" result="effect2_innerShadow_1946_7601"/>
</filter>
<filter id="filter2_d_1946_7601" x="42.2402" y="187.184" width="28.6348" height="28.6348" filterUnits="userSpaceOnUse" color-interpolation-filters="sRGB">
<feFlood flood-opacity="0" result="BackgroundImageFix"/>
<feColorMatrix in="SourceAlpha" type="matrix" values="0 0 0 0 0 0 0 0 0 0 0 0 0 0 0 0 0 0 127 0" result="hardAlpha"/>
<feOffset dy="4"/>
<feGaussianBlur stdDeviation="3"/>
<feComposite in2="hardAlpha" operator="out"/>
<feColorMatrix type="matrix" values="0 0 0 0 0.2 0 0 0 0 0.290196 0 0 0 0 0.729412 0 0 0 0.44 0"/>
<feBlend mode="normal" in2="BackgroundImageFix" result="effect1_dropShadow_1946_7601"/>
<feBlend mode="normal" in="SourceGraphic" in2="effect1_dropShadow_1946_7601" result="shape"/>
</filter>
<filter id="filter3_d_1946_7601" x="72.1836" y="187.184" width="28.6348" height="28.6348" filterUnits="userSpaceOnUse" color-interpolation-filters="sRGB">
<feFlood flood-opacity="0" result="BackgroundImageFix"/>
<feColorMatrix in="SourceAlpha" type="matrix" values="0 0 0 0 0 0 0 0 0 0 0 0 0 0 0 0 0 0 127 0" result="hardAlpha"/>
<feOffset dy="4"/>
<feGaussianBlur stdDeviation="3"/>
<feComposite in2="hardAlpha" operator="out"/>
<feColorMatrix type="matrix" values="0 0 0 0 0.2 0 0 0 0 0.290196 0 0 0 0 0.729412 0 0 0 0.44 0"/>
<feBlend mode="normal" in2="BackgroundImageFix" result="effect1_dropShadow_1946_7601"/>
<feBlend mode="normal" in="SourceGraphic" in2="effect1_dropShadow_1946_7601" result="shape"/>
</filter>
<filter id="filter4_d_1946_7601" x="102.125" y="187.184" width="28.6348" height="28.6348" filterUnits="userSpaceOnUse" color-interpolation-filters="sRGB">
<feFlood flood-opacity="0" result="BackgroundImageFix"/>
<feColorMatrix in="SourceAlpha" type="matrix" values="0 0 0 0 0 0 0 0 0 0 0 0 0 0 0 0 0 0 127 0" result="hardAlpha"/>
<feOffset dy="4"/>
<feGaussianBlur stdDeviation="3"/>
<feComposite in2="hardAlpha" operator="out"/>
<feColorMatrix type="matrix" values="0 0 0 0 0.2 0 0 0 0 0.290196 0 0 0 0 0.729412 0 0 0 0.44 0"/>
<feBlend mode="normal" in2="BackgroundImageFix" result="effect1_dropShadow_1946_7601"/>
<feBlend mode="normal" in="SourceGraphic" in2="effect1_dropShadow_1946_7601" result="shape"/>
</filter>
<filter id="filter5_d_1946_7601" x="56.9" y="69" width="128.2" height="134.1" filterUnits="userSpaceOnUse" color-interpolation-filters="sRGB">
<feFlood flood-opacity="0" result="BackgroundImageFix"/>
<feColorMatrix in="SourceAlpha" type="matrix" values="0 0 0 0 0 0 0 0 0 0 0 0 0 0 0 0 0 0 127 0" result="hardAlpha"/>
<feOffset dy="29"/>
<feGaussianBlur stdDeviation="11.55"/>
<feComposite in2="hardAlpha" operator="out"/>
<feColorMatrix type="matrix" values="0 0 0 0 0.144626 0 0 0 0 0.173251 0 0 0 0 0.389976 0 0 0 0.6 0"/>
<feBlend mode="normal" in2="BackgroundImageFix" result="effect1_dropShadow_1946_7601"/>
<feBlend mode="normal" in="SourceGraphic" in2="effect1_dropShadow_1946_7601" result="shape"/>
</filter>
<filter id="filter6_ii_1946_7601" x="69" y="54" width="104" height="111.97" filterUnits="userSpaceOnUse" color-interpolation-filters="sRGB">
<feFlood flood-opacity="0" result="BackgroundImageFix"/>
<feBlend mode="normal" in="SourceGraphic" in2="BackgroundImageFix" result="shape"/>
<feColorMatrix in="SourceAlpha" type="matrix" values="0 0 0 0 0 0 0 0 0 0 0 0 0 0 0 0 0 0 127 0" result="hardAlpha"/>
<feOffset dy="4"/>
<feGaussianBlur stdDeviation="22"/>
<feComposite in2="hardAlpha" operator="arithmetic" k2="-1" k3="1"/>
<feColorMatrix type="matrix" values="0 0 0 0 1 0 0 0 0 1 0 0 0 0 1 0 0 0 1 0"/>
<feBlend mode="normal" in2="shape" result="effect1_innerShadow_1946_7601"/>
<feColorMatrix in="SourceAlpha" type="matrix" values="0 0 0 0 0 0 0 0 0 0 0 0 0 0 0 0 0 0 127 0" result="hardAlpha"/>
<feOffset dy="-4"/>
<feGaussianBlur stdDeviation="5"/>
<feComposite in2="hardAlpha" operator="arithmetic" k2="-1" k3="1"/>
<feColorMatrix type="matrix" values="0 0 0 0 1 0 0 0 0 1 0 0 0 0 1 0 0 0 0.33 0"/>
<feBlend mode="normal" in2="effect1_innerShadow_1946_7601" result="effect2_innerShadow_1946_7601"/>
</filter>
<filter id="filter7_f_1946_7601" x="100.68" y="48.8932" width="95.6141" height="93.7283" filterUnits="userSpaceOnUse" color-interpolation-filters="sRGB">
<feFlood flood-opacity="0" result="BackgroundImageFix"/>
<feBlend mode="normal" in="SourceGraphic" in2="BackgroundImageFix" result="shape"/>
<feGaussianBlur stdDeviation="16.3" result="effect1_foregroundBlur_1946_7601"/>
</filter>
<filter id="filter8_d_1946_7601" x="92" y="103" width="22" height="22" filterUnits="userSpaceOnUse" color-interpolation-filters="sRGB">
<feFlood flood-opacity="0" result="BackgroundImageFix"/>
<feColorMatrix in="SourceAlpha" type="matrix" values="0 0 0 0 0 0 0 0 0 0 0 0 0 0 0 0 0 0 127 0" result="hardAlpha"/>
<feOffset dy="4"/>
<feGaussianBlur stdDeviation="3"/>
<feComposite in2="hardAlpha" operator="out"/>
<feColorMatrix type="matrix" values="0 0 0 0 0.2 0 0 0 0 0.290196 0 0 0 0 0.729412 0 0 0 0.44 0"/>
<feBlend mode="normal" in2="BackgroundImageFix" result="effect1_dropShadow_1946_7601"/>
<feBlend mode="normal" in="SourceGraphic" in2="effect1_dropShadow_1946_7601" result="shape"/>
</filter>
<filter id="filter9_d_1946_7601" x="110" y="103" width="22" height="22" filterUnits="userSpaceOnUse" color-interpolation-filters="sRGB">
<feFlood flood-opacity="0" result="BackgroundImageFix"/>
<feColorMatrix in="SourceAlpha" type="matrix" values="0 0 0 0 0 0 0 0 0 0 0 0 0 0 0 0 0 0 127 0" result="hardAlpha"/>
<feOffset dy="4"/>
<feGaussianBlur stdDeviation="3"/>
<feComposite in2="hardAlpha" operator="out"/>
<feColorMatrix type="matrix" values="0 0 0 0 0.2 0 0 0 0 0.290196 0 0 0 0 0.729412 0 0 0 0.44 0"/>
<feBlend mode="normal" in2="BackgroundImageFix" result="effect1_dropShadow_1946_7601"/>
<feBlend mode="normal" in="SourceGraphic" in2="effect1_dropShadow_1946_7601" result="shape"/>
</filter>
<filter id="filter10_d_1946_7601" x="128" y="103" width="22" height="22" filterUnits="userSpaceOnUse" color-interpolation-filters="sRGB">
<feFlood flood-opacity="0" result="BackgroundImageFix"/>
<feColorMatrix in="SourceAlpha" type="matrix" values="0 0 0 0 0 0 0 0 0 0 0 0 0 0 0 0 0 0 127 0" result="hardAlpha"/>
<feOffset dy="4"/>
<feGaussianBlur stdDeviation="3"/>
<feComposite in2="hardAlpha" operator="out"/>
<feColorMatrix type="matrix" values="0 0 0 0 0.2 0 0 0 0 0.290196 0 0 0 0 0.729412 0 0 0 0.44 0"/>
<feBlend mode="normal" in2="BackgroundImageFix" result="effect1_dropShadow_1946_7601"/>
<feBlend mode="normal" in="SourceGraphic" in2="effect1_dropShadow_1946_7601" result="shape"/>
</filter>
<filter id="filter11_f_1946_7601" x="120.207" y="120.42" width="46.4355" height="44.0586" filterUnits="userSpaceOnUse" color-interpolation-filters="sRGB">
<feFlood flood-opacity="0" result="BackgroundImageFix"/>
<feBlend mode="normal" in="SourceGraphic" in2="BackgroundImageFix" result="shape"/>
<feGaussianBlur stdDeviation="6" result="effect1_foregroundBlur_1946_7601"/>
</filter>
<linearGradient id="paint0_linear_1946_7601" x1="86.4998" y1="123.298" x2="86.4998" y2="259.702" gradientUnits="userSpaceOnUse">
<stop stop-color="#9F9F9F"/>
<stop offset="1"/>
</linearGradient>
<linearGradient id="paint1_linear_1946_7601" x1="86.5" y1="111" x2="86.5" y2="283.95" gradientUnits="userSpaceOnUse">
<stop stop-color="#9F9F9F"/>
<stop offset="1"/>
</linearGradient>
<radialGradient id="paint2_radial_1946_7601" cx="0" cy="0" r="1" gradientTransform="matrix(332.692 26.6154 -26.7127 332.691 -37.4279 284)" gradientUnits="userSpaceOnUse">
<stop stop-color="white"/>
<stop offset="0.464944" stop-color="white" stop-opacity="0"/>
</radialGradient>
<radialGradient id="paint3_radial_1946_7601" cx="0" cy="0" r="1" gradientTransform="matrix(156.365 142.226 -142.274 156.327 28.2788 141.774)" gradientUnits="userSpaceOnUse">
<stop stop-color="white"/>
<stop offset="0.464944" stop-color="white" stop-opacity="0"/>
</radialGradient>
<linearGradient id="paint4_linear_1946_7601" x1="121" y1="69" x2="121" y2="151" gradientUnits="userSpaceOnUse">
<stop stop-color="#41D8F1"/>
<stop offset="1" stop-color="#4965ED"/>
</linearGradient>
<linearGradient id="paint5_linear_1946_7601" x1="121" y1="58" x2="121" y2="161.97" gradientUnits="userSpaceOnUse">
<stop stop-color="#41D8F1"/>
<stop offset="1" stop-color="#4965ED"/>
</linearGradient>
<radialGradient id="paint6_radial_1946_7601" cx="0" cy="0" r="1" gradientTransform="matrix(200 16 -16.0585 199.999 46.5 162)" gradientUnits="userSpaceOnUse">
<stop stop-color="white"/>
<stop offset="0.464944" stop-color="white" stop-opacity="0"/>
</radialGradient>
<radialGradient id="paint7_radial_1946_7601" cx="0" cy="0" r="1" gradientTransform="matrix(94 85.5 -85.5289 93.9768 86 76.5)" gradientUnits="userSpaceOnUse">
<stop stop-color="white"/>
<stop offset="0.464944" stop-color="white" stop-opacity="0"/>
</radialGradient>
<clipPath id="clip0_1946_7601">
<rect width="160" height="200" fill="white"/>
</clipPath>
</defs>
</svg>
