<svg width="162" height="80" viewBox="0 0 162 80" fill="none" xmlns="http://www.w3.org/2000/svg">
<g clip-path="url(#clip0_1946_7287)">
<rect width="161.5" height="80" transform="translate(0.5)" fill="#1F2027"/>
<g filter="url(#filter0_d_1946_7287)">
<g filter="url(#filter1_d_1946_7287)">
<path d="M126.263 77.4648C134.651 77.4648 141.478 70.6379 141.478 62.2443C141.478 50.3181 127.694 38.004 127.107 37.4869C126.865 37.2736 126.564 37.1678 126.263 37.1678C125.962 37.1678 125.662 37.2736 125.42 37.4852C124.833 38.004 111.049 50.3181 111.049 62.2443C111.049 70.6379 117.875 77.4648 126.263 77.4648Z" fill="url(#paint0_linear_1946_7287)"/>
</g>
<g filter="url(#filter2_ii_1946_7287)">
<path d="M126.263 83.6328C137.145 83.6328 146 74.7159 146 63.753C146 48.1758 128.118 32.0921 127.357 31.4167C127.043 31.1382 126.653 31 126.263 31C125.872 31 125.482 31.1382 125.168 31.4145C124.407 32.0921 106.525 48.1758 106.525 63.753C106.525 74.7159 115.381 83.6328 126.263 83.6328Z" fill="url(#paint1_linear_1946_7287)"/>
<path d="M126.263 83.6328C137.145 83.6328 146 74.7159 146 63.753C146 48.1758 128.118 32.0921 127.357 31.4167C127.043 31.1382 126.653 31 126.263 31C125.872 31 125.482 31.1382 125.168 31.4145C124.407 32.0921 106.525 48.1758 106.525 63.753C106.525 74.7159 115.381 83.6328 126.263 83.6328Z" fill="url(#paint2_linear_1946_7287)"/>
</g>
<g filter="url(#filter3_f_1946_7287)">
<path d="M125.235 32.6474C123.426 33.7987 116.805 42.1734 113.721 46.2168C121.945 42.1049 126.057 34.2922 128.524 36.7593C130.498 38.7331 133.459 40.186 134.692 40.6657C132.294 37.5132 127.044 31.4961 125.235 32.6474Z" fill="white"/>
</g>
<g filter="url(#filter4_f_1946_7287)">
<ellipse cx="113.911" cy="73.369" rx="1.9409" ry="6.63532" transform="rotate(145.451 113.911 73.369)" fill="white"/>
</g>
<g filter="url(#filter5_f_1946_7287)">
<ellipse cx="136.706" cy="51.835" rx="1.32763" ry="4.53877" transform="rotate(141.557 136.706 51.835)" fill="white"/>
</g>
<g filter="url(#filter6_f_1946_7287)">
<ellipse cx="132.972" cy="70.1494" rx="7.40149" ry="3.2382" transform="rotate(-23.1104 132.972 70.1494)" fill="#00B6CE" fill-opacity="0.5"/>
</g>
<g filter="url(#filter7_f_1946_7287)">
<ellipse cx="121.903" cy="68.5661" rx="7.40149" ry="3.2382" transform="rotate(32.7222 121.903 68.5661)" fill="#00B6CE" fill-opacity="0.5"/>
</g>
</g>
<g opacity="0.33" filter="url(#filter8_dd_1946_7287)">
<g filter="url(#filter9_d_1946_7287)">
<path d="M98 45.1895C101.825 45.1895 104.938 42.0764 104.938 38.2491C104.938 32.8108 98.6521 27.1957 98.3846 26.9599C98.2744 26.8627 98.1372 26.8145 98 26.8145C97.8628 26.8145 97.7256 26.8627 97.6154 26.9592C97.3479 27.1957 91.0625 32.8108 91.0625 38.2491C91.0625 42.0764 94.1751 45.1895 98 45.1895Z" fill="url(#paint3_linear_1946_7287)"/>
</g>
<g filter="url(#filter10_ii_1946_7287)">
<path d="M98 48C102.962 48 107 43.934 107 38.935C107 31.832 98.846 24.498 98.499 24.19C98.356 24.063 98.178 24 98 24C97.822 24 97.644 24.063 97.501 24.189C97.154 24.498 89 31.832 89 38.935C89 43.934 93.038 48 98 48Z" fill="url(#paint4_linear_1946_7287)"/>
<path d="M98 48C102.962 48 107 43.934 107 38.935C107 31.832 98.846 24.498 98.499 24.19C98.356 24.063 98.178 24 98 24C97.822 24 97.644 24.063 97.501 24.189C97.154 24.498 89 31.832 89 38.935C89 43.934 93.038 48 98 48Z" fill="url(#paint5_linear_1946_7287)"/>
</g>
<g filter="url(#filter11_f_1946_7287)">
<path d="M97.5322 24.752C96.7072 25.277 93.6885 29.0957 92.2822 30.9395C96.0322 29.0645 97.9072 25.502 99.0322 26.627C99.9322 27.527 101.282 28.1895 101.845 28.4082C100.751 26.9707 98.3572 24.227 97.5322 24.752Z" fill="white"/>
</g>
<g filter="url(#filter12_f_1946_7287)">
<ellipse cx="92.3667" cy="43.3204" rx="0.885028" ry="3.02563" transform="rotate(145.451 92.3667 43.3204)" fill="white"/>
</g>
<g filter="url(#filter13_f_1946_7287)">
<ellipse cx="101.763" cy="29.5015" rx="0.605387" ry="2.06963" transform="rotate(141.557 101.763 29.5015)" fill="white"/>
</g>
<g filter="url(#filter14_f_1946_7287)">
<ellipse cx="100.059" cy="37.8508" rx="3.375" ry="1.47659" transform="rotate(-23.1104 100.059 37.8508)" fill="#00B6CE" fill-opacity="0.5"/>
</g>
<g filter="url(#filter15_f_1946_7287)">
<ellipse cx="95.0119" cy="37.1292" rx="3.375" ry="1.47659" transform="rotate(32.7222 95.0119 37.1292)" fill="#00B6CE" fill-opacity="0.5"/>
</g>
</g>
</g>
<defs>
<filter id="filter0_d_1946_7287" x="104.237" y="31" width="44.0514" height="57.2096" filterUnits="userSpaceOnUse" color-interpolation-filters="sRGB">
<feFlood flood-opacity="0" result="BackgroundImageFix"/>
<feColorMatrix in="SourceAlpha" type="matrix" values="0 0 0 0 0 0 0 0 0 0 0 0 0 0 0 0 0 0 127 0" result="hardAlpha"/>
<feOffset dy="2.28838"/>
<feGaussianBlur stdDeviation="1.14419"/>
<feComposite in2="hardAlpha" operator="out"/>
<feColorMatrix type="matrix" values="0 0 0 0 0 0 0 0 0 0 0 0 0 0 0 0 0 0 0.25 0"/>
<feBlend mode="normal" in2="BackgroundImageFix" result="effect1_dropShadow_1946_7287"/>
<feBlend mode="normal" in="SourceGraphic" in2="effect1_dropShadow_1946_7287" result="shape"/>
</filter>
<filter id="filter1_d_1946_7287" x="101.18" y="37.168" width="50.166" height="64.9685" filterUnits="userSpaceOnUse" color-interpolation-filters="sRGB">
<feFlood flood-opacity="0" result="BackgroundImageFix"/>
<feColorMatrix in="SourceAlpha" type="matrix" values="0 0 0 0 0 0 0 0 0 0 0 0 0 0 0 0 0 0 127 0" result="hardAlpha"/>
<feOffset dy="14.803"/>
<feGaussianBlur stdDeviation="4.93433"/>
<feComposite in2="hardAlpha" operator="out"/>
<feColorMatrix type="matrix" values="0 0 0 0 0.75 0 0 0 0 1 0 0 0 0 0.996296 0 0 0 0.2 0"/>
<feBlend mode="normal" in2="BackgroundImageFix" result="effect1_dropShadow_1946_7287"/>
<feBlend mode="normal" in="SourceGraphic" in2="effect1_dropShadow_1946_7287" result="shape"/>
</filter>
<filter id="filter2_ii_1946_7287" x="104.469" y="31" width="42.7642" height="54.2776" filterUnits="userSpaceOnUse" color-interpolation-filters="sRGB">
<feFlood flood-opacity="0" result="BackgroundImageFix"/>
<feBlend mode="normal" in="SourceGraphic" in2="BackgroundImageFix" result="shape"/>
<feColorMatrix in="SourceAlpha" type="matrix" values="0 0 0 0 0 0 0 0 0 0 0 0 0 0 0 0 0 0 127 0" result="hardAlpha"/>
<feOffset dx="1.23358" dy="1.64478"/>
<feGaussianBlur stdDeviation="4.11194"/>
<feComposite in2="hardAlpha" operator="arithmetic" k2="-1" k3="1"/>
<feColorMatrix type="matrix" values="0 0 0 0 1 0 0 0 0 1 0 0 0 0 1 0 0 0 1 0"/>
<feBlend mode="normal" in2="shape" result="effect1_innerShadow_1946_7287"/>
<feColorMatrix in="SourceAlpha" type="matrix" values="0 0 0 0 0 0 0 0 0 0 0 0 0 0 0 0 0 0 127 0" result="hardAlpha"/>
<feOffset dx="-2.05597"/>
<feGaussianBlur stdDeviation="4.87265"/>
<feComposite in2="hardAlpha" operator="arithmetic" k2="-1" k3="1"/>
<feColorMatrix type="matrix" values="0 0 0 0 1 0 0 0 0 1 0 0 0 0 1 0 0 0 0.83 0"/>
<feBlend mode="normal" in2="effect1_innerShadow_1946_7287" result="effect2_innerShadow_1946_7287"/>
</filter>
<filter id="filter3_f_1946_7287" x="109.61" y="28.391" width="29.1946" height="21.9377" filterUnits="userSpaceOnUse" color-interpolation-filters="sRGB">
<feFlood flood-opacity="0" result="BackgroundImageFix"/>
<feBlend mode="normal" in="SourceGraphic" in2="BackgroundImageFix" result="shape"/>
<feGaussianBlur stdDeviation="2.05597" result="effect1_foregroundBlur_1946_7287"/>
</filter>
<filter id="filter4_f_1946_7287" x="105.709" y="63.681" width="16.4026" height="19.3762" filterUnits="userSpaceOnUse" color-interpolation-filters="sRGB">
<feFlood flood-opacity="0" result="BackgroundImageFix"/>
<feBlend mode="normal" in="SourceGraphic" in2="BackgroundImageFix" result="shape"/>
<feGaussianBlur stdDeviation="2.05597" result="effect1_foregroundBlur_1946_7287"/>
</filter>
<filter id="filter5_f_1946_7287" x="130.885" y="45.3719" width="11.642" height="12.9262" filterUnits="userSpaceOnUse" color-interpolation-filters="sRGB">
<feFlood flood-opacity="0" result="BackgroundImageFix"/>
<feBlend mode="normal" in="SourceGraphic" in2="BackgroundImageFix" result="shape"/>
<feGaussianBlur stdDeviation="1.40635" result="effect1_foregroundBlur_1946_7287"/>
</filter>
<filter id="filter6_f_1946_7287" x="116.136" y="56.0795" width="33.6721" height="28.1399" filterUnits="userSpaceOnUse" color-interpolation-filters="sRGB">
<feFlood flood-opacity="0" result="BackgroundImageFix"/>
<feBlend mode="normal" in="SourceGraphic" in2="BackgroundImageFix" result="shape"/>
<feGaussianBlur stdDeviation="4.95489" result="effect1_foregroundBlur_1946_7287"/>
</filter>
<filter id="filter7_f_1946_7287" x="105.524" y="53.8158" width="32.759" height="29.5012" filterUnits="userSpaceOnUse" color-interpolation-filters="sRGB">
<feFlood flood-opacity="0" result="BackgroundImageFix"/>
<feBlend mode="normal" in="SourceGraphic" in2="BackgroundImageFix" result="shape"/>
<feGaussianBlur stdDeviation="4.95489" result="effect1_foregroundBlur_1946_7287"/>
</filter>
<filter id="filter8_dd_1946_7287" x="86.7674" y="24" width="22.4651" height="28.4651" filterUnits="userSpaceOnUse" color-interpolation-filters="sRGB">
<feFlood flood-opacity="0" result="BackgroundImageFix"/>
<feColorMatrix in="SourceAlpha" type="matrix" values="0 0 0 0 0 0 0 0 0 0 0 0 0 0 0 0 0 0 127 0" result="hardAlpha"/>
<feOffset dy="1.04348"/>
<feGaussianBlur stdDeviation="0.521739"/>
<feComposite in2="hardAlpha" operator="out"/>
<feColorMatrix type="matrix" values="0 0 0 0 0 0 0 0 0 0 0 0 0 0 0 0 0 0 0.25 0"/>
<feBlend mode="normal" in2="BackgroundImageFix" result="effect1_dropShadow_1946_7287"/>
<feColorMatrix in="SourceAlpha" type="matrix" values="0 0 0 0 0 0 0 0 0 0 0 0 0 0 0 0 0 0 127 0" result="hardAlpha"/>
<feOffset dy="2.23256"/>
<feGaussianBlur stdDeviation="1.11628"/>
<feComposite in2="hardAlpha" operator="out"/>
<feColorMatrix type="matrix" values="0 0 0 0 0 0 0 0 0 0 0 0 0 0 0 0 0 0 0.25 0"/>
<feBlend mode="normal" in2="effect1_dropShadow_1946_7287" result="effect2_dropShadow_1946_7287"/>
<feBlend mode="normal" in="SourceGraphic" in2="effect2_dropShadow_1946_7287" result="shape"/>
</filter>
<filter id="filter9_d_1946_7287" x="86.5625" y="26.8145" width="22.875" height="29.625" filterUnits="userSpaceOnUse" color-interpolation-filters="sRGB">
<feFlood flood-opacity="0" result="BackgroundImageFix"/>
<feColorMatrix in="SourceAlpha" type="matrix" values="0 0 0 0 0 0 0 0 0 0 0 0 0 0 0 0 0 0 127 0" result="hardAlpha"/>
<feOffset dy="6.75"/>
<feGaussianBlur stdDeviation="2.25"/>
<feComposite in2="hardAlpha" operator="out"/>
<feColorMatrix type="matrix" values="0 0 0 0 0.75 0 0 0 0 1 0 0 0 0 0.996296 0 0 0 0.27 0"/>
<feBlend mode="normal" in2="BackgroundImageFix" result="effect1_dropShadow_1946_7287"/>
<feBlend mode="normal" in="SourceGraphic" in2="effect1_dropShadow_1946_7287" result="shape"/>
</filter>
<filter id="filter10_ii_1946_7287" x="88.0625" y="24" width="19.5" height="24.75" filterUnits="userSpaceOnUse" color-interpolation-filters="sRGB">
<feFlood flood-opacity="0" result="BackgroundImageFix"/>
<feBlend mode="normal" in="SourceGraphic" in2="BackgroundImageFix" result="shape"/>
<feColorMatrix in="SourceAlpha" type="matrix" values="0 0 0 0 0 0 0 0 0 0 0 0 0 0 0 0 0 0 127 0" result="hardAlpha"/>
<feOffset dx="0.5625" dy="0.75"/>
<feGaussianBlur stdDeviation="1.875"/>
<feComposite in2="hardAlpha" operator="arithmetic" k2="-1" k3="1"/>
<feColorMatrix type="matrix" values="0 0 0 0 1 0 0 0 0 1 0 0 0 0 1 0 0 0 1 0"/>
<feBlend mode="normal" in2="shape" result="effect1_innerShadow_1946_7287"/>
<feColorMatrix in="SourceAlpha" type="matrix" values="0 0 0 0 0 0 0 0 0 0 0 0 0 0 0 0 0 0 127 0" result="hardAlpha"/>
<feOffset dx="-0.9375"/>
<feGaussianBlur stdDeviation="2.22187"/>
<feComposite in2="hardAlpha" operator="arithmetic" k2="-1" k3="1"/>
<feColorMatrix type="matrix" values="0 0 0 0 1 0 0 0 0 1 0 0 0 0 1 0 0 0 0.83 0"/>
<feBlend mode="normal" in2="effect1_innerShadow_1946_7287" result="effect2_innerShadow_1946_7287"/>
</filter>
<filter id="filter11_f_1946_7287" x="90.4072" y="22.8115" width="13.3125" height="10.0029" filterUnits="userSpaceOnUse" color-interpolation-filters="sRGB">
<feFlood flood-opacity="0" result="BackgroundImageFix"/>
<feBlend mode="normal" in="SourceGraphic" in2="BackgroundImageFix" result="shape"/>
<feGaussianBlur stdDeviation="0.9375" result="effect1_foregroundBlur_1946_7287"/>
</filter>
<filter id="filter12_f_1946_7287" x="88.627" y="38.9033" width="7.47949" height="8.83496" filterUnits="userSpaceOnUse" color-interpolation-filters="sRGB">
<feFlood flood-opacity="0" result="BackgroundImageFix"/>
<feBlend mode="normal" in="SourceGraphic" in2="BackgroundImageFix" result="shape"/>
<feGaussianBlur stdDeviation="0.9375" result="effect1_foregroundBlur_1946_7287"/>
</filter>
<filter id="filter13_f_1946_7287" x="99.1081" y="26.5544" width="5.30828" height="5.89422" filterUnits="userSpaceOnUse" color-interpolation-filters="sRGB">
<feFlood flood-opacity="0" result="BackgroundImageFix"/>
<feBlend mode="normal" in="SourceGraphic" in2="BackgroundImageFix" result="shape"/>
<feGaussianBlur stdDeviation="0.64128" result="effect1_foregroundBlur_1946_7287"/>
</filter>
<filter id="filter14_f_1946_7287" x="92.3816" y="31.4344" width="15.3539" height="12.8324" filterUnits="userSpaceOnUse" color-interpolation-filters="sRGB">
<feFlood flood-opacity="0" result="BackgroundImageFix"/>
<feBlend mode="normal" in="SourceGraphic" in2="BackgroundImageFix" result="shape"/>
<feGaussianBlur stdDeviation="2.25937" result="effect1_foregroundBlur_1946_7287"/>
</filter>
<filter id="filter15_f_1946_7287" x="87.5428" y="30.4031" width="14.9379" height="13.4525" filterUnits="userSpaceOnUse" color-interpolation-filters="sRGB">
<feFlood flood-opacity="0" result="BackgroundImageFix"/>
<feBlend mode="normal" in="SourceGraphic" in2="BackgroundImageFix" result="shape"/>
<feGaussianBlur stdDeviation="2.25937" result="effect1_foregroundBlur_1946_7287"/>
</filter>
<linearGradient id="paint0_linear_1946_7287" x1="138.942" y1="80.9279" x2="126.421" y2="38.3809" gradientUnits="userSpaceOnUse">
<stop stop-color="#92DBF5"/>
<stop offset="1" stop-color="white"/>
</linearGradient>
<linearGradient id="paint1_linear_1946_7287" x1="139.421" y1="71.0914" x2="121.534" y2="35.3175" gradientUnits="userSpaceOnUse">
<stop stop-color="#009B9E"/>
<stop offset="0.581731" stop-color="#77EFD9"/>
<stop offset="1" stop-color="#F5FF96"/>
</linearGradient>
<linearGradient id="paint2_linear_1946_7287" x1="113.516" y1="44.1582" x2="137.159" y2="81.988" gradientUnits="userSpaceOnUse">
<stop stop-color="#CBFFF5"/>
<stop offset="1" stop-color="white" stop-opacity="0"/>
</linearGradient>
<linearGradient id="paint3_linear_1946_7287" x1="103.781" y1="46.7686" x2="98.0717" y2="27.3676" gradientUnits="userSpaceOnUse">
<stop stop-color="#92DBF5"/>
<stop offset="1" stop-color="white"/>
</linearGradient>
<linearGradient id="paint4_linear_1946_7287" x1="104" y1="42.2813" x2="95.8438" y2="25.9688" gradientUnits="userSpaceOnUse">
<stop stop-color="#00CCD0"/>
<stop offset="0.581731" stop-color="#77EFD9"/>
<stop offset="1" stop-color="#F5FF96"/>
</linearGradient>
<linearGradient id="paint5_linear_1946_7287" x1="92.1875" y1="30" x2="102.969" y2="47.25" gradientUnits="userSpaceOnUse">
<stop stop-color="#CBFFF5"/>
<stop offset="1" stop-color="white" stop-opacity="0"/>
</linearGradient>
<clipPath id="clip0_1946_7287">
<rect width="161.5" height="80" fill="white" transform="translate(0.5)"/>
</clipPath>
</defs>
</svg>
