<svg width="160" height="200" viewBox="0 0 160 200" fill="none" xmlns="http://www.w3.org/2000/svg">
<g clip-path="url(#clip0_1946_7463)">
<rect width="160" height="200" fill="#2A2F39"/>
<g filter="url(#filter0_d_1946_7463)">
<g filter="url(#filter1_d_1946_7463)">
<path d="M129.125 165.398C144.903 165.398 157.742 152.557 157.742 136.769C157.742 114.337 131.815 91.1743 130.712 90.2016C130.257 89.8005 129.691 89.6016 129.125 89.6016C128.559 89.6016 127.993 89.8005 127.538 90.1985C126.435 91.1743 100.508 114.337 100.508 136.769C100.508 152.557 113.347 165.398 129.125 165.398Z" fill="url(#paint0_linear_1946_7463)"/>
</g>
<g filter="url(#filter2_ii_1946_7463)">
<path d="M129.125 177C149.593 177 166.25 160.228 166.25 139.607C166.25 110.307 132.615 80.0542 131.183 78.7837C130.594 78.2599 129.859 78 129.125 78C128.391 78 127.657 78.2599 127.067 78.7796C125.635 80.0542 92 110.307 92 139.607C92 160.228 108.657 177 129.125 177Z" fill="url(#paint1_linear_1946_7463)"/>
<path d="M129.125 177C149.593 177 166.25 160.228 166.25 139.607C166.25 110.307 132.615 80.0542 131.183 78.7837C130.594 78.2599 129.859 78 129.125 78C128.391 78 127.657 78.2599 127.067 78.7796C125.635 80.0542 92 110.307 92 139.607C92 160.228 108.657 177 129.125 177Z" fill="url(#paint2_linear_1946_7463)"/>
</g>
<g filter="url(#filter3_f_1946_7463)">
<path d="M127.191 81.0937C123.788 83.2594 111.336 99.0117 105.535 106.617C121.004 98.8828 128.738 84.1875 133.379 88.8281C137.091 92.5406 142.66 95.2734 144.98 96.1758C140.469 90.2461 130.595 78.9281 127.191 81.0937Z" fill="white"/>
</g>
<g filter="url(#filter4_f_1946_7463)">
<ellipse cx="105.892" cy="157.689" rx="3.65074" ry="12.4807" transform="rotate(145.451 105.892 157.689)" fill="white"/>
</g>
<g filter="url(#filter5_f_1946_7463)">
<ellipse cx="148.768" cy="117.191" rx="2.49722" ry="8.53722" transform="rotate(141.557 148.768 117.191)" fill="white"/>
</g>
<g filter="url(#filter6_f_1946_7463)">
<ellipse cx="141.744" cy="151.64" rx="13.9219" ry="6.09092" transform="rotate(-23.1104 141.744 151.64)" fill="#00B6CE" fill-opacity="0.5"/>
</g>
<g filter="url(#filter7_f_1946_7463)">
<ellipse cx="120.927" cy="148.658" rx="13.9219" ry="6.09092" transform="rotate(32.7222 120.927 148.658)" fill="#00B6CE" fill-opacity="0.5"/>
</g>
</g>
<g opacity="0.78" filter="url(#filter8_dd_1946_7463)">
<g filter="url(#filter9_d_1946_7463)">
<path d="M80.125 93.9609C86.9779 93.9609 92.5547 88.3834 92.5547 81.5261C92.5547 71.7826 81.2934 61.7222 80.8142 61.2997C80.6167 61.1255 80.3708 61.0391 80.125 61.0391C79.8792 61.0391 79.6333 61.1255 79.4358 61.2983C78.9566 61.7222 67.6953 71.7826 67.6953 81.5261C67.6953 88.3834 73.2721 93.9609 80.125 93.9609Z" fill="url(#paint3_linear_1946_7463)"/>
</g>
<g filter="url(#filter10_ii_1946_7463)">
<path d="M80.125 99C89.0152 99 96.25 91.7151 96.25 82.7585C96.25 70.0323 81.6407 56.8922 81.019 56.3404C80.7628 56.1129 80.4439 56 80.125 56C79.8061 56 79.4872 56.1129 79.231 56.3386C78.6092 56.8922 64 70.0323 64 82.7585C64 91.7151 71.2347 99 80.125 99Z" fill="url(#paint4_linear_1946_7463)"/>
<path d="M80.125 99C89.0152 99 96.25 91.7151 96.25 82.7585C96.25 70.0323 81.6407 56.8922 81.019 56.3404C80.7628 56.1129 80.4439 56 80.125 56C79.8061 56 79.4872 56.1129 79.231 56.3386C78.6092 56.8922 64 70.0323 64 82.7585C64 91.7151 71.2347 99 80.125 99Z" fill="url(#paint5_linear_1946_7463)"/>
</g>
<g filter="url(#filter11_f_1946_7463)">
<path d="M79.2852 57.3437C77.807 58.2844 72.3984 65.1263 69.8789 68.4297C76.5977 65.0703 79.957 58.6875 81.9727 60.7031C83.5852 62.3156 86.0039 63.5026 87.0117 63.8945C85.0521 61.319 80.7633 56.4031 79.2852 57.3437Z" fill="white"/>
</g>
<g filter="url(#filter12_f_1946_7463)">
<ellipse cx="70.0338" cy="90.6121" rx="1.58568" ry="5.42093" transform="rotate(145.451 70.0338 90.6121)" fill="white"/>
</g>
<g filter="url(#filter13_f_1946_7463)">
<ellipse cx="88.6566" cy="73.023" rx="1.08465" ry="3.70809" transform="rotate(141.557 88.6566 73.023)" fill="white"/>
</g>
<g filter="url(#filter14_f_1946_7463)">
<ellipse cx="85.6059" cy="87.9846" rx="6.04688" ry="2.64555" transform="rotate(-23.1104 85.6059 87.9846)" fill="#00B6CE" fill-opacity="0.5"/>
</g>
<g filter="url(#filter15_f_1946_7463)">
<ellipse cx="76.5639" cy="86.6898" rx="6.04688" ry="2.64555" transform="rotate(32.7222 76.5639 86.6898)" fill="#00B6CE" fill-opacity="0.5"/>
</g>
</g>
</g>
<defs>
<filter id="filter0_d_1946_7463" x="87.6957" y="78" width="82.8587" height="107.609" filterUnits="userSpaceOnUse" color-interpolation-filters="sRGB">
<feFlood flood-opacity="0" result="BackgroundImageFix"/>
<feColorMatrix in="SourceAlpha" type="matrix" values="0 0 0 0 0 0 0 0 0 0 0 0 0 0 0 0 0 0 127 0" result="hardAlpha"/>
<feOffset dy="4.30435"/>
<feGaussianBlur stdDeviation="2.15217"/>
<feComposite in2="hardAlpha" operator="out"/>
<feColorMatrix type="matrix" values="0 0 0 0 0 0 0 0 0 0 0 0 0 0 0 0 0 0 0.25 0"/>
<feBlend mode="normal" in2="BackgroundImageFix" result="effect1_dropShadow_1946_7463"/>
<feBlend mode="normal" in="SourceGraphic" in2="effect1_dropShadow_1946_7463" result="shape"/>
</filter>
<filter id="filter1_d_1946_7463" x="81.9453" y="89.6016" width="94.3594" height="122.203" filterUnits="userSpaceOnUse" color-interpolation-filters="sRGB">
<feFlood flood-opacity="0" result="BackgroundImageFix"/>
<feColorMatrix in="SourceAlpha" type="matrix" values="0 0 0 0 0 0 0 0 0 0 0 0 0 0 0 0 0 0 127 0" result="hardAlpha"/>
<feOffset dy="27.8438"/>
<feGaussianBlur stdDeviation="9.28125"/>
<feComposite in2="hardAlpha" operator="out"/>
<feColorMatrix type="matrix" values="0 0 0 0 0.75 0 0 0 0 1 0 0 0 0 0.996296 0 0 0 0.2 0"/>
<feBlend mode="normal" in2="BackgroundImageFix" result="effect1_dropShadow_1946_7463"/>
<feBlend mode="normal" in="SourceGraphic" in2="effect1_dropShadow_1946_7463" result="shape"/>
</filter>
<filter id="filter2_ii_1946_7463" x="88.1328" y="78" width="80.4375" height="102.094" filterUnits="userSpaceOnUse" color-interpolation-filters="sRGB">
<feFlood flood-opacity="0" result="BackgroundImageFix"/>
<feBlend mode="normal" in="SourceGraphic" in2="BackgroundImageFix" result="shape"/>
<feColorMatrix in="SourceAlpha" type="matrix" values="0 0 0 0 0 0 0 0 0 0 0 0 0 0 0 0 0 0 127 0" result="hardAlpha"/>
<feOffset dx="2.32031" dy="3.09375"/>
<feGaussianBlur stdDeviation="7.73438"/>
<feComposite in2="hardAlpha" operator="arithmetic" k2="-1" k3="1"/>
<feColorMatrix type="matrix" values="0 0 0 0 1 0 0 0 0 1 0 0 0 0 1 0 0 0 1 0"/>
<feBlend mode="normal" in2="shape" result="effect1_innerShadow_1946_7463"/>
<feColorMatrix in="SourceAlpha" type="matrix" values="0 0 0 0 0 0 0 0 0 0 0 0 0 0 0 0 0 0 127 0" result="hardAlpha"/>
<feOffset dx="-3.86719"/>
<feGaussianBlur stdDeviation="9.16524"/>
<feComposite in2="hardAlpha" operator="arithmetic" k2="-1" k3="1"/>
<feColorMatrix type="matrix" values="0 0 0 0 1 0 0 0 0 1 0 0 0 0 1 0 0 0 0.83 0"/>
<feBlend mode="normal" in2="effect1_innerShadow_1946_7463" result="effect2_innerShadow_1946_7463"/>
</filter>
<filter id="filter3_f_1946_7463" x="97.8008" y="73.0879" width="54.9141" height="41.2637" filterUnits="userSpaceOnUse" color-interpolation-filters="sRGB">
<feFlood flood-opacity="0" result="BackgroundImageFix"/>
<feBlend mode="normal" in="SourceGraphic" in2="BackgroundImageFix" result="shape"/>
<feGaussianBlur stdDeviation="3.86719" result="effect1_foregroundBlur_1946_7463"/>
</filter>
<filter id="filter4_f_1946_7463" x="90.4653" y="139.467" width="30.853" height="36.4453" filterUnits="userSpaceOnUse" color-interpolation-filters="sRGB">
<feFlood flood-opacity="0" result="BackgroundImageFix"/>
<feBlend mode="normal" in="SourceGraphic" in2="BackgroundImageFix" result="shape"/>
<feGaussianBlur stdDeviation="3.86719" result="effect1_foregroundBlur_1946_7463"/>
</filter>
<filter id="filter5_f_1946_7463" x="137.819" y="105.035" width="21.8975" height="24.3135" filterUnits="userSpaceOnUse" color-interpolation-filters="sRGB">
<feFlood flood-opacity="0" result="BackgroundImageFix"/>
<feBlend mode="normal" in="SourceGraphic" in2="BackgroundImageFix" result="shape"/>
<feGaussianBlur stdDeviation="2.64528" result="effect1_foregroundBlur_1946_7463"/>
</filter>
<filter id="filter6_f_1946_7463" x="110.075" y="125.174" width="63.3363" height="52.932" filterUnits="userSpaceOnUse" color-interpolation-filters="sRGB">
<feFlood flood-opacity="0" result="BackgroundImageFix"/>
<feBlend mode="normal" in="SourceGraphic" in2="BackgroundImageFix" result="shape"/>
<feGaussianBlur stdDeviation="9.31992" result="effect1_foregroundBlur_1946_7463"/>
</filter>
<filter id="filter7_f_1946_7463" x="90.1175" y="120.913" width="61.6186" height="55.4906" filterUnits="userSpaceOnUse" color-interpolation-filters="sRGB">
<feFlood flood-opacity="0" result="BackgroundImageFix"/>
<feBlend mode="normal" in="SourceGraphic" in2="BackgroundImageFix" result="shape"/>
<feGaussianBlur stdDeviation="9.31992" result="effect1_foregroundBlur_1946_7463"/>
</filter>
<filter id="filter8_dd_1946_7463" x="60" y="56" width="40.25" height="51" filterUnits="userSpaceOnUse" color-interpolation-filters="sRGB">
<feFlood flood-opacity="0" result="BackgroundImageFix"/>
<feColorMatrix in="SourceAlpha" type="matrix" values="0 0 0 0 0 0 0 0 0 0 0 0 0 0 0 0 0 0 127 0" result="hardAlpha"/>
<feOffset dy="1.86957"/>
<feGaussianBlur stdDeviation="0.934783"/>
<feComposite in2="hardAlpha" operator="out"/>
<feColorMatrix type="matrix" values="0 0 0 0 0 0 0 0 0 0 0 0 0 0 0 0 0 0 0.25 0"/>
<feBlend mode="normal" in2="BackgroundImageFix" result="effect1_dropShadow_1946_7463"/>
<feColorMatrix in="SourceAlpha" type="matrix" values="0 0 0 0 0 0 0 0 0 0 0 0 0 0 0 0 0 0 127 0" result="hardAlpha"/>
<feOffset dy="4"/>
<feGaussianBlur stdDeviation="2"/>
<feComposite in2="hardAlpha" operator="out"/>
<feColorMatrix type="matrix" values="0 0 0 0 0 0 0 0 0 0 0 0 0 0 0 0 0 0 0.25 0"/>
<feBlend mode="normal" in2="effect1_dropShadow_1946_7463" result="effect2_dropShadow_1946_7463"/>
<feBlend mode="normal" in="SourceGraphic" in2="effect2_dropShadow_1946_7463" result="shape"/>
</filter>
<filter id="filter9_d_1946_7463" x="59.6328" y="61.0391" width="40.9844" height="53.0781" filterUnits="userSpaceOnUse" color-interpolation-filters="sRGB">
<feFlood flood-opacity="0" result="BackgroundImageFix"/>
<feColorMatrix in="SourceAlpha" type="matrix" values="0 0 0 0 0 0 0 0 0 0 0 0 0 0 0 0 0 0 127 0" result="hardAlpha"/>
<feOffset dy="12.0938"/>
<feGaussianBlur stdDeviation="4.03125"/>
<feComposite in2="hardAlpha" operator="out"/>
<feColorMatrix type="matrix" values="0 0 0 0 0.75 0 0 0 0 1 0 0 0 0 0.996296 0 0 0 0.27 0"/>
<feBlend mode="normal" in2="BackgroundImageFix" result="effect1_dropShadow_1946_7463"/>
<feBlend mode="normal" in="SourceGraphic" in2="effect1_dropShadow_1946_7463" result="shape"/>
</filter>
<filter id="filter10_ii_1946_7463" x="62.3203" y="56" width="34.9375" height="44.3438" filterUnits="userSpaceOnUse" color-interpolation-filters="sRGB">
<feFlood flood-opacity="0" result="BackgroundImageFix"/>
<feBlend mode="normal" in="SourceGraphic" in2="BackgroundImageFix" result="shape"/>
<feColorMatrix in="SourceAlpha" type="matrix" values="0 0 0 0 0 0 0 0 0 0 0 0 0 0 0 0 0 0 127 0" result="hardAlpha"/>
<feOffset dx="1.00781" dy="1.34375"/>
<feGaussianBlur stdDeviation="3.35938"/>
<feComposite in2="hardAlpha" operator="arithmetic" k2="-1" k3="1"/>
<feColorMatrix type="matrix" values="0 0 0 0 1 0 0 0 0 1 0 0 0 0 1 0 0 0 1 0"/>
<feBlend mode="normal" in2="shape" result="effect1_innerShadow_1946_7463"/>
<feColorMatrix in="SourceAlpha" type="matrix" values="0 0 0 0 0 0 0 0 0 0 0 0 0 0 0 0 0 0 127 0" result="hardAlpha"/>
<feOffset dx="-1.67969"/>
<feGaussianBlur stdDeviation="3.98086"/>
<feComposite in2="hardAlpha" operator="arithmetic" k2="-1" k3="1"/>
<feColorMatrix type="matrix" values="0 0 0 0 1 0 0 0 0 1 0 0 0 0 1 0 0 0 0.83 0"/>
<feBlend mode="normal" in2="effect1_innerShadow_1946_7463" result="effect2_innerShadow_1946_7463"/>
</filter>
<filter id="filter11_f_1946_7463" x="66.5195" y="53.8662" width="23.8516" height="17.9229" filterUnits="userSpaceOnUse" color-interpolation-filters="sRGB">
<feFlood flood-opacity="0" result="BackgroundImageFix"/>
<feBlend mode="normal" in="SourceGraphic" in2="BackgroundImageFix" result="shape"/>
<feGaussianBlur stdDeviation="1.67969" result="effect1_foregroundBlur_1946_7463"/>
</filter>
<filter id="filter12_f_1946_7463" x="63.3335" y="82.6973" width="13.4009" height="15.8301" filterUnits="userSpaceOnUse" color-interpolation-filters="sRGB">
<feFlood flood-opacity="0" result="BackgroundImageFix"/>
<feBlend mode="normal" in="SourceGraphic" in2="BackgroundImageFix" result="shape"/>
<feGaussianBlur stdDeviation="1.67969" result="effect1_foregroundBlur_1946_7463"/>
</filter>
<filter id="filter13_f_1946_7463" x="83.9008" y="67.7431" width="9.51137" height="10.5597" filterUnits="userSpaceOnUse" color-interpolation-filters="sRGB">
<feFlood flood-opacity="0" result="BackgroundImageFix"/>
<feBlend mode="normal" in="SourceGraphic" in2="BackgroundImageFix" result="shape"/>
<feGaussianBlur stdDeviation="1.14896" result="effect1_foregroundBlur_1946_7463"/>
</filter>
<filter id="filter14_f_1946_7463" x="71.8512" y="76.4898" width="27.5096" height="22.99" filterUnits="userSpaceOnUse" color-interpolation-filters="sRGB">
<feFlood flood-opacity="0" result="BackgroundImageFix"/>
<feBlend mode="normal" in="SourceGraphic" in2="BackgroundImageFix" result="shape"/>
<feGaussianBlur stdDeviation="4.04805" result="effect1_foregroundBlur_1946_7463"/>
</filter>
<filter id="filter15_f_1946_7463" x="63.1822" y="74.6383" width="26.7635" height="24.1023" filterUnits="userSpaceOnUse" color-interpolation-filters="sRGB">
<feFlood flood-opacity="0" result="BackgroundImageFix"/>
<feBlend mode="normal" in="SourceGraphic" in2="BackgroundImageFix" result="shape"/>
<feGaussianBlur stdDeviation="4.04805" result="effect1_foregroundBlur_1946_7463"/>
</filter>
<linearGradient id="paint0_linear_1946_7463" x1="152.973" y1="171.912" x2="129.421" y2="91.8832" gradientUnits="userSpaceOnUse">
<stop stop-color="#92DBF5"/>
<stop offset="1" stop-color="white"/>
</linearGradient>
<linearGradient id="paint1_linear_1946_7463" x1="153.875" y1="153.41" x2="120.23" y2="86.1211" gradientUnits="userSpaceOnUse">
<stop stop-color="#009B9E"/>
<stop offset="0.581731" stop-color="#77EFD9"/>
<stop offset="1" stop-color="#F5FF96"/>
</linearGradient>
<linearGradient id="paint2_linear_1946_7463" x1="105.148" y1="102.75" x2="149.621" y2="173.906" gradientUnits="userSpaceOnUse">
<stop stop-color="#CBFFF5"/>
<stop offset="1" stop-color="white" stop-opacity="0"/>
</linearGradient>
<linearGradient id="paint3_linear_1946_7463" x1="90.4831" y1="96.7902" x2="80.2534" y2="62.0301" gradientUnits="userSpaceOnUse">
<stop stop-color="#92DBF5"/>
<stop offset="1" stop-color="white"/>
</linearGradient>
<linearGradient id="paint4_linear_1946_7463" x1="90.875" y1="88.7539" x2="76.2617" y2="59.5273" gradientUnits="userSpaceOnUse">
<stop stop-color="#00CCD0"/>
<stop offset="0.581731" stop-color="#77EFD9"/>
<stop offset="1" stop-color="#F5FF96"/>
</linearGradient>
<linearGradient id="paint5_linear_1946_7463" x1="69.7109" y1="66.75" x2="89.0273" y2="97.6563" gradientUnits="userSpaceOnUse">
<stop stop-color="#CBFFF5"/>
<stop offset="1" stop-color="white" stop-opacity="0"/>
</linearGradient>
<clipPath id="clip0_1946_7463">
<rect width="160" height="200" fill="white"/>
</clipPath>
</defs>
</svg>
