<svg width="162" height="80" viewBox="0 0 162 80" fill="none" xmlns="http://www.w3.org/2000/svg">
<g clip-path="url(#clip0_1975_39643)">
<rect width="161.5" height="80" transform="translate(0.5)" fill="#1F2027"/>
<g filter="url(#filter0_d_1975_39643)">
<g filter="url(#filter1_d_1975_39643)">
<path d="M126.264 77.4648C134.652 77.4648 141.479 70.6379 141.479 62.2443C141.479 50.3181 127.694 38.004 127.108 37.4869C126.866 37.2736 126.565 37.1678 126.264 37.1678C125.963 37.1678 125.663 37.2736 125.421 37.4852C124.834 38.004 111.05 50.3181 111.05 62.2443C111.05 70.6379 117.876 77.4648 126.264 77.4648Z" fill="url(#paint0_linear_1975_39643)"/>
</g>
<g filter="url(#filter2_ii_1975_39643)">
<path d="M126.264 83.6328C137.146 83.6328 146.001 74.7159 146.001 63.753C146.001 48.1758 128.119 32.0921 127.358 31.4167C127.044 31.1382 126.654 31 126.264 31C125.873 31 125.483 31.1382 125.169 31.4145C124.408 32.0921 106.526 48.1758 106.526 63.753C106.526 74.7159 115.382 83.6328 126.264 83.6328Z" fill="url(#paint1_linear_1975_39643)"/>
<path d="M126.264 83.6328C137.146 83.6328 146.001 74.7159 146.001 63.753C146.001 48.1758 128.119 32.0921 127.358 31.4167C127.044 31.1382 126.654 31 126.264 31C125.873 31 125.483 31.1382 125.169 31.4145C124.408 32.0921 106.526 48.1758 106.526 63.753C106.526 74.7159 115.382 83.6328 126.264 83.6328Z" fill="url(#paint2_linear_1975_39643)"/>
</g>
<g filter="url(#filter3_f_1975_39643)">
<path d="M125.236 32.6474C123.427 33.7987 116.806 42.1734 113.722 46.2168C121.946 42.1049 126.058 34.2922 128.525 36.7593C130.499 38.7331 133.46 40.186 134.693 40.6657C132.295 37.5132 127.045 31.4961 125.236 32.6474Z" fill="white"/>
</g>
<g filter="url(#filter4_f_1975_39643)">
<ellipse cx="113.912" cy="73.369" rx="1.9409" ry="6.63532" transform="rotate(145.451 113.912 73.369)" fill="white"/>
</g>
<g filter="url(#filter5_f_1975_39643)">
<ellipse cx="136.706" cy="51.835" rx="1.32763" ry="4.53877" transform="rotate(141.557 136.706 51.835)" fill="white"/>
</g>
<g filter="url(#filter6_f_1975_39643)">
<ellipse cx="132.972" cy="70.1494" rx="7.40149" ry="3.2382" transform="rotate(-23.1104 132.972 70.1494)" fill="#00B6CE" fill-opacity="0.5"/>
</g>
<g filter="url(#filter7_f_1975_39643)">
<ellipse cx="121.903" cy="68.5661" rx="7.40149" ry="3.2382" transform="rotate(32.7222 121.903 68.5661)" fill="#00B6CE" fill-opacity="0.5"/>
</g>
</g>
<g opacity="0.33" filter="url(#filter8_dd_1975_39643)">
<g filter="url(#filter9_d_1975_39643)">
<path d="M98.0005 45.1895C101.825 45.1895 104.938 42.0764 104.938 38.2491C104.938 32.8108 98.6526 27.1957 98.3851 26.9599C98.2749 26.8627 98.1377 26.8145 98.0005 26.8145C97.8633 26.8145 97.7261 26.8627 97.6158 26.9592C97.3484 27.1957 91.063 32.8108 91.063 38.2491C91.063 42.0764 94.1756 45.1895 98.0005 45.1895Z" fill="url(#paint3_linear_1975_39643)"/>
</g>
<g filter="url(#filter10_ii_1975_39643)">
<path d="M98 48C102.962 48 107 43.934 107 38.935C107 31.832 98.846 24.498 98.499 24.19C98.356 24.063 98.178 24 98 24C97.822 24 97.644 24.063 97.501 24.189C97.154 24.498 89 31.832 89 38.935C89 43.934 93.038 48 98 48Z" fill="url(#paint4_linear_1975_39643)"/>
<path d="M98 48C102.962 48 107 43.934 107 38.935C107 31.832 98.846 24.498 98.499 24.19C98.356 24.063 98.178 24 98 24C97.822 24 97.644 24.063 97.501 24.189C97.154 24.498 89 31.832 89 38.935C89 43.934 93.038 48 98 48Z" fill="url(#paint5_linear_1975_39643)"/>
</g>
<g filter="url(#filter11_f_1975_39643)">
<path d="M97.5327 24.752C96.7077 25.277 93.689 29.0957 92.2827 30.9395C96.0327 29.0645 97.9077 25.502 99.0327 26.627C99.9327 27.527 101.283 28.1895 101.845 28.4082C100.751 26.9707 98.3577 24.227 97.5327 24.752Z" fill="white"/>
</g>
<g filter="url(#filter12_f_1975_39643)">
<ellipse cx="92.3677" cy="43.3204" rx="0.885028" ry="3.02563" transform="rotate(145.451 92.3677 43.3204)" fill="white"/>
</g>
<g filter="url(#filter13_f_1975_39643)">
<ellipse cx="101.763" cy="29.5015" rx="0.605387" ry="2.06963" transform="rotate(141.557 101.763 29.5015)" fill="white"/>
</g>
<g filter="url(#filter14_f_1975_39643)">
<ellipse cx="100.06" cy="37.8508" rx="3.375" ry="1.47659" transform="rotate(-23.1104 100.06 37.8508)" fill="#00B6CE" fill-opacity="0.5"/>
</g>
<g filter="url(#filter15_f_1975_39643)">
<ellipse cx="95.0119" cy="37.1292" rx="3.375" ry="1.47659" transform="rotate(32.7222 95.0119 37.1292)" fill="#00B6CE" fill-opacity="0.5"/>
</g>
</g>
</g>
<defs>
<filter id="filter0_d_1975_39643" x="104.238" y="31" width="44.0514" height="57.2096" filterUnits="userSpaceOnUse" color-interpolation-filters="sRGB">
<feFlood flood-opacity="0" result="BackgroundImageFix"/>
<feColorMatrix in="SourceAlpha" type="matrix" values="0 0 0 0 0 0 0 0 0 0 0 0 0 0 0 0 0 0 127 0" result="hardAlpha"/>
<feOffset dy="2.28838"/>
<feGaussianBlur stdDeviation="1.14419"/>
<feComposite in2="hardAlpha" operator="out"/>
<feColorMatrix type="matrix" values="0 0 0 0 0 0 0 0 0 0 0 0 0 0 0 0 0 0 0.25 0"/>
<feBlend mode="normal" in2="BackgroundImageFix" result="effect1_dropShadow_1975_39643"/>
<feBlend mode="normal" in="SourceGraphic" in2="effect1_dropShadow_1975_39643" result="shape"/>
</filter>
<filter id="filter1_d_1975_39643" x="101.182" y="37.168" width="50.1655" height="64.9685" filterUnits="userSpaceOnUse" color-interpolation-filters="sRGB">
<feFlood flood-opacity="0" result="BackgroundImageFix"/>
<feColorMatrix in="SourceAlpha" type="matrix" values="0 0 0 0 0 0 0 0 0 0 0 0 0 0 0 0 0 0 127 0" result="hardAlpha"/>
<feOffset dy="14.803"/>
<feGaussianBlur stdDeviation="4.93433"/>
<feComposite in2="hardAlpha" operator="out"/>
<feColorMatrix type="matrix" values="0 0 0 0 0.75 0 0 0 0 1 0 0 0 0 0.996296 0 0 0 0.2 0"/>
<feBlend mode="normal" in2="BackgroundImageFix" result="effect1_dropShadow_1975_39643"/>
<feBlend mode="normal" in="SourceGraphic" in2="effect1_dropShadow_1975_39643" result="shape"/>
</filter>
<filter id="filter2_ii_1975_39643" x="104.47" y="31" width="42.7642" height="54.2776" filterUnits="userSpaceOnUse" color-interpolation-filters="sRGB">
<feFlood flood-opacity="0" result="BackgroundImageFix"/>
<feBlend mode="normal" in="SourceGraphic" in2="BackgroundImageFix" result="shape"/>
<feColorMatrix in="SourceAlpha" type="matrix" values="0 0 0 0 0 0 0 0 0 0 0 0 0 0 0 0 0 0 127 0" result="hardAlpha"/>
<feOffset dx="1.23358" dy="1.64478"/>
<feGaussianBlur stdDeviation="4.11194"/>
<feComposite in2="hardAlpha" operator="arithmetic" k2="-1" k3="1"/>
<feColorMatrix type="matrix" values="0 0 0 0 1 0 0 0 0 1 0 0 0 0 1 0 0 0 1 0"/>
<feBlend mode="normal" in2="shape" result="effect1_innerShadow_1975_39643"/>
<feColorMatrix in="SourceAlpha" type="matrix" values="0 0 0 0 0 0 0 0 0 0 0 0 0 0 0 0 0 0 127 0" result="hardAlpha"/>
<feOffset dx="-2.05597"/>
<feGaussianBlur stdDeviation="4.87265"/>
<feComposite in2="hardAlpha" operator="arithmetic" k2="-1" k3="1"/>
<feColorMatrix type="matrix" values="0 0 0 0 1 0 0 0 0 1 0 0 0 0 1 0 0 0 0.83 0"/>
<feBlend mode="normal" in2="effect1_innerShadow_1975_39643" result="effect2_innerShadow_1975_39643"/>
</filter>
<filter id="filter3_f_1975_39643" x="109.611" y="28.391" width="29.1946" height="21.9377" filterUnits="userSpaceOnUse" color-interpolation-filters="sRGB">
<feFlood flood-opacity="0" result="BackgroundImageFix"/>
<feBlend mode="normal" in="SourceGraphic" in2="BackgroundImageFix" result="shape"/>
<feGaussianBlur stdDeviation="2.05597" result="effect1_foregroundBlur_1975_39643"/>
</filter>
<filter id="filter4_f_1975_39643" x="105.71" y="63.681" width="16.4031" height="19.3762" filterUnits="userSpaceOnUse" color-interpolation-filters="sRGB">
<feFlood flood-opacity="0" result="BackgroundImageFix"/>
<feBlend mode="normal" in="SourceGraphic" in2="BackgroundImageFix" result="shape"/>
<feGaussianBlur stdDeviation="2.05597" result="effect1_foregroundBlur_1975_39643"/>
</filter>
<filter id="filter5_f_1975_39643" x="130.885" y="45.3719" width="11.642" height="12.9262" filterUnits="userSpaceOnUse" color-interpolation-filters="sRGB">
<feFlood flood-opacity="0" result="BackgroundImageFix"/>
<feBlend mode="normal" in="SourceGraphic" in2="BackgroundImageFix" result="shape"/>
<feGaussianBlur stdDeviation="1.40635" result="effect1_foregroundBlur_1975_39643"/>
</filter>
<filter id="filter6_f_1975_39643" x="116.136" y="56.0795" width="33.6721" height="28.1399" filterUnits="userSpaceOnUse" color-interpolation-filters="sRGB">
<feFlood flood-opacity="0" result="BackgroundImageFix"/>
<feBlend mode="normal" in="SourceGraphic" in2="BackgroundImageFix" result="shape"/>
<feGaussianBlur stdDeviation="4.95489" result="effect1_foregroundBlur_1975_39643"/>
</filter>
<filter id="filter7_f_1975_39643" x="105.523" y="53.8158" width="32.7595" height="29.5012" filterUnits="userSpaceOnUse" color-interpolation-filters="sRGB">
<feFlood flood-opacity="0" result="BackgroundImageFix"/>
<feBlend mode="normal" in="SourceGraphic" in2="BackgroundImageFix" result="shape"/>
<feGaussianBlur stdDeviation="4.95489" result="effect1_foregroundBlur_1975_39643"/>
</filter>
<filter id="filter8_dd_1975_39643" x="86.7674" y="24" width="22.4651" height="28.4651" filterUnits="userSpaceOnUse" color-interpolation-filters="sRGB">
<feFlood flood-opacity="0" result="BackgroundImageFix"/>
<feColorMatrix in="SourceAlpha" type="matrix" values="0 0 0 0 0 0 0 0 0 0 0 0 0 0 0 0 0 0 127 0" result="hardAlpha"/>
<feOffset dy="1.04348"/>
<feGaussianBlur stdDeviation="0.521739"/>
<feComposite in2="hardAlpha" operator="out"/>
<feColorMatrix type="matrix" values="0 0 0 0 0 0 0 0 0 0 0 0 0 0 0 0 0 0 0.25 0"/>
<feBlend mode="normal" in2="BackgroundImageFix" result="effect1_dropShadow_1975_39643"/>
<feColorMatrix in="SourceAlpha" type="matrix" values="0 0 0 0 0 0 0 0 0 0 0 0 0 0 0 0 0 0 127 0" result="hardAlpha"/>
<feOffset dy="2.23256"/>
<feGaussianBlur stdDeviation="1.11628"/>
<feComposite in2="hardAlpha" operator="out"/>
<feColorMatrix type="matrix" values="0 0 0 0 0 0 0 0 0 0 0 0 0 0 0 0 0 0 0.25 0"/>
<feBlend mode="normal" in2="effect1_dropShadow_1975_39643" result="effect2_dropShadow_1975_39643"/>
<feBlend mode="normal" in="SourceGraphic" in2="effect2_dropShadow_1975_39643" result="shape"/>
</filter>
<filter id="filter9_d_1975_39643" x="86.5635" y="26.8145" width="22.8745" height="29.625" filterUnits="userSpaceOnUse" color-interpolation-filters="sRGB">
<feFlood flood-opacity="0" result="BackgroundImageFix"/>
<feColorMatrix in="SourceAlpha" type="matrix" values="0 0 0 0 0 0 0 0 0 0 0 0 0 0 0 0 0 0 127 0" result="hardAlpha"/>
<feOffset dy="6.75"/>
<feGaussianBlur stdDeviation="2.25"/>
<feComposite in2="hardAlpha" operator="out"/>
<feColorMatrix type="matrix" values="0 0 0 0 0.75 0 0 0 0 1 0 0 0 0 0.996296 0 0 0 0.27 0"/>
<feBlend mode="normal" in2="BackgroundImageFix" result="effect1_dropShadow_1975_39643"/>
<feBlend mode="normal" in="SourceGraphic" in2="effect1_dropShadow_1975_39643" result="shape"/>
</filter>
<filter id="filter10_ii_1975_39643" x="88.0625" y="24" width="19.5" height="24.75" filterUnits="userSpaceOnUse" color-interpolation-filters="sRGB">
<feFlood flood-opacity="0" result="BackgroundImageFix"/>
<feBlend mode="normal" in="SourceGraphic" in2="BackgroundImageFix" result="shape"/>
<feColorMatrix in="SourceAlpha" type="matrix" values="0 0 0 0 0 0 0 0 0 0 0 0 0 0 0 0 0 0 127 0" result="hardAlpha"/>
<feOffset dx="0.5625" dy="0.75"/>
<feGaussianBlur stdDeviation="1.875"/>
<feComposite in2="hardAlpha" operator="arithmetic" k2="-1" k3="1"/>
<feColorMatrix type="matrix" values="0 0 0 0 1 0 0 0 0 1 0 0 0 0 1 0 0 0 1 0"/>
<feBlend mode="normal" in2="shape" result="effect1_innerShadow_1975_39643"/>
<feColorMatrix in="SourceAlpha" type="matrix" values="0 0 0 0 0 0 0 0 0 0 0 0 0 0 0 0 0 0 127 0" result="hardAlpha"/>
<feOffset dx="-0.9375"/>
<feGaussianBlur stdDeviation="2.22187"/>
<feComposite in2="hardAlpha" operator="arithmetic" k2="-1" k3="1"/>
<feColorMatrix type="matrix" values="0 0 0 0 1 0 0 0 0 1 0 0 0 0 1 0 0 0 0.83 0"/>
<feBlend mode="normal" in2="effect1_innerShadow_1975_39643" result="effect2_innerShadow_1975_39643"/>
</filter>
<filter id="filter11_f_1975_39643" x="90.4082" y="22.8115" width="13.312" height="10.0029" filterUnits="userSpaceOnUse" color-interpolation-filters="sRGB">
<feFlood flood-opacity="0" result="BackgroundImageFix"/>
<feBlend mode="normal" in="SourceGraphic" in2="BackgroundImageFix" result="shape"/>
<feGaussianBlur stdDeviation="0.9375" result="effect1_foregroundBlur_1975_39643"/>
</filter>
<filter id="filter12_f_1975_39643" x="88.6279" y="38.9033" width="7.47949" height="8.83496" filterUnits="userSpaceOnUse" color-interpolation-filters="sRGB">
<feFlood flood-opacity="0" result="BackgroundImageFix"/>
<feBlend mode="normal" in="SourceGraphic" in2="BackgroundImageFix" result="shape"/>
<feGaussianBlur stdDeviation="0.9375" result="effect1_foregroundBlur_1975_39643"/>
</filter>
<filter id="filter13_f_1975_39643" x="99.1081" y="26.5544" width="5.30877" height="5.89422" filterUnits="userSpaceOnUse" color-interpolation-filters="sRGB">
<feFlood flood-opacity="0" result="BackgroundImageFix"/>
<feBlend mode="normal" in="SourceGraphic" in2="BackgroundImageFix" result="shape"/>
<feGaussianBlur stdDeviation="0.64128" result="effect1_foregroundBlur_1975_39643"/>
</filter>
<filter id="filter14_f_1975_39643" x="92.3826" y="31.4344" width="15.3544" height="12.8324" filterUnits="userSpaceOnUse" color-interpolation-filters="sRGB">
<feFlood flood-opacity="0" result="BackgroundImageFix"/>
<feBlend mode="normal" in="SourceGraphic" in2="BackgroundImageFix" result="shape"/>
<feGaussianBlur stdDeviation="2.25937" result="effect1_foregroundBlur_1975_39643"/>
</filter>
<filter id="filter15_f_1975_39643" x="87.5428" y="30.4031" width="14.9379" height="13.4525" filterUnits="userSpaceOnUse" color-interpolation-filters="sRGB">
<feFlood flood-opacity="0" result="BackgroundImageFix"/>
<feBlend mode="normal" in="SourceGraphic" in2="BackgroundImageFix" result="shape"/>
<feGaussianBlur stdDeviation="2.25937" result="effect1_foregroundBlur_1975_39643"/>
</filter>
<linearGradient id="paint0_linear_1975_39643" x1="138.943" y1="80.9279" x2="126.421" y2="38.3809" gradientUnits="userSpaceOnUse">
<stop stop-color="#92DBF5"/>
<stop offset="1" stop-color="white"/>
</linearGradient>
<linearGradient id="paint1_linear_1975_39643" x1="139.422" y1="71.0914" x2="121.535" y2="35.3175" gradientUnits="userSpaceOnUse">
<stop stop-color="#009B9E"/>
<stop offset="0.581731" stop-color="#77EFD9"/>
<stop offset="1" stop-color="#F5FF96"/>
</linearGradient>
<linearGradient id="paint2_linear_1975_39643" x1="113.517" y1="44.1582" x2="137.16" y2="81.988" gradientUnits="userSpaceOnUse">
<stop stop-color="#CBFFF5"/>
<stop offset="1" stop-color="white" stop-opacity="0"/>
</linearGradient>
<linearGradient id="paint3_linear_1975_39643" x1="103.782" y1="46.7686" x2="98.0721" y2="27.3676" gradientUnits="userSpaceOnUse">
<stop stop-color="#92DBF5"/>
<stop offset="1" stop-color="white"/>
</linearGradient>
<linearGradient id="paint4_linear_1975_39643" x1="104" y1="42.2813" x2="95.8438" y2="25.9688" gradientUnits="userSpaceOnUse">
<stop stop-color="#00CCD0"/>
<stop offset="0.581731" stop-color="#77EFD9"/>
<stop offset="1" stop-color="#F5FF96"/>
</linearGradient>
<linearGradient id="paint5_linear_1975_39643" x1="92.1875" y1="30" x2="102.969" y2="47.25" gradientUnits="userSpaceOnUse">
<stop stop-color="#CBFFF5"/>
<stop offset="1" stop-color="white" stop-opacity="0"/>
</linearGradient>
<clipPath id="clip0_1975_39643">
<rect width="161.5" height="80" fill="white" transform="translate(0.5)"/>
</clipPath>
</defs>
</svg>
