<svg width="16" height="16" viewBox="0 0 16 16" fill="none" xmlns="http://www.w3.org/2000/svg">
<path d="M8.09619 14L7.74263 14.3536C7.8364 14.4473 7.96358 14.5 8.09619 14.5C8.2288 14.5 8.35597 14.4473 8.44974 14.3536L8.09619 14ZM2 7.90381L1.64645 7.55026C1.45118 7.74552 1.45118 8.0621 1.64645 8.25737L2 7.90381ZM9.08984 9.45023L8.73629 9.09668C8.59812 9.23486 8.5531 9.44086 8.62104 9.62408L9.08984 9.45023ZM6.54977 6.91016L6.37592 7.37896C6.55914 7.4469 6.76514 7.40188 6.90332 7.26371L6.54977 6.91016ZM11.6523 6.88778L12.0058 6.53423C11.9121 6.44046 11.7849 6.38778 11.6523 6.38778C11.5197 6.38778 11.3925 6.44046 11.2987 6.53423L11.6523 6.88778ZM12.1603 7.3958L11.8068 7.74935V7.74935L12.1603 7.3958ZM13.6844 5.87175L14.0379 5.5182L13.6844 5.87175ZM10.1282 2.31564L9.7747 2.66919L10.1282 2.31564ZM8.6042 3.83969L8.95776 3.48613L8.6042 3.83969ZM9.11222 4.3477L9.46577 4.70126C9.66103 4.50599 9.66103 4.18941 9.46577 3.99415L9.11222 4.3477ZM2.1516 13.1387C1.95634 13.334 1.95634 13.6506 2.1516 13.8458C2.34686 14.0411 2.66345 14.0411 2.85871 13.8458L2.50515 13.4923L2.1516 13.1387ZM8.09619 14L8.44974 13.6464L2.35355 7.55026L2 7.90381L1.64645 8.25737L7.74263 14.3536L8.09619 14ZM9.08984 9.45023L8.62104 9.62408C9.12334 10.9786 8.82956 12.5595 7.74263 13.6464L8.09619 14L8.44974 14.3536C9.82313 12.9802 10.1918 10.9837 9.55865 9.27638L9.08984 9.45023ZM2 7.90381L2.35355 8.25737C3.44048 7.17044 5.02142 6.87666 6.37592 7.37896L6.54977 6.91016L6.72361 6.44135C5.01627 5.80821 3.01983 6.17687 1.64645 7.55026L2 7.90381ZM9.08984 9.45023L9.4434 9.80379L12.0058 7.24133L11.6523 6.88778L11.2987 6.53423L8.73629 9.09668L9.08984 9.45023ZM11.6523 6.88778L11.2987 7.24133L11.8068 7.74935L12.1603 7.3958L12.5139 7.04224L12.0058 6.53423L11.6523 6.88778ZM13.6844 5.87175L14.0379 5.5182L10.4818 1.96209L10.1282 2.31564L9.7747 2.66919L13.3308 6.2253L13.6844 5.87175ZM8.6042 3.83969L8.25065 4.19324L8.75867 4.70126L9.11222 4.3477L9.46577 3.99415L8.95776 3.48613L8.6042 3.83969ZM9.11222 4.3477L8.75867 3.99415L6.19621 6.5566L6.54977 6.91016L6.90332 7.26371L9.46577 4.70126L9.11222 4.3477ZM8.6042 2.31564L8.25065 1.96209C7.63453 2.5782 7.63453 3.57712 8.25065 4.19324L8.6042 3.83969L8.95776 3.48613C8.73216 3.26054 8.73216 2.89479 8.95776 2.66919L8.6042 2.31564ZM10.1282 2.31564L10.4818 1.96209C9.86569 1.34597 8.86677 1.34597 8.25065 1.96209L8.6042 2.31564L8.95776 2.66919C9.18335 2.4436 9.5491 2.4436 9.7747 2.66919L10.1282 2.31564ZM13.6844 7.3958L14.0379 7.74935C14.654 7.13323 14.654 6.13431 14.0379 5.5182L13.6844 5.87175L13.3308 6.2253C13.5564 6.45089 13.5564 6.81665 13.3308 7.04224L13.6844 7.3958ZM12.1603 7.3958L11.8068 7.74935C12.4229 8.36547 13.4218 8.36547 14.0379 7.74935L13.6844 7.3958L13.3308 7.04224C13.1052 7.26783 12.7395 7.26783 12.5139 7.04224L12.1603 7.3958ZM2.50515 13.4923L2.85871 13.8458L5.14478 11.5598L4.79123 11.2062L4.43767 10.8527L2.1516 13.1387L2.50515 13.4923Z" fill="#A6B4C7"/>
</svg>
