<svg width="120" height="120" viewBox="0 0 120 120" fill="none" xmlns="http://www.w3.org/2000/svg">
<g clip-path="url(#clip0_3920_12248)">
<mask id="mask0_3920_12248" style="mask-type:alpha" maskUnits="userSpaceOnUse" x="19" y="53" width="82" height="49">
<path d="M99.6327 84.2411C99.071 81.7906 98.2846 79.4334 97.2922 77.1785C91.0384 62.9509 76.7707 53 60.1719 53C43.5731 53 29.3054 62.9509 23.0516 77.1786C22.0592 79.4334 21.2728 81.7906 20.7111 84.2411C20.037 87.1574 19.6719 90.1856 19.6719 93.3069C19.6719 94.4902 19.7374 95.6549 19.831 96.8102C28.3692 99.9315 43.2454 102 60.1719 102C77.0984 102 91.9652 99.9315 100.513 96.8102C100.616 95.6549 100.672 94.4902 100.672 93.3069C100.672 90.1856 100.307 87.1574 99.6327 84.2411Z" fill="#77EFD9"/>
</mask>
<g mask="url(#mask0_3920_12248)">
<g filter="url(#filter0_i_3920_12248)">
<g clip-path="url(#clip1_3920_12248)">
<rect width="80.8527" height="82.2384" rx="40.4263" transform="matrix(0.953272 -0.302114 0.290962 0.956735 9.5 67.4258)" fill="white"/>
<g filter="url(#filter1_f_3920_12248)">
<ellipse cx="26.6641" cy="26.0722" rx="26.6641" ry="26.0722" transform="matrix(-0.662838 0.753995 -0.742384 -0.664082 97.6201 86.6211)" fill="#001377"/>
</g>
<g filter="url(#filter2_f_3920_12248)">
<path d="M16.6634 90.5646C7.26288 82.1557 6.44633 67.599 14.8396 58.0515C23.2328 48.504 37.6575 47.581 47.058 55.99C56.4585 64.399 57.275 78.9556 48.8818 88.5031C40.4886 98.0507 26.0639 98.9736 16.6634 90.5646Z" fill="#7D8FF1"/>
<path d="M48.5105 88.1712C40.3003 97.5104 26.1901 98.4133 16.9946 90.1877C7.7992 81.9621 7.00045 67.7228 15.2106 58.3835C23.4208 49.0442 37.531 48.1414 46.7265 56.3669C55.922 64.5925 56.7207 78.8319 48.5105 88.1712Z" stroke="#0D1D71"/>
</g>
<g filter="url(#filter3_f_3920_12248)">
<circle cx="16.7703" cy="16.7703" r="16.7703" transform="matrix(-0.662838 0.753995 -0.742384 -0.664082 59.46 87.4795)" fill="#7D8DEE"/>
</g>
<g filter="url(#filter4_f_3920_12248)">
<ellipse cx="20.4081" cy="21.0214" rx="20.4081" ry="21.0214" transform="matrix(-0.662838 0.753995 -0.742384 -0.664082 107.593 82.1289)" fill="#FF9EEF"/>
</g>
<g filter="url(#filter5_f_3920_12248)">
<ellipse cx="20.4081" cy="21.0214" rx="20.4081" ry="21.0214" transform="matrix(-0.662838 0.753995 -0.742384 -0.664082 98.7666 59.9199)" fill="#FFFEAB"/>
</g>
<g filter="url(#filter6_f_3920_12248)">
<ellipse cx="13.8076" cy="21.0214" rx="13.8076" ry="21.0214" transform="matrix(-0.514877 0.863339 -0.851698 -0.513963 88.9365 43.9951)" fill="#EBE7D3"/>
</g>
<g filter="url(#filter7_f_3920_12248)">
<ellipse cx="1.87437" cy="1.9307" rx="1.87437" ry="1.9307" transform="matrix(-0.662838 0.753995 -0.742384 -0.664082 63.8506 88.5645)" fill="#FF084E"/>
</g>
<g filter="url(#filter8_f_3920_12248)">
<ellipse cx="1.87437" cy="1.9307" rx="1.87437" ry="1.9307" transform="matrix(-0.662838 0.753995 -0.742384 -0.664082 92.8506 86.5645)" fill="#FF084E"/>
</g>
<g opacity="0.58" filter="url(#filter9_f_3920_12248)">
<ellipse cx="3.34963" cy="5.85608" rx="3.34963" ry="5.85608" transform="matrix(0.464233 -0.89228 0.881971 0.458748 71.7178 63.1836)" fill="white" fill-opacity="0.17"/>
</g>
<g opacity="0.58" filter="url(#filter10_f_3920_12248)">
<ellipse cx="1.20349" cy="2.14129" rx="1.20349" ry="2.14129" transform="matrix(0.0450495 -1.00123 0.997174 0.0340977 62.3818 58.7725)" fill="white"/>
</g>
<g opacity="0.58" filter="url(#filter11_f_3920_12248)">
<ellipse cx="1.20349" cy="2.14129" rx="1.20349" ry="2.14129" transform="matrix(0.676949 -0.739069 0.742988 0.665948 81.5 64.7793)" fill="white"/>
</g>
<g opacity="0.58" filter="url(#filter12_f_3920_12248)">
<ellipse cx="1.20349" cy="2.14129" rx="1.20349" ry="2.14129" transform="matrix(0.676949 -0.739069 0.742988 0.665948 89.5 76.7793)" fill="white"/>
</g>
<g opacity="0.37" filter="url(#filter13_f_3920_12248)">
<ellipse cx="8.04457" cy="8.67134" rx="8.04457" ry="8.67134" transform="matrix(-0.0987598 -0.997361 0.991783 -0.109019 67.1943 70.1436)" fill="#FEFFC2"/>
</g>
<g opacity="0.77" filter="url(#filter14_f_3920_12248)">
<path d="M79.5907 55.0357C83.2735 57.817 84.5975 62.2718 82.5479 64.9858C80.4983 67.6998 75.8512 67.6453 72.1684 64.8641C68.4855 62.0828 67.1615 57.628 69.2112 54.914C71.2608 52.1999 75.9079 52.2545 79.5907 55.0357Z" fill="#FEFFEC"/>
</g>
<g filter="url(#filter15_f_3920_12248)">
<ellipse cx="77.005" cy="61.2774" rx="2.37616" ry="4.78373" transform="rotate(-59.1389 77.005 61.2774)" fill="white"/>
</g>
<g filter="url(#filter16_d_3920_12248)">
<path d="M74.426 80.9653C74.9783 80.9596 75.4359 81.4027 75.4475 81.9546C75.4948 84.1881 74.9745 86.1174 73.8045 87.5027C72.616 88.9098 70.8694 89.6225 68.7596 89.6226C66.7134 89.6226 64.9107 89.0768 63.5949 87.807C62.2801 86.538 61.598 84.6875 61.4996 82.3782C61.4761 81.8264 61.9045 81.3649 62.4565 81.3472C63.0085 81.3296 63.4751 81.7627 63.4986 82.3144C63.5828 84.291 64.1509 85.5788 64.9775 86.3765C65.8034 87.1734 67.0347 87.6233 68.7379 87.6234C70.3775 87.6234 71.5241 87.0858 72.2693 86.2034C73.0329 85.2993 73.4874 83.8998 73.4467 81.9755C73.4351 81.4235 73.8737 80.9711 74.426 80.9653Z" fill="#1D1E5D"/>
<path d="M89.5577 79.1119C90.0731 79.1074 90.5026 79.5348 90.5171 80.0666C90.5709 82.0409 90.3853 83.836 89.6438 85.2142C88.861 86.6691 87.5334 87.5294 85.6364 87.7608C83.766 87.9889 82.0894 87.5259 80.803 86.3869C79.5297 85.2594 78.7446 83.5636 78.4568 81.5209C78.3825 80.9932 78.7358 80.5117 79.246 80.4454C79.7562 80.3791 80.23 80.7531 80.3043 81.2808C80.5452 82.991 81.1712 84.1991 82.0032 84.9359C82.8221 85.6609 83.9453 86.023 85.3808 85.8481C86.7899 85.6762 87.553 85.0993 88.0076 84.2543C88.5035 83.3326 88.7022 81.9643 88.651 80.083C88.6365 79.5513 89.0425 79.1166 89.5577 79.1119Z" fill="#1D1E5D"/>
</g>
<g opacity="0.77" filter="url(#filter17_f_3920_12248)">
<path d="M96.3571 72.4939C99.2852 77.3744 99.2947 82.7492 96.3783 84.4989C93.4619 86.2486 88.724 83.7106 85.7959 78.8301C82.8678 73.9496 82.8583 68.5747 85.7747 66.825C88.6911 65.0753 93.429 67.6134 96.3571 72.4939Z" fill="white" fill-opacity="0.52"/>
</g>
</g>
</g>
<path d="M75.2467 89.5906C75.6361 89.4499 76.0658 89.652 76.2067 90.0413C76.4525 90.722 76.9461 91.0449 77.436 91.1038C77.9378 91.1641 78.4999 90.9553 78.8842 90.4198C79.1257 90.0833 79.5944 90.0058 79.9309 90.2471C80.2674 90.4886 80.3441 90.9576 80.1026 91.2942C79.4044 92.2671 78.3106 92.719 77.2572 92.5925C76.1918 92.4644 75.2303 91.7527 74.7963 90.5515C74.6556 90.1619 74.8571 89.7313 75.2467 89.5906Z" fill="#111138"/>
</g>
<g filter="url(#filter18_di_3920_12248)">
<path d="M96.5633 76.2157C97.5837 78.3773 98.4021 80.6417 99 83C104.346 84.6698 107.52 86.743 107.562 89.0572C107.601 91.2454 104.85 93.3214 100.104 95.1178C91.7146 98.2856 77.0395 100.548 60.301 100.848C43.5626 101.147 28.8252 99.4113 20.3186 96.546C15.5109 94.9206 12.688 92.9444 12.6488 90.7562C12.6074 88.4419 15.6889 86.2429 20.9714 84.3828C21.4845 82.0046 22.2214 79.7124 23.1637 77.5157C10.3111 81.2228 2.15684 86.6563 2.26258 92.5635C2.36832 98.4707 10.3462 103.363 22.8236 106.626C32.984 109.281 46.1332 110.758 60.4831 110.501C74.833 110.244 87.9116 108.298 97.9798 105.281C110.342 101.582 118.128 96.2635 118.024 90.4913C117.921 84.7192 109.559 79.4601 96.5726 76.2156L96.5633 76.2157Z" fill="url(#paint0_radial_3920_12248)"/>
<path d="M96.5633 76.2157C97.5837 78.3773 98.4021 80.6417 99 83C104.346 84.6698 107.52 86.743 107.562 89.0572C107.601 91.2454 104.85 93.3214 100.104 95.1178C91.7146 98.2856 77.0395 100.548 60.301 100.848C43.5626 101.147 28.8252 99.4113 20.3186 96.546C15.5109 94.9206 12.688 92.9444 12.6488 90.7562C12.6074 88.4419 15.6889 86.2429 20.9714 84.3828C21.4845 82.0046 22.2214 79.7124 23.1637 77.5157C10.3111 81.2228 2.15684 86.6563 2.26258 92.5635C2.36832 98.4707 10.3462 103.363 22.8236 106.626C32.984 109.281 46.1332 110.758 60.4831 110.501C74.833 110.244 87.9116 108.298 97.9798 105.281C110.342 101.582 118.128 96.2635 118.024 90.4913C117.921 84.7192 109.559 79.4601 96.5726 76.2156L96.5633 76.2157Z" fill="url(#paint1_radial_3920_12248)" fill-opacity="0.5"/>
</g>
<path opacity="0.69" d="M26.128 34.482C25.247 33.8324 25.0595 32.5916 25.7091 31.7106C25.981 31.3419 26.3722 31.0788 26.8162 30.966L36.5824 28.485C36.5983 28.481 36.6123 28.4716 36.6221 28.4583C36.6454 28.4268 36.6386 28.3823 36.6071 28.359L32.8168 25.5641C32.0024 24.9636 31.829 23.8166 32.4296 23.0022C33.0301 22.1878 34.1771 22.0144 34.9915 22.6149L41.5901 27.4806C42.565 28.1995 42.7725 29.5726 42.0536 30.5475C41.7624 30.9425 41.3471 31.2284 40.8741 31.3595L31.7078 33.8997C31.6924 33.904 31.6788 33.9133 31.6693 33.9262C31.6458 33.9581 31.6526 34.0029 31.6844 34.0264L35.4509 36.8038C36.2653 37.4043 36.4387 38.5514 35.8382 39.3658C35.2377 40.1802 34.0906 40.3535 33.2762 39.753L26.128 34.482Z" fill="#3B3E4C"/>
<path opacity="0.69" fill-rule="evenodd" clip-rule="evenodd" d="M42.1954 40.8467C42.9902 40.4221 43.9937 40.66 44.5078 41.4237L45.8206 43.3751C46.4136 44.2566 46.18 45.452 45.2988 46.0453C44.974 46.2639 44.5893 46.3773 44.1978 46.3721L42.9706 46.3546C43.1168 47.0433 42.843 47.7829 42.2234 48.2003C41.4084 48.7486 40.3032 48.5327 39.7548 47.7178L38.3187 45.5834C37.7847 44.7895 37.9478 43.7305 38.6678 43.1315L38.8189 43.0177L38.943 42.9414C39.238 42.775 39.5749 42.6915 39.9152 42.7031L41.2862 42.7506C41.1677 42.1289 41.3863 41.471 41.8927 41.0498L42.0391 40.9412L42.1954 40.8467Z" fill="#3B3E4C"/>
<path opacity="0.69" d="M7.56088 27.454C6.16026 27.2135 5.21979 25.8831 5.4603 24.4824C5.56096 23.8962 5.86161 23.363 6.31109 22.9734L16.1974 14.4051C16.2135 14.3912 16.2243 14.3721 16.2279 14.351C16.2365 14.3008 16.2028 14.2532 16.1526 14.2445L10.1265 13.2098C8.83171 12.9874 7.9623 11.7576 8.18464 10.4628C8.40697 9.16795 9.63686 8.29854 10.9317 8.52087L21.4226 10.3223C22.9727 10.5885 24.0134 12.0607 23.7473 13.6108C23.6394 14.2387 23.3241 14.8124 22.8517 15.24L13.696 23.5276C13.6805 23.5416 13.6702 23.5603 13.6667 23.5808C13.658 23.6315 13.692 23.6796 13.7427 23.6883L19.731 24.7166C21.0258 24.9389 21.8952 26.1688 21.6729 27.4636C21.4505 28.7584 20.2207 29.6278 18.9259 29.4055L7.56088 27.454Z" fill="#3B3E4C"/>
<g opacity="0.1" filter="url(#filter19_f_3920_12248)">
<ellipse cx="11.0388" cy="10.9951" rx="11.0388" ry="10.9951" transform="matrix(-0.963493 0.267732 -0.474589 -0.880208 109.207 51.3545)" fill="#FDFF97"/>
</g>
<g filter="url(#filter20_dii_3920_12248)">
<mask id="mask1_3920_12248" style="mask-type:alpha" maskUnits="userSpaceOnUse" x="81" y="22" width="28" height="28">
<path d="M81.3028 40.3911C81.5511 40.0307 82.2172 39.4892 83.7564 39.874C84.6085 40.0861 85.4802 40.2157 86.3596 40.2339C89.6108 40.3166 92.6483 39.0289 94.8505 36.8732C96.7973 34.9796 98.0902 32.4263 98.2984 29.589C98.4069 28.003 98.2056 26.4516 97.6785 24.9619C97.1625 23.5148 97.6443 22.8069 97.9713 22.5218C98.3132 22.2237 99.0949 21.8299 100.528 22.543C106.054 25.3254 109.184 31.2705 108.349 37.3497C107.538 43.0671 103.167 47.7021 97.698 49.1869C96.3876 49.5445 95.02 49.7165 93.6249 49.677C93.4013 49.6756 93.1778 49.6743 92.9552 49.6591C88.2944 49.3401 84.0762 46.843 81.5776 42.9119C80.734 41.5542 81.0406 40.7505 81.3028 40.3911Z" fill="#646D7F"/>
</mask>
<g mask="url(#mask1_3920_12248)">
<g filter="url(#filter21_f_3920_12248)">
<path d="M94.6474 48.8084C103.455 44.3904 113.02 45.6431 108.622 36.8762C104.224 28.1092 93.5193 24.5836 84.7119 29.0016C75.9045 33.4195 72.3297 44.108 76.7273 52.875C81.125 61.642 85.8399 53.2264 94.6474 48.8084Z" fill="#B6FFF5"/>
</g>
<g filter="url(#filter22_f_3920_12248)">
<circle cx="10.1987" cy="10.1987" r="10.1987" transform="matrix(0.448369 0.893848 0.893848 -0.448369 86.2178 25.668)" fill="#FFFFDD"/>
</g>
<g filter="url(#filter23_f_3920_12248)">
<path d="M113.614 57.4547C108.294 62.1221 96.9596 57.902 88.2975 48.0289C79.6355 38.1559 94.2824 46.1512 99.6024 41.4838C104.922 36.8164 98.9009 21.2536 107.563 31.1267C116.225 40.9998 118.934 52.7872 113.614 57.4547Z" fill="#FFF789"/>
</g>
</g>
</g>
<g filter="url(#filter24_f_3920_12248)">
<ellipse cx="100.815" cy="31.5205" rx="0.436276" ry="1.99298" transform="rotate(-168.379 100.815 31.5205)" fill="white"/>
</g>
<g filter="url(#filter25_f_3920_12248)">
<ellipse cx="93.7932" cy="40.8051" rx="0.624676" ry="1.16404" transform="rotate(-110.625 93.7932 40.8051)" fill="white"/>
</g>
<g filter="url(#filter26_f_3920_12248)">
<ellipse cx="100.812" cy="28.163" rx="0.624676" ry="0.763872" transform="rotate(168.877 100.812 28.163)" fill="white"/>
</g>
</g>
<defs>
<filter id="filter0_i_3920_12248" x="8.5" y="42.999" width="102.003" height="104.107" filterUnits="userSpaceOnUse" color-interpolation-filters="sRGB">
<feFlood flood-opacity="0" result="BackgroundImageFix"/>
<feBlend mode="normal" in="SourceGraphic" in2="BackgroundImageFix" result="shape"/>
<feColorMatrix in="SourceAlpha" type="matrix" values="0 0 0 0 0 0 0 0 0 0 0 0 0 0 0 0 0 0 127 0" result="hardAlpha"/>
<feOffset dx="-1" dy="1"/>
<feGaussianBlur stdDeviation="3.22805"/>
<feComposite in2="hardAlpha" operator="arithmetic" k2="-1" k3="1"/>
<feColorMatrix type="matrix" values="0 0 0 0 1 0 0 0 0 1 0 0 0 0 1 0 0 0 0.99 0"/>
<feBlend mode="normal" in2="shape" result="effect1_innerShadow_3920_12248"/>
</filter>
<filter id="filter1_f_3920_12248" x="24.3799" y="52.8789" width="72.4219" height="73.0654" filterUnits="userSpaceOnUse" color-interpolation-filters="sRGB">
<feFlood flood-opacity="0" result="BackgroundImageFix"/>
<feBlend mode="normal" in="SourceGraphic" in2="BackgroundImageFix" result="shape"/>
<feGaussianBlur stdDeviation="5" result="effect1_foregroundBlur_3920_12248"/>
</filter>
<filter id="filter2_f_3920_12248" x="-23.2027" y="17.9956" width="110.127" height="110.564" filterUnits="userSpaceOnUse" color-interpolation-filters="sRGB">
<feFlood flood-opacity="0" result="BackgroundImageFix"/>
<feBlend mode="normal" in="SourceGraphic" in2="BackgroundImageFix" result="shape"/>
<feGaussianBlur stdDeviation="16.1223" result="effect1_foregroundBlur_3920_12248"/>
</filter>
<filter id="filter3_f_3920_12248" x="-16.6081" y="36.3264" width="105.004" height="105.323" filterUnits="userSpaceOnUse" color-interpolation-filters="sRGB">
<feFlood flood-opacity="0" result="BackgroundImageFix"/>
<feBlend mode="normal" in="SourceGraphic" in2="BackgroundImageFix" result="shape"/>
<feGaussianBlur stdDeviation="17.9056" result="effect1_foregroundBlur_3920_12248"/>
</filter>
<filter id="filter4_f_3920_12248" x="28.8066" y="33.7803" width="99.3057" height="99.5527" filterUnits="userSpaceOnUse" color-interpolation-filters="sRGB">
<feFlood flood-opacity="0" result="BackgroundImageFix"/>
<feBlend mode="normal" in="SourceGraphic" in2="BackgroundImageFix" result="shape"/>
<feGaussianBlur stdDeviation="14.5" result="effect1_foregroundBlur_3920_12248"/>
</filter>
<filter id="filter5_f_3920_12248" x="15.4805" y="7.07129" width="108.306" height="108.553" filterUnits="userSpaceOnUse" color-interpolation-filters="sRGB">
<feFlood flood-opacity="0" result="BackgroundImageFix"/>
<feBlend mode="normal" in="SourceGraphic" in2="BackgroundImageFix" result="shape"/>
<feGaussianBlur stdDeviation="16.75" result="effect1_foregroundBlur_3920_12248"/>
</filter>
<filter id="filter6_f_3920_12248" x="1.61359" y="-14.0173" width="124.619" height="118.258" filterUnits="userSpaceOnUse" color-interpolation-filters="sRGB">
<feFlood flood-opacity="0" result="BackgroundImageFix"/>
<feBlend mode="normal" in="SourceGraphic" in2="BackgroundImageFix" result="shape"/>
<feGaussianBlur stdDeviation="21.5204" result="effect1_foregroundBlur_3920_12248"/>
</filter>
<filter id="filter7_f_3920_12248" x="50.0783" y="77.5871" width="22.193" height="22.2164" filterUnits="userSpaceOnUse" color-interpolation-filters="sRGB">
<feFlood flood-opacity="0" result="BackgroundImageFix"/>
<feBlend mode="normal" in="SourceGraphic" in2="BackgroundImageFix" result="shape"/>
<feGaussianBlur stdDeviation="4.6" result="effect1_foregroundBlur_3920_12248"/>
</filter>
<filter id="filter8_f_3920_12248" x="79.0783" y="75.5871" width="22.193" height="22.2164" filterUnits="userSpaceOnUse" color-interpolation-filters="sRGB">
<feFlood flood-opacity="0" result="BackgroundImageFix"/>
<feBlend mode="normal" in="SourceGraphic" in2="BackgroundImageFix" result="shape"/>
<feGaussianBlur stdDeviation="4.6" result="effect1_foregroundBlur_3920_12248"/>
</filter>
<filter id="filter9_f_3920_12248" x="70.87" y="56.6903" width="15.1349" height="12.382" filterUnits="userSpaceOnUse" color-interpolation-filters="sRGB">
<feFlood flood-opacity="0" result="BackgroundImageFix"/>
<feBlend mode="normal" in="SourceGraphic" in2="BackgroundImageFix" result="shape"/>
<feGaussianBlur stdDeviation="1.08598" result="effect1_foregroundBlur_3920_12248"/>
</filter>
<filter id="filter10_f_3920_12248" x="60.2636" y="54.2616" width="8.61541" height="6.75799" filterUnits="userSpaceOnUse" color-interpolation-filters="sRGB">
<feFlood flood-opacity="0" result="BackgroundImageFix"/>
<feBlend mode="normal" in="SourceGraphic" in2="BackgroundImageFix" result="shape"/>
<feGaussianBlur stdDeviation="1.08598" result="effect1_foregroundBlur_3920_12248"/>
</filter>
<filter id="filter11_f_3920_12248" x="79.9462" y="61.4628" width="7.91912" height="7.70623" filterUnits="userSpaceOnUse" color-interpolation-filters="sRGB">
<feFlood flood-opacity="0" result="BackgroundImageFix"/>
<feBlend mode="normal" in="SourceGraphic" in2="BackgroundImageFix" result="shape"/>
<feGaussianBlur stdDeviation="1.08598" result="effect1_foregroundBlur_3920_12248"/>
</filter>
<filter id="filter12_f_3920_12248" x="87.9462" y="73.4628" width="7.91912" height="7.70623" filterUnits="userSpaceOnUse" color-interpolation-filters="sRGB">
<feFlood flood-opacity="0" result="BackgroundImageFix"/>
<feBlend mode="normal" in="SourceGraphic" in2="BackgroundImageFix" result="shape"/>
<feGaussianBlur stdDeviation="1.08598" result="effect1_foregroundBlur_3920_12248"/>
</filter>
<filter id="filter13_f_3920_12248" x="49.9623" y="36.6957" width="50.0754" height="48.9592" filterUnits="userSpaceOnUse" color-interpolation-filters="sRGB">
<feFlood flood-opacity="0" result="BackgroundImageFix"/>
<feBlend mode="normal" in="SourceGraphic" in2="BackgroundImageFix" result="shape"/>
<feGaussianBlur stdDeviation="8.2" result="effect1_foregroundBlur_3920_12248"/>
</filter>
<filter id="filter14_f_3920_12248" x="62.2392" y="46.9062" width="27.2814" height="26.0881" filterUnits="userSpaceOnUse" color-interpolation-filters="sRGB">
<feFlood flood-opacity="0" result="BackgroundImageFix"/>
<feBlend mode="normal" in="SourceGraphic" in2="BackgroundImageFix" result="shape"/>
<feGaussianBlur stdDeviation="3.00395" result="effect1_foregroundBlur_3920_12248"/>
</filter>
<filter id="filter15_f_3920_12248" x="71.2207" y="56.5859" width="11.5693" height="9.38281" filterUnits="userSpaceOnUse" color-interpolation-filters="sRGB">
<feFlood flood-opacity="0" result="BackgroundImageFix"/>
<feBlend mode="normal" in="SourceGraphic" in2="BackgroundImageFix" result="shape"/>
<feGaussianBlur stdDeviation="0.75" result="effect1_foregroundBlur_3920_12248"/>
</filter>
<filter id="filter16_d_3920_12248" x="60.899" y="78.9123" width="29.8264" height="11.3107" filterUnits="userSpaceOnUse" color-interpolation-filters="sRGB">
<feFlood flood-opacity="0" result="BackgroundImageFix"/>
<feColorMatrix in="SourceAlpha" type="matrix" values="0 0 0 0 0 0 0 0 0 0 0 0 0 0 0 0 0 0 127 0" result="hardAlpha"/>
<feOffset dx="-0.2" dy="0.2"/>
<feGaussianBlur stdDeviation="0.2"/>
<feComposite in2="hardAlpha" operator="out"/>
<feColorMatrix type="matrix" values="0 0 0 0 1 0 0 0 0 1 0 0 0 0 1 0 0 0 0.66 0"/>
<feBlend mode="normal" in2="BackgroundImageFix" result="effect1_dropShadow_3920_12248"/>
<feBlend mode="normal" in="SourceGraphic" in2="effect1_dropShadow_3920_12248" result="shape"/>
</filter>
<filter id="filter17_f_3920_12248" x="73.3938" y="56.0715" width="35.3658" height="39.1803" filterUnits="userSpaceOnUse" color-interpolation-filters="sRGB">
<feFlood flood-opacity="0" result="BackgroundImageFix"/>
<feBlend mode="normal" in="SourceGraphic" in2="BackgroundImageFix" result="shape"/>
<feGaussianBlur stdDeviation="5.1" result="effect1_foregroundBlur_3920_12248"/>
</filter>
<filter id="filter18_di_3920_12248" x="-1.82715" y="73.5616" width="123.941" height="42.4912" filterUnits="userSpaceOnUse" color-interpolation-filters="sRGB">
<feFlood flood-opacity="0" result="BackgroundImageFix"/>
<feColorMatrix in="SourceAlpha" type="matrix" values="0 0 0 0 0 0 0 0 0 0 0 0 0 0 0 0 0 0 127 0" result="hardAlpha"/>
<feOffset dy="1.43469"/>
<feGaussianBlur stdDeviation="2.04443"/>
<feComposite in2="hardAlpha" operator="out"/>
<feColorMatrix type="matrix" values="0 0 0 0 0 0 0 0 0 0 0 0 0 0 0 0 0 0 0.1 0"/>
<feBlend mode="normal" in2="BackgroundImageFix" result="effect1_dropShadow_3920_12248"/>
<feBlend mode="normal" in="SourceGraphic" in2="effect1_dropShadow_3920_12248" result="shape"/>
<feColorMatrix in="SourceAlpha" type="matrix" values="0 0 0 0 0 0 0 0 0 0 0 0 0 0 0 0 0 0 127 0" result="hardAlpha"/>
<feOffset dx="1.5654"/>
<feGaussianBlur stdDeviation="1.3"/>
<feComposite in2="hardAlpha" operator="arithmetic" k2="-1" k3="1"/>
<feColorMatrix type="matrix" values="0 0 0 0 1 0 0 0 0 1 0 0 0 0 1 0 0 0 0.41 0"/>
<feBlend mode="normal" in2="shape" result="effect2_innerShadow_3920_12248"/>
</filter>
<filter id="filter19_f_3920_12248" x="68.8039" y="21.8098" width="49.0992" height="45.6441" filterUnits="userSpaceOnUse" color-interpolation-filters="sRGB">
<feFlood flood-opacity="0" result="BackgroundImageFix"/>
<feBlend mode="normal" in="SourceGraphic" in2="BackgroundImageFix" result="shape"/>
<feGaussianBlur stdDeviation="6.35" result="effect1_foregroundBlur_3920_12248"/>
</filter>
<filter id="filter20_dii_3920_12248" x="80.3108" y="21.427" width="28.9441" height="29.3989" filterUnits="userSpaceOnUse" color-interpolation-filters="sRGB">
<feFlood flood-opacity="0" result="BackgroundImageFix"/>
<feColorMatrix in="SourceAlpha" type="matrix" values="0 0 0 0 0 0 0 0 0 0 0 0 0 0 0 0 0 0 127 0" result="hardAlpha"/>
<feOffset/>
<feGaussianBlur stdDeviation="0.357276"/>
<feComposite in2="hardAlpha" operator="out"/>
<feColorMatrix type="matrix" values="0 0 0 0 1 0 0 0 0 1 0 0 0 0 1 0 0 0 0.75 0"/>
<feBlend mode="normal" in2="BackgroundImageFix" result="effect1_dropShadow_3920_12248"/>
<feBlend mode="normal" in="SourceGraphic" in2="effect1_dropShadow_3920_12248" result="shape"/>
<feColorMatrix in="SourceAlpha" type="matrix" values="0 0 0 0 0 0 0 0 0 0 0 0 0 0 0 0 0 0 127 0" result="hardAlpha"/>
<feOffset dx="0.772484" dy="0.617987"/>
<feGaussianBlur stdDeviation="1.03513"/>
<feComposite in2="hardAlpha" operator="arithmetic" k2="-1" k3="1"/>
<feColorMatrix type="matrix" values="0 0 0 0 1 0 0 0 0 1 0 0 0 0 1 0 0 0 0.93 0"/>
<feBlend mode="normal" in2="shape" result="effect2_innerShadow_3920_12248"/>
<feColorMatrix in="SourceAlpha" type="matrix" values="0 0 0 0 0 0 0 0 0 0 0 0 0 0 0 0 0 0 127 0" result="hardAlpha"/>
<feOffset dx="0.571642" dy="1.14328"/>
<feGaussianBlur stdDeviation="0.914628"/>
<feComposite in2="hardAlpha" operator="arithmetic" k2="-1" k3="1"/>
<feColorMatrix type="matrix" values="0 0 0 0 1 0 0 0 0 1 0 0 0 0 1 0 0 0 0.69 0"/>
<feBlend mode="normal" in2="effect2_innerShadow_3920_12248" result="effect3_innerShadow_3920_12248"/>
</filter>
<filter id="filter21_f_3920_12248" x="64.8919" y="17.1419" width="54.7884" height="49.5188" filterUnits="userSpaceOnUse" color-interpolation-filters="sRGB">
<feFlood flood-opacity="0" result="BackgroundImageFix"/>
<feBlend mode="normal" in="SourceGraphic" in2="BackgroundImageFix" result="shape"/>
<feGaussianBlur stdDeviation="4.97688" result="effect1_foregroundBlur_3920_12248"/>
</filter>
<filter id="filter22_f_3920_12248" x="79.7523" y="10.057" width="40.3089" height="40.3089" filterUnits="userSpaceOnUse" color-interpolation-filters="sRGB">
<feFlood flood-opacity="0" result="BackgroundImageFix"/>
<feBlend mode="normal" in="SourceGraphic" in2="BackgroundImageFix" result="shape"/>
<feGaussianBlur stdDeviation="4.97688" result="effect1_foregroundBlur_3920_12248"/>
</filter>
<filter id="filter23_f_3920_12248" x="74.5575" y="16.8485" width="52.8411" height="53.5677" filterUnits="userSpaceOnUse" color-interpolation-filters="sRGB">
<feFlood flood-opacity="0" result="BackgroundImageFix"/>
<feBlend mode="normal" in="SourceGraphic" in2="BackgroundImageFix" result="shape"/>
<feGaussianBlur stdDeviation="5.52987" result="effect1_foregroundBlur_3920_12248"/>
</filter>
<filter id="filter24_f_3920_12248" x="98.9925" y="28.3304" width="3.6448" height="6.38015" filterUnits="userSpaceOnUse" color-interpolation-filters="sRGB">
<feFlood flood-opacity="0" result="BackgroundImageFix"/>
<feBlend mode="normal" in="SourceGraphic" in2="BackgroundImageFix" result="shape"/>
<feGaussianBlur stdDeviation="0.617987" result="effect1_foregroundBlur_3920_12248"/>
</filter>
<filter id="filter25_f_3920_12248" x="91.1521" y="38.5613" width="5.28267" height="4.48775" filterUnits="userSpaceOnUse" color-interpolation-filters="sRGB">
<feFlood flood-opacity="0" result="BackgroundImageFix"/>
<feBlend mode="normal" in="SourceGraphic" in2="BackgroundImageFix" result="shape"/>
<feGaussianBlur stdDeviation="0.764759" result="effect1_foregroundBlur_3920_12248"/>
</filter>
<filter id="filter26_f_3920_12248" x="99.0075" y="26.2291" width="3.60909" height="3.86691" filterUnits="userSpaceOnUse" color-interpolation-filters="sRGB">
<feFlood flood-opacity="0" result="BackgroundImageFix"/>
<feBlend mode="normal" in="SourceGraphic" in2="BackgroundImageFix" result="shape"/>
<feGaussianBlur stdDeviation="0.587088" result="effect1_foregroundBlur_3920_12248"/>
</filter>
<radialGradient id="paint0_radial_3920_12248" cx="0" cy="0" r="1" gradientTransform="matrix(63.4235 -5.87618 1.63783 18.4428 60.5765 91.8762)" gradientUnits="userSpaceOnUse">
<stop offset="0.288462" stop-color="white"/>
<stop offset="1" stop-color="#323980"/>
</radialGradient>
<radialGradient id="paint1_radial_3920_12248" cx="0" cy="0" r="1" gradientTransform="matrix(64.5083 24.8896 -40.5252 98.2052 17.9917 87.1104)" gradientUnits="userSpaceOnUse">
<stop offset="0.139423" stop-color="#0E0E39"/>
<stop offset="1" stop-color="#903BFF" stop-opacity="0"/>
</radialGradient>
<clipPath id="clip0_3920_12248">
<rect width="120" height="120" fill="white"/>
</clipPath>
<clipPath id="clip1_3920_12248">
<rect width="80.8527" height="82.2384" rx="40.4263" transform="matrix(0.953272 -0.302114 0.290962 0.956735 9.5 67.4258)" fill="white"/>
</clipPath>
</defs>
</svg>
