<svg width="14" height="14" viewBox="0 0 14 14" fill="none" xmlns="http://www.w3.org/2000/svg">
<path d="M10.5 3.49984C10.1442 3.49984 9.81752 3.29567 9.65418 2.98067L9.23418 2.13484C8.96585 1.604 8.26585 1.1665 7.67085 1.1665H6.33502C5.73418 1.1665 5.03418 1.604 4.76585 2.13484L4.34585 2.98067C4.18252 3.29567 3.85585 3.49984 3.50002 3.49984C2.23418 3.49984 1.23085 4.56734 1.31252 5.82734L1.61585 10.6457C1.68585 11.8473 2.33335 12.8332 3.94335 12.8332H10.0567C11.6667 12.8332 12.3084 11.8473 12.3842 10.6457L12.6875 5.82734C12.7692 4.56734 11.7659 3.49984 10.5 3.49984ZM6.12502 4.229H7.87502C8.11418 4.229 8.31252 4.42734 8.31252 4.6665C8.31252 4.90567 8.11418 5.104 7.87502 5.104H6.12502C5.88585 5.104 5.68752 4.90567 5.68752 4.6665C5.68752 4.42734 5.88585 4.229 6.12502 4.229ZM7.00002 10.5698C5.91502 10.5698 5.02835 9.689 5.02835 8.59817C5.02835 7.50734 5.90918 6.6265 7.00002 6.6265C8.09085 6.6265 8.97168 7.50734 8.97168 8.59817C8.97168 9.689 8.08502 10.5698 7.00002 10.5698Z" fill="#A6B4C7"/>
</svg>
