<svg width="20" height="20" viewBox="0 0 20 20" fill="none" xmlns="http://www.w3.org/2000/svg">
<path d="M12.1083 7.8916L7.8916 12.1083C7.34994 11.5666 7.0166 10.8249 7.0166 9.99994C7.0166 8.34993 8.34993 7.0166 9.99994 7.0166C10.8249 7.0166 11.5666 7.34994 12.1083 7.8916Z" stroke="#A6B4C7" stroke-width="1.25" stroke-linecap="round" stroke-linejoin="round"/>
<path d="M14.85 4.80742C13.3917 3.70742 11.725 3.10742 9.99999 3.10742C7.05832 3.10742 4.31666 4.84076 2.40833 7.84076C1.65833 9.01576 1.65833 10.9908 2.40833 12.1658C3.06666 13.1991 3.83332 14.0908 4.66666 14.8074" stroke="#A6B4C7" stroke-width="1.25" stroke-linecap="round" stroke-linejoin="round"/>
<path d="M7.0166 16.276C7.9666 16.676 8.97493 16.8927 9.99994 16.8927C12.9416 16.8927 15.6833 15.1594 17.5916 12.1594C18.3416 10.9844 18.3416 9.00937 17.5916 7.83437C17.3166 7.40104 17.0166 6.99271 16.7083 6.60938" stroke="#A6B4C7" stroke-width="1.25" stroke-linecap="round" stroke-linejoin="round"/>
<path d="M12.925 10.584C12.7083 11.759 11.75 12.7173 10.575 12.934" stroke="#A6B4C7" stroke-width="1.25" stroke-linecap="round" stroke-linejoin="round"/>
<path d="M7.89175 12.1084L1.66675 18.3334" stroke="#A6B4C7" stroke-width="1.25" stroke-linecap="round" stroke-linejoin="round"/>
<path d="M18.3333 1.66602L12.1083 7.89102" stroke="#A6B4C7" stroke-width="1.25" stroke-linecap="round" stroke-linejoin="round"/>
</svg>
