<svg width="32" height="32" viewBox="0 0 32 32" fill="none" xmlns="http://www.w3.org/2000/svg">
<path fill-rule="evenodd" clip-rule="evenodd" d="M10.4756 14.112L26.1137 3.31378C26.9049 2.81269 27.8695 2.94627 28.5665 3.47019C29.1037 3.87398 29.4821 4.50962 29.4999 5.26528V26.6666V26.6752C29.4999 28.4432 27.5421 29.5876 26.1137 28.683L10.4756 17.9499C9.17462 17.0723 9.17462 14.9896 10.4756 14.112ZM2 5.48432C2 4.37974 2.89543 3.48431 4 3.48431C5.10458 3.48431 6 4.37974 6 5.48432V26.5156C6 27.6202 5.10458 28.5156 4 28.5156C2.89543 28.5156 2 27.6202 2 26.5156V5.48432Z" fill="#7e889a"/>
</svg>
