<svg width="25" height="24" viewBox="0 0 25 24" fill="none" xmlns="http://www.w3.org/2000/svg">
<path d="M12.1242 2.19922C9.47325 2.19922 7.32422 4.34825 7.32422 6.99922C7.32422 9.65019 9.47325 11.7992 12.1242 11.7992C14.7752 11.7992 16.9242 9.65019 16.9242 6.99922C16.9242 4.34825 14.7752 2.19922 12.1242 2.19922Z" />
<path d="M12.1242 13.1992C9.03695 13.1992 6.28747 14.6109 4.70941 16.7944L4.66036 16.8622C4.32807 17.3212 3.97446 17.8097 3.81697 18.3383C3.62449 18.9844 3.73412 19.6018 4.07744 20.2735C4.25882 20.6284 4.48908 20.93 4.78958 21.1673C5.08981 21.4044 5.42386 21.5487 5.77326 21.638C6.40479 21.7996 7.18673 21.7994 8.03698 21.7992H16.2114C17.0617 21.7994 17.8436 21.7996 18.4751 21.638C18.8245 21.5487 19.1586 21.4044 19.4588 21.1673C19.7593 20.93 19.9896 20.6284 20.1709 20.2735C20.5143 19.6018 20.6239 18.9844 20.4314 18.3383C20.2739 17.8097 19.9203 17.3212 19.588 16.8622L19.539 16.7944C17.9609 14.6109 15.2114 13.1992 12.1242 13.1992Z" />
</svg>
