<svg width="25" height="24" viewBox="0 0 25 24" fill="none" xmlns="http://www.w3.org/2000/svg">
<g clip-path="url(#clip0_692_24006)">
<path d="M6.88435 14.9733C8.52641 14.9733 9.85756 13.6421 9.85756 12.0001C9.85756 10.358 8.52641 9.02686 6.88435 9.02686C5.24229 9.02686 3.91113 10.358 3.91113 12.0001C3.91113 13.6421 5.24229 14.9733 6.88435 14.9733Z" stroke="#A6B4C7" stroke-width="1.5" stroke-linecap="round" stroke-linejoin="round"/>
<path d="M18.1158 20.5895C19.7578 20.5895 21.089 19.2583 21.089 17.6163C21.089 15.9743 19.7578 14.6431 18.1158 14.6431C16.4738 14.6431 15.1426 15.9743 15.1426 17.6163C15.1426 19.2583 16.4738 20.5895 18.1158 20.5895Z" stroke="#A6B4C7" stroke-width="1.5" stroke-linecap="round" stroke-linejoin="round"/>
<path d="M18.1158 9.35707C19.7578 9.35707 21.089 8.02592 21.089 6.38386C21.089 4.7418 19.7578 3.41064 18.1158 3.41064C16.4738 3.41064 15.1426 4.7418 15.1426 6.38386C15.1426 8.02592 16.4738 9.35707 18.1158 9.35707Z" stroke="#A6B4C7" stroke-width="1.5" stroke-linecap="round" stroke-linejoin="round"/>
<path d="M9.54004 10.6788L15.46 7.70557" stroke="#A6B4C7" stroke-width="1.5" stroke-linecap="round" stroke-linejoin="round"/>
<path d="M9.54004 13.3213L15.46 16.2945" stroke="#A6B4C7" stroke-width="1.5" stroke-linecap="round" stroke-linejoin="round"/>
</g>
<defs>
<clipPath id="clip0_692_24006">
<rect width="18.5" height="18.5" fill="white" transform="translate(3.25 2.75)"/>
</clipPath>
</defs>
</svg>
