<svg width="24" height="24" viewBox="0 0 24 24" fill="none" xmlns="http://www.w3.org/2000/svg">
<path d="M3.82094 15.2701L3.32267 14.7096L3.32267 14.7096L3.82094 15.2701ZM3.92 15.1821L4.41828 15.7426L4.41828 15.7426L3.92 15.1821ZM20.0796 15.1821L19.5814 15.7426L19.5814 15.7426L20.0796 15.1821ZM20.1787 15.2701L20.677 14.7096L20.677 14.7095L20.1787 15.2701ZM5.60636 12.2569L4.87158 12.1066L5.60636 12.2569ZM6.59803 7.40872L5.86325 7.25842L6.59803 7.40872ZM18.4619 8.8497C18.3789 8.44389 17.9826 8.18221 17.5768 8.26521C17.171 8.34822 16.9093 8.74449 16.9923 9.1503L17.7271 9L18.4619 8.8497ZM18.3933 12.2569L17.6585 12.4072L18.3933 12.2569ZM11.9998 3.75C12.414 3.75 12.7498 3.41421 12.7498 3C12.7498 2.58579 12.414 2.25 11.9998 2.25V3V3.75ZM3.53843 16.9575L2.88475 17.3252H2.88475L3.53843 16.9575ZM20.4612 16.9575L21.1149 17.3252L21.1149 17.3252L20.4612 16.9575ZM14.9998 18H14.2498C14.2498 19.2426 13.2425 20.25 11.9998 20.25V21V21.75C14.0709 21.75 15.7498 20.0711 15.7498 18H14.9998ZM11.9998 21V20.25C10.7572 20.25 9.74981 19.2426 9.74981 18H8.99981H8.24981C8.24981 20.0711 9.92875 21.75 11.9998 21.75V21ZM18.6788 18V17.25H5.32088V18V18.75H18.6788V18ZM3.82094 15.2701L4.31921 15.8307L4.41828 15.7426L3.92 15.1821L3.42173 14.6215L3.32267 14.7096L3.82094 15.2701ZM20.0796 15.1821L19.5814 15.7426L19.6804 15.8307L20.1787 15.2701L20.677 14.7095L20.5779 14.6215L20.0796 15.1821ZM5.60636 12.2569L6.34115 12.4072L7.33282 7.55902L6.59803 7.40872L5.86325 7.25842L4.87158 12.1066L5.60636 12.2569ZM17.7271 9L16.9923 9.1503L17.6585 12.4072L18.3933 12.2569L19.1281 12.1066L18.4619 8.8497L17.7271 9ZM6.59803 7.40872L7.33282 7.55902C7.7863 5.34201 9.7369 3.75 11.9998 3.75V3V2.25C9.02434 2.25 6.45952 4.34331 5.86325 7.25842L6.59803 7.40872ZM20.0796 15.1821L20.5779 14.6215C19.8357 13.9618 19.3271 13.0795 19.1281 12.1066L18.3933 12.2569L17.6585 12.4072C17.9224 13.6975 18.597 14.8676 19.5814 15.7426L20.0796 15.1821ZM3.92 15.1821L4.41828 15.7426C5.40263 14.8676 6.07723 13.6975 6.34115 12.4072L5.60636 12.2569L4.87158 12.1066C4.67258 13.0795 4.16393 13.9618 3.42173 14.6215L3.92 15.1821ZM5.32088 18V17.25C4.853 17.25 4.4215 16.9976 4.19211 16.5898L3.53843 16.9575L2.88475 17.3252C3.37981 18.2053 4.31109 18.75 5.32088 18.75V18ZM20.4612 16.9575L19.8075 16.5898C19.5781 16.9976 19.1466 17.25 18.6788 17.25V18V18.75C19.6885 18.75 20.6198 18.2053 21.1149 17.3252L20.4612 16.9575ZM20.4612 16.9575L21.1149 17.3252C21.6022 16.4589 21.4199 15.37 20.677 14.7096L20.1787 15.2701L19.6804 15.8307C19.8961 16.0223 19.949 16.3384 19.8075 16.5898L20.4612 16.9575ZM3.53843 16.9575L4.19211 16.5898C4.05067 16.3384 4.10358 16.0223 4.31921 15.8307L3.82094 15.2701L3.32267 14.7096C2.57971 15.37 2.39741 16.4589 2.88475 17.3252L3.53843 16.9575Z" fill="#E6EDF8"/>
<path d="M18 5C18 6.10457 17.1046 7 16 7C14.8954 7 14 6.10457 14 5C14 3.89543 14.8954 3 16 3C17.1046 3 18 3.89543 18 5Z" fill="#40EAE2" stroke="#40EAE2"/>
</svg>
