<svg width="161" height="160" viewBox="0 0 161 160" fill="none" xmlns="http://www.w3.org/2000/svg">
<g clip-path="url(#clip0_1967_8274)">
<g filter="url(#filter0_f_1967_8274)">
<ellipse cx="9.49028" cy="12.3675" rx="9.49028" ry="12.3675" transform="matrix(0.968465 -0.249151 0.297771 0.954637 50.5059 65.4624)" fill="#2EEAE1"/>
</g>
<g filter="url(#filter1_f_1967_8274)">
<ellipse cx="71.1063" cy="87.6832" rx="12.6991" ry="24.4498" fill="#F0ECB7"/>
</g>
<g filter="url(#filter2_f_1967_8274)">
<ellipse cx="4.21265" cy="12.7817" rx="4.21265" ry="12.7817" transform="matrix(0.803309 -0.595562 0.668512 0.743701 75.0254 56.6982)" fill="#FFFFE2"/>
</g>
<g filter="url(#filter3_d_1967_8274)">
<g filter="url(#filter4_ii_1967_8274)">
<g clip-path="url(#clip1_1967_8274)">
<rect x="17.6953" y="57.5967" width="91.6498" height="91.6498" rx="45.8249" transform="rotate(-23.6547 17.6953 57.5967)" fill="white"/>
<g filter="url(#filter5_f_1967_8274)">
<circle cx="73.8974" cy="107.78" r="39.9518" transform="rotate(135.185 73.8974 107.78)" fill="#FDFF8F"/>
</g>
<g filter="url(#filter6_f_1967_8274)">
<circle cx="47.1206" cy="76.9232" r="29.2929" transform="rotate(135.185 47.1206 76.9232)" fill="#00FFF2"/>
</g>
<g filter="url(#filter7_f_1967_8274)">
<circle cx="55.3006" cy="100.299" r="21.4261" transform="rotate(135.185 55.3006 100.299)" fill="#004D7D"/>
</g>
<g filter="url(#filter8_f_1967_8274)">
<ellipse cx="114.929" cy="92.1325" rx="26.0739" ry="26.8575" transform="rotate(135.185 114.929 92.1325)" fill="#9EF7E7"/>
</g>
<g filter="url(#filter9_f_1967_8274)">
<ellipse cx="114.929" cy="92.1325" rx="26.0739" ry="26.8575" transform="rotate(135.185 114.929 92.1325)" fill="#9EF7E7"/>
</g>
<g filter="url(#filter10_f_1967_8274)">
<ellipse cx="90.3291" cy="43.9051" rx="17.641" ry="26.8575" transform="rotate(124.579 90.3291 43.9051)" fill="#FFD7F6"/>
</g>
<path d="M108.684 50.7087C109.011 50.605 109.387 50.7958 109.523 51.1406C110.426 53.4149 110.314 56.019 109.289 58.0986C108.168 60.3704 106.03 61.9906 103.592 62.5866C101.299 63.1486 98.7365 62.8124 96.5968 61.5352C94.6449 60.3715 93.1188 58.4945 92.5083 56.3161C92.4113 55.9634 92.5846 55.619 92.9119 55.5153L108.678 50.698L108.684 50.7087Z" fill="#181920"/>
<path d="M108.692 51.3646C109.389 51.2685 109.485 54.1546 109.476 54.5611C109.456 55.6635 109.207 56.769 108.724 57.7666C107.808 59.6392 106.11 61.0764 104.143 61.7433C99.6757 63.2437 95.0725 60.8484 93.3066 56.6282C93.0948 56.1269 93.0225 56.2621 93.3424 56.0837C93.5656 55.9614 93.8663 55.9233 94.1037 55.8502L96.8112 55.0262C99.2535 54.277 101.704 53.53 104.147 52.7808C105.719 52.2996 107.29 51.8185 108.862 51.3373C109.673 51.0896 109.33 49.8179 108.511 50.0633C103.983 51.4478 99.4667 52.8261 94.9392 54.2107C94.2378 54.4238 93.5154 54.6131 92.8242 54.8562C90.9686 55.5162 92.248 57.8089 92.968 58.9266C95.6645 63.1308 101.319 64.7158 105.793 62.4725C108.099 61.3147 109.869 59.1972 110.509 56.6883C110.842 55.3691 110.873 53.9879 110.637 52.6538C110.455 51.5973 110.1 49.8591 108.679 50.0445C107.852 50.1514 107.853 51.4777 108.692 51.3646Z" fill="#181920"/>
<path d="M101.758 52.1385L107.57 50.3601L105.02 53.5325L107.613 53.3412C107.724 53.3343 107.805 53.4739 107.736 53.5644L102.423 60.0529C102.341 60.1582 102.168 60.0577 102.195 59.9197L103.157 55.9615L99.7345 56.1959C99.6322 56.205 99.5552 56.0846 99.6077 55.9896L101.758 52.1385Z" fill="white"/>
<path d="M94.1227 55.3927C94.5738 55.2674 95.0743 55.5367 95.2483 56.0098C96.4005 59.1223 96.1584 62.6633 94.6928 65.4431C93.0957 68.4786 90.1303 70.6144 86.8026 71.3462C83.6778 72.032 80.1988 71.4885 77.3453 69.6855C74.7406 68.0394 72.7356 65.4358 71.9815 62.4654C71.863 61.9889 72.1148 61.52 72.5573 61.3925L94.1143 55.3904L94.1227 55.3927Z" fill="#181920"/>
<path d="M94.1308 56.2857C95.02 56.1861 95.0873 59.9638 95.0707 60.5043C95.0222 62.0534 94.6434 63.6146 93.9225 64.994C92.5969 67.5204 90.2442 69.4014 87.526 70.2317C81.4951 72.0792 75.1589 68.6873 73.0317 62.8545C72.7739 62.1503 72.7255 62.4007 73.125 62.1619C73.4171 61.9853 73.9011 61.9414 74.2323 61.8569L77.8407 60.8546C81.1649 59.9312 84.4913 58.9993 87.8155 58.0758C90.0023 57.4676 92.1808 56.8571 94.3677 56.2488C95.475 55.9438 95.0089 54.2125 93.8909 54.5237C87.7321 56.2374 81.5818 57.9533 75.423 59.6669C74.4417 59.9419 73.4271 60.1716 72.46 60.4957C69.959 61.3292 71.5589 64.3973 72.4771 65.931C75.9538 71.7775 83.5805 74.1412 89.752 71.2867C92.9825 69.7934 95.4928 66.91 96.436 63.4646C96.9023 61.745 96.9953 59.9262 96.7277 58.1658C96.5005 56.6978 96.1171 54.2801 94.1255 54.4953C92.9932 54.621 92.99 56.4093 94.1393 56.288L94.1308 56.2857Z" fill="#181920"/>
<path d="M83.4293 57.4533L91.3732 55.2425L87.7999 59.4599L91.3321 59.2911C91.4876 59.287 91.5912 59.478 91.4872 59.5957L84.0632 68.22C83.944 68.3609 83.7099 68.2169 83.7572 68.0388L85.2034 62.7019L80.5552 62.901C80.4082 62.9073 80.3148 62.7462 80.3848 62.6195L83.4271 57.4618L83.4293 57.4533Z" fill="white"/>
<g filter="url(#filter11_f_1967_8274)">
<ellipse cx="80.5635" cy="43.6207" rx="2.96351" ry="7.32262" transform="rotate(-95.2529 80.5635 43.6207)" fill="white"/>
</g>
<g filter="url(#filter12_f_1967_8274)">
<ellipse cx="65.7776" cy="47.7584" rx="1.53761" ry="2.73577" transform="rotate(-117.021 65.7776 47.7584)" fill="white"/>
</g>
</g>
</g>
<path d="M75.8242 78.6323C75.8242 78.6323 78.0619 83.5453 83.0098 82.6739" stroke="#181920" stroke-width="1.37475" stroke-miterlimit="10" stroke-linecap="round"/>
<g filter="url(#filter13_dii_1967_8274)">
<g clip-path="url(#clip2_1967_8274)">
<rect x="53.1016" y="21.249" width="11.9145" height="11.9145" rx="5.95724" transform="rotate(-11.9361 53.1016 21.249)" fill="white"/>
<g filter="url(#filter14_f_1967_8274)">
<circle cx="59.4604" cy="29.7633" r="5.19373" transform="rotate(146.904 59.4604 29.7633)" fill="#FDFF97"/>
</g>
<g filter="url(#filter15_f_1967_8274)">
<circle cx="55.6864" cy="24.9097" r="3.80808" transform="rotate(146.904 55.6864 24.9097)" fill="#D21CFF"/>
</g>
<g filter="url(#filter16_f_1967_8274)">
<ellipse cx="64.5673" cy="28.214" rx="3.38961" ry="3.49148" transform="rotate(146.904 64.5673 28.214)" fill="#F091FD"/>
</g>
<g filter="url(#filter17_f_1967_8274)">
<ellipse cx="64.5673" cy="28.214" rx="3.38961" ry="3.49148" transform="rotate(146.904 64.5673 28.214)" fill="#F091FD"/>
</g>
<g filter="url(#filter18_f_1967_8274)">
<ellipse cx="62.7091" cy="21.4246" rx="2.29332" ry="3.49148" transform="rotate(136.298 62.7091 21.4246)" fill="#FFD7F6"/>
</g>
</g>
</g>
<g filter="url(#filter19_di_1967_8274)">
<path d="M115.485 54.8947C117.116 57.172 118.543 59.6117 119.742 62.2077C126.129 62.9811 130.149 64.7101 130.713 67.3755C131.245 69.8958 128.614 72.8897 123.675 75.9925C114.944 81.4679 98.9378 87.2567 80.1719 91.2237C61.4061 95.1906 44.437 96.3724 34.2263 94.9012C28.454 94.0628 24.8365 92.3896 24.3037 89.8694C23.7403 87.2039 26.7163 83.9961 32.2443 80.7039C32.2905 77.8446 32.6077 75.0363 33.1773 72.2939C19.5444 79.358 11.5834 87.4009 13.0216 94.2046C14.4599 101.008 24.5286 104.936 39.2957 106.008C51.3206 106.879 66.4446 105.74 82.5326 102.34C98.6205 98.9388 112.901 93.8614 123.555 88.1962C136.638 81.2484 144.21 73.4177 142.805 66.7696C141.399 60.1215 130.832 55.8329 115.496 54.8925L115.485 54.8947Z" fill="url(#paint0_radial_1967_8274)"/>
<path d="M115.485 54.8947C117.116 57.172 118.543 59.6117 119.742 62.2077C126.129 62.9811 130.149 64.7101 130.713 67.3755C131.245 69.8958 128.614 72.8897 123.675 75.9925C114.944 81.4679 98.9378 87.2567 80.1719 91.2237C61.4061 95.1906 44.437 96.3724 34.2263 94.9012C28.454 94.0628 24.8365 92.3896 24.3037 89.8694C23.7403 87.2039 26.7163 83.9961 32.2443 80.7039C32.2905 77.8446 32.6077 75.0363 33.1773 72.2939C19.5444 79.358 11.5834 87.4009 13.0216 94.2046C14.4599 101.008 24.5286 104.936 39.2957 106.008C51.3206 106.879 66.4446 105.74 82.5326 102.34C98.6205 98.9388 112.901 93.8614 123.555 88.1962C136.638 81.2484 144.21 73.4177 142.805 66.7696C141.399 60.1215 130.832 55.8329 115.496 54.8925L115.485 54.8947Z" fill="url(#paint1_radial_1967_8274)" fill-opacity="0.5"/>
</g>
<mask id="mask0_1967_8274" style="mask-type:alpha" maskUnits="userSpaceOnUse" x="12" y="54" width="131" height="53">
<path d="M115.485 54.8947C117.116 57.172 118.543 59.6117 119.742 62.2077C126.129 62.9811 130.149 64.7101 130.713 67.3755C131.245 69.8958 128.614 72.8897 123.675 75.9925C114.944 81.4679 98.9378 87.2567 80.1719 91.2237C61.4061 95.1906 44.437 96.3724 34.2263 94.9012C28.454 94.0628 24.8365 92.3896 24.3037 89.8694C23.7403 87.2039 26.7163 83.9961 32.2443 80.7039C32.2905 77.8446 32.6077 75.0363 33.1773 72.2939C19.5444 79.358 11.5834 87.4009 13.0216 94.2046C14.4599 101.008 24.5286 104.936 39.2957 106.008C51.3206 106.879 66.4446 105.74 82.5326 102.34C98.6205 98.9388 112.901 93.8614 123.555 88.1962C136.638 81.2484 144.21 73.4177 142.805 66.7696C141.399 60.1215 130.832 55.8329 115.496 54.8925L115.485 54.8947Z" fill="url(#paint2_radial_1967_8274)"/>
<path d="M115.485 54.8947C117.116 57.172 118.543 59.6117 119.742 62.2077C126.129 62.9811 130.149 64.7101 130.713 67.3755C131.245 69.8958 128.614 72.8897 123.675 75.9925C114.944 81.4679 98.9378 87.2567 80.1719 91.2237C61.4061 95.1906 44.437 96.3724 34.2263 94.9012C28.454 94.0628 24.8365 92.3896 24.3037 89.8694C23.7403 87.2039 26.7163 83.9961 32.2443 80.7039C32.2905 77.8446 32.6077 75.0363 33.1773 72.2939C19.5444 79.358 11.5834 87.4009 13.0216 94.2046C14.4599 101.008 24.5286 104.936 39.2957 106.008C51.3206 106.879 66.4446 105.74 82.5326 102.34C98.6205 98.9388 112.901 93.8614 123.555 88.1962C136.638 81.2484 144.21 73.4177 142.805 66.7696C141.399 60.1215 130.832 55.8329 115.496 54.8925L115.485 54.8947Z" fill="url(#paint3_radial_1967_8274)" fill-opacity="0.5"/>
</mask>
<g mask="url(#mask0_1967_8274)">
<g filter="url(#filter20_f_1967_8274)">
<ellipse cx="33.1749" cy="84.1716" rx="12.0975" ry="8.61489" transform="rotate(-26.1819 33.1749 84.1716)" fill="#FFA136" fill-opacity="0.72" style="mix-blend-mode:multiply"/>
</g>
</g>
</g>
<g filter="url(#filter21_ii_1967_8274)">
<path d="M154.356 97.2349C154.742 97.5905 154.89 98.1241 154.741 98.628C154.593 99.1319 154.18 99.5002 153.662 99.5902L149.06 100.39C148.864 100.424 148.698 100.552 148.615 100.733L146.665 104.977C146.447 105.453 145.984 105.759 145.459 105.773C144.935 105.788 144.456 105.509 144.211 105.045L142.029 100.915C141.936 100.739 141.762 100.621 141.565 100.597L136.926 100.054C136.404 99.9935 135.971 99.6483 135.795 99.1534C135.619 98.6585 135.737 98.1176 136.102 97.7411L139.355 94.3898C139.493 94.2468 139.553 94.0447 139.514 93.85L138.598 89.2706C138.517 88.8676 138.612 88.4707 138.865 88.1527C139.259 87.6573 139.966 87.4901 140.543 87.7731L144.735 89.8311C144.911 89.9168 145.128 89.91 145.298 89.8155L149.37 87.5281C149.568 87.4167 149.781 87.3573 150.002 87.3511C150.406 87.3399 150.794 87.5089 151.066 87.8142C151.337 88.1175 151.454 88.5093 151.395 88.9155L150.734 93.5386C150.706 93.7356 150.776 93.9336 150.923 94.0688L154.356 97.2349Z" fill="url(#paint4_linear_1967_8274)"/>
<path d="M154.356 97.2349C154.742 97.5905 154.89 98.1241 154.741 98.628C154.593 99.1319 154.18 99.5002 153.662 99.5902L149.06 100.39C148.864 100.424 148.698 100.552 148.615 100.733L146.665 104.977C146.447 105.453 145.984 105.759 145.459 105.773C144.935 105.788 144.456 105.509 144.211 105.045L142.029 100.915C141.936 100.739 141.762 100.621 141.565 100.597L136.926 100.054C136.404 99.9935 135.971 99.6483 135.795 99.1534C135.619 98.6585 135.737 98.1176 136.102 97.7411L139.355 94.3898C139.493 94.2468 139.553 94.0447 139.514 93.85L138.598 89.2706C138.517 88.8676 138.612 88.4707 138.865 88.1527C139.259 87.6573 139.966 87.4901 140.543 87.7731L144.735 89.8311C144.911 89.9168 145.128 89.91 145.298 89.8155L149.37 87.5281C149.568 87.4167 149.781 87.3573 150.002 87.3511C150.406 87.3399 150.794 87.5089 151.066 87.8142C151.337 88.1175 151.454 88.5093 151.395 88.9155L150.734 93.5386C150.706 93.7356 150.776 93.9336 150.923 94.0688L154.356 97.2349Z" fill="url(#paint5_radial_1967_8274)"/>
</g>
<g filter="url(#filter22_f_1967_8274)">
<ellipse cx="0.825319" cy="2.82151" rx="0.825319" ry="2.82151" transform="matrix(-0.506129 -0.862458 -0.862458 0.506129 147.702 92.4238)" fill="white"/>
</g>
<g filter="url(#filter23_di_1967_8274)">
<path d="M133.764 37.5519C130.391 35.5743 128.574 38.8716 129.763 40.9606C129.763 40.9606 130.383 42.233 132.83 43.1166C133.467 43.3446 134.229 43.5514 135.14 43.7117C135.24 43.7309 135.344 43.7052 135.423 43.6416C136.154 43.0748 136.731 42.5361 137.188 42.0371C138.94 40.1137 138.894 38.6988 138.894 38.6988C138.97 36.2966 135.825 34.2284 133.764 37.5519Z" fill="url(#paint6_linear_1967_8274)"/>
</g>
<g filter="url(#filter24_ii_1967_8274)">
<path d="M138.247 19.1348L137.851 20.9571C137.519 22.4836 136.627 23.66 135.387 24.1898C134.609 24.5428 133.733 24.5971 132.876 24.411C132.346 24.2959 131.834 24.103 131.329 23.7977L123.555 19.1893L120.263 34.3448C119.376 38.4257 115.338 41.0228 111.257 40.1363C107.176 39.2499 104.579 35.2115 105.466 31.1306C106.352 27.0497 110.39 24.4526 114.471 25.3391C116.434 25.7654 118.04 26.9299 119.094 28.4636L122.663 12.0308C122.991 10.52 123.899 9.34691 125.143 8.80157C126.383 8.27179 127.853 8.41173 129.185 9.19028L135.569 12.991C137.535 14.1521 138.73 16.9074 138.247 19.1348Z" fill="url(#paint7_linear_1967_8274)"/>
<path d="M138.247 19.1348L137.851 20.9571C137.519 22.4836 136.627 23.66 135.387 24.1898C134.609 24.5428 133.733 24.5971 132.876 24.411C132.346 24.2959 131.834 24.103 131.329 23.7977L123.555 19.1893L120.263 34.3448C119.376 38.4257 115.338 41.0228 111.257 40.1363C107.176 39.2499 104.579 35.2115 105.466 31.1306C106.352 27.0497 110.39 24.4526 114.471 25.3391C116.434 25.7654 118.04 26.9299 119.094 28.4636L122.663 12.0308C122.991 10.52 123.899 9.34691 125.143 8.80157C126.383 8.27179 127.853 8.41173 129.185 9.19028L135.569 12.991C137.535 14.1521 138.73 16.9074 138.247 19.1348Z" fill="url(#paint8_radial_1967_8274)"/>
<g filter="url(#filter25_f_1967_8274)">
<ellipse cx="115.784" cy="28.7794" rx="1.53761" ry="0.981467" transform="rotate(-142.314 115.784 28.7794)" fill="white" fill-opacity="0.7"/>
</g>
<g filter="url(#filter26_f_1967_8274)">
<ellipse cx="135.255" cy="15.7605" rx="1.24456" ry="0.655377" transform="rotate(-126.209 135.255 15.7605)" fill="white" fill-opacity="0.7"/>
</g>
<g filter="url(#filter27_f_1967_8274)">
<path d="M131.216 12.3271C131.335 12.1466 132.098 12.4406 132.919 12.9838C133.74 13.5271 134.308 14.1138 134.189 14.2943C134.07 14.4748 133.307 14.1808 132.486 13.6376C131.665 13.0944 131.097 12.5077 131.216 12.3271Z" fill="white" fill-opacity="0.6"/>
</g>
</g>
<g filter="url(#filter28_ii_1967_8274)">
<path d="M82.4487 140.519C82.616 140.737 82.6442 141.026 82.5225 141.273C82.4005 141.52 82.1541 141.673 81.8788 141.673L79.4307 141.672C79.3264 141.672 79.2289 141.724 79.1698 141.809L77.782 143.826C77.6261 144.052 77.3598 144.168 77.0876 144.129C76.8156 144.089 76.5934 143.902 76.5085 143.641L75.7525 141.312C75.7204 141.213 75.6413 141.136 75.5413 141.106L73.1946 140.409C72.9308 140.331 72.7381 140.114 72.6915 139.842C72.6451 139.571 72.7545 139.302 72.977 139.141L74.9576 137.702C75.042 137.641 75.091 137.542 75.0884 137.438L75.0265 134.991C75.0207 134.775 75.1056 134.579 75.2651 134.438C75.513 134.217 75.8931 134.194 76.1655 134.392L78.1456 135.831C78.2284 135.891 78.3412 135.907 78.4374 135.874L80.7457 135.058C80.8579 135.019 80.9732 135.007 81.088 135.024C81.2976 135.054 81.4827 135.176 81.5957 135.358C81.7085 135.539 81.7336 135.752 81.6668 135.957L80.9101 138.285C80.8778 138.384 80.8966 138.493 80.9601 138.575L82.4487 140.519Z" fill="url(#paint9_linear_1967_8274)"/>
<path d="M82.4487 140.519C82.616 140.737 82.6442 141.026 82.5225 141.273C82.4005 141.52 82.1541 141.673 81.8788 141.673L79.4307 141.672C79.3264 141.672 79.2289 141.724 79.1698 141.809L77.782 143.826C77.6261 144.052 77.3598 144.168 77.0876 144.129C76.8156 144.089 76.5934 143.902 76.5085 143.641L75.7525 141.312C75.7204 141.213 75.6413 141.136 75.5413 141.106L73.1946 140.409C72.9308 140.331 72.7381 140.114 72.6915 139.842C72.6451 139.571 72.7545 139.302 72.977 139.141L74.9576 137.702C75.042 137.641 75.091 137.542 75.0884 137.438L75.0265 134.991C75.0207 134.775 75.1056 134.579 75.2651 134.438C75.513 134.217 75.8931 134.194 76.1655 134.392L78.1456 135.831C78.2284 135.891 78.3412 135.907 78.4374 135.874L80.7457 135.058C80.8579 135.019 80.9732 135.007 81.088 135.024C81.2976 135.054 81.4827 135.176 81.5957 135.358C81.7085 135.539 81.7336 135.752 81.6668 135.957L80.9101 138.285C80.8778 138.384 80.8966 138.493 80.9601 138.575L82.4487 140.519Z" fill="url(#paint10_radial_1967_8274)"/>
</g>
<g filter="url(#filter29_f_1967_8274)">
<path d="M79.0451 136.69C78.2803 136.977 77.7282 137.391 77.8121 137.614C77.8959 137.838 78.5839 137.787 79.3487 137.5C80.1135 137.214 80.6656 136.8 80.5818 136.577C80.498 136.353 79.81 136.404 79.0451 136.69Z" fill="white"/>
</g>
<g filter="url(#filter30_d_1967_8274)">
<g filter="url(#filter31_ii_1967_8274)">
<path d="M62.7403 119.779V143.432C62.7403 147.577 59.3703 150.947 55.2258 150.947C51.1022 150.947 47.7112 147.577 47.7112 143.432C47.7112 139.309 51.1022 135.939 55.2258 135.939C56.9841 135.939 58.554 136.546 59.8308 137.551V125.096L40.5525 130.58V147.472C40.5525 151.617 37.1616 154.987 33.038 154.987C28.8935 154.987 25.5234 151.617 25.5234 147.472C25.5234 143.349 28.8935 139.979 33.038 139.979C34.7753 139.979 36.3452 140.586 37.6221 141.569V123.066C37.6221 119.989 39.485 117.602 42.4364 116.807L54.535 113.5C56.9841 112.83 59.0563 113.06 60.5216 114.191C62.0077 115.3 62.7403 117.184 62.7403 119.779Z" fill="url(#paint11_linear_1967_8274)"/>
<path d="M62.7403 119.779V143.432C62.7403 147.577 59.3703 150.947 55.2258 150.947C51.1022 150.947 47.7112 147.577 47.7112 143.432C47.7112 139.309 51.1022 135.939 55.2258 135.939C56.9841 135.939 58.554 136.546 59.8308 137.551V125.096L40.5525 130.58V147.472C40.5525 151.617 37.1616 154.987 33.038 154.987C28.8935 154.987 25.5234 151.617 25.5234 147.472C25.5234 143.349 28.8935 139.979 33.038 139.979C34.7753 139.979 36.3452 140.586 37.6221 141.569V123.066C37.6221 119.989 39.485 117.602 42.4364 116.807L54.535 113.5C56.9841 112.83 59.0563 113.06 60.5216 114.191C62.0077 115.3 62.7403 117.184 62.7403 119.779Z" fill="url(#paint12_radial_1967_8274)"/>
</g>
<g filter="url(#filter32_f_1967_8274)">
<ellipse cx="59.243" cy="118.724" rx="1.30982" ry="4.47787" transform="rotate(169.812 59.243 118.724)" fill="white"/>
</g>
<g filter="url(#filter33_f_1967_8274)">
<path d="M56.351 140.075C55.6049 139.593 55.3182 138.71 55.7106 138.102C56.103 137.495 57.026 137.392 57.7721 137.874C58.5182 138.356 58.8049 139.239 58.4125 139.847C58.0201 140.455 57.0972 140.557 56.351 140.075Z" fill="white" fill-opacity="0.8"/>
<path d="M33.6404 143.475C32.8943 142.993 32.6076 142.11 33 141.502C33.3924 140.894 34.3154 140.792 35.0615 141.274C35.8076 141.756 36.0943 142.639 35.7019 143.247C35.3095 143.854 34.3865 143.956 33.6404 143.475Z" fill="white" fill-opacity="0.6"/>
</g>
</g>
</g>
<defs>
<filter id="filter0_f_1967_8274" x="24.0739" y="33.4596" width="78.6111" height="82.8899" filterUnits="userSpaceOnUse" color-interpolation-filters="sRGB">
<feFlood flood-opacity="0" result="BackgroundImageFix"/>
<feBlend mode="normal" in="SourceGraphic" in2="BackgroundImageFix" result="shape"/>
<feGaussianBlur stdDeviation="14.7009" result="effect1_foregroundBlur_1967_8274"/>
</filter>
<filter id="filter1_f_1967_8274" x="29.0055" y="33.8317" width="84.2019" height="107.703" filterUnits="userSpaceOnUse" color-interpolation-filters="sRGB">
<feFlood flood-opacity="0" result="BackgroundImageFix"/>
<feBlend mode="normal" in="SourceGraphic" in2="BackgroundImageFix" result="shape"/>
<feGaussianBlur stdDeviation="14.7009" result="effect1_foregroundBlur_1967_8274"/>
</filter>
<filter id="filter2_f_1967_8274" x="48.36" y="24.4596" width="77.1892" height="78.4709" filterUnits="userSpaceOnUse" color-interpolation-filters="sRGB">
<feFlood flood-opacity="0" result="BackgroundImageFix"/>
<feBlend mode="normal" in="SourceGraphic" in2="BackgroundImageFix" result="shape"/>
<feGaussianBlur stdDeviation="14.7009" result="effect1_foregroundBlur_1967_8274"/>
</filter>
<filter id="filter3_d_1967_8274" x="-2.18933" y="10.8111" width="157.587" height="142.374" filterUnits="userSpaceOnUse" color-interpolation-filters="sRGB">
<feFlood flood-opacity="0" result="BackgroundImageFix"/>
<feColorMatrix in="SourceAlpha" type="matrix" values="0 0 0 0 0 0 0 0 0 0 0 0 0 0 0 0 0 0 127 0" result="hardAlpha"/>
<feOffset dx="-1.833" dy="1.833"/>
<feGaussianBlur stdDeviation="4.90327"/>
<feComposite in2="hardAlpha" operator="out"/>
<feColorMatrix type="matrix" values="0 0 0 0 0 0 0 0 0 0 0 0 0 0 0 0 0 0 0.25 0"/>
<feBlend mode="normal" in2="BackgroundImageFix" result="effect1_dropShadow_1967_8274"/>
<feBlend mode="normal" in="SourceGraphic" in2="effect1_dropShadow_1967_8274" result="shape"/>
</filter>
<filter id="filter4_ii_1967_8274" x="16.3206" y="18.9917" width="128.054" height="124.387" filterUnits="userSpaceOnUse" color-interpolation-filters="sRGB">
<feFlood flood-opacity="0" result="BackgroundImageFix"/>
<feBlend mode="normal" in="SourceGraphic" in2="BackgroundImageFix" result="shape"/>
<feColorMatrix in="SourceAlpha" type="matrix" values="0 0 0 0 0 0 0 0 0 0 0 0 0 0 0 0 0 0 127 0" result="hardAlpha"/>
<feOffset dx="5.95724" dy="1.833"/>
<feGaussianBlur stdDeviation="4.58249"/>
<feComposite in2="hardAlpha" operator="arithmetic" k2="-1" k3="1"/>
<feColorMatrix type="matrix" values="0 0 0 0 1 0 0 0 0 1 0 0 0 0 1 0 0 0 0.6 0"/>
<feBlend mode="normal" in2="shape" result="effect1_innerShadow_1967_8274"/>
<feColorMatrix in="SourceAlpha" type="matrix" values="0 0 0 0 0 0 0 0 0 0 0 0 0 0 0 0 0 0 127 0" result="hardAlpha"/>
<feOffset dx="-1.37475" dy="-1.833"/>
<feGaussianBlur stdDeviation="4.12424"/>
<feComposite in2="hardAlpha" operator="arithmetic" k2="-1" k3="1"/>
<feColorMatrix type="matrix" values="0 0 0 0 1 0 0 0 0 1 0 0 0 0 1 0 0 0 0.78 0"/>
<feBlend mode="normal" in2="effect1_innerShadow_1967_8274" result="effect2_innerShadow_1967_8274"/>
</filter>
<filter id="filter5_f_1967_8274" x="-17.4547" y="16.4286" width="182.704" height="182.703" filterUnits="userSpaceOnUse" color-interpolation-filters="sRGB">
<feFlood flood-opacity="0" result="BackgroundImageFix"/>
<feBlend mode="normal" in="SourceGraphic" in2="BackgroundImageFix" result="shape"/>
<feGaussianBlur stdDeviation="25.7" result="effect1_foregroundBlur_1967_8274"/>
</filter>
<filter id="filter6_f_1967_8274" x="-23.3685" y="6.43376" width="140.978" height="140.979" filterUnits="userSpaceOnUse" color-interpolation-filters="sRGB">
<feFlood flood-opacity="0" result="BackgroundImageFix"/>
<feBlend mode="normal" in="SourceGraphic" in2="BackgroundImageFix" result="shape"/>
<feGaussianBlur stdDeviation="20.5983" result="effect1_foregroundBlur_1967_8274"/>
</filter>
<filter id="filter7_f_1967_8274" x="-10.526" y="34.4735" width="131.653" height="131.652" filterUnits="userSpaceOnUse" color-interpolation-filters="sRGB">
<feFlood flood-opacity="0" result="BackgroundImageFix"/>
<feBlend mode="normal" in="SourceGraphic" in2="BackgroundImageFix" result="shape"/>
<feGaussianBlur stdDeviation="22.2" result="effect1_foregroundBlur_1967_8274"/>
</filter>
<filter id="filter8_f_1967_8274" x="33.473" y="10.6712" width="162.912" height="162.922" filterUnits="userSpaceOnUse" color-interpolation-filters="sRGB">
<feFlood flood-opacity="0" result="BackgroundImageFix"/>
<feBlend mode="normal" in="SourceGraphic" in2="BackgroundImageFix" result="shape"/>
<feGaussianBlur stdDeviation="27.495" result="effect1_foregroundBlur_1967_8274"/>
</filter>
<filter id="filter9_f_1967_8274" x="33.473" y="10.6712" width="162.912" height="162.922" filterUnits="userSpaceOnUse" color-interpolation-filters="sRGB">
<feFlood flood-opacity="0" result="BackgroundImageFix"/>
<feBlend mode="normal" in="SourceGraphic" in2="BackgroundImageFix" result="shape"/>
<feGaussianBlur stdDeviation="27.495" result="effect1_foregroundBlur_1967_8274"/>
</filter>
<filter id="filter10_f_1967_8274" x="11.0589" y="-32.1398" width="158.54" height="152.09" filterUnits="userSpaceOnUse" color-interpolation-filters="sRGB">
<feFlood flood-opacity="0" result="BackgroundImageFix"/>
<feBlend mode="normal" in="SourceGraphic" in2="BackgroundImageFix" result="shape"/>
<feGaussianBlur stdDeviation="27.495" result="effect1_foregroundBlur_1967_8274"/>
</filter>
<filter id="filter11_f_1967_8274" x="70.4916" y="37.8188" width="20.1437" height="11.6036" filterUnits="userSpaceOnUse" color-interpolation-filters="sRGB">
<feFlood flood-opacity="0" result="BackgroundImageFix"/>
<feBlend mode="normal" in="SourceGraphic" in2="BackgroundImageFix" result="shape"/>
<feGaussianBlur stdDeviation="1.38748" result="effect1_foregroundBlur_1967_8274"/>
</filter>
<filter id="filter12_f_1967_8274" x="60.4672" y="43.1337" width="10.6212" height="9.24913" filterUnits="userSpaceOnUse" color-interpolation-filters="sRGB">
<feFlood flood-opacity="0" result="BackgroundImageFix"/>
<feBlend mode="normal" in="SourceGraphic" in2="BackgroundImageFix" result="shape"/>
<feGaussianBlur stdDeviation="1.38748" result="effect1_foregroundBlur_1967_8274"/>
</filter>
<filter id="filter13_dii_1967_8274" x="37.0873" y="4.60339" width="46.1497" height="46.1497" filterUnits="userSpaceOnUse" color-interpolation-filters="sRGB">
<feFlood flood-opacity="0" result="BackgroundImageFix"/>
<feColorMatrix in="SourceAlpha" type="matrix" values="0 0 0 0 0 0 0 0 0 0 0 0 0 0 0 0 0 0 127 0" result="hardAlpha"/>
<feMorphology radius="3" operator="dilate" in="SourceAlpha" result="effect1_dropShadow_1967_8274"/>
<feOffset dy="1.833"/>
<feGaussianBlur stdDeviation="6.50714"/>
<feComposite in2="hardAlpha" operator="out"/>
<feColorMatrix type="matrix" values="0 0 0 0 1 0 0 0 0 0.843137 0 0 0 0 0.964706 0 0 0 0.81 0"/>
<feBlend mode="normal" in2="BackgroundImageFix" result="effect1_dropShadow_1967_8274"/>
<feBlend mode="normal" in="SourceGraphic" in2="effect1_dropShadow_1967_8274" result="shape"/>
<feColorMatrix in="SourceAlpha" type="matrix" values="0 0 0 0 0 0 0 0 0 0 0 0 0 0 0 0 0 0 127 0" result="hardAlpha"/>
<feOffset dx="0.774441" dy="0.23829"/>
<feGaussianBlur stdDeviation="0.595724"/>
<feComposite in2="hardAlpha" operator="arithmetic" k2="-1" k3="1"/>
<feColorMatrix type="matrix" values="0 0 0 0 1 0 0 0 0 1 0 0 0 0 1 0 0 0 0.6 0"/>
<feBlend mode="normal" in2="shape" result="effect2_innerShadow_1967_8274"/>
<feColorMatrix in="SourceAlpha" type="matrix" values="0 0 0 0 0 0 0 0 0 0 0 0 0 0 0 0 0 0 127 0" result="hardAlpha"/>
<feOffset dx="-0.178717" dy="-0.23829"/>
<feGaussianBlur stdDeviation="0.536152"/>
<feComposite in2="hardAlpha" operator="arithmetic" k2="-1" k3="1"/>
<feColorMatrix type="matrix" values="0 0 0 0 1 0 0 0 0 1 0 0 0 0 1 0 0 0 0.78 0"/>
<feBlend mode="normal" in2="effect2_innerShadow_1967_8274" result="effect3_innerShadow_1967_8274"/>
</filter>
<filter id="filter14_f_1967_8274" x="47.1169" y="17.4202" width="24.6861" height="24.6861" filterUnits="userSpaceOnUse" color-interpolation-filters="sRGB">
<feFlood flood-opacity="0" result="BackgroundImageFix"/>
<feBlend mode="normal" in="SourceGraphic" in2="BackgroundImageFix" result="shape"/>
<feGaussianBlur stdDeviation="3.57435" result="effect1_foregroundBlur_1967_8274"/>
</filter>
<filter id="filter15_f_1967_8274" x="44.7292" y="13.9524" width="21.9146" height="21.9146" filterUnits="userSpaceOnUse" color-interpolation-filters="sRGB">
<feFlood flood-opacity="0" result="BackgroundImageFix"/>
<feBlend mode="normal" in="SourceGraphic" in2="BackgroundImageFix" result="shape"/>
<feGaussianBlur stdDeviation="3.57435" result="effect1_foregroundBlur_1967_8274"/>
</filter>
<filter id="filter16_f_1967_8274" x="53.9978" y="17.6033" width="21.1392" height="21.2212" filterUnits="userSpaceOnUse" color-interpolation-filters="sRGB">
<feFlood flood-opacity="0" result="BackgroundImageFix"/>
<feBlend mode="normal" in="SourceGraphic" in2="BackgroundImageFix" result="shape"/>
<feGaussianBlur stdDeviation="3.57435" result="effect1_foregroundBlur_1967_8274"/>
</filter>
<filter id="filter17_f_1967_8274" x="53.9978" y="17.6033" width="21.1392" height="21.2212" filterUnits="userSpaceOnUse" color-interpolation-filters="sRGB">
<feFlood flood-opacity="0" result="BackgroundImageFix"/>
<feBlend mode="normal" in="SourceGraphic" in2="BackgroundImageFix" result="shape"/>
<feGaussianBlur stdDeviation="3.57435" result="effect1_foregroundBlur_1967_8274"/>
</filter>
<filter id="filter18_f_1967_8274" x="52.6326" y="11.2952" width="20.1528" height="20.2588" filterUnits="userSpaceOnUse" color-interpolation-filters="sRGB">
<feFlood flood-opacity="0" result="BackgroundImageFix"/>
<feBlend mode="normal" in="SourceGraphic" in2="BackgroundImageFix" result="shape"/>
<feGaussianBlur stdDeviation="3.57435" result="effect1_foregroundBlur_1967_8274"/>
</filter>
<filter id="filter19_di_1967_8274" x="7.63045" y="51.5015" width="140.565" height="61.8441" filterUnits="userSpaceOnUse" color-interpolation-filters="sRGB">
<feFlood flood-opacity="0" result="BackgroundImageFix"/>
<feColorMatrix in="SourceAlpha" type="matrix" values="0 0 0 0 0 0 0 0 0 0 0 0 0 0 0 0 0 0 127 0" result="hardAlpha"/>
<feOffset dy="1.833"/>
<feGaussianBlur stdDeviation="2.61202"/>
<feComposite in2="hardAlpha" operator="out"/>
<feColorMatrix type="matrix" values="0 0 0 0 0 0 0 0 0 0 0 0 0 0 0 0 0 0 0.1 0"/>
<feBlend mode="normal" in2="BackgroundImageFix" result="effect1_dropShadow_1967_8274"/>
<feBlend mode="normal" in="SourceGraphic" in2="effect1_dropShadow_1967_8274" result="shape"/>
<feColorMatrix in="SourceAlpha" type="matrix" values="0 0 0 0 0 0 0 0 0 0 0 0 0 0 0 0 0 0 127 0" result="hardAlpha"/>
<feOffset dx="2"/>
<feGaussianBlur stdDeviation="2.25"/>
<feComposite in2="hardAlpha" operator="arithmetic" k2="-1" k3="1"/>
<feColorMatrix type="matrix" values="0 0 0 0 1 0 0 0 0 1 0 0 0 0 1 0 0 0 0.35 0"/>
<feBlend mode="normal" in2="shape" result="effect2_innerShadow_1967_8274"/>
</filter>
<filter id="filter20_f_1967_8274" x="17.6689" y="70.7764" width="31.0117" height="26.7905" filterUnits="userSpaceOnUse" color-interpolation-filters="sRGB">
<feFlood flood-opacity="0" result="BackgroundImageFix"/>
<feBlend mode="normal" in="SourceGraphic" in2="BackgroundImageFix" result="shape"/>
<feGaussianBlur stdDeviation="2" result="effect1_foregroundBlur_1967_8274"/>
</filter>
<filter id="filter21_ii_1967_8274" x="134.985" y="86.864" width="19.8129" height="18.9099" filterUnits="userSpaceOnUse" color-interpolation-filters="sRGB">
<feFlood flood-opacity="0" result="BackgroundImageFix"/>
<feBlend mode="normal" in="SourceGraphic" in2="BackgroundImageFix" result="shape"/>
<feColorMatrix in="SourceAlpha" type="matrix" values="0 0 0 0 0 0 0 0 0 0 0 0 0 0 0 0 0 0 127 0" result="hardAlpha"/>
<feOffset dy="-0.4866"/>
<feGaussianBlur stdDeviation="3.1629"/>
<feComposite in2="hardAlpha" operator="arithmetic" k2="-1" k3="1"/>
<feColorMatrix type="matrix" values="0 0 0 0 1 0 0 0 0 1 0 0 0 0 1 0 0 0 0.7 0"/>
<feBlend mode="normal" in2="shape" result="effect1_innerShadow_1967_8274"/>
<feColorMatrix in="SourceAlpha" type="matrix" values="0 0 0 0 0 0 0 0 0 0 0 0 0 0 0 0 0 0 127 0" result="hardAlpha"/>
<feOffset dx="-0.7299"/>
<feGaussianBlur stdDeviation="2.79795"/>
<feComposite in2="hardAlpha" operator="arithmetic" k2="-1" k3="1"/>
<feColorMatrix type="matrix" values="0 0 0 0 1 0 0 0 0 1 0 0 0 0 1 0 0 0 1 0"/>
<feBlend mode="normal" in2="effect1_innerShadow_1967_8274" result="effect2_innerShadow_1967_8274"/>
</filter>
<filter id="filter22_f_1967_8274" x="139.949" y="89.1109" width="9.80447" height="8.05789" filterUnits="userSpaceOnUse" color-interpolation-filters="sRGB">
<feFlood flood-opacity="0" result="BackgroundImageFix"/>
<feBlend mode="normal" in="SourceGraphic" in2="BackgroundImageFix" result="shape"/>
<feGaussianBlur stdDeviation="1.2165" result="effect1_foregroundBlur_1967_8274"/>
</filter>
<filter id="filter23_di_1967_8274" x="127.565" y="34.8687" width="13.1631" height="11.682" filterUnits="userSpaceOnUse" color-interpolation-filters="sRGB">
<feFlood flood-opacity="0" result="BackgroundImageFix"/>
<feColorMatrix in="SourceAlpha" type="matrix" values="0 0 0 0 0 0 0 0 0 0 0 0 0 0 0 0 0 0 127 0" result="hardAlpha"/>
<feOffset dy="1"/>
<feGaussianBlur stdDeviation="0.916498"/>
<feComposite in2="hardAlpha" operator="out"/>
<feColorMatrix type="matrix" values="0 0 0 0 0 0 0 0 0 0 0 0 0 0 0 0 0 0 0.25 0"/>
<feBlend mode="normal" in2="BackgroundImageFix" result="effect1_dropShadow_1967_8274"/>
<feBlend mode="normal" in="SourceGraphic" in2="effect1_dropShadow_1967_8274" result="shape"/>
<feColorMatrix in="SourceAlpha" type="matrix" values="0 0 0 0 0 0 0 0 0 0 0 0 0 0 0 0 0 0 127 0" result="hardAlpha"/>
<feOffset dx="0.740497" dy="-0.952068"/>
<feGaussianBlur stdDeviation="2.69753"/>
<feComposite in2="hardAlpha" operator="arithmetic" k2="-1" k3="1"/>
<feColorMatrix type="matrix" values="0 0 0 0 1 0 0 0 0 1 0 0 0 0 1 0 0 0 1 0"/>
<feBlend mode="normal" in2="shape" result="effect2_innerShadow_1967_8274"/>
</filter>
<filter id="filter24_ii_1967_8274" x="104.658" y="8.48535" width="33.6964" height="33.1995" filterUnits="userSpaceOnUse" color-interpolation-filters="sRGB">
<feFlood flood-opacity="0" result="BackgroundImageFix"/>
<feBlend mode="normal" in="SourceGraphic" in2="BackgroundImageFix" result="shape"/>
<feColorMatrix in="SourceAlpha" type="matrix" values="0 0 0 0 0 0 0 0 0 0 0 0 0 0 0 0 0 0 127 0" result="hardAlpha"/>
<feOffset dx="-0.633924"/>
<feGaussianBlur stdDeviation="2.43004"/>
<feComposite in2="hardAlpha" operator="arithmetic" k2="-1" k3="1"/>
<feColorMatrix type="matrix" values="0 0 0 0 1 0 0 0 0 1 0 0 0 0 1 0 0 0 1 0"/>
<feBlend mode="normal" in2="shape" result="effect1_innerShadow_1967_8274"/>
<feColorMatrix in="SourceAlpha" type="matrix" values="0 0 0 0 0 0 0 0 0 0 0 0 0 0 0 0 0 0 127 0" result="hardAlpha"/>
<feOffset dy="1.37475"/>
<feGaussianBlur stdDeviation="2.33707"/>
<feComposite in2="hardAlpha" operator="arithmetic" k2="-1" k3="1"/>
<feColorMatrix type="matrix" values="0 0 0 0 1 0 0 0 0 1 0 0 0 0 1 0 0 0 0.65 0"/>
<feBlend mode="normal" in2="effect1_innerShadow_1967_8274" result="effect2_innerShadow_1967_8274"/>
</filter>
<filter id="filter25_f_1967_8274" x="113.427" y="26.5601" width="4.71387" height="4.43896" filterUnits="userSpaceOnUse" color-interpolation-filters="sRGB">
<feFlood flood-opacity="0" result="BackgroundImageFix"/>
<feBlend mode="normal" in="SourceGraphic" in2="BackgroundImageFix" result="shape"/>
<feGaussianBlur stdDeviation="0.5" result="effect1_foregroundBlur_1967_8274"/>
</filter>
<filter id="filter26_f_1967_8274" x="133.349" y="13.6841" width="3.81152" height="4.15283" filterUnits="userSpaceOnUse" color-interpolation-filters="sRGB">
<feFlood flood-opacity="0" result="BackgroundImageFix"/>
<feBlend mode="normal" in="SourceGraphic" in2="BackgroundImageFix" result="shape"/>
<feGaussianBlur stdDeviation="0.5" result="effect1_foregroundBlur_1967_8274"/>
</filter>
<filter id="filter27_f_1967_8274" x="130.7" y="11.7739" width="4.00488" height="3.07373" filterUnits="userSpaceOnUse" color-interpolation-filters="sRGB">
<feFlood flood-opacity="0" result="BackgroundImageFix"/>
<feBlend mode="normal" in="SourceGraphic" in2="BackgroundImageFix" result="shape"/>
<feGaussianBlur stdDeviation="0.25" result="effect1_foregroundBlur_1967_8274"/>
</filter>
<filter id="filter28_ii_1967_8274" x="72.4057" y="134.074" width="10.1919" height="10.0632" filterUnits="userSpaceOnUse" color-interpolation-filters="sRGB">
<feFlood flood-opacity="0" result="BackgroundImageFix"/>
<feBlend mode="normal" in="SourceGraphic" in2="BackgroundImageFix" result="shape"/>
<feColorMatrix in="SourceAlpha" type="matrix" values="0 0 0 0 0 0 0 0 0 0 0 0 0 0 0 0 0 0 127 0" result="hardAlpha"/>
<feOffset dy="-0.183293"/>
<feGaussianBlur stdDeviation="1.19141"/>
<feComposite in2="hardAlpha" operator="arithmetic" k2="-1" k3="1"/>
<feColorMatrix type="matrix" values="0 0 0 0 1 0 0 0 0 1 0 0 0 0 1 0 0 0 0.7 0"/>
<feBlend mode="normal" in2="shape" result="effect1_innerShadow_1967_8274"/>
<feColorMatrix in="SourceAlpha" type="matrix" values="0 0 0 0 0 0 0 0 0 0 0 0 0 0 0 0 0 0 127 0" result="hardAlpha"/>
<feOffset dx="-0.27494"/>
<feGaussianBlur stdDeviation="1.05394"/>
<feComposite in2="hardAlpha" operator="arithmetic" k2="-1" k3="1"/>
<feColorMatrix type="matrix" values="0 0 0 0 1 0 0 0 0 1 0 0 0 0 1 0 0 0 1 0"/>
<feBlend mode="normal" in2="effect1_innerShadow_1967_8274" result="effect2_innerShadow_1967_8274"/>
</filter>
<filter id="filter29_f_1967_8274" x="76.8872" y="135.521" width="4.61906" height="3.14983" filterUnits="userSpaceOnUse" color-interpolation-filters="sRGB">
<feFlood flood-opacity="0" result="BackgroundImageFix"/>
<feBlend mode="normal" in="SourceGraphic" in2="BackgroundImageFix" result="shape"/>
<feGaussianBlur stdDeviation="0.458233" result="effect1_foregroundBlur_1967_8274"/>
</filter>
<filter id="filter30_d_1967_8274" x="19.7495" y="106.894" width="52.4307" height="57.0747" filterUnits="userSpaceOnUse" color-interpolation-filters="sRGB">
<feFlood flood-opacity="0" result="BackgroundImageFix"/>
<feColorMatrix in="SourceAlpha" type="matrix" values="0 0 0 0 0 0 0 0 0 0 0 0 0 0 0 0 0 0 127 0" result="hardAlpha"/>
<feOffset dx="1.833" dy="1.37475"/>
<feGaussianBlur stdDeviation="3.80347"/>
<feComposite in2="hardAlpha" operator="out"/>
<feColorMatrix type="matrix" values="0 0 0 0 0 0 0 0 0 0 0 0 0 0 0 0 0 0 0.25 0"/>
<feBlend mode="normal" in2="BackgroundImageFix" result="effect1_dropShadow_1967_8274"/>
<feBlend mode="normal" in="SourceGraphic" in2="effect1_dropShadow_1967_8274" result="shape"/>
</filter>
<filter id="filter31_ii_1967_8274" x="25.5234" y="112.571" width="37.2168" height="43.2483" filterUnits="userSpaceOnUse" color-interpolation-filters="sRGB">
<feFlood flood-opacity="0" result="BackgroundImageFix"/>
<feBlend mode="normal" in="SourceGraphic" in2="BackgroundImageFix" result="shape"/>
<feColorMatrix in="SourceAlpha" type="matrix" values="0 0 0 0 0 0 0 0 0 0 0 0 0 0 0 0 0 0 127 0" result="hardAlpha"/>
<feOffset dy="0.832486"/>
<feGaussianBlur stdDeviation="0.554991"/>
<feComposite in2="hardAlpha" operator="arithmetic" k2="-1" k3="1"/>
<feColorMatrix type="matrix" values="0 0 0 0 1 0 0 0 0 1 0 0 0 0 1 0 0 0 0.69 0"/>
<feBlend mode="normal" in2="shape" result="effect1_innerShadow_1967_8274"/>
<feColorMatrix in="SourceAlpha" type="matrix" values="0 0 0 0 0 0 0 0 0 0 0 0 0 0 0 0 0 0 127 0" result="hardAlpha"/>
<feOffset dy="-0.554991"/>
<feGaussianBlur stdDeviation="2.05347"/>
<feComposite in2="hardAlpha" operator="arithmetic" k2="-1" k3="1"/>
<feColorMatrix type="matrix" values="0 0 0 0 1 0 0 0 0 1 0 0 0 0 1 0 0 0 1 0"/>
<feBlend mode="normal" in2="effect1_innerShadow_1967_8274" result="effect2_innerShadow_1967_8274"/>
</filter>
<filter id="filter32_f_1967_8274" x="54.9545" y="111.536" width="8.57627" height="14.3766" filterUnits="userSpaceOnUse" color-interpolation-filters="sRGB">
<feFlood flood-opacity="0" result="BackgroundImageFix"/>
<feBlend mode="normal" in="SourceGraphic" in2="BackgroundImageFix" result="shape"/>
<feGaussianBlur stdDeviation="1.38748" result="effect1_foregroundBlur_1967_8274"/>
</filter>
<filter id="filter33_f_1967_8274" x="30.5242" y="135.27" width="30.3637" height="10.808" filterUnits="userSpaceOnUse" color-interpolation-filters="sRGB">
<feFlood flood-opacity="0" result="BackgroundImageFix"/>
<feBlend mode="normal" in="SourceGraphic" in2="BackgroundImageFix" result="shape"/>
<feGaussianBlur stdDeviation="1.15" result="effect1_foregroundBlur_1967_8274"/>
</filter>
<radialGradient id="paint0_radial_1967_8274" cx="0" cy="0" r="1" gradientTransform="matrix(63.5228 -10.296 3.06656 18.9668 78.4782 80.7965)" gradientUnits="userSpaceOnUse">
<stop offset="0.735577" stop-color="white"/>
<stop offset="0.860577" stop-color="#FFFFC0"/>
<stop offset="0.947115" stop-color="#FFFFC0"/>
</radialGradient>
<radialGradient id="paint1_radial_1967_8274" cx="0" cy="0" r="1" gradientUnits="userSpaceOnUse" gradientTransform="translate(29.501 84.5005) rotate(17.628) scale(56.136 87.4534)">
<stop offset="0.139423" stop-color="#E38740"/>
<stop offset="0.668269" stop-color="#FF8989" stop-opacity="0"/>
</radialGradient>
<radialGradient id="paint2_radial_1967_8274" cx="0" cy="0" r="1" gradientTransform="matrix(63.5228 -10.296 3.06656 18.9668 78.4782 80.7965)" gradientUnits="userSpaceOnUse">
<stop offset="0.735577" stop-color="white"/>
<stop offset="1" stop-color="#FFFFC0"/>
</radialGradient>
<radialGradient id="paint3_radial_1967_8274" cx="0" cy="0" r="1" gradientUnits="userSpaceOnUse" gradientTransform="translate(29.501 84.5005) rotate(17.628) scale(56.136 87.4534)">
<stop offset="0.139423" stop-color="#E38740"/>
<stop offset="0.668269" stop-color="#FF8989" stop-opacity="0"/>
</radialGradient>
<linearGradient id="paint4_linear_1967_8274" x1="150.914" y1="101.224" x2="140.333" y2="87.6195" gradientUnits="userSpaceOnUse">
<stop stop-color="#2EEAE1"/>
<stop offset="1" stop-color="#A2A8FF"/>
</linearGradient>
<radialGradient id="paint5_radial_1967_8274" cx="0" cy="0" r="1" gradientTransform="matrix(10.1728 -10.955 -11.4097 -9.72079 141.083 100.997)" gradientUnits="userSpaceOnUse">
<stop stop-color="white"/>
<stop offset="0.464944" stop-color="white" stop-opacity="0"/>
</radialGradient>
<linearGradient id="paint6_linear_1967_8274" x1="138.501" y1="37" x2="129.501" y2="41" gradientUnits="userSpaceOnUse">
<stop stop-color="#FF8356"/>
<stop offset="1" stop-color="#FFFFCC"/>
</linearGradient>
<linearGradient id="paint7_linear_1967_8274" x1="106.606" y1="39.2961" x2="139.059" y2="22.9417" gradientUnits="userSpaceOnUse">
<stop stop-color="#315DF3"/>
<stop offset="0.403846" stop-color="#7CF1DC"/>
</linearGradient>
<radialGradient id="paint8_radial_1967_8274" cx="0" cy="0" r="1" gradientUnits="userSpaceOnUse" gradientTransform="translate(124.787 19.1251) rotate(103.973) scale(13.1143 18.1594)">
<stop stop-color="white"/>
<stop offset="0.480908" stop-color="white" stop-opacity="0"/>
</radialGradient>
<linearGradient id="paint9_linear_1967_8274" x1="80.3128" y1="142.269" x2="76.0706" y2="134.294" gradientUnits="userSpaceOnUse">
<stop stop-color="#2EEAE1"/>
<stop offset="1" stop-color="#A2A8FF"/>
</linearGradient>
<radialGradient id="paint10_radial_1967_8274" cx="0" cy="0" r="1" gradientTransform="matrix(6.23705 -4.74344 -5.01884 -6.04446 75.2565 141.269)" gradientUnits="userSpaceOnUse">
<stop stop-color="white"/>
<stop offset="0.464944" stop-color="white" stop-opacity="0"/>
</radialGradient>
<linearGradient id="paint11_linear_1967_8274" x1="49.5" y1="127.501" x2="62.0019" y2="153" gradientUnits="userSpaceOnUse">
<stop stop-color="#EE8998"/>
<stop offset="0.894231" stop-color="#6B3FFF"/>
<stop offset="1" stop-color="#BEA0FF"/>
</linearGradient>
<radialGradient id="paint12_radial_1967_8274" cx="0" cy="0" r="1" gradientTransform="matrix(20.8131 26.1654 -23.217 23.3556 35.466 122.585)" gradientUnits="userSpaceOnUse">
<stop stop-color="white"/>
<stop offset="0.464944" stop-color="white" stop-opacity="0"/>
</radialGradient>
<clipPath id="clip0_1967_8274">
<rect width="160" height="160" fill="white" transform="translate(0.5)"/>
</clipPath>
<clipPath id="clip1_1967_8274">
<rect x="17.6953" y="57.5967" width="91.6498" height="91.6498" rx="45.8249" transform="rotate(-23.6547 17.6953 57.5967)" fill="white"/>
</clipPath>
<clipPath id="clip2_1967_8274">
<rect x="53.1016" y="21.249" width="11.9145" height="11.9145" rx="5.95724" transform="rotate(-11.9361 53.1016 21.249)" fill="white"/>
</clipPath>
</defs>
</svg>
