<svg width="24" height="24" viewBox="0 0 24 24" fill="none" xmlns="http://www.w3.org/2000/svg">
<path d="M18.2715 3.09252C19.2746 2.91408 20.2577 2.93904 20.9839 3.6653C21.7102 4.39155 21.7352 5.37463 21.5567 6.37772C21.3797 7.37269 20.9508 8.65942 20.4178 10.2582L18.6394 15.5935C18.0543 17.3488 17.5866 18.752 17.0979 19.7263C16.6113 20.6963 15.9646 21.5277 14.8855 21.6376C13.8065 21.7475 13.0054 21.0636 12.3332 20.2117C11.6581 19.356 10.917 18.0759 9.98998 16.4746L9.75189 16.0634C9.7476 16.056 9.74335 16.0486 9.73915 16.0414L14.2224 11.5581C14.5348 11.2457 14.5348 10.7392 14.2224 10.4267C13.91 10.1143 13.4035 10.1143 13.0911 10.4267L8.60777 14.91C8.60054 14.9058 8.59324 14.9016 8.58584 14.8973L8.1745 14.6592C6.57329 13.7322 5.29321 12.9911 4.43752 12.316C3.58562 11.6438 2.90171 10.8428 3.01163 9.76369C3.12156 8.68463 3.95296 8.03791 4.92291 7.55136C5.89718 7.06264 7.30044 6.59491 9.05573 6.00984L14.391 4.2314C15.9898 3.69844 17.2765 3.26952 18.2715 3.09252Z" />
</svg>
