<svg width="20" height="20" viewBox="0 0 20 20" fill="none" xmlns="http://www.w3.org/2000/svg">
<path fill-rule="evenodd" clip-rule="evenodd" d="M10.0133 13.1167C10.5886 13.1167 11.055 13.5831 11.055 14.1584V14.2C11.055 14.7753 10.5886 15.2417 10.0133 15.2417C9.43805 15.2417 8.97168 14.7753 8.97168 14.2V14.1584C8.97168 13.5831 9.43805 13.1167 10.0133 13.1167Z" fill="#E6EDF8"/>
<path fill-rule="evenodd" clip-rule="evenodd" d="M10.0133 8.93896C10.5886 8.93896 11.055 9.40533 11.055 9.98063V10.0223C11.055 10.5976 10.5886 11.064 10.0133 11.064C9.43805 11.064 8.97168 10.5976 8.97168 10.0223V9.98063C8.97168 9.40533 9.43805 8.93896 10.0133 8.93896Z" fill="#E6EDF8"/>
<path fill-rule="evenodd" clip-rule="evenodd" d="M10.0133 4.76074C10.5886 4.76074 11.055 5.22711 11.055 5.80241V5.84408C11.055 6.41937 10.5886 6.88574 10.0133 6.88574C9.43805 6.88574 8.97168 6.41937 8.97168 5.84408V5.80241C8.97168 5.22711 9.43805 4.76074 10.0133 4.76074Z" fill="#E6EDF8"/>
</svg>
