<svg width="24" height="24" viewBox="0 0 24 24" fill="none" xmlns="http://www.w3.org/2000/svg">
<path d="M20.1 11.0434C20.9589 10.5538 21.2542 9.47588 20.7614 8.62964L19.8707 7.10038C19.3661 6.23387 18.2394 5.93566 17.3591 6.43561C16.1362 7.13022 14.6058 6.23325 14.6058 4.84662C14.6058 3.83678 13.7716 3 12.7425 3H11.0115C10.0073 3 9.19326 3.79885 9.19326 4.78429V4.91067C9.19326 6.22989 7.73649 7.05312 6.57377 6.39096C5.73862 5.91535 4.66862 6.19614 4.18686 7.01734L3.24117 8.62935C2.74508 9.47498 3.03916 10.5551 3.89895 11.0452C5.09457 11.7267 5.09197 13.4235 3.89878 14.1091C3.04002 14.6026 2.7445 15.6854 3.24101 16.5317L4.18686 18.144C4.66862 18.9652 5.74166 19.2443 6.57681 18.7687C7.73585 18.1086 9.19326 18.9262 9.19326 20.2413C9.19326 21.1835 9.97164 21.9474 10.9318 21.9474H12.8223C13.8073 21.9474 14.6058 21.1638 14.6058 20.1971C14.6058 18.849 16.0937 18.007 17.2828 18.6824L17.3591 18.7257C18.2394 19.2257 19.3661 18.9275 19.8707 18.061L20.7615 16.5314C21.2548 15.6845 20.958 14.6038 20.1002 14.1109C18.9056 13.4245 18.903 11.7258 20.1 11.0434Z" stroke="#FAFBFE" stroke-width="1.5"/>
<path d="M15.2159 12.4737C15.2159 14.2177 13.7752 15.6316 11.9979 15.6316C10.2207 15.6316 8.77994 14.2177 8.77994 12.4737C8.77994 10.7296 10.2207 9.31579 11.9979 9.31579C13.7752 9.31579 15.2159 10.7296 15.2159 12.4737Z" stroke="#FAFBFE" stroke-width="1.5"/>
</svg>
