<svg width="25" height="24" viewBox="0 0 25 24" fill="none" xmlns="http://www.w3.org/2000/svg">
<path d="M20.5742 16.9997V8.02428L10.1742 10.6243V18.9997H8.57422L8.57422 7.70427C8.57419 6.96626 8.57417 6.3408 8.63617 5.83363C8.70216 5.29373 8.84712 4.7956 9.20178 4.35944C9.55644 3.92327 10.0145 3.67977 10.5296 3.50504C11.0135 3.34091 11.6258 3.21337 12.3483 3.06287L16.4553 2.20725C17.5172 1.98598 18.3986 1.80233 19.1049 1.75779C19.8461 1.71105 20.5479 1.80476 21.1407 2.28682C21.7336 2.76888 21.9684 3.43678 22.0738 4.17198C22.1743 4.87247 22.1743 5.77279 22.1742 6.85753L22.1742 16.9997H20.5742Z" />
<path d="M6.37422 15.2002C4.27554 15.2002 2.57422 16.9015 2.57422 19.0002C2.57422 21.0989 4.27554 22.8002 6.37422 22.8002C8.4729 22.8002 10.1742 21.0989 10.1742 19.0002C10.1742 16.9015 8.4729 15.2002 6.37422 15.2002Z" />
<path d="M18.3742 13.2002C16.2755 13.2002 14.5742 14.9015 14.5742 17.0002C14.5742 19.0989 16.2755 20.8002 18.3742 20.8002C20.4729 20.8002 22.1742 19.0989 22.1742 17.0002C22.1742 14.9015 20.4729 13.2002 18.3742 13.2002Z" />
</svg>
