<svg width="48" height="22" viewBox="0 0 48 22" fill="none" xmlns="http://www.w3.org/2000/svg">
<mask id="mask0_1051_25063" style="mask-type:alpha" maskUnits="userSpaceOnUse" x="0" y="0" width="49" height="22">
<path d="M30.7943 16.7368V21.9973H19.5869V0H25.1906V16.7368H30.7943Z" fill="black"/>
<path d="M31.6858 0H37.2895V8.92681L42.0676 0H48.0004L42.5284 10.2665C46.2203 11.7017 47.6713 15.3679 47.6713 19.2888V22H42.0676V19.2888C42.0676 16.1001 40.5837 14.0282 37.2868 14.0282V21.9973H31.6831V0H31.6858Z" fill="black"/>
<path d="M9.63348 0.285696C8.96971 0.171624 7.99325 0.0893858 6.7041 0.0522461V5.28895C10.9857 5.28895 13.2925 8.00015 13.2925 11.027C13.2925 14.0539 10.9857 16.7651 6.7041 16.7651V21.9939C8.77496 21.9143 10.1848 21.6755 11.3478 21.2935C15.5005 19.922 18.8961 16.0966 18.8961 11.0589C18.8961 5.1961 14.2826 1.05237 9.63348 0.285696Z" fill="black"/>
<path d="M2.71269 5.30884C4.21087 5.30884 5.42539 4.13419 5.42539 2.68518C5.42539 1.23618 4.21087 0.0615234 2.71269 0.0615234C1.21451 0.0615234 0 1.23618 0 2.68518C0 4.13419 1.21451 5.30884 2.71269 5.30884Z" fill="black"/>
</mask>
<g mask="url(#mask0_1051_25063)">
<rect x="-5.39795" y="-33.4658" width="65.9279" height="64.2999" rx="8.09641" fill="#2A2F39"/>
</g>
</svg>
