<svg width="16" height="16" viewBox="0 0 16 16" fill="none" xmlns="http://www.w3.org/2000/svg">
<path d="M12.0002 11.1665C11.8935 11.1665 11.7935 11.1332 11.7002 11.0665C11.4802 10.8999 11.4335 10.5865 11.6002 10.3665C12.6468 8.97319 12.6468 7.02652 11.6002 5.63319C11.4335 5.41319 11.4802 5.09986 11.7002 4.93319C11.9202 4.76652 12.2335 4.81319 12.4002 5.03319C13.7068 6.77986 13.7068 9.21986 12.4002 10.9665C12.3002 11.0999 12.1535 11.1665 12.0002 11.1665Z" fill="#0F1014"/>
<path d="M13.2199 12.8338C13.1132 12.8338 13.0132 12.8005 12.9199 12.7338C12.6999 12.5672 12.6532 12.2538 12.8199 12.0338C14.5999 9.66051 14.5999 6.34051 12.8199 3.96717C12.6532 3.74717 12.6999 3.43384 12.9199 3.26717C13.1399 3.10051 13.4532 3.14717 13.6199 3.36717C15.6666 6.09384 15.6666 9.90717 13.6199 12.6338C13.5266 12.7672 13.3732 12.8338 13.2199 12.8338Z" fill="#0F1014"/>
<path d="M9.34634 2.52014C8.59968 2.10681 7.64634 2.21347 6.67301 2.82014L4.72634 4.04014C4.59301 4.12014 4.43967 4.16681 4.28634 4.16681H3.66634H3.33301C1.71967 4.16681 0.833008 5.05347 0.833008 6.66681V9.33347C0.833008 10.9468 1.71967 11.8335 3.33301 11.8335H3.66634H4.28634C4.43967 11.8335 4.59301 11.8801 4.72634 11.9601L6.67301 13.1801C7.25968 13.5468 7.83301 13.7268 8.36634 13.7268C8.71301 13.7268 9.04634 13.6468 9.34634 13.4801C10.0863 13.0668 10.4997 12.2068 10.4997 11.0601V4.94014C10.4997 3.79347 10.0863 2.93347 9.34634 2.52014Z" fill="#0F1014"/>
</svg>
