<svg width="16" height="16" viewBox="0 0 16 16" fill="none" xmlns="http://www.w3.org/2000/svg">
<path d="M5.65442 6.14322C5.65442 6.41937 5.87828 6.64322 6.15442 6.64322C6.43056 6.64322 6.65442 6.41937 6.65442 6.14322H6.15442H5.65442ZM7.66835 9.59422C7.66835 9.87036 7.89221 10.0942 8.16835 10.0942C8.4445 10.0942 8.66835 9.87036 8.66835 9.59422H8.16835H7.66835ZM7.98332 11.1684C7.70717 11.1684 7.48332 11.3922 7.48332 11.6684C7.48332 11.9445 7.70717 12.1684 7.98332 12.1684V11.6684V11.1684ZM8.01665 12.1684C8.29279 12.1684 8.51665 11.9445 8.51665 11.6684C8.51665 11.3922 8.29279 11.1684 8.01665 11.1684V11.6684V12.1684ZM14 8H13.5C13.5 11.0376 11.0376 13.5 8 13.5V14V14.5C11.5899 14.5 14.5 11.5899 14.5 8H14ZM8 14V13.5C4.96243 13.5 2.5 11.0376 2.5 8H2H1.5C1.5 11.5899 4.41015 14.5 8 14.5V14ZM2 8H2.5C2.5 4.96243 4.96243 2.5 8 2.5V2V1.5C4.41015 1.5 1.5 4.41015 1.5 8H2ZM8 2V2.5C11.0376 2.5 13.5 4.96243 13.5 8H14H14.5C14.5 4.41015 11.5899 1.5 8 1.5V2ZM6.15442 6.14322H6.65442C6.65442 5.67832 6.82672 5.36473 7.05988 5.16129C7.30294 4.94923 7.64266 4.83164 8 4.83164C8.35734 4.83164 8.69706 4.94923 8.94012 5.16129C9.17328 5.36473 9.34558 5.67832 9.34558 6.14322H9.84558H10.3456C10.3456 5.4004 10.0565 4.80821 9.59756 4.40779C9.14852 4.01599 8.56545 3.83164 8 3.83164C7.43455 3.83164 6.85148 4.01599 6.40244 4.40779C5.94352 4.80821 5.65442 5.4004 5.65442 6.14322H6.15442ZM9.84558 6.14322H9.34558C9.34558 6.48368 9.26572 6.69026 9.16388 6.84746C9.0484 7.02571 8.8945 7.16227 8.66722 7.37276C8.45369 7.57052 8.19138 7.82172 7.99236 8.18339C7.789 8.55296 7.66835 9.00464 7.66835 9.59422H8.16835H8.66835C8.66835 9.14888 8.75736 8.86743 8.86848 8.6655C8.98394 8.45567 9.14094 8.29702 9.34671 8.10644C9.53874 7.9286 9.80415 7.69834 10.0031 7.39118C10.2158 7.06296 10.3456 6.66552 10.3456 6.14322H9.84558ZM7.98332 11.6684V12.1684H8.01665V11.6684V11.1684H7.98332V11.6684Z" fill="#7E889A"/>
</svg>
