<svg width="16" height="16" viewBox="0 0 16 16" fill="none" xmlns="http://www.w3.org/2000/svg">
<g clip-path="url(#clip0_1280_4599)">
<path d="M3.32027 10.4778C4.68865 10.4778 5.79795 9.36852 5.79795 8.00014C5.79795 6.63176 4.68865 5.52246 3.32027 5.52246C1.95189 5.52246 0.84259 6.63176 0.84259 8.00014C0.84259 9.36852 1.95189 10.4778 3.32027 10.4778Z" stroke="#A6B4C7" stroke-width="1.25" stroke-linecap="round" stroke-linejoin="round"/>
<path d="M12.6798 15.158C14.0482 15.158 15.1575 14.0487 15.1575 12.6803C15.1575 11.312 14.0482 10.2026 12.6798 10.2026C11.3115 10.2026 10.2021 11.312 10.2021 12.6803C10.2021 14.0487 11.3115 15.158 12.6798 15.158Z" stroke="#A6B4C7" stroke-width="1.25" stroke-linecap="round" stroke-linejoin="round"/>
<path d="M12.6798 5.79764C14.0482 5.79764 15.1575 4.68835 15.1575 3.31996C15.1575 1.95158 14.0482 0.842285 12.6798 0.842285C11.3115 0.842285 10.2021 1.95158 10.2021 3.31996C10.2021 4.68835 11.3115 5.79764 12.6798 5.79764Z" stroke="#A6B4C7" stroke-width="1.25" stroke-linecap="round" stroke-linejoin="round"/>
<path d="M5.53339 6.89907L10.4667 4.42139" stroke="#A6B4C7" stroke-width="1.25" stroke-linecap="round" stroke-linejoin="round"/>
<path d="M5.53339 9.10107L10.4667 11.5788" stroke="#A6B4C7" stroke-width="1.25" stroke-linecap="round" stroke-linejoin="round"/>
</g>
<defs>
<clipPath id="clip0_1280_4599">
<rect width="15.4167" height="15.4167" fill="white" transform="translate(0.291687 0.291504)"/>
</clipPath>
</defs>
</svg>
