<svg width="121" height="120" viewBox="0 0 121 120" fill="none" xmlns="http://www.w3.org/2000/svg">
<g opacity="0.7" clip-path="url(#clip0_1561_35179)">
<g filter="url(#filter0_i_1561_35179)">
<g clip-path="url(#clip1_1561_35179)">
<rect x="11.5" y="42.918" width="80.7035" height="80.7035" rx="40.3517" transform="rotate(-17.2473 11.5 42.918)" fill="white"/>
<g filter="url(#filter1_f_1561_35179)">
<circle cx="54.3713" cy="90.4039" r="38.9738" transform="rotate(141.593 54.3713 90.4039)" fill="#080B10"/>
</g>
<g filter="url(#filter2_f_1561_35179)">
<circle cx="32.701" cy="60.5127" r="22.9276" transform="rotate(141.593 32.701 60.5127)" fill="#3C424B"/>
</g>
<g filter="url(#filter3_f_1561_35179)">
<circle cx="33.2096" cy="76.5964" r="16.7703" transform="rotate(141.593 33.2096 76.5964)" fill="#181920"/>
</g>
<g filter="url(#filter4_f_1561_35179)">
<ellipse cx="84.1144" cy="78.2702" rx="20.4081" ry="21.0214" transform="rotate(141.593 84.1144 78.2702)" fill="#0F1014"/>
</g>
<g filter="url(#filter5_f_1561_35179)">
<ellipse cx="84.1144" cy="78.2702" rx="20.4081" ry="21.0214" transform="rotate(141.593 84.1144 78.2702)" fill="#494C59"/>
</g>
<g filter="url(#filter6_f_1561_35179)">
<ellipse cx="69.1927" cy="38.6073" rx="13.8076" ry="21.0214" transform="rotate(130.987 69.1927 38.6073)" fill="#D7E1ED"/>
</g>
<g opacity="0.9">
<g style="mix-blend-mode:luminosity">
<path d="M83.5817 51.1219C83.9473 51.2551 84.1529 51.6866 84.036 52.0897C83.2736 54.756 81.3727 57.017 79.0141 58.175C76.4358 59.4388 73.3956 59.4146 70.7947 58.2635C68.3478 57.1823 66.2798 55.1082 65.2422 52.4816C64.2947 50.0868 64.2228 47.3462 65.1814 44.9682C65.3383 44.5845 65.7321 44.3952 66.0976 44.5284L83.5836 51.1079L83.5817 51.1219Z" fill="#17171A"/>
<path d="M83.1381 51.7128C83.8308 52.109 81.9204 54.766 81.6319 55.1253C80.8508 56.1008 79.8632 56.9213 78.7393 57.4828C76.6222 58.5307 74.1028 58.6459 71.8763 57.8846C66.8278 56.1418 64.3519 50.8075 65.6854 45.7974C65.8419 45.2008 65.6836 45.2722 66.0941 45.3333C66.379 45.3779 66.6754 45.5517 66.9391 45.6503L69.9397 46.783C72.6505 47.7996 75.3674 48.8241 78.0783 49.8407C79.8223 50.4959 81.5662 51.1511 83.3102 51.8064C84.2092 52.1446 84.7809 50.7656 83.8759 50.4195C78.8537 48.5311 73.8454 46.6445 68.8232 44.7562C68.046 44.4623 67.2665 44.1327 66.4779 43.8728C64.3555 43.182 63.9184 46.1252 63.7917 47.6266C63.3047 53.266 67.2846 58.5996 72.8529 59.6803C75.7238 60.2355 78.7781 59.5593 81.0878 57.7494C82.2988 56.795 83.2821 55.5766 83.9933 54.216C84.5604 53.1414 85.4437 51.3353 84.0401 50.5191C83.2232 50.0427 82.3072 51.2345 83.1381 51.7128Z" fill="#17171A"/>
<path d="M76.3743 47.6134L82.8229 50.0372L78.3387 51.121L80.7996 52.7432C80.9038 52.8136 80.88 52.9949 80.755 53.0282L71.498 55.1792C71.3512 55.2166 71.2653 55.0067 71.3855 54.9019L74.9864 52.0134L71.7517 49.8567C71.6536 49.7941 71.6677 49.6328 71.7805 49.5838L76.3743 47.6134Z" fill="white"/>
</g>
</g>
<g style="mix-blend-mode:luminosity" opacity="0.9">
<path d="M58.7951 44.8829C59.1683 44.7728 59.5901 44.9974 59.7358 45.3911C60.7076 47.9884 60.523 50.9366 59.3147 53.2698C57.9926 55.8187 55.5335 57.6064 52.7577 58.2268C50.1473 58.812 47.2515 58.3734 44.8558 56.878C42.6704 55.5155 40.9834 53.3544 40.3407 50.8723C40.2388 50.4705 40.4429 50.0841 40.816 49.974L58.7883 44.8706L58.7951 44.8829Z" fill="#17171A"/>
<path d="M58.7882 45.6216C59.5808 45.5285 59.6239 48.8008 59.6055 49.2612C59.5573 50.5099 59.2508 51.7568 58.6809 52.8763C57.6013 54.9775 55.6439 56.5678 53.4008 57.2791C48.3051 58.8786 43.1433 56.0609 41.2374 51.2393C41.0087 50.6665 40.9237 50.8181 41.2902 50.6232C41.5458 50.4897 41.8875 50.4533 42.1581 50.3758L45.2444 49.503C48.0286 48.7091 50.8223 47.9179 53.6066 47.124C55.3985 46.6142 57.1904 46.1044 58.9823 45.5946C59.9062 45.3322 59.5462 43.8835 58.6127 44.1431C53.4516 45.6099 48.3028 47.07 43.1417 48.5368C42.3421 48.7625 41.5193 48.9608 40.7306 49.2206C38.6133 49.9267 40.0113 52.5533 40.8019 53.836C43.7626 58.6604 50.1335 60.5836 55.2536 58.1425C57.8923 56.8825 59.9464 54.5231 60.7279 51.6947C61.1344 50.2074 61.2008 48.6431 60.9639 47.1263C60.7811 45.925 60.4178 43.9475 58.804 44.1256C57.8639 44.2281 57.8358 45.7309 58.7882 45.6216Z" fill="#17171A"/>
<path d="M50.9163 46.3495L57.5426 44.4653L54.581 48.0025L57.5241 47.8441C57.6498 47.8388 57.7384 47.9988 57.6577 48.0997L51.4923 55.3322C51.3965 55.4495 51.2027 55.3318 51.2371 55.1761L52.4157 50.7128L48.5325 50.9013C48.4163 50.9093 48.3318 50.7712 48.3935 50.6647L50.9163 46.3495Z" fill="white"/>
<g filter="url(#filter7_d_1561_35179)">
<path d="M50.8482 68.3579C52.9736 68.3579 54.7031 66.6281 54.7031 64.5014C54.7031 61.4796 51.2106 58.3594 51.0619 58.2284C51.0007 58.1744 50.9244 58.1476 50.8482 58.1476C50.772 58.1476 50.6957 58.1744 50.6345 58.228C50.4858 58.3594 46.9933 61.4796 46.9933 64.5014C46.9933 66.6281 48.7229 68.3579 50.8482 68.3579Z" fill="url(#paint0_linear_1561_35179)"/>
</g>
<g filter="url(#filter8_ii_1561_35179)">
<path d="M50.8486 69.9204C48.0914 69.9204 45.8477 67.6611 45.8477 64.8833C45.8477 60.9364 50.3785 56.8612 50.5714 56.69C50.6508 56.6195 50.7497 56.5845 50.8486 56.5845C50.9475 56.5845 51.0464 56.6195 51.1259 56.6895C51.3187 56.8612 55.8496 60.9364 55.8496 64.8833C55.8496 67.6611 53.6058 69.9204 50.8486 69.9204Z" fill="url(#paint1_linear_1561_35179)"/>
<path d="M50.8486 69.9204C48.0914 69.9204 45.8477 67.6611 45.8477 64.8833C45.8477 60.9364 50.3785 56.8612 50.5714 56.69C50.6508 56.6195 50.7497 56.5845 50.8486 56.5845C50.9475 56.5845 51.0464 56.6195 51.1259 56.6895C51.3187 56.8612 55.8496 60.9364 55.8496 64.8833C55.8496 67.6611 53.6058 69.9204 50.8486 69.9204Z" fill="url(#paint2_linear_1561_35179)"/>
</g>
<g filter="url(#filter9_f_1561_35179)">
<path d="M50.5881 57.0003C50.1297 57.292 48.4522 59.414 47.6708 60.4385C49.7546 59.3966 50.7964 57.4171 51.4216 58.0422C51.9217 58.5423 52.6718 58.9104 52.9844 59.032C52.3766 58.2332 51.0465 56.7086 50.5881 57.0003Z" fill="white"/>
</g>
<g filter="url(#filter10_f_1561_35179)">
<ellipse cx="53.206" cy="60.2535" rx="0.491778" ry="1.68124" transform="rotate(145.451 53.206 60.2535)" fill="white"/>
</g>
<g filter="url(#filter11_f_1561_35179)">
<ellipse cx="48.206" cy="67.2496" rx="0.491778" ry="1.68124" transform="rotate(145.451 48.206 67.2496)" fill="white" fill-opacity="0.6"/>
</g>
</g>
<g opacity="0.9" filter="url(#filter12_f_1561_35179)">
<ellipse cx="62.8386" cy="34.9745" rx="2.36999" ry="5.85608" transform="rotate(-95.088 62.8386 34.9745)" fill="white"/>
</g>
<g opacity="0.8" filter="url(#filter13_f_1561_35179)">
<ellipse cx="49.7582" cy="37.4634" rx="1.20349" ry="2.14129" transform="rotate(-110.614 49.7582 37.4634)" fill="white"/>
</g>
</g>
</g>
<g filter="url(#filter14_di_1561_35179)">
<path d="M92.5952 43.1375C94.1954 45.0134 95.6962 47.053 96.9427 49.2407C102.594 49.4418 106.245 50.6581 106.94 52.9542C107.597 55.1253 105.519 57.9483 101.429 61.0392C94.1973 66.495 80.6193 72.7694 64.4869 77.6518C48.3545 82.5342 33.5849 84.8391 24.5325 84.3116C19.4146 84.0075 16.1205 82.8101 15.4635 80.6391C14.7685 78.343 17.132 75.3066 21.7237 72.0054C21.5479 69.4937 21.6134 67.0065 21.9048 64.5581C10.5013 71.7739 4.13826 79.4244 5.91204 85.2853C7.68581 91.1462 16.7995 93.8397 29.8114 93.6759C40.4068 93.5414 53.5641 91.4124 67.3944 87.2267C81.2247 83.041 93.3456 77.5197 102.246 71.7538C113.177 64.6812 119.216 57.2459 117.482 51.519C115.749 45.7921 106.171 42.8198 92.6714 43.141L92.5952 43.1375Z" fill="url(#paint3_radial_1561_35179)"/>
<path d="M92.5952 43.1375C94.1954 45.0134 95.6962 47.053 96.9427 49.2407C102.594 49.4418 106.245 50.6581 106.94 52.9542C107.597 55.1253 105.519 57.9483 101.429 61.0392C94.1973 66.495 80.6193 72.7694 64.4869 77.6518C48.3545 82.5342 33.5849 84.8391 24.5325 84.3116C19.4146 84.0075 16.1205 82.8101 15.4635 80.6391C14.7685 78.343 17.132 75.3066 21.7237 72.0054C21.5479 69.4937 21.6134 67.0065 21.9048 64.5581C10.5013 71.7739 4.13826 79.4244 5.91204 85.2853C7.68581 91.1462 16.7995 93.8397 29.8114 93.6759C40.4068 93.5414 53.5641 91.4124 67.3944 87.2267C81.2247 83.041 93.3456 77.5197 102.246 71.7538C113.177 64.6812 119.216 57.2459 117.482 51.519C115.749 45.7921 106.171 42.8198 92.6714 43.141L92.5952 43.1375Z" fill="url(#paint4_radial_1561_35179)" fill-opacity="0.65"/>
</g>
<g filter="url(#filter15_di_1561_35179)">
<path d="M52.1543 8.67139C53.0484 7.7774 54.4984 7.77745 55.3926 8.67139L58.2461 11.5249L61.0029 8.76904C61.8971 7.87507 63.3471 7.87516 64.2412 8.76904C65.1349 9.66323 65.1351 11.1133 64.2412 12.0073L61.4844 14.7632L64.3301 17.6089C65.2235 18.5031 65.2239 19.9532 64.3301 20.8472C63.4361 21.7411 61.9861 21.7407 61.0918 20.8472L58.2461 18.0015L55.3037 20.9448C54.4097 21.8389 52.9597 21.8386 52.0654 20.9448C51.1715 20.0506 51.1713 18.6007 52.0654 17.7065L55.0078 14.7632L52.1543 11.9097C51.2603 11.0154 51.2602 9.56552 52.1543 8.67139Z" fill="url(#paint5_radial_1561_35179)"/>
</g>
</g>
<defs>
<filter id="filter0_i_1561_35179" x="10.5" y="18.9897" width="102.003" height="102.003" filterUnits="userSpaceOnUse" color-interpolation-filters="sRGB">
<feFlood flood-opacity="0" result="BackgroundImageFix"/>
<feBlend mode="normal" in="SourceGraphic" in2="BackgroundImageFix" result="shape"/>
<feColorMatrix in="SourceAlpha" type="matrix" values="0 0 0 0 0 0 0 0 0 0 0 0 0 0 0 0 0 0 127 0" result="hardAlpha"/>
<feOffset dx="-1" dy="1"/>
<feGaussianBlur stdDeviation="3.22805"/>
<feComposite in2="hardAlpha" operator="arithmetic" k2="-1" k3="1"/>
<feColorMatrix type="matrix" values="0 0 0 0 1 0 0 0 0 1 0 0 0 0 1 0 0 0 0.99 0"/>
<feBlend mode="normal" in2="shape" result="effect1_innerShadow_1561_35179"/>
</filter>
<filter id="filter1_f_1561_35179" x="-11.0045" y="25.0287" width="130.751" height="130.751" filterUnits="userSpaceOnUse" color-interpolation-filters="sRGB">
<feFlood flood-opacity="0" result="BackgroundImageFix"/>
<feBlend mode="normal" in="SourceGraphic" in2="BackgroundImageFix" result="shape"/>
<feGaussianBlur stdDeviation="13.2" result="effect1_foregroundBlur_1561_35179"/>
</filter>
<filter id="filter2_f_1561_35179" x="-22.4722" y="5.33932" width="110.347" height="110.347" filterUnits="userSpaceOnUse" color-interpolation-filters="sRGB">
<feFlood flood-opacity="0" result="BackgroundImageFix"/>
<feBlend mode="normal" in="SourceGraphic" in2="BackgroundImageFix" result="shape"/>
<feGaussianBlur stdDeviation="16.1223" result="effect1_foregroundBlur_1561_35179"/>
</filter>
<filter id="filter3_f_1561_35179" x="-19.3728" y="24.0144" width="105.165" height="105.164" filterUnits="userSpaceOnUse" color-interpolation-filters="sRGB">
<feFlood flood-opacity="0" result="BackgroundImageFix"/>
<feBlend mode="normal" in="SourceGraphic" in2="BackgroundImageFix" result="shape"/>
<feGaussianBlur stdDeviation="17.9056" result="effect1_foregroundBlur_1561_35179"/>
</filter>
<filter id="filter4_f_1561_35179" x="20.4261" y="14.4417" width="127.376" height="127.657" filterUnits="userSpaceOnUse" color-interpolation-filters="sRGB">
<feFlood flood-opacity="0" result="BackgroundImageFix"/>
<feBlend mode="normal" in="SourceGraphic" in2="BackgroundImageFix" result="shape"/>
<feGaussianBlur stdDeviation="21.5204" result="effect1_foregroundBlur_1561_35179"/>
</filter>
<filter id="filter5_f_1561_35179" x="20.4261" y="14.4417" width="127.376" height="127.657" filterUnits="userSpaceOnUse" color-interpolation-filters="sRGB">
<feFlood flood-opacity="0" result="BackgroundImageFix"/>
<feBlend mode="normal" in="SourceGraphic" in2="BackgroundImageFix" result="shape"/>
<feGaussianBlur stdDeviation="21.5204" result="effect1_foregroundBlur_1561_35179"/>
</filter>
<filter id="filter6_f_1561_35179" x="7.87824" y="-21.7184" width="122.629" height="120.651" filterUnits="userSpaceOnUse" color-interpolation-filters="sRGB">
<feFlood flood-opacity="0" result="BackgroundImageFix"/>
<feBlend mode="normal" in="SourceGraphic" in2="BackgroundImageFix" result="shape"/>
<feGaussianBlur stdDeviation="21.5204" result="effect1_foregroundBlur_1561_35179"/>
</filter>
<filter id="filter7_d_1561_35179" x="43.0932" y="57.9982" width="15.51" height="18.0104" filterUnits="userSpaceOnUse" color-interpolation-filters="sRGB">
<feFlood flood-opacity="0" result="BackgroundImageFix"/>
<feColorMatrix in="SourceAlpha" type="matrix" values="0 0 0 0 0 0 0 0 0 0 0 0 0 0 0 0 0 0 127 0" result="hardAlpha"/>
<feOffset dy="3.75073"/>
<feGaussianBlur stdDeviation="1.95"/>
<feComposite in2="hardAlpha" operator="out"/>
<feColorMatrix type="matrix" values="0 0 0 0 0.122607 0 0 0 0 0.134373 0 0 0 0 0.146138 0 0 0 0.72 0"/>
<feBlend mode="normal" in2="BackgroundImageFix" result="effect1_dropShadow_1561_35179"/>
<feBlend mode="normal" in="SourceGraphic" in2="effect1_dropShadow_1561_35179" result="shape"/>
</filter>
<filter id="filter8_ii_1561_35179" x="45.5477" y="55.1988" width="10.302" height="15.1384" filterUnits="userSpaceOnUse" color-interpolation-filters="sRGB">
<feFlood flood-opacity="0" result="BackgroundImageFix"/>
<feBlend mode="normal" in="SourceGraphic" in2="BackgroundImageFix" result="shape"/>
<feColorMatrix in="SourceAlpha" type="matrix" values="0 0 0 0 0 0 0 0 0 0 0 0 0 0 0 0 0 0 127 0" result="hardAlpha"/>
<feOffset dx="-0.3" dy="0.416748"/>
<feGaussianBlur stdDeviation="0.474051"/>
<feComposite in2="hardAlpha" operator="arithmetic" k2="-1" k3="1"/>
<feColorMatrix type="matrix" values="0 0 0 0 1 0 0 0 0 1 0 0 0 0 1 0 0 0 1 0"/>
<feBlend mode="normal" in2="shape" result="effect1_innerShadow_1561_35179"/>
<feColorMatrix in="SourceAlpha" type="matrix" values="0 0 0 0 0 0 0 0 0 0 0 0 0 0 0 0 0 0 127 0" result="hardAlpha"/>
<feOffset dx="-0.01" dy="-2"/>
<feGaussianBlur stdDeviation="0.692844"/>
<feComposite in2="hardAlpha" operator="arithmetic" k2="-1" k3="1"/>
<feColorMatrix type="matrix" values="0 0 0 0 1 0 0 0 0 1 0 0 0 0 1 0 0 0 0.34 0"/>
<feBlend mode="normal" in2="effect1_innerShadow_1561_35179" result="effect2_innerShadow_1561_35179"/>
</filter>
<filter id="filter9_f_1561_35179" x="46.629" y="55.922" width="7.39722" height="5.55835" filterUnits="userSpaceOnUse" color-interpolation-filters="sRGB">
<feFlood flood-opacity="0" result="BackgroundImageFix"/>
<feBlend mode="normal" in="SourceGraphic" in2="BackgroundImageFix" result="shape"/>
<feGaussianBlur stdDeviation="0.520935" result="effect1_foregroundBlur_1561_35179"/>
</filter>
<filter id="filter10_f_1561_35179" x="51.1281" y="57.799" width="4.15601" height="4.90942" filterUnits="userSpaceOnUse" color-interpolation-filters="sRGB">
<feFlood flood-opacity="0" result="BackgroundImageFix"/>
<feBlend mode="normal" in="SourceGraphic" in2="BackgroundImageFix" result="shape"/>
<feGaussianBlur stdDeviation="0.520935" result="effect1_foregroundBlur_1561_35179"/>
</filter>
<filter id="filter11_f_1561_35179" x="46.1281" y="64.795" width="4.15601" height="4.90942" filterUnits="userSpaceOnUse" color-interpolation-filters="sRGB">
<feFlood flood-opacity="0" result="BackgroundImageFix"/>
<feBlend mode="normal" in="SourceGraphic" in2="BackgroundImageFix" result="shape"/>
<feGaussianBlur stdDeviation="0.520935" result="effect1_foregroundBlur_1561_35179"/>
</filter>
<filter id="filter12_f_1561_35179" x="53.202" y="28.7566" width="19.2738" height="12.4354" filterUnits="userSpaceOnUse" color-interpolation-filters="sRGB">
<feFlood flood-opacity="0" result="BackgroundImageFix"/>
<feBlend mode="normal" in="SourceGraphic" in2="BackgroundImageFix" result="shape"/>
<feGaussianBlur stdDeviation="1.9" result="effect1_foregroundBlur_1561_35179"/>
</filter>
<filter id="filter13_f_1561_35179" x="45.009" y="33.4079" width="9.49863" height="8.11094" filterUnits="userSpaceOnUse" color-interpolation-filters="sRGB">
<feFlood flood-opacity="0" result="BackgroundImageFix"/>
<feBlend mode="normal" in="SourceGraphic" in2="BackgroundImageFix" result="shape"/>
<feGaussianBlur stdDeviation="1.35" result="effect1_foregroundBlur_1561_35179"/>
</filter>
<filter id="filter14_di_1561_35179" x="1.5293" y="40.463" width="120.336" height="58.7436" filterUnits="userSpaceOnUse" color-interpolation-filters="sRGB">
<feFlood flood-opacity="0" result="BackgroundImageFix"/>
<feColorMatrix in="SourceAlpha" type="matrix" values="0 0 0 0 0 0 0 0 0 0 0 0 0 0 0 0 0 0 127 0" result="hardAlpha"/>
<feOffset dy="1.43469"/>
<feGaussianBlur stdDeviation="2.04443"/>
<feComposite in2="hardAlpha" operator="out"/>
<feColorMatrix type="matrix" values="0 0 0 0 0 0 0 0 0 0 0 0 0 0 0 0 0 0 0.1 0"/>
<feBlend mode="normal" in2="BackgroundImageFix" result="effect1_dropShadow_1561_35179"/>
<feBlend mode="normal" in="SourceGraphic" in2="effect1_dropShadow_1561_35179" result="shape"/>
<feColorMatrix in="SourceAlpha" type="matrix" values="0 0 0 0 0 0 0 0 0 0 0 0 0 0 0 0 0 0 127 0" result="hardAlpha"/>
<feOffset dx="1.5654"/>
<feGaussianBlur stdDeviation="1.76108"/>
<feComposite in2="hardAlpha" operator="arithmetic" k2="-1" k3="1"/>
<feColorMatrix type="matrix" values="0 0 0 0 1 0 0 0 0 1 0 0 0 0 1 0 0 0 0.35 0"/>
<feBlend mode="normal" in2="shape" result="effect2_innerShadow_1561_35179"/>
</filter>
<filter id="filter15_di_1561_35179" x="37.8945" y="-5.49902" width="40.6055" height="40.6143" filterUnits="userSpaceOnUse" color-interpolation-filters="sRGB">
<feFlood flood-opacity="0" result="BackgroundImageFix"/>
<feColorMatrix in="SourceAlpha" type="matrix" values="0 0 0 0 0 0 0 0 0 0 0 0 0 0 0 0 0 0 127 0" result="hardAlpha"/>
<feOffset/>
<feGaussianBlur stdDeviation="6.75"/>
<feComposite in2="hardAlpha" operator="out"/>
<feColorMatrix type="matrix" values="0 0 0 0 1 0 0 0 0 1 0 0 0 0 1 0 0 0 0.87 0"/>
<feBlend mode="normal" in2="BackgroundImageFix" result="effect1_dropShadow_1561_35179"/>
<feBlend mode="normal" in="SourceGraphic" in2="effect1_dropShadow_1561_35179" result="shape"/>
<feColorMatrix in="SourceAlpha" type="matrix" values="0 0 0 0 0 0 0 0 0 0 0 0 0 0 0 0 0 0 127 0" result="hardAlpha"/>
<feOffset/>
<feGaussianBlur stdDeviation="1.07465"/>
<feComposite in2="hardAlpha" operator="arithmetic" k2="-1" k3="1"/>
<feColorMatrix type="matrix" values="0 0 0 0 1 0 0 0 0 1 0 0 0 0 1 0 0 0 1 0"/>
<feBlend mode="normal" in2="shape" result="effect2_innerShadow_1561_35179"/>
</filter>
<linearGradient id="paint0_linear_1561_35179" x1="54.0606" y1="69.2354" x2="50.888" y2="58.4549" gradientUnits="userSpaceOnUse">
<stop stop-color="#9A9C9F"/>
<stop offset="1" stop-color="white"/>
</linearGradient>
<linearGradient id="paint1_linear_1561_35179" x1="49.2337" y1="67.1074" x2="50.8486" y2="57.0012" gradientUnits="userSpaceOnUse">
<stop offset="0.224504" stop-color="#282A2C"/>
<stop offset="1" stop-color="white"/>
</linearGradient>
<linearGradient id="paint2_linear_1561_35179" x1="54.0784" y1="59.9185" x2="48.0877" y2="69.5037" gradientUnits="userSpaceOnUse">
<stop stop-color="#96999E"/>
<stop offset="1" stop-color="white" stop-opacity="0"/>
</linearGradient>
<radialGradient id="paint3_radial_1561_35179" cx="0" cy="0" r="1" gradientUnits="userSpaceOnUse" gradientTransform="translate(62.2159 68.6266) rotate(-13.1982) scale(63.5828 19.0223)">
<stop offset="0.288462" stop-color="#E6EDF8"/>
<stop offset="1" stop-color="#50555C"/>
</radialGradient>
<radialGradient id="paint4_radial_1561_35179" cx="0" cy="0" r="1" gradientUnits="userSpaceOnUse" gradientTransform="translate(19.609 75.5362) rotate(12.7142) scale(63.4467 98.9468)">
<stop offset="0.139423"/>
<stop offset="0.668269" stop-color="#181920" stop-opacity="0"/>
</radialGradient>
<radialGradient id="paint5_radial_1561_35179" cx="0" cy="0" r="1" gradientUnits="userSpaceOnUse" gradientTransform="translate(63.5001 9.50042) rotate(135.002) scale(14.849 14.8387)">
<stop stop-color="white"/>
<stop offset="0.798077" stop-color="#565C64"/>
</radialGradient>
<clipPath id="clip0_1561_35179">
<rect width="120" height="120" fill="white" transform="translate(0.5)"/>
</clipPath>
<clipPath id="clip1_1561_35179">
<rect x="11.5" y="42.918" width="80.7035" height="80.7035" rx="40.3517" transform="rotate(-17.2473 11.5 42.918)" fill="white"/>
</clipPath>
</defs>
</svg>
