<svg width="10" height="11" viewBox="0 0 10 11" fill="none" xmlns="http://www.w3.org/2000/svg">
<path d="M9.24999 3.35C8.72499 1.04 6.70999 0 4.93999 0C4.93999 0 4.93999 0 4.93499 0C3.16999 0 1.14999 1.035 0.624989 3.345C0.0399891 5.925 1.61999 8.11 3.04999 9.485C3.57999 9.995 4.25999 10.25 4.93999 10.25C5.61999 10.25 6.29999 9.995 6.82499 9.485C8.25499 8.11 9.83499 5.93 9.24999 3.35ZM4.93999 5.855C4.06999 5.855 3.36499 5.15 3.36499 4.28C3.36499 3.41 4.06999 2.705 4.93999 2.705C5.80999 2.705 6.51499 3.41 6.51499 4.28C6.51499 5.15 5.80999 5.855 4.93999 5.855Z" fill="#40EAE2"/>
</svg>
