<svg width="24" height="24" viewBox="0 0 24 24" fill="none" xmlns="http://www.w3.org/2000/svg">
<path fill-rule="evenodd" clip-rule="evenodd" d="M12.0156 15.7402C12.706 15.7402 13.2656 16.2999 13.2656 16.9902V17.0402C13.2656 17.7306 12.706 18.2902 12.0156 18.2902C11.3253 18.2902 10.7656 17.7306 10.7656 17.0402V16.9902C10.7656 16.2999 11.3253 15.7402 12.0156 15.7402Z" fill="#E6EDF8"/>
<path fill-rule="evenodd" clip-rule="evenodd" d="M12.0156 10.7266C12.706 10.7266 13.2656 11.2862 13.2656 11.9766V12.0266C13.2656 12.7169 12.706 13.2766 12.0156 13.2766C11.3253 13.2766 10.7656 12.7169 10.7656 12.0266V11.9766C10.7656 11.2862 11.3253 10.7266 12.0156 10.7266Z" fill="#E6EDF8"/>
<path fill-rule="evenodd" clip-rule="evenodd" d="M12.0156 5.71289C12.706 5.71289 13.2656 6.27253 13.2656 6.96289V7.01289C13.2656 7.70325 12.706 8.26289 12.0156 8.26289C11.3253 8.26289 10.7656 7.70325 10.7656 7.01289V6.96289C10.7656 6.27253 11.3253 5.71289 12.0156 5.71289Z" fill="#E6EDF8"/>
</svg>
