<svg width="121" height="120" viewBox="0 0 121 120" fill="none" xmlns="http://www.w3.org/2000/svg">
<g opacity="0.7" clip-path="url(#clip0_1561_35215)">
<mask id="mask0_1561_35215" style="mask-type:alpha" maskUnits="userSpaceOnUse" x="20" y="53" width="82" height="49">
<path d="M100.133 84.2411C99.571 81.7906 98.7846 79.4334 97.7922 77.1785C91.5384 62.9509 77.2707 53 60.6719 53C44.0731 53 29.8054 62.9509 23.5516 77.1786C22.5592 79.4334 21.7728 81.7906 21.2111 84.2411C20.537 87.1574 20.1719 90.1856 20.1719 93.3069C20.1719 94.4902 20.2374 95.6549 20.331 96.8102C28.8692 99.9315 43.7454 102 60.6719 102C77.5984 102 92.4652 99.9315 101.013 96.8102C101.116 95.6549 101.172 94.4902 101.172 93.3069C101.172 90.1856 100.807 87.1574 100.133 84.2411Z" fill="#77EFD9"/>
</mask>
<g mask="url(#mask0_1561_35215)">
<g filter="url(#filter0_i_1561_35215)">
<g clip-path="url(#clip1_1561_35215)">
<rect width="80.8527" height="82.2384" rx="40.4263" transform="matrix(0.953272 -0.302114 0.290962 0.956735 10.1719 67.2183)" fill="white"/>
<g filter="url(#filter1_f_1561_35215)">
<circle cx="31.2703" cy="31.2703" r="31.2703" transform="matrix(-0.662838 0.753995 -0.742384 -0.664082 87.8838 101.532)" fill="#080B10"/>
</g>
<g filter="url(#filter2_f_1561_35215)">
<circle cx="22.9276" cy="22.9276" r="22.9276" transform="matrix(-0.662838 0.753995 -0.742384 -0.664082 64.752 71.0073)" fill="#3C424B"/>
</g>
<g filter="url(#filter3_f_1561_35215)">
<circle cx="16.7703" cy="16.7703" r="16.7703" transform="matrix(-0.662838 0.753995 -0.742384 -0.664082 59.332 87.374)" fill="#181920"/>
</g>
<g filter="url(#filter4_f_1561_35215)">
<ellipse cx="20.4081" cy="21.0214" rx="20.4081" ry="21.0214" transform="matrix(-0.662838 0.753995 -0.742384 -0.664082 115.102 80.0342)" fill="#0F1014"/>
</g>
<g filter="url(#filter5_f_1561_35215)">
<ellipse cx="20.4081" cy="21.0214" rx="20.4081" ry="21.0214" transform="matrix(-0.662838 0.753995 -0.742384 -0.664082 115.102 80.0342)" fill="#494C59"/>
</g>
<g filter="url(#filter6_f_1561_35215)">
<ellipse cx="13.8076" cy="21.0214" rx="13.8076" ry="21.0214" transform="matrix(-0.514877 0.863339 -0.851698 -0.513963 89.6084 43.7861)" fill="#D7E1ED"/>
</g>
<g opacity="0.58" filter="url(#filter7_f_1561_35215)">
<ellipse cx="3.34963" cy="5.85608" rx="3.34963" ry="5.85608" transform="matrix(0.464233 -0.89228 0.881971 0.458748 72.3896 62.9766)" fill="white" fill-opacity="0.17"/>
</g>
<g opacity="0.58" filter="url(#filter8_f_1561_35215)">
<ellipse cx="1.20349" cy="2.14129" rx="1.20349" ry="2.14129" transform="matrix(-0.0987598 -0.997361 0.991783 -0.109019 65.7891 59.9004)" fill="white" fill-opacity="0.41"/>
</g>
<g opacity="0.9">
<g style="mix-blend-mode:luminosity">
<path d="M89.7247 90.6722C90.0966 90.7216 90.38 91.0852 90.3537 91.4891C90.1901 94.1585 88.8701 96.683 86.8896 98.2638C84.7244 99.99 81.8564 100.599 79.1677 100.056C76.6386 99.5466 74.2599 98.0234 72.7368 95.7656C71.3466 93.7074 70.7091 91.1414 71.1174 88.7028C71.1854 88.3088 71.5169 88.0486 71.8888 88.0981L89.7235 90.6586L89.7247 90.6722Z" fill="#17171A"/>
<path d="M89.4289 91.3189C90.1636 91.548 88.9169 94.4474 88.7199 94.8457C88.1872 95.9267 87.4277 96.9048 86.4861 97.6672C84.7102 99.0941 82.3617 99.7265 80.1066 99.4725C74.99 98.8808 71.5494 94.3722 71.7635 89.3769C71.7869 88.7825 71.6526 88.8827 72.0519 88.8549C72.3295 88.8376 72.6447 88.9397 72.9135 88.9777L75.9748 89.4206C78.739 89.8143 81.5105 90.2142 84.2747 90.608C86.0533 90.8624 87.8319 91.1168 89.6104 91.3713C90.5273 91.5029 90.779 90.0854 89.8548 89.9476C84.7326 89.2134 79.624 88.4781 74.5019 87.744C73.709 87.6288 72.9064 87.4805 72.1096 87.3997C69.9673 87.1904 70.1676 90.0529 70.3605 91.4932C71.0744 96.9052 75.9312 101.1 81.3997 100.96C84.2187 100.886 86.9544 99.6146 88.7532 97.43C89.6952 96.2795 90.3678 94.9276 90.7546 93.4984C91.0653 92.3686 91.5216 90.484 90.0301 90.0073C89.1618 89.7285 88.547 91.0413 89.4289 91.3189Z" fill="#17171A"/>
</g>
<path d="M82.2106 88.8678L88.7872 89.8096L84.7897 91.7626L87.4445 92.7786C87.5573 92.8233 87.5725 92.999 87.4617 93.0562L79.1914 97.0065C79.061 97.0723 78.9365 96.8924 79.0279 96.7688L81.8183 93.2999L78.3238 91.9414C78.2183 91.9029 78.1981 91.7481 78.2942 91.6785L82.2106 88.8678Z" fill="white"/>
</g>
<g opacity="0.9">
<g style="mix-blend-mode:luminosity">
<path d="M65.3206 88.2103C65.7302 88.1326 66.156 88.417 66.2694 88.8523C67.0291 91.7248 66.5186 94.8484 64.9819 97.2075C63.3011 99.7844 60.489 101.429 57.4636 101.795C54.6182 102.141 51.5773 101.365 49.1823 99.5157C46.9972 97.8304 45.4286 95.3467 45.0075 92.632C44.9416 92.1928 45.2004 91.8026 45.6099 91.7249L65.3146 88.1964L65.3206 88.2103Z" fill="#17171A"/>
<path d="M65.234 88.998C66.089 88.983 65.7867 92.4764 65.7181 92.9653C65.5338 94.2915 65.0743 95.5884 64.3475 96.7214C62.9728 98.8467 60.7167 100.334 58.2495 100.854C52.6464 102.017 47.4428 98.463 45.9239 93.1196C45.741 92.4846 45.6343 92.6371 46.0458 92.4683C46.3326 92.3532 46.7007 92.3507 46.9975 92.2969L50.3808 91.6949C53.4338 91.1447 56.4966 90.5985 59.5496 90.0483C61.5143 89.6955 63.4791 89.3426 65.4438 88.9898C66.4568 88.8084 66.2272 87.2255 65.2043 87.4029C59.5455 88.4176 53.9006 89.4263 48.2419 90.4409C47.3653 90.5964 46.467 90.7203 45.5985 90.9134C43.2659 91.4409 44.4769 94.39 45.1833 95.8417C47.8265 101.3 54.4143 104.029 60.133 101.971C63.0804 100.909 65.5216 98.6118 66.6557 95.6794C67.2474 94.1369 67.4847 92.4762 67.3936 90.8337C67.3266 89.5336 67.1496 87.3865 65.4101 87.4046C64.3968 87.4139 64.2069 89.0132 65.234 88.998Z" fill="#17171A"/>
<path d="M56.761 88.9383L64.0263 87.6346L60.4923 91.0906L63.647 91.235C63.7816 91.2427 63.859 91.4227 63.7622 91.5218L56.4192 98.5767C56.3045 98.6916 56.1104 98.5454 56.1636 98.3831L57.8952 93.7499L53.735 93.5376C53.6103 93.5338 53.5349 93.3775 53.612 93.2705L56.761 88.9383Z" fill="white"/>
</g>
</g>
</g>
</g>
</g>
<g filter="url(#filter9_di_1561_35215)">
<path d="M97.0796 76.2015C98.0999 78.3632 98.9183 80.6275 99.5162 82.9858C104.862 84.6557 108.02 86.743 108.062 89.0572C108.101 91.2454 105.35 93.3214 100.604 95.1178C92.2146 98.2856 77.5395 100.548 60.801 100.848C44.0626 101.147 29.3252 99.4113 20.8186 96.546C16.0109 94.9206 13.188 92.9444 13.1488 90.7562C13.1074 88.4419 16.1889 86.2429 21.4714 84.3828C21.9845 82.0046 22.7214 79.7124 23.6637 77.5157C10.8111 81.2228 2.65684 86.6563 2.76258 92.5635C2.86832 98.4707 10.8462 103.363 23.3236 106.626C33.484 109.281 46.6332 110.758 60.9831 110.501C75.333 110.244 88.4116 108.298 98.4798 105.281C110.842 101.582 118.628 96.2635 118.524 90.4913C118.421 84.7192 110.075 79.4459 97.0888 76.2014L97.0796 76.2015Z" fill="url(#paint0_radial_1561_35215)"/>
<path d="M97.0796 76.2015C98.0999 78.3632 98.9183 80.6275 99.5162 82.9858C104.862 84.6557 108.02 86.743 108.062 89.0572C108.101 91.2454 105.35 93.3214 100.604 95.1178C92.2146 98.2856 77.5395 100.548 60.801 100.848C44.0626 101.147 29.3252 99.4113 20.8186 96.546C16.0109 94.9206 13.188 92.9444 13.1488 90.7562C13.1074 88.4419 16.1889 86.2429 21.4714 84.3828C21.9845 82.0046 22.7214 79.7124 23.6637 77.5157C10.8111 81.2228 2.65684 86.6563 2.76258 92.5635C2.86832 98.4707 10.8462 103.363 23.3236 106.626C33.484 109.281 46.6332 110.758 60.9831 110.501C75.333 110.244 88.4116 108.298 98.4798 105.281C110.842 101.582 118.628 96.2635 118.524 90.4913C118.421 84.7192 110.075 79.4459 97.0888 76.2014L97.0796 76.2015Z" fill="url(#paint1_radial_1561_35215)" fill-opacity="0.5"/>
</g>
<g filter="url(#filter10_d_1561_35215)">
<path d="M44.6746 36.8907C54.1954 29.5397 66.6264 29.5397 76.1472 36.8907C76.83 37.4181 76.9558 38.3991 76.4285 39.0821C75.901 39.7648 74.92 39.8906 74.2371 39.3633C65.8414 32.8813 54.9804 32.8813 46.5847 39.3633C45.9018 39.8906 44.9207 39.7648 44.3933 39.0821C43.866 38.3991 43.9918 37.4181 44.6746 36.8907Z" fill="url(#paint2_radial_1561_35215)"/>
<path d="M38.6121 29.6408C51.7997 19.4563 69.0017 19.4563 82.1893 29.6408C82.8719 30.1683 82.9979 31.1493 82.4705 31.8322C81.9431 32.5151 80.9621 32.6409 80.2791 32.1134C68.2168 22.798 52.5847 22.798 40.5223 32.1134C39.8394 32.6409 38.8584 32.515 38.3309 31.8322C37.8035 31.1493 37.9293 30.1683 38.6121 29.6408Z" fill="url(#paint3_radial_1561_35215)"/>
<path d="M48.589 44.4933C55.7148 38.9736 65.0648 38.9736 72.1906 44.4933C72.8728 45.0217 72.9974 46.0034 72.4689 46.6856C71.9405 47.3678 70.9587 47.4924 70.2765 46.964C64.2774 42.317 56.5023 42.317 50.5031 46.964C49.8209 47.4924 48.8392 47.3678 48.3107 46.6856C47.7823 46.0034 47.9069 45.0217 48.589 44.4933Z" fill="url(#paint4_radial_1561_35215)"/>
</g>
</g>
<defs>
<filter id="filter0_i_1561_35215" x="9.17188" y="42.7915" width="102.003" height="104.107" filterUnits="userSpaceOnUse" color-interpolation-filters="sRGB">
<feFlood flood-opacity="0" result="BackgroundImageFix"/>
<feBlend mode="normal" in="SourceGraphic" in2="BackgroundImageFix" result="shape"/>
<feColorMatrix in="SourceAlpha" type="matrix" values="0 0 0 0 0 0 0 0 0 0 0 0 0 0 0 0 0 0 127 0" result="hardAlpha"/>
<feOffset dx="-1" dy="1"/>
<feGaussianBlur stdDeviation="3.22805"/>
<feComposite in2="hardAlpha" operator="arithmetic" k2="-1" k3="1"/>
<feColorMatrix type="matrix" values="0 0 0 0 1 0 0 0 0 1 0 0 0 0 1 0 0 0 0.99 0"/>
<feBlend mode="normal" in2="shape" result="effect1_innerShadow_1561_35215"/>
</filter>
<filter id="filter1_f_1561_35215" x="-17.1797" y="42.9248" width="122.243" height="122.838" filterUnits="userSpaceOnUse" color-interpolation-filters="sRGB">
<feFlood flood-opacity="0" result="BackgroundImageFix"/>
<feBlend mode="normal" in="SourceGraphic" in2="BackgroundImageFix" result="shape"/>
<feGaussianBlur stdDeviation="15" result="effect1_foregroundBlur_1561_35215"/>
</filter>
<filter id="filter2_f_1561_35215" x="-22.5298" y="17.7876" width="110.127" height="110.563" filterUnits="userSpaceOnUse" color-interpolation-filters="sRGB">
<feFlood flood-opacity="0" result="BackgroundImageFix"/>
<feBlend mode="normal" in="SourceGraphic" in2="BackgroundImageFix" result="shape"/>
<feGaussianBlur stdDeviation="16.1223" result="effect1_foregroundBlur_1561_35215"/>
</filter>
<filter id="filter3_f_1561_35215" x="-16.7361" y="36.2205" width="105.004" height="105.323" filterUnits="userSpaceOnUse" color-interpolation-filters="sRGB">
<feFlood flood-opacity="0" result="BackgroundImageFix"/>
<feBlend mode="normal" in="SourceGraphic" in2="BackgroundImageFix" result="shape"/>
<feGaussianBlur stdDeviation="17.9056" result="effect1_foregroundBlur_1561_35215"/>
</filter>
<filter id="filter4_f_1561_35215" x="22.2747" y="17.6444" width="127.387" height="127.635" filterUnits="userSpaceOnUse" color-interpolation-filters="sRGB">
<feFlood flood-opacity="0" result="BackgroundImageFix"/>
<feBlend mode="normal" in="SourceGraphic" in2="BackgroundImageFix" result="shape"/>
<feGaussianBlur stdDeviation="21.5204" result="effect1_foregroundBlur_1561_35215"/>
</filter>
<filter id="filter5_f_1561_35215" x="22.2747" y="17.6444" width="127.387" height="127.635" filterUnits="userSpaceOnUse" color-interpolation-filters="sRGB">
<feFlood flood-opacity="0" result="BackgroundImageFix"/>
<feBlend mode="normal" in="SourceGraphic" in2="BackgroundImageFix" result="shape"/>
<feGaussianBlur stdDeviation="21.5204" result="effect1_foregroundBlur_1561_35215"/>
</filter>
<filter id="filter6_f_1561_35215" x="2.28547" y="-14.2267" width="124.619" height="118.259" filterUnits="userSpaceOnUse" color-interpolation-filters="sRGB">
<feFlood flood-opacity="0" result="BackgroundImageFix"/>
<feBlend mode="normal" in="SourceGraphic" in2="BackgroundImageFix" result="shape"/>
<feGaussianBlur stdDeviation="21.5204" result="effect1_foregroundBlur_1561_35215"/>
</filter>
<filter id="filter7_f_1561_35215" x="71.5419" y="56.4833" width="15.1349" height="12.3815" filterUnits="userSpaceOnUse" color-interpolation-filters="sRGB">
<feFlood flood-opacity="0" result="BackgroundImageFix"/>
<feBlend mode="normal" in="SourceGraphic" in2="BackgroundImageFix" result="shape"/>
<feGaussianBlur stdDeviation="1.08598" result="effect1_foregroundBlur_1561_35215"/>
</filter>
<filter id="filter8_f_1561_35215" x="63.495" y="55.0717" width="8.59783" height="6.78972" filterUnits="userSpaceOnUse" color-interpolation-filters="sRGB">
<feFlood flood-opacity="0" result="BackgroundImageFix"/>
<feBlend mode="normal" in="SourceGraphic" in2="BackgroundImageFix" result="shape"/>
<feGaussianBlur stdDeviation="1.08598" result="effect1_foregroundBlur_1561_35215"/>
</filter>
<filter id="filter9_di_1561_35215" x="-1.32715" y="73.547" width="123.941" height="42.5059" filterUnits="userSpaceOnUse" color-interpolation-filters="sRGB">
<feFlood flood-opacity="0" result="BackgroundImageFix"/>
<feColorMatrix in="SourceAlpha" type="matrix" values="0 0 0 0 0 0 0 0 0 0 0 0 0 0 0 0 0 0 127 0" result="hardAlpha"/>
<feOffset dy="1.43469"/>
<feGaussianBlur stdDeviation="2.04443"/>
<feComposite in2="hardAlpha" operator="out"/>
<feColorMatrix type="matrix" values="0 0 0 0 0 0 0 0 0 0 0 0 0 0 0 0 0 0 0.1 0"/>
<feBlend mode="normal" in2="BackgroundImageFix" result="effect1_dropShadow_1561_35215"/>
<feBlend mode="normal" in="SourceGraphic" in2="effect1_dropShadow_1561_35215" result="shape"/>
<feColorMatrix in="SourceAlpha" type="matrix" values="0 0 0 0 0 0 0 0 0 0 0 0 0 0 0 0 0 0 127 0" result="hardAlpha"/>
<feOffset dx="1.5654"/>
<feGaussianBlur stdDeviation="1.3"/>
<feComposite in2="hardAlpha" operator="arithmetic" k2="-1" k3="1"/>
<feColorMatrix type="matrix" values="0 0 0 0 1 0 0 0 0 1 0 0 0 0 1 0 0 0 0.41 0"/>
<feBlend mode="normal" in2="shape" result="effect2_innerShadow_1561_35215"/>
</filter>
<filter id="filter10_d_1561_35215" x="27.5049" y="12.5024" width="65.792" height="46.2891" filterUnits="userSpaceOnUse" color-interpolation-filters="sRGB">
<feFlood flood-opacity="0" result="BackgroundImageFix"/>
<feColorMatrix in="SourceAlpha" type="matrix" values="0 0 0 0 0 0 0 0 0 0 0 0 0 0 0 0 0 0 127 0" result="hardAlpha"/>
<feOffset dy="1"/>
<feGaussianBlur stdDeviation="5.25"/>
<feComposite in2="hardAlpha" operator="out"/>
<feColorMatrix type="matrix" values="0 0 0 0 1 0 0 0 0 1 0 0 0 0 1 0 0 0 0.31 0"/>
<feBlend mode="normal" in2="BackgroundImageFix" result="effect1_dropShadow_1561_35215"/>
<feBlend mode="normal" in="SourceGraphic" in2="effect1_dropShadow_1561_35215" result="shape"/>
</filter>
<radialGradient id="paint0_radial_1561_35215" cx="0" cy="0" r="1" gradientUnits="userSpaceOnUse" gradientTransform="translate(61.0765 91.8762) rotate(-4.92241) scale(62.6546 18.2128)">
<stop offset="0.288462" stop-color="#E6EDF8"/>
<stop offset="1" stop-color="#292B2F"/>
</radialGradient>
<radialGradient id="paint1_radial_1561_35215" cx="0" cy="0" r="1" gradientUnits="userSpaceOnUse" gradientTransform="translate(18.4917 87.1104) rotate(25.9926) scale(48.6825 74.7802)">
<stop offset="0.139423" stop-color="#181920"/>
<stop offset="0.668269" stop-color="#181920" stop-opacity="0"/>
</radialGradient>
<radialGradient id="paint2_radial_1561_35215" cx="0" cy="0" r="1" gradientUnits="userSpaceOnUse" gradientTransform="translate(59.8798 30.5558) rotate(87.8077) scale(9.53838 37.4668)">
<stop stop-color="white"/>
<stop offset="0.861096" stop-color="#393E45"/>
</radialGradient>
<radialGradient id="paint3_radial_1561_35215" cx="0" cy="0" r="1" gradientUnits="userSpaceOnUse" gradientTransform="translate(59.6729 20.9707) rotate(87.6078) scale(11.9789 51.3343)">
<stop stop-color="white"/>
<stop offset="0.861096" stop-color="#393E45"/>
</radialGradient>
<radialGradient id="paint4_radial_1561_35215" cx="0" cy="0" r="1" gradientUnits="userSpaceOnUse" gradientTransform="translate(59.9866 39.6677) rotate(88.006) scale(7.96056 28.4448)">
<stop stop-color="white"/>
<stop offset="0.861096" stop-color="#393E45"/>
</radialGradient>
<clipPath id="clip0_1561_35215">
<rect width="120" height="120" fill="white" transform="translate(0.5)"/>
</clipPath>
<clipPath id="clip1_1561_35215">
<rect width="80.8527" height="82.2384" rx="40.4263" transform="matrix(0.953272 -0.302114 0.290962 0.956735 10.1719 67.2183)" fill="white"/>
</clipPath>
</defs>
</svg>
