<svg width="32" height="32" viewBox="0 0 32 32" fill="none" xmlns="http://www.w3.org/2000/svg">
<path fill-rule="evenodd" clip-rule="evenodd" d="M21.0242 14.112L5.3862 3.31378C4.5949 2.81269 3.63044 2.94627 2.9334 3.47019C2.3962 3.87398 2.01785 4.50962 2.00002 5.26528V26.6666L2 26.6752C2 28.4432 3.95789 29.5876 5.3862 28.683L21.0242 17.9499C22.3252 17.0723 22.3252 14.9896 21.0242 14.112ZM29.4998 5.48432C29.4998 4.37974 28.6044 3.48431 27.4998 3.48431C26.3954 3.48431 25.4998 4.37974 25.4998 5.48432V26.5156C25.4998 27.6202 26.3954 28.5156 27.4998 28.5156C28.6044 28.5156 29.4998 27.6202 29.4998 26.5156V5.48432Z" fill="#7e889a"/>
</svg>
