<svg width="16" height="16" viewBox="0 0 16 16" fill="none" xmlns="http://www.w3.org/2000/svg">
<path d="M6.24984 2.1665C4.7215 2.1665 3.479 3.409 3.479 4.93734C3.479 6.4365 4.6515 7.64984 6.17984 7.70234C6.2265 7.6965 6.27317 7.6965 6.30817 7.70234C6.31984 7.70234 6.32567 7.70234 6.33734 7.70234C6.34317 7.70234 6.34317 7.70234 6.349 7.70234C7.84234 7.64984 9.01484 6.4365 9.02067 4.93734C9.02067 3.409 7.77817 2.1665 6.24984 2.1665Z" fill="#E6EDF8"/>
<path d="M9.21404 9.25418C7.58654 8.16918 4.93238 8.16918 3.29321 9.25418C2.55238 9.75001 2.14404 10.4208 2.14404 11.1383C2.14404 11.8558 2.55238 12.5208 3.28738 13.0108C4.10404 13.5592 5.17738 13.8333 6.25071 13.8333C7.32404 13.8333 8.39738 13.5592 9.21404 13.0108C9.94904 12.515 10.3574 11.85 10.3574 11.1267C10.3515 10.4092 9.94904 9.74418 9.21404 9.25418Z" fill="#E6EDF8"/>
<path d="M12.6605 5.28156C12.7538 6.41323 11.9488 7.4049 10.8346 7.53906C10.8288 7.53906 10.8288 7.53906 10.823 7.53906H10.8055C10.7705 7.53906 10.7355 7.53906 10.7063 7.55073C10.1405 7.5799 9.6213 7.39906 9.23047 7.06656C9.8313 6.5299 10.1755 5.7249 10.1055 4.8499C10.0646 4.3774 9.9013 3.94573 9.6563 3.57823C9.87797 3.4674 10.1346 3.3974 10.3971 3.37406C11.5405 3.2749 12.5613 4.12656 12.6605 5.28156Z" fill="#E6EDF8"/>
<path d="M13.8278 10.6776C13.7811 11.2434 13.4195 11.7334 12.8128 12.0659C12.2295 12.3867 11.4945 12.5384 10.7653 12.5209C11.1853 12.1417 11.4303 11.6692 11.477 11.1676C11.5353 10.4442 11.1911 9.75007 10.5028 9.1959C10.112 8.88674 9.65697 8.64173 9.16113 8.4609C10.4503 8.08757 12.072 8.3384 13.0695 9.1434C13.6061 9.57507 13.8803 10.1176 13.8278 10.6776Z" fill="#E6EDF8"/>
</svg>
