<svg width="121" height="120" viewBox="0 0 121 120" fill="none" xmlns="http://www.w3.org/2000/svg">
<g opacity="0.7">
<g clip-path="url(#clip0_1561_35128)">
<g filter="url(#filter0_i_1561_35128)">
<g clip-path="url(#clip1_1561_35128)">
<rect x="10.1533" y="43.3247" width="80.7035" height="80.7035" rx="40.3517" transform="rotate(-17.2473 10.1533 43.3247)" fill="white"/>
<g filter="url(#filter1_f_1561_35128)">
<circle cx="53.0232" cy="90.8078" r="40.2781" transform="rotate(141.593 53.0232 90.8078)" fill="#080B10"/>
</g>
<g filter="url(#filter2_f_1561_35128)">
<circle cx="31.3533" cy="60.9189" r="22.9276" transform="rotate(141.593 31.3533 60.9189)" fill="#3C424B"/>
</g>
<g filter="url(#filter3_f_1561_35128)">
<circle cx="31.862" cy="77.0031" r="16.7703" transform="rotate(141.593 31.862 77.0031)" fill="#181920"/>
</g>
<g filter="url(#filter4_f_1561_35128)">
<ellipse cx="82.7668" cy="78.677" rx="20.4081" ry="21.0214" transform="rotate(141.593 82.7668 78.677)" fill="#0F1014"/>
</g>
<g filter="url(#filter5_f_1561_35128)">
<ellipse cx="82.7668" cy="78.677" rx="20.4081" ry="21.0214" transform="rotate(141.593 82.7668 78.677)" fill="#494C59"/>
</g>
<g filter="url(#filter6_f_1561_35128)">
<ellipse cx="67.8461" cy="39.014" rx="13.8076" ry="21.0214" transform="rotate(130.987 67.8461 39.014)" fill="#D7E1ED"/>
</g>
<g opacity="0.9">
<g style="mix-blend-mode:luminosity">
<path d="M83.1204 53.004C83.5514 52.998 83.9343 53.3637 83.972 53.8271C84.2328 56.8882 83.1551 59.978 81.169 62.106C78.9971 64.4301 75.8397 65.6025 72.6933 65.435C69.7338 65.2793 66.7756 63.9463 64.6668 61.6353C62.7425 59.5289 61.5885 56.7195 61.6445 53.8797C61.6558 53.4206 61.989 53.0695 62.42 53.0634L83.1168 52.9888L83.1204 53.004Z" fill="#17171A"/>
<path d="M82.8954 53.7872C83.7687 53.9247 82.8372 57.4283 82.68 57.9139C82.2554 59.2316 81.556 60.4702 80.6135 61.4942C78.8341 63.4131 76.2709 64.5248 73.6655 64.6135C67.7518 64.7973 63.0871 60.2493 62.4945 54.5364C62.4216 53.8571 62.2857 53.9933 62.7349 53.895C63.0475 53.8289 63.4228 53.8921 63.7347 53.8903L67.2877 53.8814C70.495 53.8662 73.7117 53.8569 76.919 53.8418C78.9828 53.8333 81.0467 53.8248 83.1105 53.8163C84.1746 53.8125 84.2234 52.1595 83.1499 52.1575C77.206 52.1804 71.2773 52.1996 65.3333 52.2225C64.413 52.2243 63.476 52.19 62.557 52.2316C60.0874 52.3522 60.794 55.5718 61.2542 57.1764C62.9712 63.2074 69.1928 67.1624 75.3841 66.088C78.5754 65.5322 81.4715 63.6291 83.1502 60.8453C84.0282 59.3801 84.5664 57.7313 84.7668 56.0423C84.9308 54.7063 85.134 52.4882 83.3592 52.196C82.3257 52.0245 81.8467 53.6193 82.8954 53.7872Z" fill="#17171A"/>
<path d="M74.2782 52.209L81.9099 52.1787L77.6937 55.0672L80.8807 55.7775C81.0164 55.8094 81.0631 56.0066 80.9468 56.0902L72.209 61.9635C72.0718 62.0601 71.9002 61.8765 71.9834 61.7207L74.5741 57.3116L70.3754 56.3525C70.2491 56.3263 70.2002 56.1538 70.2977 56.0586L74.2782 52.209Z" fill="white"/>
</g>
</g>
<g filter="url(#filter7_f_1561_35128)">
<ellipse cx="61.492" cy="37.3812" rx="2.36999" ry="5.85608" transform="rotate(-95.088 61.492 37.3812)" fill="white"/>
</g>
<g filter="url(#filter8_f_1561_35128)">
<ellipse cx="48.4116" cy="39.8702" rx="1.20349" ry="2.14129" transform="rotate(-110.614 48.4116 39.8702)" fill="white"/>
</g>
</g>
</g>
<g filter="url(#filter9_dii_1561_35128)">
<g clip-path="url(#clip2_1561_35128)">
<rect x="55.2383" y="12.1611" width="10.4915" height="10.4915" rx="5.24573" transform="rotate(-11.9361 55.2383 12.1611)" fill="white"/>
<g filter="url(#filter10_f_1561_35128)">
<circle cx="60.2155" cy="18.8239" r="4.06514" transform="rotate(146.904 60.2155 18.8239)" fill="#424C59"/>
</g>
<g filter="url(#filter11_f_1561_35128)">
<circle cx="57.2622" cy="15.027" r="2.98059" transform="rotate(146.904 57.2622 15.027)" fill="black"/>
</g>
<g filter="url(#filter12_f_1561_35128)">
<ellipse cx="64.2129" cy="17.6119" rx="2.65305" ry="2.73279" transform="rotate(146.904 64.2129 17.6119)" fill="#7E889A"/>
</g>
<g filter="url(#filter13_f_1561_35128)">
<ellipse cx="64.2129" cy="17.6119" rx="2.65305" ry="2.73279" transform="rotate(146.904 64.2129 17.6119)" fill="#7E889A"/>
</g>
<g filter="url(#filter14_f_1561_35128)">
<ellipse cx="62.7595" cy="12.2992" rx="1.79499" ry="2.73279" transform="rotate(136.298 62.7595 12.2992)" fill="#D7E1ED"/>
</g>
</g>
</g>
<g filter="url(#filter15_di_1561_35128)">
<path d="M95.9901 50.5766C97.1934 52.7297 98.2019 55.0047 98.9963 57.3942C104.51 58.6987 107.857 60.6067 108.088 62.9945C108.307 65.2522 105.711 67.6136 101.084 69.8433C92.9049 73.7766 78.3297 77.2693 61.5186 78.8965C44.7075 80.5237 29.7424 79.8903 20.9519 77.5995C15.9832 76.2986 12.9821 74.479 12.7635 72.2213C12.5324 69.8334 15.4519 67.3189 20.6128 64.9812C20.9341 62.4837 21.4876 60.0574 22.2556 57.7136C9.6318 62.5554 1.87503 68.8112 2.46498 74.9061C3.05492 81.0011 11.4797 85.428 24.2966 87.8167C34.7334 89.7606 48.0798 90.2506 62.492 88.8556C76.9042 87.4606 89.8995 84.4209 99.7791 80.5106C111.91 75.7164 119.306 69.6081 118.729 63.6526C118.153 57.697 109.327 52.9057 95.9994 50.5757L95.9901 50.5766Z" fill="url(#paint0_radial_1561_35128)"/>
<path d="M95.9901 50.5766C97.1934 52.7297 98.2019 55.0047 98.9963 57.3942C104.51 58.6987 107.857 60.6067 108.088 62.9945C108.307 65.2522 105.711 67.6136 101.084 69.8433C92.9049 73.7766 78.3297 77.2693 61.5186 78.8965C44.7075 80.5237 29.7424 79.8903 20.9519 77.5995C15.9832 76.2986 12.9821 74.479 12.7635 72.2213C12.5324 69.8334 15.4519 67.3189 20.6128 64.9812C20.9341 62.4837 21.4876 60.0574 22.2556 57.7136C9.6318 62.5554 1.87503 68.8112 2.46498 74.9061C3.05492 81.0011 11.4797 85.428 24.2966 87.8167C34.7334 89.7606 48.0798 90.2506 62.492 88.8556C76.9042 87.4606 89.8995 84.4209 99.7791 80.5106C111.91 75.7164 119.306 69.6081 118.729 63.6526C118.153 57.697 109.327 52.9057 95.9994 50.5757L95.9901 50.5766Z" fill="url(#paint1_radial_1561_35128)" fill-opacity="0.5"/>
</g>
<path d="M87.3611 19.9265C88.264 19.5579 89.3064 19.4973 90.3708 20.0242C91.4164 20.5419 91.9976 21.3583 92.1458 22.3294C92.2818 23.2223 92.0338 24.1297 91.7177 24.8873C91.1011 26.3651 89.9252 27.8872 89.675 28.2867C89.3819 28.7548 88.765 28.8965 88.2969 28.6033C87.8289 28.3102 87.6872 27.6933 87.9803 27.2252C88.416 26.5295 89.3368 25.4002 89.8721 24.1173C90.132 23.4943 90.2236 22.9922 90.1685 22.6309C90.1254 22.3481 89.9846 22.0649 89.4834 21.8167C89.0007 21.5777 88.5634 21.5962 88.117 21.7785C87.6341 21.9757 87.1421 22.3691 86.6789 22.874C86.2233 23.3705 85.8445 23.9209 85.5766 24.3557C85.4439 24.571 85.341 24.7538 85.2726 24.8801C85.2386 24.9429 85.2129 24.9917 85.1967 25.0234C85.1886 25.0392 85.1833 25.0511 85.1798 25.058C85.1781 25.0614 85.1766 25.0638 85.1761 25.0649C85.1761 25.0649 85.1761 25.0644 85.1751 25.0639C84.9328 25.56 84.3355 25.7662 83.8392 25.5242C83.3429 25.282 83.1368 24.6837 83.3789 24.1873L84.1284 24.5527L83.3789 24.1863L83.3799 24.1844C83.3805 24.1831 83.3817 24.1813 83.3827 24.1794C83.3846 24.1755 83.387 24.17 83.3901 24.1636C83.3965 24.1508 83.406 24.1334 83.4173 24.1113C83.44 24.067 83.4721 24.0046 83.5139 23.9274C83.5973 23.7733 83.7191 23.5578 83.8743 23.3061C84.1821 22.8067 84.6356 22.1434 85.2054 21.5224C85.7676 20.9095 86.4947 20.2804 87.3611 19.9265Z" fill="#2A2F39"/>
<path d="M96.2502 26.2266C97.2033 26.0194 98.2404 26.1397 99.1978 26.8426C100.138 27.5331 100.57 28.4376 100.548 29.4197C100.528 30.3227 100.127 31.1736 99.6845 31.8652C98.822 33.2143 97.4009 34.5104 97.0854 34.8607C96.7159 35.2711 96.0837 35.3041 95.6733 34.9346C95.263 34.565 95.23 33.9329 95.5995 33.5225C96.1489 32.9124 97.2509 31.9592 97.9997 30.788C98.3633 30.2193 98.5402 29.7405 98.5484 29.3752C98.5547 29.0892 98.4649 28.7859 98.0142 28.4549C97.58 28.1361 97.146 28.0787 96.6749 28.1812C96.1652 28.2921 95.6127 28.5946 95.0692 29.0119C94.5347 29.4223 94.0665 29.899 93.7275 30.2809C93.5596 30.4701 93.4267 30.6323 93.3376 30.7449C93.2932 30.801 93.2595 30.8446 93.238 30.873C93.2273 30.8871 93.22 30.8979 93.2155 30.9041C93.2132 30.9072 93.2113 30.9093 93.2106 30.9103C93.2106 30.9103 93.2106 30.9099 93.2097 30.9092C92.8855 31.356 92.2614 31.4559 91.8145 31.1318C91.3674 30.8076 91.2678 30.1826 91.592 29.7355L92.2671 30.2249L91.5921 29.7346L91.5934 29.7328C91.5943 29.7316 91.5958 29.7301 91.597 29.7284C91.5996 29.7249 91.6029 29.7199 91.6071 29.7141C91.6156 29.7026 91.6279 29.6871 91.6429 29.6672C91.6729 29.6276 91.7153 29.5717 91.7698 29.5029C91.8786 29.3655 92.0357 29.1743 92.2321 28.9531C92.6215 28.5144 93.1828 27.9394 93.8512 27.4261C94.5109 26.9196 95.3357 26.4255 96.2502 26.2266Z" fill="#2A2F39"/>
<path d="M103.857 34.4868C104.831 34.4517 105.831 34.7539 106.648 35.6153C107.452 36.4614 107.716 37.4281 107.521 38.3908C107.341 39.2759 106.795 40.0423 106.238 40.6447C105.15 41.8196 103.521 42.8434 103.149 43.1323C102.712 43.4707 102.084 43.3912 101.746 42.9548C101.408 42.5184 101.487 41.8904 101.924 41.552C102.572 41.0489 103.826 40.306 104.77 39.286C105.229 38.7907 105.488 38.3508 105.561 37.9927C105.617 37.7123 105.583 37.398 105.198 36.9923C104.827 36.6017 104.41 36.4684 103.928 36.4857C103.407 36.5045 102.81 36.7044 102.201 37.0188C101.602 37.328 101.057 37.7142 100.655 38.03C100.457 38.1864 100.297 38.3226 100.189 38.4176C100.136 38.4649 100.095 38.5019 100.069 38.526C100.056 38.538 100.047 38.5474 100.041 38.5527C100.038 38.5553 100.036 38.557 100.035 38.5579C100.035 38.5578 100.035 38.5575 100.035 38.5566C99.6363 38.9389 99.0044 38.9267 98.6219 38.5285C98.2394 38.1302 98.2521 37.4975 98.6504 37.1149L99.2281 37.7161L98.6507 37.114L98.6522 37.1125C98.6533 37.1115 98.6551 37.1103 98.6566 37.1088C98.6598 37.1058 98.6639 37.1014 98.669 37.0966C98.6794 37.0867 98.6943 37.0736 98.7126 37.0567C98.7491 37.023 98.8007 36.9755 98.8665 36.9174C98.998 36.8015 99.1865 36.6412 99.4189 36.4582C99.8799 36.0955 100.534 35.629 101.283 35.2423C102.022 34.8606 102.921 34.5205 103.857 34.4868Z" fill="#2A2F39"/>
<path d="M99.8879 15.6543C100.841 15.4471 101.878 15.5674 102.836 16.2703C103.776 16.9608 104.207 17.8654 104.186 18.8474C104.165 19.7504 103.764 20.6013 103.322 21.2929C102.46 22.642 101.039 23.9382 100.723 24.2885C100.354 24.6989 99.7214 24.7319 99.311 24.3623C98.9007 23.9927 98.8677 23.3606 99.2372 22.9502C99.7866 22.3402 100.889 21.3869 101.637 20.2158C102.001 19.647 102.178 19.1683 102.186 18.8029C102.192 18.5169 102.103 18.2136 101.652 17.8826C101.218 17.5638 100.784 17.5065 100.313 17.609C99.8029 17.7198 99.2504 18.0223 98.7069 18.4396C98.1724 18.85 97.7042 19.3267 97.3652 19.7086C97.1973 19.8978 97.0644 20.0601 96.9753 20.1727C96.9309 20.2287 96.8972 20.2723 96.8757 20.3007C96.865 20.3149 96.8577 20.3257 96.8532 20.3319C96.8509 20.3349 96.849 20.3371 96.8483 20.338C96.8483 20.338 96.8483 20.3376 96.8474 20.3369C96.5232 20.7837 95.8991 20.8837 95.4522 20.5595C95.0051 20.2353 94.9055 19.6104 95.2297 19.1633L95.9048 19.6526L95.2298 19.1623L95.2311 19.1605C95.2319 19.1594 95.2335 19.1578 95.2347 19.1561C95.2373 19.1526 95.2406 19.1476 95.2448 19.1419C95.2533 19.1304 95.2656 19.1148 95.2806 19.095C95.3106 19.0553 95.353 18.9994 95.4075 18.9306C95.5163 18.7932 95.6734 18.602 95.8698 18.3808C96.2592 17.9421 96.8205 17.3671 97.4889 16.8538C98.1486 16.3473 98.9734 15.8532 99.8879 15.6543Z" fill="#2A2F39"/>
<path d="M107.728 23.9326C108.681 23.7254 109.718 23.8458 110.675 24.5487C111.616 25.2391 112.047 26.1437 112.025 27.1257C112.005 28.0287 111.604 28.8796 111.162 29.5713C110.3 30.9203 108.878 32.2165 108.563 32.5668C108.193 32.9772 107.561 33.0102 107.151 32.6406C106.741 32.2711 106.708 31.6389 107.077 31.2285C107.626 30.6185 108.728 29.6653 109.477 28.4941C109.841 27.9254 110.018 27.4466 110.026 27.0812C110.032 26.7952 109.942 26.4919 109.492 26.1609C109.058 25.8422 108.624 25.7848 108.152 25.8873C107.643 25.9981 107.09 26.3006 106.547 26.7179C106.012 27.1283 105.544 27.605 105.205 27.987C105.037 28.1761 104.904 28.3384 104.815 28.451C104.771 28.507 104.737 28.5506 104.716 28.579C104.705 28.5932 104.698 28.604 104.693 28.6102C104.691 28.6133 104.689 28.6154 104.688 28.6163C104.688 28.6163 104.688 28.6159 104.687 28.6152C104.363 29.0621 103.739 29.162 103.292 28.8378C102.845 28.5136 102.745 27.8887 103.07 27.4416L103.745 27.9309L103.07 27.4406L103.071 27.4388C103.072 27.4377 103.073 27.4362 103.075 27.4345C103.077 27.4309 103.08 27.4259 103.085 27.4202C103.093 27.4087 103.105 27.3931 103.12 27.3733C103.15 27.3337 103.193 27.2777 103.247 27.2089C103.356 27.0715 103.513 26.8803 103.71 26.6591C104.099 26.2204 104.66 25.6454 105.329 25.1321C105.988 24.6256 106.813 24.1315 107.728 23.9326Z" fill="#2A2F39"/>
<g opacity="0.8">
<mask id="mask0_1561_35128" style="mask-type:alpha" maskUnits="userSpaceOnUse" x="18" y="31" width="49" height="49">
<path d="M66.2005 55.8796C66.2005 69.1302 55.4588 79.8719 42.2082 79.8719C28.9576 79.8719 18.2158 69.1302 18.2158 55.8796C18.2158 42.629 28.9576 31.8872 42.2082 31.8872C55.4588 31.8872 66.2005 42.629 66.2005 55.8796Z" fill="white"/>
</mask>
<g mask="url(#mask0_1561_35128)">
<g filter="url(#filter16_f_1561_35128)">
<circle cx="36.4112" cy="67.8099" r="19.4129" transform="rotate(141.593 36.4112 67.8099)" fill="#4E525A"/>
</g>
<g filter="url(#filter17_f_1561_35128)">
<circle cx="13.8073" cy="36.6382" r="23.9169" transform="rotate(141.593 13.8073 36.6382)" fill="#999999"/>
</g>
<g filter="url(#filter18_f_1561_35128)">
<circle cx="19.4978" cy="53.3363" r="17.4938" transform="rotate(141.593 19.4978 53.3363)" fill="white"/>
</g>
<g filter="url(#filter19_f_1561_35128)">
<ellipse cx="59.3131" cy="50.2847" rx="18.3943" ry="18.9471" transform="rotate(141.593 59.3131 50.2847)" fill="white"/>
</g>
<g filter="url(#filter20_f_1561_35128)">
<ellipse cx="58.3026" cy="53.9631" rx="14.8715" ry="15.3185" transform="rotate(141.593 58.3026 53.9631)" fill="white"/>
</g>
</g>
</g>
<g filter="url(#filter21_di_1561_35128)">
<path d="M62.0426 39.9099C53.2212 27.8055 36.2575 25.1407 24.1531 33.9535C12.0486 42.7662 9.38392 59.7386 18.1966 71.843C27.0181 83.9475 43.9817 86.6122 56.0862 77.7994C68.1906 68.978 70.8553 52.0144 62.0426 39.9099ZM23.1952 68.203C16.3853 58.859 18.4492 45.7619 27.7931 38.952C37.1371 32.1422 50.2342 34.206 57.0441 43.55C63.8539 52.8939 61.7901 65.9911 52.4461 72.8009C43.1022 79.6108 30.005 77.5469 23.1952 68.203Z" fill="url(#paint2_radial_1561_35128)"/>
</g>
<path d="M36.93 66.0783C36.93 65.2984 37.1863 64.6744 37.6988 64.2064C38.2114 63.7161 38.8577 63.471 39.6377 63.471C40.3954 63.471 41.0305 63.7161 41.5431 64.2064C42.0779 64.6744 42.3453 65.2984 42.3453 66.0783C42.3453 66.836 42.0779 67.4489 41.5431 67.9169C41.0305 68.4072 40.3954 68.6523 39.6377 68.6523C38.8577 68.6523 38.2114 68.4072 37.6988 67.9169C37.1863 67.4489 36.93 66.836 36.93 66.0783ZM38.1668 53.4425C38.412 53.4425 38.7574 53.398 39.2031 53.3088C39.6711 53.2197 40.1279 53.0637 40.5736 52.8408C41.0193 52.6403 41.4093 52.3617 41.7436 52.0051C42.0779 51.6486 42.245 51.1917 42.245 50.6346C42.245 49.9883 41.9776 49.4646 41.4428 49.0634C40.9302 48.6623 40.0499 48.4617 38.8019 48.4617C37.6654 48.4617 36.7071 48.6289 35.9271 48.9632C35.1694 49.2752 34.5009 49.5872 33.9214 49.8992C33.6095 50.0774 33.342 50.0997 33.1192 49.966C32.8963 49.8323 32.7292 49.5983 32.6178 49.264L31.9492 46.9575C31.8378 46.5563 31.8155 46.2443 31.8823 46.0215C31.9715 45.7764 32.1609 45.5646 32.4506 45.3864C32.8963 45.1189 33.3532 44.8738 33.8212 44.6509C34.3114 44.4281 34.8463 44.2275 35.4257 44.0492C36.0051 43.871 36.6514 43.7372 37.3645 43.6481C38.0777 43.5367 38.8911 43.481 39.8048 43.481C40.9859 43.481 42.0779 43.6147 43.0807 43.8821C44.1059 44.1272 44.9973 44.5284 45.755 45.0855C46.4904 45.6649 47.0698 46.4003 47.4933 47.2918C47.9167 48.1832 48.1284 49.2752 48.1284 50.5677C48.1284 51.6151 47.9724 52.5065 47.6604 53.242C47.3484 53.9551 46.9695 54.5457 46.5238 55.0136C46.0781 55.4816 45.599 55.8605 45.0864 56.1502C44.5739 56.4176 44.1059 56.6293 43.6824 56.7853C43.3482 56.919 43.103 57.0193 42.947 57.0862C42.8133 57.1308 42.6685 57.1753 42.5125 57.2199L42.5125 60.0279C42.5125 60.6073 42.4233 61.0084 42.245 61.2313C42.0668 61.4318 41.7325 61.5321 41.2422 61.5321L38.2002 61.5321C37.7322 61.5321 37.398 61.4318 37.1974 61.2313C37.0191 61.0084 36.93 60.6073 36.93 60.0279L36.8965 54.8465C36.8965 54.3339 36.9857 53.9774 37.164 53.7768C37.3645 53.554 37.6988 53.4425 38.1668 53.4425Z" fill="#23242D"/>
<g opacity="0.7" filter="url(#filter22_f_1561_35128)">
<ellipse cx="49.3011" cy="46.3834" rx="3.17099" ry="7.83528" transform="rotate(-35.0176 49.3011 46.3834)" fill="white"/>
</g>
<g opacity="0.7" filter="url(#filter23_f_1561_35128)">
<ellipse cx="49.12" cy="63.0416" rx="1.84362" ry="3.70885" transform="rotate(39.5428 49.12 63.0416)" fill="white"/>
</g>
</g>
</g>
<defs>
<filter id="filter0_i_1561_35128" x="9.15332" y="19.3965" width="102.003" height="102.003" filterUnits="userSpaceOnUse" color-interpolation-filters="sRGB">
<feFlood flood-opacity="0" result="BackgroundImageFix"/>
<feBlend mode="normal" in="SourceGraphic" in2="BackgroundImageFix" result="shape"/>
<feColorMatrix in="SourceAlpha" type="matrix" values="0 0 0 0 0 0 0 0 0 0 0 0 0 0 0 0 0 0 127 0" result="hardAlpha"/>
<feOffset dx="-1" dy="1"/>
<feGaussianBlur stdDeviation="3.22805"/>
<feComposite in2="hardAlpha" operator="arithmetic" k2="-1" k3="1"/>
<feColorMatrix type="matrix" values="0 0 0 0 1 0 0 0 0 1 0 0 0 0 1 0 0 0 0.99 0"/>
<feBlend mode="normal" in2="shape" result="effect1_innerShadow_1561_35128"/>
</filter>
<filter id="filter1_f_1561_35128" x="-16.4568" y="21.3283" width="138.96" height="138.959" filterUnits="userSpaceOnUse" color-interpolation-filters="sRGB">
<feFlood flood-opacity="0" result="BackgroundImageFix"/>
<feBlend mode="normal" in="SourceGraphic" in2="BackgroundImageFix" result="shape"/>
<feGaussianBlur stdDeviation="14.6" result="effect1_foregroundBlur_1561_35128"/>
</filter>
<filter id="filter2_f_1561_35128" x="-23.8199" y="5.74557" width="110.347" height="110.347" filterUnits="userSpaceOnUse" color-interpolation-filters="sRGB">
<feFlood flood-opacity="0" result="BackgroundImageFix"/>
<feBlend mode="normal" in="SourceGraphic" in2="BackgroundImageFix" result="shape"/>
<feGaussianBlur stdDeviation="16.1223" result="effect1_foregroundBlur_1561_35128"/>
</filter>
<filter id="filter3_f_1561_35128" x="-20.7204" y="24.4212" width="105.165" height="105.164" filterUnits="userSpaceOnUse" color-interpolation-filters="sRGB">
<feFlood flood-opacity="0" result="BackgroundImageFix"/>
<feBlend mode="normal" in="SourceGraphic" in2="BackgroundImageFix" result="shape"/>
<feGaussianBlur stdDeviation="17.9056" result="effect1_foregroundBlur_1561_35128"/>
</filter>
<filter id="filter4_f_1561_35128" x="19.0784" y="14.8485" width="127.376" height="127.657" filterUnits="userSpaceOnUse" color-interpolation-filters="sRGB">
<feFlood flood-opacity="0" result="BackgroundImageFix"/>
<feBlend mode="normal" in="SourceGraphic" in2="BackgroundImageFix" result="shape"/>
<feGaussianBlur stdDeviation="21.5204" result="effect1_foregroundBlur_1561_35128"/>
</filter>
<filter id="filter5_f_1561_35128" x="19.0784" y="14.8485" width="127.376" height="127.657" filterUnits="userSpaceOnUse" color-interpolation-filters="sRGB">
<feFlood flood-opacity="0" result="BackgroundImageFix"/>
<feBlend mode="normal" in="SourceGraphic" in2="BackgroundImageFix" result="shape"/>
<feGaussianBlur stdDeviation="21.5204" result="effect1_foregroundBlur_1561_35128"/>
</filter>
<filter id="filter6_f_1561_35128" x="6.53156" y="-21.3117" width="122.629" height="120.651" filterUnits="userSpaceOnUse" color-interpolation-filters="sRGB">
<feFlood flood-opacity="0" result="BackgroundImageFix"/>
<feBlend mode="normal" in="SourceGraphic" in2="BackgroundImageFix" result="shape"/>
<feGaussianBlur stdDeviation="21.5204" result="effect1_foregroundBlur_1561_35128"/>
</filter>
<filter id="filter7_f_1561_35128" x="53.4833" y="32.7914" width="16.0178" height="9.17937" filterUnits="userSpaceOnUse" color-interpolation-filters="sRGB">
<feFlood flood-opacity="0" result="BackgroundImageFix"/>
<feBlend mode="normal" in="SourceGraphic" in2="BackgroundImageFix" result="shape"/>
<feGaussianBlur stdDeviation="1.08598" result="effect1_foregroundBlur_1561_35128"/>
</filter>
<filter id="filter8_f_1561_35128" x="44.1903" y="36.3427" width="8.44256" height="7.05486" filterUnits="userSpaceOnUse" color-interpolation-filters="sRGB">
<feFlood flood-opacity="0" result="BackgroundImageFix"/>
<feBlend mode="normal" in="SourceGraphic" in2="BackgroundImageFix" result="shape"/>
<feGaussianBlur stdDeviation="1.08598" result="effect1_foregroundBlur_1561_35128"/>
</filter>
<filter id="filter9_dii_1561_35128" x="42.7039" y="-1.1085" width="37.5034" height="37.5034" filterUnits="userSpaceOnUse" color-interpolation-filters="sRGB">
<feFlood flood-opacity="0" result="BackgroundImageFix"/>
<feColorMatrix in="SourceAlpha" type="matrix" values="0 0 0 0 0 0 0 0 0 0 0 0 0 0 0 0 0 0 127 0" result="hardAlpha"/>
<feMorphology radius="2.34811" operator="dilate" in="SourceAlpha" result="effect1_dropShadow_1561_35128"/>
<feOffset dy="1.43469"/>
<feGaussianBlur stdDeviation="5.09315"/>
<feComposite in2="hardAlpha" operator="out"/>
<feColorMatrix type="matrix" values="0 0 0 0 1 0 0 0 0 1 0 0 0 0 1 0 0 0 0.81 0"/>
<feBlend mode="normal" in2="BackgroundImageFix" result="effect1_dropShadow_1561_35128"/>
<feBlend mode="normal" in="SourceGraphic" in2="effect1_dropShadow_1561_35128" result="shape"/>
<feColorMatrix in="SourceAlpha" type="matrix" values="0 0 0 0 0 0 0 0 0 0 0 0 0 0 0 0 0 0 127 0" result="hardAlpha"/>
<feOffset dx="0.606157" dy="0.18651"/>
<feGaussianBlur stdDeviation="0.466274"/>
<feComposite in2="hardAlpha" operator="arithmetic" k2="-1" k3="1"/>
<feColorMatrix type="matrix" values="0 0 0 0 1 0 0 0 0 1 0 0 0 0 1 0 0 0 0.6 0"/>
<feBlend mode="normal" in2="shape" result="effect2_innerShadow_1561_35128"/>
<feColorMatrix in="SourceAlpha" type="matrix" values="0 0 0 0 0 0 0 0 0 0 0 0 0 0 0 0 0 0 127 0" result="hardAlpha"/>
<feOffset dx="-0.139882" dy="-0.18651"/>
<feGaussianBlur stdDeviation="0.419647"/>
<feComposite in2="hardAlpha" operator="arithmetic" k2="-1" k3="1"/>
<feColorMatrix type="matrix" values="0 0 0 0 1 0 0 0 0 1 0 0 0 0 1 0 0 0 0.78 0"/>
<feBlend mode="normal" in2="effect2_innerShadow_1561_35128" result="effect3_innerShadow_1561_35128"/>
</filter>
<filter id="filter10_f_1561_35128" x="50.5541" y="9.16301" width="19.3224" height="19.3219" filterUnits="userSpaceOnUse" color-interpolation-filters="sRGB">
<feFlood flood-opacity="0" result="BackgroundImageFix"/>
<feBlend mode="normal" in="SourceGraphic" in2="BackgroundImageFix" result="shape"/>
<feGaussianBlur stdDeviation="2.79765" result="effect1_foregroundBlur_1561_35128"/>
</filter>
<filter id="filter11_f_1561_35128" x="48.686" y="6.45061" width="17.1525" height="17.1525" filterUnits="userSpaceOnUse" color-interpolation-filters="sRGB">
<feFlood flood-opacity="0" result="BackgroundImageFix"/>
<feBlend mode="normal" in="SourceGraphic" in2="BackgroundImageFix" result="shape"/>
<feGaussianBlur stdDeviation="2.79765" result="effect1_foregroundBlur_1561_35128"/>
</filter>
<filter id="filter12_f_1561_35128" x="55.9399" y="9.30705" width="16.5461" height="16.6095" filterUnits="userSpaceOnUse" color-interpolation-filters="sRGB">
<feFlood flood-opacity="0" result="BackgroundImageFix"/>
<feBlend mode="normal" in="SourceGraphic" in2="BackgroundImageFix" result="shape"/>
<feGaussianBlur stdDeviation="2.79765" result="effect1_foregroundBlur_1561_35128"/>
</filter>
<filter id="filter13_f_1561_35128" x="55.9399" y="9.30705" width="16.5461" height="16.6095" filterUnits="userSpaceOnUse" color-interpolation-filters="sRGB">
<feFlood flood-opacity="0" result="BackgroundImageFix"/>
<feBlend mode="normal" in="SourceGraphic" in2="BackgroundImageFix" result="shape"/>
<feGaussianBlur stdDeviation="2.79765" result="effect1_foregroundBlur_1561_35128"/>
</filter>
<filter id="filter14_f_1561_35128" x="54.8735" y="4.37102" width="15.7726" height="15.8566" filterUnits="userSpaceOnUse" color-interpolation-filters="sRGB">
<feFlood flood-opacity="0" result="BackgroundImageFix"/>
<feBlend mode="normal" in="SourceGraphic" in2="BackgroundImageFix" result="shape"/>
<feGaussianBlur stdDeviation="2.79765" result="effect1_foregroundBlur_1561_35128"/>
</filter>
<filter id="filter15_di_1561_35128" x="-1.65527" y="47.9215" width="124.505" height="47.2554" filterUnits="userSpaceOnUse" color-interpolation-filters="sRGB">
<feFlood flood-opacity="0" result="BackgroundImageFix"/>
<feColorMatrix in="SourceAlpha" type="matrix" values="0 0 0 0 0 0 0 0 0 0 0 0 0 0 0 0 0 0 127 0" result="hardAlpha"/>
<feOffset dy="1.43469"/>
<feGaussianBlur stdDeviation="2.04443"/>
<feComposite in2="hardAlpha" operator="out"/>
<feColorMatrix type="matrix" values="0 0 0 0 0 0 0 0 0 0 0 0 0 0 0 0 0 0 0.1 0"/>
<feBlend mode="normal" in2="BackgroundImageFix" result="effect1_dropShadow_1561_35128"/>
<feBlend mode="normal" in="SourceGraphic" in2="effect1_dropShadow_1561_35128" result="shape"/>
<feColorMatrix in="SourceAlpha" type="matrix" values="0 0 0 0 0 0 0 0 0 0 0 0 0 0 0 0 0 0 127 0" result="hardAlpha"/>
<feOffset dx="1.5654"/>
<feGaussianBlur stdDeviation="1.76108"/>
<feComposite in2="hardAlpha" operator="arithmetic" k2="-1" k3="1"/>
<feColorMatrix type="matrix" values="0 0 0 0 1 0 0 0 0 1 0 0 0 0 1 0 0 0 0.35 0"/>
<feBlend mode="normal" in2="shape" result="effect2_innerShadow_1561_35128"/>
</filter>
<filter id="filter16_f_1561_35128" x="-4.92175" y="26.4767" width="82.6667" height="82.6667" filterUnits="userSpaceOnUse" color-interpolation-filters="sRGB">
<feFlood flood-opacity="0" result="BackgroundImageFix"/>
<feBlend mode="normal" in="SourceGraphic" in2="BackgroundImageFix" result="shape"/>
<feGaussianBlur stdDeviation="10.9599" result="effect1_foregroundBlur_1561_35128"/>
</filter>
<filter id="filter17_f_1561_35128" x="-46.5432" y="-23.7126" width="120.702" height="120.702" filterUnits="userSpaceOnUse" color-interpolation-filters="sRGB">
<feFlood flood-opacity="0" result="BackgroundImageFix"/>
<feBlend mode="normal" in="SourceGraphic" in2="BackgroundImageFix" result="shape"/>
<feGaussianBlur stdDeviation="18.2164" result="effect1_foregroundBlur_1561_35128"/>
</filter>
<filter id="filter18_f_1561_35128" x="-38.4597" y="-4.62086" width="115.915" height="115.915" filterUnits="userSpaceOnUse" color-interpolation-filters="sRGB">
<feFlood flood-opacity="0" result="BackgroundImageFix"/>
<feBlend mode="normal" in="SourceGraphic" in2="BackgroundImageFix" result="shape"/>
<feGaussianBlur stdDeviation="20.2313" result="effect1_foregroundBlur_1561_35128"/>
</filter>
<filter id="filter19_f_1561_35128" x="17.3145" y="8.15969" width="83.997" height="84.2505" filterUnits="userSpaceOnUse" color-interpolation-filters="sRGB">
<feFlood flood-opacity="0" result="BackgroundImageFix"/>
<feBlend mode="normal" in="SourceGraphic" in2="BackgroundImageFix" result="shape"/>
<feGaussianBlur stdDeviation="11.6943" result="effect1_foregroundBlur_1561_35128"/>
</filter>
<filter id="filter20_f_1561_35128" x="17.7214" y="13.2795" width="81.1627" height="81.3673" filterUnits="userSpaceOnUse" color-interpolation-filters="sRGB">
<feFlood flood-opacity="0" result="BackgroundImageFix"/>
<feBlend mode="normal" in="SourceGraphic" in2="BackgroundImageFix" result="shape"/>
<feGaussianBlur stdDeviation="12.7677" result="effect1_foregroundBlur_1561_35128"/>
</filter>
<filter id="filter21_di_1561_35128" x="1.0232" y="16.78" width="78.1929" height="78.1929" filterUnits="userSpaceOnUse" color-interpolation-filters="sRGB">
<feFlood flood-opacity="0" result="BackgroundImageFix"/>
<feColorMatrix in="SourceAlpha" type="matrix" values="0 0 0 0 0 0 0 0 0 0 0 0 0 0 0 0 0 0 127 0" result="hardAlpha"/>
<feOffset/>
<feGaussianBlur stdDeviation="5.9884"/>
<feComposite in2="hardAlpha" operator="out"/>
<feColorMatrix type="matrix" values="0 0 0 0 0 0 0 0 0 0 0 0 0 0 0 0 0 0 0.56 0"/>
<feBlend mode="normal" in2="BackgroundImageFix" result="effect1_dropShadow_1561_35128"/>
<feBlend mode="normal" in="SourceGraphic" in2="effect1_dropShadow_1561_35128" result="shape"/>
<feColorMatrix in="SourceAlpha" type="matrix" values="0 0 0 0 0 0 0 0 0 0 0 0 0 0 0 0 0 0 127 0" result="hardAlpha"/>
<feOffset dx="-1.06351" dy="1.06351"/>
<feGaussianBlur stdDeviation="1.91433"/>
<feComposite in2="hardAlpha" operator="arithmetic" k2="-1" k3="1"/>
<feColorMatrix type="matrix" values="0 0 0 0 1 0 0 0 0 1 0 0 0 0 1 0 0 0 0.09 0"/>
<feBlend mode="normal" in2="shape" result="effect2_innerShadow_1561_35128"/>
</filter>
<filter id="filter22_f_1561_35128" x="41.6543" y="37.2578" width="15.2939" height="18.2514" filterUnits="userSpaceOnUse" color-interpolation-filters="sRGB">
<feFlood flood-opacity="0" result="BackgroundImageFix"/>
<feBlend mode="normal" in="SourceGraphic" in2="BackgroundImageFix" result="shape"/>
<feGaussianBlur stdDeviation="1.22704" result="effect1_foregroundBlur_1561_35128"/>
</filter>
<filter id="filter23_f_1561_35128" x="43.9092" y="57.4951" width="10.4218" height="11.0927" filterUnits="userSpaceOnUse" color-interpolation-filters="sRGB">
<feFlood flood-opacity="0" result="BackgroundImageFix"/>
<feBlend mode="normal" in="SourceGraphic" in2="BackgroundImageFix" result="shape"/>
<feGaussianBlur stdDeviation="1.22704" result="effect1_foregroundBlur_1561_35128"/>
</filter>
<radialGradient id="paint0_radial_1561_35128" cx="0" cy="0" r="1" gradientUnits="userSpaceOnUse" gradientTransform="translate(61.0612 69.6056) rotate(-1.89608) scale(63.7129 19.0224)">
<stop offset="0.288462" stop-color="#E6EDF8"/>
<stop offset="1" stop-color="#656B74"/>
</radialGradient>
<radialGradient id="paint1_radial_1561_35128" cx="0" cy="0" r="1" gradientUnits="userSpaceOnUse" gradientTransform="translate(17.839 68.0339) rotate(24.0355) scale(49.4313 77.0083)">
<stop offset="0.139423" stop-color="#181920"/>
<stop offset="0.668269" stop-color="#181920" stop-opacity="0"/>
</radialGradient>
<radialGradient id="paint2_radial_1561_35128" cx="0" cy="0" r="1" gradientUnits="userSpaceOnUse" gradientTransform="translate(40.1196 55.8765) rotate(90) scale(27.1196)">
<stop stop-color="#494B5A"/>
<stop offset="1" stop-color="#151822"/>
</radialGradient>
<clipPath id="clip0_1561_35128">
<rect width="120" height="120" fill="white" transform="translate(0.5)"/>
</clipPath>
<clipPath id="clip1_1561_35128">
<rect x="10.1533" y="43.3247" width="80.7035" height="80.7035" rx="40.3517" transform="rotate(-17.2473 10.1533 43.3247)" fill="white"/>
</clipPath>
<clipPath id="clip2_1561_35128">
<rect x="55.2383" y="12.1611" width="10.4915" height="10.4915" rx="5.24573" transform="rotate(-11.9361 55.2383 12.1611)" fill="white"/>
</clipPath>
</defs>
</svg>
