<svg width="33" height="32" viewBox="0 0 33 32" fill="none" xmlns="http://www.w3.org/2000/svg">
<path fill-rule="evenodd" clip-rule="evenodd" d="M8.85223 2.03809C8.26071 2.03809 7.67909 2.18886 7.16225 2.47598C6.63597 2.74426 6.19175 3.14977 5.87671 3.64984C5.55713 4.1571 5.3827 4.74226 5.37237 5.3417L5.37222 5.35892V26.679L5.37237 26.6962C5.3827 27.2956 5.55713 27.8808 5.87671 28.388C6.19175 28.8882 6.63597 29.2936 7.16225 29.562C7.67909 29.849 8.26071 29.9998 8.85223 29.9998C9.45213 29.9998 10.0418 29.8448 10.5641 29.5496C10.5756 29.5432 10.587 29.5364 10.5982 29.5294L27.8578 18.8545C28.3812 18.5907 28.823 18.1888 29.1354 17.6919C29.4576 17.1787 29.6288 16.585 29.6288 15.9789C29.6288 15.3729 29.4576 14.7792 29.1354 14.266C28.8228 13.7685 28.3802 13.3663 27.8562 13.1026L10.5954 2.50669C10.5851 2.50037 10.5747 2.49423 10.5641 2.48829C10.0418 2.19317 9.45213 2.03809 8.85223 2.03809Z" fill="#FAFBFE"/>
</svg>
