<svg width="58" height="50" viewBox="0 0 58 50" fill="none" xmlns="http://www.w3.org/2000/svg">
<path d="M34.1859 2L31.2993 7.00012L37.0728 6.99988L34.1859 2ZM34.1861 7.99597L34.6861 7.99595L34.1861 7.99597ZM34.186 6.49698L33.686 6.497L33.6861 7.996L34.1861 7.99597L34.6861 7.99595L34.686 6.49696L34.186 6.49698ZM34.1861 7.99597L33.6861 7.996C33.6861 8.50856 33.6757 9.01945 33.6548 9.5284L34.1544 9.54883L34.654 9.56926C34.6754 9.0467 34.6861 8.52218 34.6861 7.99595L34.1861 7.99597ZM33.9004 12.6437L33.4042 12.5824C33.2783 13.6006 33.1109 14.6088 32.9035 15.6048L33.393 15.7068L33.8825 15.8087C34.0955 14.786 34.2673 13.7507 34.3966 12.705L33.9004 12.6437ZM32.6354 18.7175L32.1559 18.5756C31.8654 19.5577 31.5351 20.525 31.1665 21.4754L31.6326 21.6562L32.0988 21.837C32.4773 20.8611 32.8165 19.8678 33.1148 18.8594L32.6354 18.7175ZM30.3919 24.5025L29.9422 24.284C29.4955 25.2037 29.0115 26.104 28.4917 26.9827L28.922 27.2373L29.3524 27.4919C29.8861 26.5897 30.383 25.6652 30.8417 24.7209L30.3919 24.5025ZM27.2329 29.8425L26.8248 29.5535C26.2347 30.3867 25.6103 31.1959 24.9529 31.979L25.3359 32.3005L25.7188 32.6219C26.3938 31.8179 27.035 30.9869 27.6409 30.1315L27.2329 29.8425ZM23.2436 34.5946L22.8883 34.2428C22.1711 34.9671 21.4228 35.6634 20.6448 36.3294L20.9699 36.7092L21.2951 37.0891C22.094 36.4052 22.8624 35.6902 23.5989 34.9464L23.2436 34.5946ZM18.5304 38.6294L18.2376 38.2241C17.413 38.82 16.5608 39.3841 15.6825 39.9146L15.941 40.3426L16.1995 40.7706C17.1014 40.2259 17.9764 39.6465 18.8233 39.0347L18.5304 38.6294ZM13.2192 41.8374L12.9967 41.3897C12.5405 41.6163 12.0784 41.8344 11.6104 42.0435L11.8145 42.5L12.0185 42.9565C12.4989 42.7418 12.9734 42.5179 13.4417 42.2852L13.2192 41.8374Z" fill="white"/>
</svg>
