<svg width="16" height="16" viewBox="0 0 16 16" fill="none" xmlns="http://www.w3.org/2000/svg">
<path d="M8.22916 1.93816C8.8583 1.30903 9.87832 1.30903 10.5075 1.93816L14.0636 5.49427C14.6927 6.1234 14.6927 7.14343 14.0636 7.77256C13.4344 8.40169 12.4144 8.4017 11.7853 7.77256L11.6544 7.64167L9.70114 9.59491C10.1783 11.2361 9.77059 13.0816 8.47539 14.3768C8.37538 14.4768 8.23972 14.533 8.09827 14.533C7.95682 14.533 7.82117 14.4768 7.72115 14.3768L5.04903 11.7046L2.88442 13.8693C2.67614 14.0775 2.33845 14.0775 2.13017 13.8693C1.92189 13.661 1.92189 13.3233 2.13017 13.115L4.29478 10.9504L1.62496 8.28058C1.41668 8.0723 1.41668 7.73461 1.62496 7.52633C2.92016 6.23113 4.76563 5.8234 6.40681 6.30059L8.36005 4.34734L8.22916 4.21645C7.60003 3.58732 7.60003 2.56729 8.22916 1.93816Z" fill="#40EAE2"/>
</svg>
