<svg width="12" height="12" viewBox="0 0 12 12" fill="none" xmlns="http://www.w3.org/2000/svg">
<path d="M9.78839 1.15856L10.7755 2.10759C10.9826 2.30661 11.1748 2.49137 11.3111 2.663C11.4618 2.85274 11.5958 3.0883 11.5997 3.39115C11.6036 3.694 11.4756 3.93293 11.3299 4.12647C11.198 4.30154 11.0106 4.49118 10.8087 4.69545L10.1345 5.37783L6.57073 1.81406L7.18537 1.19197C7.38734 0.987507 7.57464 0.797894 7.74846 0.663538C7.94102 0.514703 8.17643 0.38529 8.47669 0.381436C8.77694 0.37758 9.0156 0.500906 9.21191 0.644748C9.38913 0.774597 9.58124 0.959341 9.78839 1.15856Z" fill="#40EAE2"/>
<path d="M5.82102 2.57284L1.19267 7.25718L1.16256 7.28755C1.04253 7.40841 0.908207 7.54365 0.821756 7.71636C0.735033 7.8896 0.707694 8.07806 0.683384 8.24563L0.677255 8.28762L0.510231 9.41803C0.454045 9.798 0.403424 10.1403 0.403626 10.4158C0.403846 10.714 0.461724 11.0514 0.735999 11.3151C1.00851 11.5771 1.34717 11.6242 1.64519 11.6169C1.92272 11.61 2.26697 11.5516 2.65159 11.4862L3.79177 11.2927L3.83396 11.2856C4.00351 11.2573 4.19084 11.2259 4.36179 11.1372C4.53325 11.0482 4.66628 10.9129 4.78608 10.7911L4.81587 10.7608L9.38479 6.13661L5.82102 2.57284Z" fill="#40EAE2"/>
</svg>
