<svg width="24" height="24" viewBox="0 0 24 24" fill="none" xmlns="http://www.w3.org/2000/svg">
<path d="M3.54887 6.73325L7.76737 9.36216C9.82591 10.645 10.8552 11.2864 11.9999 11.2863C13.1446 11.2861 14.1737 10.6443 16.2318 9.36081L20.4611 6.72333M11 20H13C16.7712 20 18.6569 20 19.8284 18.8284C21 17.6569 21 15.7712 21 12C21 8.22876 21 6.34315 19.8284 5.17157C18.6569 4 16.7712 4 13 4H11C7.22876 4 5.34315 4 4.17157 5.17157C3 6.34315 3 8.22876 3 12C3 15.7712 3 17.6569 4.17157 18.8284C5.34315 20 7.22876 20 11 20Z" stroke="#FAFBFE" stroke-width="1.6" stroke-linecap="round" stroke-linejoin="round"/>
</svg>
