<svg width="20" height="20" viewBox="0 0 20 20" fill="none" xmlns="http://www.w3.org/2000/svg">
<path d="M14.1684 9.16639L10.835 5.83306M4.45305 12.0725L11.9166 4.51863C12.4688 3.95974 12.7449 3.6803 13.0924 3.67584C13.4399 3.67137 13.7231 3.94364 14.2895 4.48816L15.4671 5.62035C16.0334 6.16488 16.3166 6.43714 16.321 6.77993C16.3254 7.12271 16.0493 7.40215 15.4971 7.96104L8.03359 15.5149C7.84497 15.7058 7.75067 15.8012 7.63311 15.8622C7.51556 15.9232 7.38241 15.9458 7.11613 15.991L5.73663 16.2252C4.69636 16.4018 4.17623 16.4901 3.87002 16.1957C3.56382 15.9013 3.63993 15.3861 3.79217 14.3558L3.99406 12.9894C4.03303 12.7257 4.05251 12.5938 4.11132 12.4763C4.17013 12.3588 4.26444 12.2634 4.45305 12.0725Z" stroke="#A6B4C7" stroke-width="1.25"/>
</svg>
