<svg width="24" height="24" viewBox="0 0 24 24" fill="none" xmlns="http://www.w3.org/2000/svg">
<path d="M12.7992 4.99922C12.7992 4.55739 12.441 4.19922 11.9992 4.19922C11.5574 4.19922 11.1992 4.55739 11.1992 4.99922L11.1992 11.1992H4.99922C4.55739 11.1992 4.19922 11.5574 4.19922 11.9992C4.19922 12.441 4.55739 12.7992 4.99922 12.7992H11.1992L11.1992 18.9992C11.1992 19.441 11.5574 19.7992 11.9992 19.7992C12.441 19.7992 12.7992 19.441 12.7992 18.9992V12.7992H18.9992C19.441 12.7992 19.7992 12.441 19.7992 11.9992C19.7992 11.5574 19.441 11.1992 18.9992 11.1992H12.7992V4.99922Z" fill="#0F1014"/>
</svg>
