<svg width="25" height="24" viewBox="0 0 25 24" fill="none" xmlns="http://www.w3.org/2000/svg">
<path d="M13.4251 9.74359C14.2798 9.46211 14.8345 9.28168 15.2315 9.21253C15.3722 9.18803 15.4596 9.18375 15.5106 9.18554C15.512 9.23662 15.5071 9.32391 15.4816 9.46441C15.4096 9.86099 15.2251 10.4143 14.9375 11.267L14.7455 11.836C14.6545 12.1058 14.5805 12.3207 14.5177 12.4938L12.1827 10.1589C12.3585 10.0964 12.5777 10.0227 12.8547 9.93142L13.4251 9.74359Z" />
<path d="M15.5729 9.19485C15.5723 9.19528 15.5677 9.1943 15.5604 9.1906C15.5698 9.19257 15.5734 9.19442 15.5729 9.19485Z" />
<path d="M15.5059 9.13574C15.5023 9.12844 15.5013 9.12374 15.5018 9.12322C15.5022 9.12271 15.504 9.12636 15.5059 9.13574Z" />
<path d="M11.0513 11.2902L13.3861 13.625C13.2104 13.6875 12.9913 13.7613 12.7143 13.8525L12.144 14.0403C11.2892 14.3218 10.7346 14.5022 10.3375 14.5714C10.1968 14.5959 10.1095 14.6001 10.0584 14.5983C10.057 14.5473 10.0619 14.46 10.0874 14.3195C10.1595 13.9229 10.3439 13.3696 10.6316 12.5169L10.8235 11.9479C10.9146 11.6781 10.9885 11.4633 11.0513 11.2902Z" />
<path d="M9.99619 14.589C9.99671 14.5886 10.0014 14.5896 10.0087 14.5933C9.99931 14.5913 9.99567 14.5895 9.99619 14.589Z" />
<path d="M10.0631 14.6481C10.0668 14.6554 10.0677 14.6601 10.0673 14.6607C10.0669 14.6612 10.065 14.6575 10.0631 14.6481Z" />
<path fill-rule="evenodd" clip-rule="evenodd" d="M2.8252 11.9992C2.8252 6.58683 7.2128 2.19922 12.6252 2.19922C18.0376 2.19922 22.4252 6.58683 22.4252 11.9992C22.4252 17.4116 18.0376 21.7992 12.6252 21.7992C7.2128 21.7992 2.8252 17.4116 2.8252 11.9992ZM16.6647 8.03981C16.1588 7.53023 15.4919 7.54311 14.957 7.63625C14.43 7.72804 13.7622 7.94799 12.985 8.20399L12.2108 8.45881C11.421 8.71781 10.7798 8.92805 10.3075 9.39693C9.83525 9.86581 9.62036 10.5054 9.35565 11.2933L9.09522 12.0657C8.8336 12.841 8.60881 13.5072 8.5132 14.0335C8.41618 14.5677 8.39847 15.2345 8.90437 15.7441C9.41028 16.2537 10.0772 16.2408 10.612 16.1476C11.1391 16.0558 11.8068 15.8359 12.5841 15.5799L13.3583 15.3251C14.1481 15.0661 14.7892 14.8558 15.2615 14.387C15.7338 13.9181 15.9487 13.2785 16.2134 12.4905L16.4738 11.7182C16.7355 10.9429 16.9602 10.2767 17.0559 9.75035C17.1529 9.21618 17.1706 8.54939 16.6647 8.03981Z" 
/>
</svg>
