<svg width="25" height="24" viewBox="0 0 25 24" fill="none" xmlns="http://www.w3.org/2000/svg">
<path fill-rule="evenodd" clip-rule="evenodd" d="M11.5652 2.56803C11.9748 2.35009 12.393 2.19922 12.8742 2.19922C13.3555 2.19922 13.7737 2.35009 14.1832 2.56803C14.5669 2.77219 15.0009 3.06825 15.5092 3.41488L18.7941 5.65509C19.6393 6.23144 20.3192 6.69513 20.8434 7.12955C21.3871 7.58027 21.8073 8.03405 22.1098 8.61217C22.4118 9.1895 22.5471 9.79645 22.6118 10.506C22.6742 11.1914 22.6742 12.0259 22.6742 13.0661V16.9615C22.6743 17.8798 22.6743 18.6471 22.5942 19.2566C22.5097 19.8992 22.3236 20.4855 21.8605 20.9592C21.395 21.4354 20.8145 21.6293 20.1778 21.7169C19.5784 21.7993 18.8252 21.7993 17.9301 21.7992H7.81829C6.9232 21.7993 6.17003 21.7993 5.57068 21.7169C4.93398 21.6293 4.35347 21.4354 3.88794 20.9592C3.42489 20.4855 3.23872 19.8992 3.15427 19.2566C3.07417 18.6471 3.07419 17.8799 3.07422 16.9616V10.8798C3.07421 10.3728 3.07419 9.93972 3.10711 9.57863C3.1422 9.19365 3.2183 8.83377 3.40202 8.48261C3.58616 8.13066 3.83818 7.86429 4.1344 7.61877C4.41108 7.38943 4.7645 7.14843 5.17612 6.86774L10.2393 3.41488C10.7475 3.06826 11.1816 2.77219 11.5652 2.56803ZM9.87422 16.1992C9.43239 16.1992 9.07422 16.5574 9.07422 16.9992C9.07422 17.441 9.43239 17.7992 9.87422 17.7992H15.8742C16.316 17.7992 16.6742 17.441 16.6742 16.9992C16.6742 16.5574 16.316 16.1992 15.8742 16.1992L9.87422 16.1992Z" />
</svg>
