<svg width="40" height="40" viewBox="0 0 40 40" fill="none" xmlns="http://www.w3.org/2000/svg">
<path d="M21.332 8.33187C21.332 7.59549 20.735 6.99854 19.9987 6.99854C19.2623 6.99854 18.6653 7.59549 18.6653 8.33187L18.6653 18.6652H8.33199C7.59561 18.6652 6.99866 19.2622 6.99866 19.9985C6.99866 20.7349 7.59561 21.3319 8.33199 21.3319H18.6653L18.6653 31.6652C18.6653 32.4016 19.2623 32.9985 19.9987 32.9985C20.735 32.9985 21.332 32.4016 21.332 31.6652V21.3319H31.6653C32.4017 21.3319 32.9987 20.7349 32.9987 19.9985C32.9987 19.2622 32.4017 18.6652 31.6653 18.6652H21.332V8.33187Z" fill="#5D646F"/>
</svg>
