<svg width="33" height="32" viewBox="0 0 33 32" fill="none" xmlns="http://www.w3.org/2000/svg">
<path d="M9.21943 2.93213H9.1115C8.22119 2.93211 7.47326 2.93209 6.86674 2.99379C6.23018 3.05854 5.63211 3.19998 5.09134 3.56131C4.68369 3.83369 4.33369 4.18369 4.06131 4.59134C3.69998 5.13211 3.55854 5.73018 3.49379 6.36674C3.43209 6.97326 3.43211 7.72115 3.43213 8.61146V23.3861C3.43211 24.2764 3.43209 25.0243 3.49379 25.6308C3.55854 26.2674 3.69998 26.8655 4.06131 27.4063C4.33369 27.8139 4.68369 28.1639 5.09134 28.4363C5.63211 28.7976 6.23018 28.9391 6.86674 29.0038C7.47327 29.0655 8.22117 29.0655 9.1115 29.0655H9.21943C10.1098 29.0655 10.8577 29.0655 11.4642 29.0038C12.1008 28.9391 12.6988 28.7976 13.2396 28.4363C13.6472 28.1639 13.9972 27.8139 14.2696 27.4063C14.631 26.8655 14.7724 26.2674 14.8371 25.6309C14.8988 25.0243 14.8988 24.2764 14.8988 23.3861V8.6115C14.8988 7.72118 14.8988 6.97327 14.8371 6.36674C14.7724 5.73018 14.631 5.13211 14.2696 4.59134C13.9972 4.18369 13.6472 3.83369 13.2396 3.56131C12.6988 3.19998 12.1008 3.05854 11.4642 2.99379C10.8577 2.93209 10.1097 2.93211 9.21943 2.93213Z" fill="#FAFBFE"/>
<path d="M23.8864 2.93213H23.7785C22.8882 2.93211 22.1402 2.93209 21.5337 2.99379C20.8972 3.05854 20.2991 3.19998 19.7583 3.56131C19.3507 3.83369 19.0007 4.18369 18.7283 4.59134C18.367 5.13211 18.2255 5.73018 18.1608 6.36675C18.0991 6.97326 18.0991 7.72116 18.0991 8.61147V23.3861C18.0991 24.2764 18.0991 25.0243 18.1608 25.6308C18.2255 26.2674 18.367 26.8655 18.7283 27.4063C19.0007 27.8139 19.3507 28.1639 19.7583 28.4363C20.2991 28.7976 20.8972 28.9391 21.5337 29.0038C22.1403 29.0655 22.8882 29.0655 23.7785 29.0655H23.8864C24.7767 29.0655 25.5247 29.0655 26.1312 29.0038C26.7677 28.9391 27.3658 28.7976 27.9066 28.4363C28.3142 28.1639 28.6642 27.8139 28.9366 27.4063C29.2979 26.8655 29.4394 26.2674 29.5041 25.6309C29.5658 25.0243 29.5658 24.2765 29.5658 23.3862V8.6115C29.5658 7.7212 29.5658 6.97326 29.5041 6.36675C29.4394 5.73018 29.2979 5.13211 28.9366 4.59134C28.6642 4.18369 28.3142 3.83369 27.9066 3.56131C27.3658 3.19998 26.7677 3.05854 26.1312 2.99379C25.5247 2.93209 24.7767 2.93211 23.8864 2.93213Z" fill="#FAFBFE"/>
</svg>
