<svg width="20" height="20" viewBox="0 0 20 20" fill="none" xmlns="http://www.w3.org/2000/svg">
<path d="M4 5.50006V4.87506H3.375V5.50006H4ZM16 5.50006H16.625V4.87506H16V5.50006ZM2.5 4.87506C2.15482 4.87506 1.875 5.15488 1.875 5.50006C1.875 5.84523 2.15482 6.12506 2.5 6.12506V5.50006V4.87506ZM17.5 5.50006V6.12506C17.8452 6.12506 18.125 5.84524 18.125 5.50006C18.125 5.15488 17.8452 4.87506 17.5 4.87506L17.5 5.50006ZM9.12498 9.25003C9.12498 8.90485 8.84516 8.62503 8.49998 8.62503C8.1548 8.62503 7.87498 8.90485 7.87498 9.25003H8.49998H9.12498ZM7.87498 13.75C7.87498 14.0952 8.1548 14.375 8.49998 14.375C8.84516 14.375 9.12498 14.0952 9.12498 13.75H8.49998H7.87498ZM12.1251 9.25003C12.1251 8.90485 11.8452 8.62503 11.5001 8.62503C11.1549 8.62503 10.8751 8.90485 10.8751 9.25003H11.5001H12.1251ZM10.8751 13.75C10.8751 14.0952 11.1549 14.375 11.5001 14.375C11.8452 14.375 12.1251 14.0952 12.1251 13.75H11.5001H10.8751ZM4 5.50006V6.12506H16V5.50006V4.87506H4V5.50006ZM16 5.50006H15.375V12.5001H16H16.625V5.50006H16ZM11 17.5001V16.8751H9V17.5001V18.1251H11V17.5001ZM4 12.5001H4.625V5.50006H4H3.375V12.5001H4ZM9 17.5001V16.8751C7.80382 16.8751 6.96956 16.8737 6.3401 16.7891C5.72862 16.7069 5.40481 16.5565 5.17418 16.3259L4.73223 16.7678L4.29029 17.2098C4.79189 17.7114 5.42345 17.9271 6.17354 18.028C6.90565 18.1264 7.83916 18.1251 9 18.1251V17.5001ZM4 12.5001H3.375C3.375 13.6609 3.37367 14.5944 3.4721 15.3265C3.57295 16.0766 3.78869 16.7082 4.29029 17.2098L4.73223 16.7678L5.17418 16.3259C4.94354 16.0952 4.79317 15.7714 4.71096 15.16C4.62633 14.5305 4.625 13.6962 4.625 12.5001H4ZM16 12.5001H15.375C15.375 13.6962 15.3737 14.5305 15.289 15.16C15.2068 15.7714 15.0565 16.0952 14.8258 16.3259L15.2678 16.7678L15.7097 17.2098C16.2113 16.7082 16.427 16.0766 16.5279 15.3265C16.6263 14.5944 16.625 13.6609 16.625 12.5001H16ZM11 17.5001V18.1251C12.1608 18.1251 13.0943 18.1264 13.8265 18.028C14.5765 17.9271 15.2081 17.7114 15.7097 17.2098L15.2678 16.7678L14.8258 16.3259C14.5952 16.5565 14.2714 16.7069 13.6599 16.7891C13.0304 16.8737 12.1962 16.8751 11 16.8751V17.5001ZM2.5 5.50006V6.12506H17.5V5.50006V4.87506H2.5V5.50006ZM6.24997 5.5H6.87497V4.16667H6.24997H5.62497V5.5H6.24997ZM7.91664 2.5V3.125H12.0833V2.5V1.875H7.91664V2.5ZM13.75 4.16667H13.125V5.5H13.75H14.375V4.16667H13.75ZM12.0833 2.5V3.125C12.6586 3.125 13.125 3.59137 13.125 4.16667H13.75H14.375C14.375 2.90102 13.349 1.875 12.0833 1.875V2.5ZM6.24997 4.16667H6.87497C6.87497 3.59137 7.34134 3.125 7.91664 3.125V2.5V1.875C6.65099 1.875 5.62497 2.90101 5.62497 4.16667H6.24997ZM2.5 5.50006L2.5 6.12506C4.6967 6.12504 6.41084 6.12504 8.12499 6.12503C9.83914 6.12502 11.5533 6.12501 13.75 6.125L13.75 5.5L13.75 4.875C11.5533 4.87501 9.83913 4.87502 8.12498 4.87503C6.41084 4.87504 4.69669 4.87504 2.5 4.87506L2.5 5.50006ZM13.75 5.5L13.75 6.125L17.5 6.12506L17.5 5.50006L17.5 4.87506L13.75 4.875L13.75 5.5ZM8.49998 9.25003H7.87498V13.75H8.49998H9.12498V9.25003H8.49998ZM11.5001 9.25003H10.8751V13.75H11.5001H12.1251V9.25003H11.5001Z" fill="#A6B4C7"/>
</svg>
