<svg width="13" height="12" viewBox="0 0 13 12" fill="none" xmlns="http://www.w3.org/2000/svg">
<path d="M3.88008 11H9.12008C10.5001 11 11.0501 10.155 11.1151 9.125L11.3751 4.995C11.4451 3.915 10.5851 3 9.50008 3C9.19508 3 8.91508 2.825 8.77508 2.555L8.41508 1.83C8.18508 1.375 7.58508 1 7.07508 1H5.93008C5.41508 1 4.81508 1.375 4.58508 1.83L4.22508 2.555C4.08508 2.825 3.80508 3 3.50008 3C2.41508 3 1.55508 3.915 1.62508 4.995L1.88508 9.125C1.94508 10.155 2.50008 11 3.88008 11Z" stroke="#A6B4C7" stroke-width="0.75" stroke-linecap="round" stroke-linejoin="round"/>
<path d="M5.75 4H7.25" stroke="#A6B4C7" stroke-width="0.75" stroke-linecap="round" stroke-linejoin="round"/>
<path d="M6.5 9C7.395 9 8.125 8.27 8.125 7.375C8.125 6.48 7.395 5.75 6.5 5.75C5.605 5.75 4.875 6.48 4.875 7.375C4.875 8.27 5.605 9 6.5 9Z" stroke="#A6B4C7" stroke-width="0.75" stroke-linecap="round" stroke-linejoin="round"/>
</svg>
